%TF.GenerationSoftware,KiCad,Pcbnew,(6.0.6)*%
%TF.CreationDate,2022-07-29T16:28:39-07:00*%
%TF.ProjectId,ubitx power supply,75626974-7820-4706-9f77-657220737570,rev?*%
%TF.SameCoordinates,Original*%
%TF.FileFunction,Copper,L1,Top*%
%TF.FilePolarity,Positive*%
%FSLAX46Y46*%
G04 Gerber Fmt 4.6, Leading zero omitted, Abs format (unit mm)*
G04 Created by KiCad (PCBNEW (6.0.6)) date 2022-07-29 16:28:39*
%MOMM*%
%LPD*%
G01*
G04 APERTURE LIST*
G04 Aperture macros list*
%AMRoundRect*
0 Rectangle with rounded corners*
0 $1 Rounding radius*
0 $2 $3 $4 $5 $6 $7 $8 $9 X,Y pos of 4 corners*
0 Add a 4 corners polygon primitive as box body*
4,1,4,$2,$3,$4,$5,$6,$7,$8,$9,$2,$3,0*
0 Add four circle primitives for the rounded corners*
1,1,$1+$1,$2,$3*
1,1,$1+$1,$4,$5*
1,1,$1+$1,$6,$7*
1,1,$1+$1,$8,$9*
0 Add four rect primitives between the rounded corners*
20,1,$1+$1,$2,$3,$4,$5,0*
20,1,$1+$1,$4,$5,$6,$7,0*
20,1,$1+$1,$6,$7,$8,$9,0*
20,1,$1+$1,$8,$9,$2,$3,0*%
G04 Aperture macros list end*
%TA.AperFunction,ComponentPad*%
%ADD10R,1.600000X1.600000*%
%TD*%
%TA.AperFunction,ComponentPad*%
%ADD11C,1.600000*%
%TD*%
%TA.AperFunction,ComponentPad*%
%ADD12R,2.000000X1.905000*%
%TD*%
%TA.AperFunction,ComponentPad*%
%ADD13O,2.000000X1.905000*%
%TD*%
%TA.AperFunction,ComponentPad*%
%ADD14R,2.500000X2.500000*%
%TD*%
%TA.AperFunction,ComponentPad*%
%ADD15C,2.500000*%
%TD*%
%TA.AperFunction,ComponentPad*%
%ADD16C,6.400000*%
%TD*%
%TA.AperFunction,ComponentPad*%
%ADD17R,1.905000X2.000000*%
%TD*%
%TA.AperFunction,ComponentPad*%
%ADD18O,1.905000X2.000000*%
%TD*%
%TA.AperFunction,ComponentPad*%
%ADD19RoundRect,0.250000X0.845000X-0.620000X0.845000X0.620000X-0.845000X0.620000X-0.845000X-0.620000X0*%
%TD*%
%TA.AperFunction,ComponentPad*%
%ADD20O,2.190000X1.740000*%
%TD*%
%TA.AperFunction,ComponentPad*%
%ADD21RoundRect,0.250000X-0.620000X-0.845000X0.620000X-0.845000X0.620000X0.845000X-0.620000X0.845000X0*%
%TD*%
%TA.AperFunction,ComponentPad*%
%ADD22O,1.740000X2.190000*%
%TD*%
%TA.AperFunction,ComponentPad*%
%ADD23R,1.700000X1.700000*%
%TD*%
%TA.AperFunction,ComponentPad*%
%ADD24O,1.700000X1.700000*%
%TD*%
%TA.AperFunction,ViaPad*%
%ADD25C,1.501140*%
%TD*%
%TA.AperFunction,Conductor*%
%ADD26C,1.270000*%
%TD*%
G04 APERTURE END LIST*
D10*
%TO.P,C2,1*%
%TO.N,Net-(C1-Pad1)*%
X136271000Y-94298888D03*
D11*
%TO.P,C2,2*%
%TO.N,GND*%
X136271000Y-96798888D03*
%TD*%
D12*
%TO.P,Q1,1,G*%
%TO.N,GND*%
X112776000Y-100457000D03*
D13*
%TO.P,Q1,2,D*%
%TO.N,+12V*%
X112776000Y-97917000D03*
%TO.P,Q1,3,S*%
%TO.N,Net-(C1-Pad1)*%
X112776000Y-95377000D03*
%TD*%
D10*
%TO.P,C4,1*%
%TO.N,Net-(C4-Pad1)*%
X125349000Y-94679888D03*
D11*
%TO.P,C4,2*%
%TO.N,GND*%
X125349000Y-97179888D03*
%TD*%
D14*
%TO.P,J3,1,Pin_1*%
%TO.N,GND*%
X155862000Y-68152000D03*
D15*
%TO.P,J3,2,Pin_2*%
X155862000Y-73152000D03*
%TO.P,J3,3,Pin_3*%
X155862000Y-78152000D03*
%TO.P,J3,4,Pin_4*%
X155862000Y-83152000D03*
%TO.P,J3,5,Pin_5*%
X155862000Y-88152000D03*
%TD*%
D16*
%TO.P,REF\u002A\u002A,1*%
%TO.N,GND*%
X107807000Y-109449000D03*
%TD*%
D17*
%TO.P,U1,1,VI*%
%TO.N,Net-(C1-Pad1)*%
X128397000Y-76075224D03*
D18*
%TO.P,U1,2,GND*%
%TO.N,GND*%
X130937000Y-76075224D03*
%TO.P,U1,3,VO*%
%TO.N,Net-(C3-Pad1)*%
X133477000Y-76075224D03*
%TD*%
D14*
%TO.P,J4,1,Pin_1*%
%TO.N,Net-(C4-Pad1)*%
X155862000Y-95838000D03*
D15*
%TO.P,J4,2,Pin_2*%
X155862000Y-100838000D03*
%TO.P,J4,3,Pin_3*%
X155862000Y-105838000D03*
%TD*%
D19*
%TO.P,J1,1,Pin_1*%
%TO.N,+12V*%
X112141000Y-87757000D03*
D20*
%TO.P,J1,2,Pin_2*%
%TO.N,PA Power*%
X112141000Y-85217000D03*
%TO.P,J1,3,Pin_3*%
%TO.N,GND*%
X112141000Y-82677000D03*
%TD*%
D16*
%TO.P,REF\u002A\u002A,1*%
%TO.N,GND*%
X107807000Y-63374000D03*
%TD*%
D21*
%TO.P,J5,1,Pin_1*%
%TO.N,Net-(C1-Pad1)*%
X118237000Y-65044000D03*
D22*
%TO.P,J5,2,Pin_2*%
%TO.N,Net-(J5-Pad2)*%
X120777000Y-65044000D03*
%TO.P,J5,3,Pin_3*%
%TO.N,GND*%
X123317000Y-65044000D03*
%TD*%
D10*
%TO.P,C1,1*%
%TO.N,Net-(C1-Pad1)*%
X125349000Y-87122000D03*
D11*
%TO.P,C1,2*%
%TO.N,GND*%
X125349000Y-89622000D03*
%TD*%
D16*
%TO.P,REF\u002A\u002A,1*%
%TO.N,GND*%
X162815000Y-63374000D03*
%TD*%
D10*
%TO.P,C3,1*%
%TO.N,Net-(C3-Pad1)*%
X136271000Y-87122000D03*
D11*
%TO.P,C3,2*%
%TO.N,GND*%
X136271000Y-89622000D03*
%TD*%
D23*
%TO.P,JP1,1,A*%
%TO.N,Net-(C1-Pad1)*%
X110363000Y-72898000D03*
D24*
%TO.P,JP1,2,C*%
%TO.N,Net-(J5-Pad2)*%
X112903000Y-72898000D03*
%TO.P,JP1,3,B*%
%TO.N,PA Power*%
X115443000Y-72898000D03*
%TD*%
D17*
%TO.P,U2,1,VI*%
%TO.N,Net-(C1-Pad1)*%
X133477000Y-107276224D03*
D18*
%TO.P,U2,2,GND*%
%TO.N,GND*%
X130937000Y-107276224D03*
%TO.P,U2,3,VO*%
%TO.N,Net-(C4-Pad1)*%
X128397000Y-107276224D03*
%TD*%
D16*
%TO.P,REF\u002A\u002A,1*%
%TO.N,GND*%
X162815000Y-109449000D03*
%TD*%
D14*
%TO.P,J2,1,Pin_1*%
%TO.N,Net-(C3-Pad1)*%
X132842000Y-62722000D03*
D15*
%TO.P,J2,2,Pin_2*%
X137842000Y-62722000D03*
%TO.P,J2,3,Pin_3*%
X142842000Y-62722000D03*
%TD*%
D25*
%TO.N,GND*%
X134874000Y-111887000D03*
X129540000Y-92202000D03*
X142875000Y-81280000D03*
X130429000Y-82550000D03*
X121920000Y-110998000D03*
X144272000Y-89789000D03*
X163957000Y-75311000D03*
X114300000Y-108712000D03*
X154432000Y-61849000D03*
X119761000Y-95377000D03*
X120904000Y-101854000D03*
X144018000Y-73152000D03*
X106299000Y-69215000D03*
X105664000Y-101346000D03*
X164211000Y-83439000D03*
X163703000Y-69723000D03*
X105791000Y-84455000D03*
X163957000Y-94361000D03*
X120904000Y-81534000D03*
X112268000Y-61722000D03*
X120904000Y-76200000D03*
X110363000Y-67056000D03*
X139319000Y-77343000D03*
X164084000Y-101854000D03*
X140843000Y-101981000D03*
%TD*%
D26*
%TO.N,Net-(C1-Pad1)*%
X112776000Y-95377000D02*
X120904000Y-87249000D01*
X125349000Y-80123224D02*
X128397000Y-77075224D01*
X133477000Y-106276224D02*
X133477000Y-97092888D01*
X125349000Y-87122000D02*
X125349000Y-80123224D01*
X129094112Y-87122000D02*
X136271000Y-94298888D01*
X125349000Y-87122000D02*
X129094112Y-87122000D01*
X133477000Y-97092888D02*
X136271000Y-94298888D01*
X118237000Y-65044000D02*
X118237000Y-64947766D01*
X120954766Y-62230000D02*
X123952000Y-62230000D01*
X121285000Y-87122000D02*
X125349000Y-87122000D01*
X128397000Y-66675000D02*
X128397000Y-77075224D01*
X123952000Y-62230000D02*
X128397000Y-66675000D01*
X110383000Y-72898000D02*
X118237000Y-65044000D01*
X121158000Y-87249000D02*
X121285000Y-87122000D01*
X118237000Y-64947766D02*
X120954766Y-62230000D01*
X120904000Y-87249000D02*
X121158000Y-87249000D01*
X110363000Y-72898000D02*
X110383000Y-72898000D01*
%TO.N,Net-(C3-Pad1)*%
X132842000Y-62722000D02*
X137842000Y-62722000D01*
X137842000Y-62722000D02*
X142842000Y-62722000D01*
X133477000Y-63357000D02*
X132842000Y-62722000D01*
X136271000Y-87122000D02*
X136271000Y-79869224D01*
X133477000Y-77075224D02*
X133477000Y-63357000D01*
X136271000Y-79869224D02*
X133477000Y-77075224D01*
%TO.N,Net-(C4-Pad1)*%
X128397000Y-97727888D02*
X128397000Y-108451224D01*
X130810000Y-109982000D02*
X152400000Y-109982000D01*
X128397000Y-108451224D02*
X130810000Y-109982000D01*
X125349000Y-94679888D02*
X128397000Y-97727888D01*
X155862000Y-100838000D02*
X155862000Y-95838000D01*
X152400000Y-109982000D02*
X155862000Y-105838000D01*
X155862000Y-105838000D02*
X155862000Y-100838000D01*
%TO.N,+12V*%
X112141000Y-87757000D02*
X109982000Y-89916000D01*
X109982000Y-95885000D02*
X112014000Y-97917000D01*
X109982000Y-89916000D02*
X109982000Y-95885000D01*
X112014000Y-97917000D02*
X112776000Y-97917000D01*
%TO.N,PA Power*%
X112141000Y-85217000D02*
X112237234Y-85217000D01*
X112237234Y-85217000D02*
X115443000Y-82011234D01*
X115443000Y-82011234D02*
X115443000Y-72898000D01*
%TO.N,Net-(J5-Pad2)*%
X119306422Y-66974000D02*
X120777000Y-65503422D01*
X116459000Y-69215000D02*
X119306422Y-66974000D01*
X120777000Y-65503422D02*
X120777000Y-65044000D01*
X112903000Y-72898000D02*
X116459000Y-69215000D01*
%TD*%
%TA.AperFunction,Conductor*%
%TO.N,GND*%
G36*
X106711657Y-59610502D02*
G01*
X106758150Y-59664158D01*
X106768254Y-59734432D01*
X106738760Y-59799012D01*
X106676148Y-59838206D01*
X106662798Y-59841783D01*
X106656502Y-59843829D01*
X106299836Y-59980740D01*
X106293811Y-59983422D01*
X105953397Y-60156872D01*
X105947687Y-60160169D01*
X105627265Y-60368253D01*
X105621939Y-60372123D01*
X105383165Y-60565478D01*
X105374700Y-60577733D01*
X105381034Y-60588824D01*
X107794188Y-63001978D01*
X107808132Y-63009592D01*
X107809965Y-63009461D01*
X107816580Y-63005210D01*
X110232100Y-60589690D01*
X110239241Y-60576614D01*
X110231784Y-60566247D01*
X109992065Y-60372126D01*
X109986728Y-60368249D01*
X109666315Y-60160170D01*
X109660606Y-60156873D01*
X109320189Y-59983422D01*
X109314164Y-59980740D01*
X108957498Y-59843829D01*
X108951202Y-59841783D01*
X108937852Y-59838206D01*
X108877230Y-59801255D01*
X108846208Y-59737394D01*
X108854637Y-59666899D01*
X108899841Y-59612153D01*
X108970464Y-59590500D01*
X161651536Y-59590500D01*
X161719657Y-59610502D01*
X161766150Y-59664158D01*
X161776254Y-59734432D01*
X161746760Y-59799012D01*
X161684148Y-59838206D01*
X161670798Y-59841783D01*
X161664502Y-59843829D01*
X161307836Y-59980740D01*
X161301811Y-59983422D01*
X160961397Y-60156872D01*
X160955687Y-60160169D01*
X160635265Y-60368253D01*
X160629939Y-60372123D01*
X160391165Y-60565478D01*
X160382700Y-60577733D01*
X160389034Y-60588824D01*
X162802188Y-63001978D01*
X162816132Y-63009592D01*
X162817965Y-63009461D01*
X162824580Y-63005210D01*
X165240100Y-60589690D01*
X165247241Y-60576614D01*
X165239784Y-60566247D01*
X165000065Y-60372126D01*
X164994728Y-60368249D01*
X164674315Y-60160170D01*
X164668606Y-60156873D01*
X164328189Y-59983422D01*
X164322164Y-59980740D01*
X163965498Y-59843829D01*
X163959202Y-59841783D01*
X163945852Y-59838206D01*
X163885230Y-59801255D01*
X163854208Y-59737394D01*
X163862637Y-59666899D01*
X163907841Y-59612153D01*
X163978464Y-59590500D01*
X166181500Y-59590500D01*
X166249621Y-59610502D01*
X166296114Y-59664158D01*
X166307500Y-59716500D01*
X166307500Y-61536017D01*
X166287498Y-61604138D01*
X166233842Y-61650631D01*
X166163568Y-61660735D01*
X166098988Y-61631241D01*
X166069233Y-61593220D01*
X166032128Y-61520398D01*
X166028831Y-61514687D01*
X165820747Y-61194265D01*
X165816877Y-61188939D01*
X165623522Y-60950165D01*
X165611267Y-60941700D01*
X165600176Y-60948034D01*
X163187022Y-63361188D01*
X163179408Y-63375132D01*
X163179539Y-63376965D01*
X163183790Y-63383580D01*
X165599310Y-65799100D01*
X165612386Y-65806241D01*
X165622753Y-65798784D01*
X165816877Y-65559061D01*
X165820747Y-65553735D01*
X166028831Y-65233313D01*
X166032128Y-65227602D01*
X166069233Y-65154780D01*
X166117982Y-65103165D01*
X166186897Y-65086099D01*
X166254098Y-65109000D01*
X166298250Y-65164598D01*
X166307500Y-65211983D01*
X166307500Y-107611017D01*
X166287498Y-107679138D01*
X166233842Y-107725631D01*
X166163568Y-107735735D01*
X166098988Y-107706241D01*
X166069233Y-107668220D01*
X166032128Y-107595398D01*
X166028831Y-107589687D01*
X165820747Y-107269265D01*
X165816877Y-107263939D01*
X165623522Y-107025165D01*
X165611267Y-107016700D01*
X165600176Y-107023034D01*
X163187022Y-109436188D01*
X163179408Y-109450132D01*
X163179539Y-109451965D01*
X163183790Y-109458580D01*
X165599310Y-111874100D01*
X165612386Y-111881241D01*
X165622753Y-111873784D01*
X165816877Y-111634061D01*
X165820747Y-111628735D01*
X166028831Y-111308313D01*
X166032128Y-111302602D01*
X166069233Y-111229780D01*
X166117982Y-111178165D01*
X166186897Y-111161099D01*
X166254098Y-111184000D01*
X166298250Y-111239598D01*
X166307500Y-111286983D01*
X166307500Y-113447500D01*
X166287498Y-113515621D01*
X166233842Y-113562114D01*
X166181500Y-113573500D01*
X104450500Y-113573500D01*
X104382379Y-113553498D01*
X104335886Y-113499842D01*
X104324500Y-113447500D01*
X104324500Y-112246386D01*
X105374759Y-112246386D01*
X105382216Y-112256753D01*
X105621935Y-112450874D01*
X105627272Y-112454751D01*
X105947685Y-112662830D01*
X105953394Y-112666127D01*
X106293811Y-112839578D01*
X106299836Y-112842260D01*
X106656502Y-112979171D01*
X106662784Y-112981212D01*
X107031816Y-113080094D01*
X107038266Y-113081465D01*
X107415629Y-113141234D01*
X107422167Y-113141920D01*
X107803699Y-113161916D01*
X107810301Y-113161916D01*
X108191833Y-113141920D01*
X108198371Y-113141234D01*
X108575734Y-113081465D01*
X108582184Y-113080094D01*
X108951216Y-112981212D01*
X108957498Y-112979171D01*
X109314164Y-112842260D01*
X109320189Y-112839578D01*
X109660606Y-112666127D01*
X109666315Y-112662830D01*
X109986728Y-112454751D01*
X109992065Y-112450874D01*
X110230835Y-112257522D01*
X110238527Y-112246386D01*
X160382759Y-112246386D01*
X160390216Y-112256753D01*
X160629935Y-112450874D01*
X160635272Y-112454751D01*
X160955685Y-112662830D01*
X160961394Y-112666127D01*
X161301811Y-112839578D01*
X161307836Y-112842260D01*
X161664502Y-112979171D01*
X161670784Y-112981212D01*
X162039816Y-113080094D01*
X162046266Y-113081465D01*
X162423629Y-113141234D01*
X162430167Y-113141920D01*
X162811699Y-113161916D01*
X162818301Y-113161916D01*
X163199833Y-113141920D01*
X163206371Y-113141234D01*
X163583734Y-113081465D01*
X163590184Y-113080094D01*
X163959216Y-112981212D01*
X163965498Y-112979171D01*
X164322164Y-112842260D01*
X164328189Y-112839578D01*
X164668606Y-112666127D01*
X164674315Y-112662830D01*
X164994728Y-112454751D01*
X165000065Y-112450874D01*
X165238835Y-112257522D01*
X165247300Y-112245267D01*
X165240966Y-112234176D01*
X162827812Y-109821022D01*
X162813868Y-109813408D01*
X162812035Y-109813539D01*
X162805420Y-109817790D01*
X160389900Y-112233310D01*
X160382759Y-112246386D01*
X110238527Y-112246386D01*
X110239300Y-112245267D01*
X110232966Y-112234176D01*
X107819812Y-109821022D01*
X107805868Y-109813408D01*
X107804035Y-109813539D01*
X107797420Y-109817790D01*
X105381900Y-112233310D01*
X105374759Y-112246386D01*
X104324500Y-112246386D01*
X104324500Y-111306609D01*
X104344502Y-111238488D01*
X104398158Y-111191995D01*
X104468432Y-111181891D01*
X104533012Y-111211385D01*
X104562767Y-111249406D01*
X104589872Y-111302602D01*
X104593169Y-111308313D01*
X104801253Y-111628735D01*
X104805123Y-111634061D01*
X104998478Y-111872835D01*
X105010733Y-111881300D01*
X105021824Y-111874966D01*
X107434978Y-109461812D01*
X107441356Y-109450132D01*
X108171408Y-109450132D01*
X108171539Y-109451965D01*
X108175790Y-109458580D01*
X110591310Y-111874100D01*
X110604386Y-111881241D01*
X110614753Y-111873784D01*
X110808877Y-111634061D01*
X110812747Y-111628735D01*
X111020831Y-111308313D01*
X111024128Y-111302603D01*
X111197578Y-110962189D01*
X111200260Y-110956164D01*
X111337171Y-110599498D01*
X111339212Y-110593216D01*
X111438094Y-110224184D01*
X111439465Y-110217734D01*
X111499234Y-109840371D01*
X111499920Y-109833833D01*
X111519916Y-109452301D01*
X111519916Y-109445699D01*
X111499920Y-109064167D01*
X111499234Y-109057629D01*
X111439465Y-108680266D01*
X111438094Y-108673816D01*
X111339212Y-108304784D01*
X111337171Y-108298502D01*
X111200260Y-107941836D01*
X111197578Y-107935811D01*
X111024128Y-107595397D01*
X111020831Y-107589687D01*
X110812747Y-107269265D01*
X110808877Y-107263939D01*
X110615522Y-107025165D01*
X110603267Y-107016700D01*
X110592176Y-107023034D01*
X108179022Y-109436188D01*
X108171408Y-109450132D01*
X107441356Y-109450132D01*
X107442592Y-109447868D01*
X107442461Y-109446035D01*
X107438210Y-109439420D01*
X105022690Y-107023900D01*
X105009614Y-107016759D01*
X104999247Y-107024216D01*
X104805123Y-107263939D01*
X104801253Y-107269265D01*
X104593169Y-107589687D01*
X104589872Y-107595398D01*
X104562767Y-107648594D01*
X104514018Y-107700209D01*
X104445103Y-107717275D01*
X104377902Y-107694374D01*
X104333750Y-107638776D01*
X104324500Y-107591391D01*
X104324500Y-106652733D01*
X105374700Y-106652733D01*
X105381034Y-106663824D01*
X107794188Y-109076978D01*
X107808132Y-109084592D01*
X107809965Y-109084461D01*
X107816580Y-109080210D01*
X110232100Y-106664690D01*
X110239241Y-106651614D01*
X110231784Y-106641247D01*
X109992065Y-106447126D01*
X109986728Y-106443249D01*
X109666315Y-106235170D01*
X109660606Y-106231873D01*
X109320189Y-106058422D01*
X109314164Y-106055740D01*
X108957498Y-105918829D01*
X108951216Y-105916788D01*
X108582184Y-105817906D01*
X108575734Y-105816535D01*
X108198371Y-105756766D01*
X108191833Y-105756080D01*
X107810301Y-105736084D01*
X107803699Y-105736084D01*
X107422167Y-105756080D01*
X107415629Y-105756766D01*
X107038266Y-105816535D01*
X107031816Y-105817906D01*
X106662784Y-105916788D01*
X106656502Y-105918829D01*
X106299836Y-106055740D01*
X106293811Y-106058422D01*
X105953397Y-106231872D01*
X105947687Y-106235169D01*
X105627265Y-106443253D01*
X105621939Y-106447123D01*
X105383165Y-106640478D01*
X105374700Y-106652733D01*
X104324500Y-106652733D01*
X104324500Y-101454169D01*
X111268001Y-101454169D01*
X111268371Y-101460990D01*
X111273895Y-101511852D01*
X111277521Y-101527104D01*
X111322676Y-101647554D01*
X111331214Y-101663149D01*
X111407715Y-101765224D01*
X111420276Y-101777785D01*
X111522351Y-101854286D01*
X111537946Y-101862824D01*
X111658394Y-101907978D01*
X111673649Y-101911605D01*
X111724514Y-101917131D01*
X111731328Y-101917500D01*
X112503885Y-101917500D01*
X112519124Y-101913025D01*
X112520329Y-101911635D01*
X112522000Y-101903952D01*
X112522000Y-101899384D01*
X113030000Y-101899384D01*
X113034475Y-101914623D01*
X113035865Y-101915828D01*
X113043548Y-101917499D01*
X113820669Y-101917499D01*
X113827490Y-101917129D01*
X113878352Y-101911605D01*
X113893604Y-101907979D01*
X114014054Y-101862824D01*
X114029649Y-101854286D01*
X114131724Y-101777785D01*
X114144285Y-101765224D01*
X114220786Y-101663149D01*
X114229324Y-101647554D01*
X114274478Y-101527106D01*
X114278105Y-101511851D01*
X114283631Y-101460986D01*
X114284000Y-101454172D01*
X114284000Y-100729115D01*
X114279525Y-100713876D01*
X114278135Y-100712671D01*
X114270452Y-100711000D01*
X113048115Y-100711000D01*
X113032876Y-100715475D01*
X113031671Y-100716865D01*
X113030000Y-100724548D01*
X113030000Y-101899384D01*
X112522000Y-101899384D01*
X112522000Y-100729115D01*
X112517525Y-100713876D01*
X112516135Y-100712671D01*
X112508452Y-100711000D01*
X111286116Y-100711000D01*
X111270877Y-100715475D01*
X111269672Y-100716865D01*
X111268001Y-100724548D01*
X111268001Y-101454169D01*
X104324500Y-101454169D01*
X104324500Y-95915061D01*
X108833994Y-95915061D01*
X108844399Y-96002973D01*
X108844736Y-96006186D01*
X108852831Y-96094279D01*
X108854399Y-96099839D01*
X108855061Y-96103412D01*
X108857250Y-96114415D01*
X108858018Y-96118028D01*
X108858697Y-96123765D01*
X108884938Y-96208276D01*
X108885854Y-96211373D01*
X108909877Y-96296549D01*
X108912435Y-96301737D01*
X108913760Y-96305188D01*
X108917901Y-96315566D01*
X108919304Y-96318953D01*
X108921018Y-96324473D01*
X108923709Y-96329587D01*
X108923709Y-96329588D01*
X108962198Y-96402745D01*
X108963695Y-96405681D01*
X109002829Y-96485037D01*
X109006287Y-96489668D01*
X109008250Y-96492871D01*
X109014173Y-96502258D01*
X109016182Y-96505351D01*
X109018871Y-96510463D01*
X109073656Y-96579956D01*
X109075627Y-96582526D01*
X109125116Y-96648801D01*
X109125123Y-96648808D01*
X109128573Y-96653429D01*
X109132807Y-96657343D01*
X109132809Y-96657345D01*
X109188973Y-96709262D01*
X109192539Y-96712692D01*
X111175151Y-98695304D01*
X111180788Y-98701322D01*
X111223494Y-98750019D01*
X111228029Y-98753594D01*
X111228030Y-98753595D01*
X111292982Y-98804798D01*
X111295547Y-98806876D01*
X111359100Y-98859734D01*
X111359105Y-98859738D01*
X111363540Y-98863426D01*
X111368574Y-98866245D01*
X111371584Y-98868314D01*
X111380854Y-98874508D01*
X111383999Y-98876551D01*
X111388537Y-98880128D01*
X111393645Y-98882816D01*
X111393649Y-98882818D01*
X111431556Y-98902761D01*
X111482529Y-98952180D01*
X111498692Y-99021313D01*
X111474914Y-99088209D01*
X111448455Y-99115095D01*
X111420278Y-99136213D01*
X111407715Y-99148776D01*
X111331214Y-99250851D01*
X111322676Y-99266446D01*
X111277522Y-99386894D01*
X111273895Y-99402149D01*
X111268369Y-99453014D01*
X111268000Y-99459828D01*
X111268000Y-100184885D01*
X111272475Y-100200124D01*
X111273865Y-100201329D01*
X111281548Y-100203000D01*
X114265884Y-100203000D01*
X114281123Y-100198525D01*
X114282328Y-100197135D01*
X114283999Y-100189452D01*
X114283999Y-99459831D01*
X114283629Y-99453010D01*
X114278105Y-99402148D01*
X114274479Y-99386896D01*
X114229324Y-99266446D01*
X114220786Y-99250851D01*
X114144285Y-99148776D01*
X114131724Y-99136215D01*
X114029649Y-99059714D01*
X114014055Y-99051176D01*
X114002487Y-99046840D01*
X113945721Y-99004199D01*
X113921020Y-98937638D01*
X113936226Y-98868289D01*
X113947832Y-98850765D01*
X114041367Y-98732330D01*
X114041370Y-98732325D01*
X114044568Y-98728276D01*
X114059448Y-98701322D01*
X114158177Y-98522474D01*
X114158179Y-98522470D01*
X114160674Y-98517950D01*
X114176445Y-98473416D01*
X114239144Y-98296360D01*
X114239145Y-98296356D01*
X114240870Y-98291485D01*
X114241778Y-98286389D01*
X114245419Y-98265950D01*
X124627493Y-98265950D01*
X124636789Y-98277965D01*
X124687994Y-98313819D01*
X124697489Y-98319302D01*
X124894947Y-98411378D01*
X124905239Y-98415124D01*
X125115688Y-98471513D01*
X125126481Y-98473416D01*
X125343525Y-98492405D01*
X125354475Y-98492405D01*
X125571519Y-98473416D01*
X125582312Y-98471513D01*
X125792761Y-98415124D01*
X125803053Y-98411378D01*
X126000511Y-98319302D01*
X126010006Y-98313819D01*
X126062048Y-98277379D01*
X126070424Y-98266900D01*
X126063356Y-98253454D01*
X125361812Y-97551910D01*
X125347868Y-97544296D01*
X125346035Y-97544427D01*
X125339420Y-97548678D01*
X124633923Y-98254175D01*
X124627493Y-98265950D01*
X114245419Y-98265950D01*
X114282095Y-98060052D01*
X114282096Y-98060046D01*
X114283001Y-98054963D01*
X114285231Y-97872454D01*
X114285873Y-97819907D01*
X114285873Y-97819905D01*
X114285936Y-97814737D01*
X114249596Y-97577256D01*
X114212906Y-97465003D01*
X114176566Y-97353817D01*
X114176563Y-97353811D01*
X114174958Y-97348899D01*
X114172481Y-97344139D01*
X114089826Y-97185363D01*
X124036483Y-97185363D01*
X124055472Y-97402407D01*
X124057375Y-97413200D01*
X124113764Y-97623649D01*
X124117510Y-97633941D01*
X124209586Y-97831399D01*
X124215069Y-97840894D01*
X124251509Y-97892936D01*
X124261988Y-97901312D01*
X124275434Y-97894244D01*
X124976978Y-97192700D01*
X124984592Y-97178756D01*
X124984461Y-97176923D01*
X124980210Y-97170308D01*
X124274713Y-96464811D01*
X124262938Y-96458381D01*
X124250923Y-96467677D01*
X124215069Y-96518882D01*
X124209586Y-96528377D01*
X124117510Y-96725835D01*
X124113764Y-96736127D01*
X124057375Y-96946576D01*
X124055472Y-96957369D01*
X124036483Y-97174413D01*
X124036483Y-97185363D01*
X114089826Y-97185363D01*
X114066416Y-97140393D01*
X114064025Y-97135800D01*
X113935099Y-96964087D01*
X113922882Y-96947815D01*
X113922880Y-96947812D01*
X113919777Y-96943680D01*
X113795376Y-96824800D01*
X113749825Y-96781270D01*
X113749824Y-96781269D01*
X113746088Y-96777699D01*
X113709097Y-96752465D01*
X113664096Y-96697556D01*
X113655925Y-96627032D01*
X113687179Y-96563284D01*
X113711660Y-96542589D01*
X113713635Y-96541311D01*
X113717977Y-96538502D01*
X113895670Y-96376814D01*
X114027572Y-96209797D01*
X114041367Y-96192330D01*
X114041370Y-96192325D01*
X114044568Y-96188276D01*
X114067146Y-96147377D01*
X114158177Y-95982474D01*
X114158179Y-95982470D01*
X114160674Y-95977950D01*
X114179384Y-95925117D01*
X114239144Y-95756360D01*
X114239145Y-95756356D01*
X114240870Y-95751485D01*
X114254876Y-95672859D01*
X114282083Y-95520117D01*
X114317035Y-95453118D01*
X119062091Y-90708062D01*
X124627493Y-90708062D01*
X124636789Y-90720077D01*
X124687994Y-90755931D01*
X124697489Y-90761414D01*
X124894947Y-90853490D01*
X124905239Y-90857236D01*
X125115688Y-90913625D01*
X125126481Y-90915528D01*
X125343525Y-90934517D01*
X125354475Y-90934517D01*
X125571519Y-90915528D01*
X125582312Y-90913625D01*
X125792761Y-90857236D01*
X125803053Y-90853490D01*
X126000511Y-90761414D01*
X126010006Y-90755931D01*
X126062048Y-90719491D01*
X126070424Y-90709012D01*
X126063356Y-90695566D01*
X125361812Y-89994022D01*
X125347868Y-89986408D01*
X125346035Y-89986539D01*
X125339420Y-89990790D01*
X124633923Y-90696287D01*
X124627493Y-90708062D01*
X119062091Y-90708062D01*
X120142678Y-89627475D01*
X124036483Y-89627475D01*
X124055472Y-89844519D01*
X124057375Y-89855312D01*
X124113764Y-90065761D01*
X124117510Y-90076053D01*
X124209586Y-90273511D01*
X124215069Y-90283006D01*
X124251509Y-90335048D01*
X124261988Y-90343424D01*
X124275434Y-90336356D01*
X124976978Y-89634812D01*
X124983356Y-89623132D01*
X125713408Y-89623132D01*
X125713539Y-89624965D01*
X125717790Y-89631580D01*
X126423287Y-90337077D01*
X126435062Y-90343507D01*
X126447077Y-90334211D01*
X126482931Y-90283006D01*
X126488414Y-90273511D01*
X126580490Y-90076053D01*
X126584236Y-90065761D01*
X126640625Y-89855312D01*
X126642528Y-89844519D01*
X126661517Y-89627475D01*
X126661517Y-89616525D01*
X126642528Y-89399481D01*
X126640625Y-89388688D01*
X126584236Y-89178239D01*
X126580490Y-89167947D01*
X126488414Y-88970489D01*
X126482931Y-88960994D01*
X126446491Y-88908952D01*
X126436012Y-88900576D01*
X126422566Y-88907644D01*
X125721022Y-89609188D01*
X125713408Y-89623132D01*
X124983356Y-89623132D01*
X124984592Y-89620868D01*
X124984461Y-89619035D01*
X124980210Y-89612420D01*
X124274713Y-88906923D01*
X124262938Y-88900493D01*
X124250923Y-88909789D01*
X124215069Y-88960994D01*
X124209586Y-88970489D01*
X124117510Y-89167947D01*
X124113764Y-89178239D01*
X124057375Y-89388688D01*
X124055472Y-89399481D01*
X124036483Y-89616525D01*
X124036483Y-89627475D01*
X120142678Y-89627475D01*
X121376330Y-88393823D01*
X121428060Y-88362586D01*
X121481276Y-88346062D01*
X121484373Y-88345146D01*
X121569549Y-88321123D01*
X121574737Y-88318565D01*
X121578188Y-88317240D01*
X121588566Y-88313099D01*
X121591953Y-88311696D01*
X121597473Y-88309982D01*
X121654478Y-88279991D01*
X121713144Y-88265500D01*
X124117397Y-88265500D01*
X124185518Y-88285502D01*
X124192956Y-88290670D01*
X124302295Y-88372615D01*
X124438684Y-88423745D01*
X124482252Y-88428478D01*
X124497486Y-88430133D01*
X124497489Y-88430133D01*
X124500866Y-88430500D01*
X124504185Y-88430500D01*
X124571110Y-88454153D01*
X124606804Y-88500156D01*
X124608734Y-88499141D01*
X124614442Y-88510000D01*
X124614632Y-88510245D01*
X124614653Y-88510403D01*
X124634644Y-88548434D01*
X125336188Y-89249978D01*
X125350132Y-89257592D01*
X125351965Y-89257461D01*
X125358580Y-89253210D01*
X126064077Y-88547713D01*
X126086871Y-88505971D01*
X126089047Y-88495971D01*
X126139253Y-88445773D01*
X126192814Y-88430549D01*
X126193719Y-88430500D01*
X126197134Y-88430500D01*
X126200530Y-88430131D01*
X126200532Y-88430131D01*
X126212879Y-88428790D01*
X126259316Y-88423745D01*
X126395705Y-88372615D01*
X126505039Y-88290674D01*
X126571544Y-88265826D01*
X126580603Y-88265500D01*
X128568269Y-88265500D01*
X128636390Y-88285502D01*
X128657364Y-88302405D01*
X134564752Y-94209793D01*
X134598778Y-94272105D01*
X134593713Y-94342920D01*
X134564752Y-94387983D01*
X132698696Y-96254039D01*
X132692678Y-96259676D01*
X132643981Y-96302382D01*
X132640406Y-96306917D01*
X132640405Y-96306918D01*
X132589202Y-96371870D01*
X132587124Y-96374435D01*
X132534266Y-96437988D01*
X132534262Y-96437993D01*
X132530574Y-96442428D01*
X132527755Y-96447462D01*
X132525686Y-96450472D01*
X132519492Y-96459742D01*
X132517449Y-96462887D01*
X132513872Y-96467425D01*
X132511184Y-96472533D01*
X132511182Y-96472537D01*
X132472688Y-96545704D01*
X132471118Y-96548594D01*
X132427885Y-96625792D01*
X132426028Y-96631264D01*
X132424514Y-96634664D01*
X132420127Y-96644875D01*
X132418705Y-96648309D01*
X132416018Y-96653415D01*
X132414306Y-96658929D01*
X132414305Y-96658931D01*
X132389788Y-96737887D01*
X132388769Y-96741023D01*
X132375107Y-96781270D01*
X132360331Y-96824800D01*
X132359502Y-96830513D01*
X132358659Y-96834026D01*
X132356167Y-96845039D01*
X132355409Y-96848606D01*
X132353696Y-96854122D01*
X132353018Y-96859850D01*
X132353017Y-96859855D01*
X132343297Y-96941986D01*
X132342870Y-96945228D01*
X132330175Y-97032785D01*
X132330402Y-97038553D01*
X132333403Y-97114942D01*
X132333500Y-97119889D01*
X132333500Y-105721898D01*
X132313498Y-105790019D01*
X132276774Y-105824247D01*
X132277795Y-105825609D01*
X132161239Y-105912963D01*
X132073885Y-106029519D01*
X132070734Y-106037925D01*
X132066242Y-106049907D01*
X132023599Y-106106671D01*
X131957038Y-106131370D01*
X131887689Y-106116162D01*
X131870168Y-106104558D01*
X131752056Y-106011279D01*
X131743469Y-106005574D01*
X131542278Y-105894510D01*
X131532866Y-105890280D01*
X131316232Y-105813565D01*
X131306261Y-105810931D01*
X131208837Y-105793577D01*
X131195540Y-105795037D01*
X131191000Y-105809594D01*
X131191000Y-107404224D01*
X131170998Y-107472345D01*
X131117342Y-107518838D01*
X131065000Y-107530224D01*
X130809000Y-107530224D01*
X130740879Y-107510222D01*
X130694386Y-107456566D01*
X130683000Y-107404224D01*
X130683000Y-105808128D01*
X130679082Y-105794784D01*
X130664806Y-105792797D01*
X130602485Y-105802334D01*
X130592457Y-105804723D01*
X130374012Y-105876122D01*
X130364503Y-105880119D01*
X130160656Y-105986235D01*
X130151931Y-105991729D01*
X129968148Y-106129717D01*
X129960441Y-106136560D01*
X129801661Y-106302715D01*
X129795177Y-106310722D01*
X129772763Y-106343580D01*
X129717852Y-106388583D01*
X129647328Y-106396756D01*
X129583580Y-106365502D01*
X129562886Y-106341024D01*
X129560712Y-106337662D01*
X129540500Y-106269217D01*
X129540500Y-97770693D01*
X129540770Y-97762452D01*
X129544628Y-97703593D01*
X129545006Y-97697827D01*
X129534602Y-97609929D01*
X129534259Y-97606654D01*
X129532705Y-97589745D01*
X129526169Y-97518609D01*
X129524599Y-97513043D01*
X129523914Y-97509347D01*
X129521756Y-97498498D01*
X129520983Y-97494862D01*
X129520304Y-97489123D01*
X129494069Y-97404632D01*
X129493140Y-97401496D01*
X129470693Y-97321906D01*
X129469123Y-97316339D01*
X129466565Y-97311151D01*
X129465240Y-97307700D01*
X129461099Y-97297322D01*
X129459696Y-97293935D01*
X129457982Y-97288415D01*
X129416801Y-97210142D01*
X129415305Y-97207206D01*
X129399133Y-97174413D01*
X129376171Y-97127851D01*
X129372713Y-97123220D01*
X129370750Y-97120017D01*
X129364827Y-97110630D01*
X129362818Y-97107537D01*
X129360129Y-97102425D01*
X129305344Y-97032932D01*
X129303373Y-97030362D01*
X129253884Y-96964087D01*
X129253877Y-96964080D01*
X129250427Y-96959459D01*
X129235064Y-96945257D01*
X129190027Y-96903626D01*
X129186461Y-96900196D01*
X126694405Y-94408140D01*
X126660379Y-94345828D01*
X126657500Y-94319045D01*
X126657500Y-93831754D01*
X126650745Y-93769572D01*
X126599615Y-93633183D01*
X126512261Y-93516627D01*
X126395705Y-93429273D01*
X126259316Y-93378143D01*
X126197134Y-93371388D01*
X124500866Y-93371388D01*
X124438684Y-93378143D01*
X124302295Y-93429273D01*
X124185739Y-93516627D01*
X124098385Y-93633183D01*
X124047255Y-93769572D01*
X124040500Y-93831754D01*
X124040500Y-95528022D01*
X124047255Y-95590204D01*
X124098385Y-95726593D01*
X124185739Y-95843149D01*
X124302295Y-95930503D01*
X124438684Y-95981633D01*
X124482252Y-95986366D01*
X124497486Y-95988021D01*
X124497489Y-95988021D01*
X124500866Y-95988388D01*
X124504185Y-95988388D01*
X124571110Y-96012041D01*
X124606804Y-96058044D01*
X124608734Y-96057029D01*
X124614442Y-96067888D01*
X124614632Y-96068133D01*
X124614653Y-96068291D01*
X124634644Y-96106322D01*
X126423287Y-97894965D01*
X126435062Y-97901395D01*
X126447077Y-97892099D01*
X126482931Y-97840894D01*
X126488414Y-97831399D01*
X126537963Y-97725139D01*
X126584880Y-97671854D01*
X126653157Y-97652393D01*
X126721117Y-97672935D01*
X126741253Y-97689294D01*
X127216595Y-98164636D01*
X127250621Y-98226948D01*
X127253500Y-98253731D01*
X127253500Y-106273409D01*
X127231588Y-106344412D01*
X127122314Y-106504602D01*
X127120135Y-106509297D01*
X127041159Y-106679437D01*
X127021163Y-106722514D01*
X126956960Y-106954022D01*
X126956411Y-106959159D01*
X126949459Y-107024216D01*
X126936000Y-107150152D01*
X126936000Y-107384626D01*
X126936212Y-107387199D01*
X126936212Y-107387210D01*
X126937611Y-107404224D01*
X126950678Y-107563161D01*
X127009206Y-107796168D01*
X127105003Y-108016487D01*
X127107807Y-108020822D01*
X127107809Y-108020825D01*
X127233292Y-108214791D01*
X127253500Y-108283231D01*
X127253500Y-108430208D01*
X127253448Y-108433815D01*
X127251137Y-108514523D01*
X127250879Y-108523523D01*
X127251768Y-108529226D01*
X127251768Y-108529227D01*
X127260903Y-108587835D01*
X127261877Y-108595710D01*
X127265900Y-108639485D01*
X127267831Y-108660503D01*
X127269399Y-108666061D01*
X127275607Y-108688075D01*
X127278834Y-108702869D01*
X127283246Y-108731175D01*
X127285158Y-108736616D01*
X127285159Y-108736621D01*
X127304822Y-108792582D01*
X127307214Y-108800146D01*
X127324877Y-108862773D01*
X127327431Y-108867952D01*
X127337548Y-108888467D01*
X127343416Y-108902423D01*
X127352913Y-108929453D01*
X127355790Y-108934464D01*
X127385312Y-108985889D01*
X127389040Y-108992883D01*
X127417829Y-109051261D01*
X127434975Y-109074222D01*
X127443285Y-109086872D01*
X127454668Y-109106701D01*
X127454671Y-109106706D01*
X127457547Y-109111715D01*
X127496419Y-109157455D01*
X127499690Y-109161304D01*
X127504636Y-109167510D01*
X127543573Y-109219653D01*
X127564609Y-109239098D01*
X127575090Y-109250026D01*
X127589904Y-109267458D01*
X127589907Y-109267461D01*
X127593643Y-109271857D01*
X127598118Y-109275499D01*
X127644123Y-109312940D01*
X127650098Y-109318124D01*
X127697899Y-109362310D01*
X127813624Y-109435327D01*
X128441799Y-109833833D01*
X130141910Y-110912362D01*
X130152410Y-110919801D01*
X130184537Y-110945128D01*
X130232904Y-110970576D01*
X130237487Y-110973228D01*
X130237519Y-110973172D01*
X130240029Y-110974607D01*
X130242463Y-110976151D01*
X130245033Y-110977469D01*
X130245034Y-110977469D01*
X130282311Y-110996578D01*
X130283500Y-110997195D01*
X130335893Y-111024760D01*
X130370527Y-111042982D01*
X130375991Y-111044678D01*
X130376741Y-111044985D01*
X130381837Y-111047597D01*
X130476102Y-111075771D01*
X130477312Y-111076140D01*
X130571234Y-111105304D01*
X130576903Y-111105975D01*
X130577730Y-111106147D01*
X130583196Y-111107780D01*
X130647788Y-111114729D01*
X130680923Y-111118294D01*
X130682254Y-111118444D01*
X130719669Y-111122872D01*
X130741874Y-111125500D01*
X130745572Y-111125500D01*
X130747691Y-111125625D01*
X130753747Y-111126129D01*
X130786401Y-111129642D01*
X130786409Y-111129642D01*
X130792152Y-111130260D01*
X130849803Y-111125865D01*
X130859381Y-111125500D01*
X152298168Y-111125500D01*
X152310898Y-111126516D01*
X152310901Y-111126465D01*
X152316659Y-111126855D01*
X152322367Y-111127772D01*
X152415597Y-111125536D01*
X152418618Y-111125500D01*
X152453316Y-111125500D01*
X152456190Y-111125236D01*
X152456191Y-111125236D01*
X152461865Y-111124715D01*
X152470366Y-111124223D01*
X152526691Y-111122872D01*
X152526696Y-111122871D01*
X152532467Y-111122733D01*
X152563412Y-111116227D01*
X152577782Y-111114063D01*
X152609279Y-111111169D01*
X152614841Y-111109600D01*
X152614843Y-111109600D01*
X152669068Y-111094307D01*
X152677343Y-111092272D01*
X152732482Y-111080679D01*
X152732485Y-111080678D01*
X152738131Y-111079491D01*
X152747195Y-111075760D01*
X152767367Y-111067457D01*
X152781126Y-111062703D01*
X152805986Y-111055692D01*
X152805987Y-111055692D01*
X152811549Y-111054123D01*
X152816727Y-111051570D01*
X152816731Y-111051568D01*
X152847438Y-111036424D01*
X152867278Y-111026641D01*
X152875031Y-111023138D01*
X152900743Y-111012554D01*
X152927132Y-111001692D01*
X152927135Y-111001691D01*
X152932471Y-110999494D01*
X152937318Y-110996361D01*
X152937321Y-110996360D01*
X152959023Y-110982335D01*
X152971681Y-110975155D01*
X153000037Y-110961171D01*
X153049825Y-110923993D01*
X153056807Y-110919139D01*
X153067293Y-110912362D01*
X153108978Y-110885422D01*
X153113176Y-110881456D01*
X153131960Y-110863710D01*
X153143097Y-110854344D01*
X153145041Y-110852892D01*
X153168429Y-110835427D01*
X153210598Y-110789808D01*
X153216592Y-110783748D01*
X153231182Y-110769964D01*
X153233880Y-110767415D01*
X153236253Y-110764574D01*
X153236261Y-110764566D01*
X153256095Y-110740824D01*
X153260266Y-110736078D01*
X153307170Y-110685337D01*
X153311086Y-110681101D01*
X153322335Y-110663272D01*
X153332200Y-110649727D01*
X154024521Y-109821022D01*
X154332559Y-109452301D01*
X159102084Y-109452301D01*
X159122080Y-109833833D01*
X159122766Y-109840371D01*
X159182535Y-110217734D01*
X159183906Y-110224184D01*
X159282788Y-110593216D01*
X159284829Y-110599498D01*
X159421740Y-110956164D01*
X159424422Y-110962189D01*
X159597872Y-111302603D01*
X159601169Y-111308313D01*
X159809253Y-111628735D01*
X159813123Y-111634061D01*
X160006478Y-111872835D01*
X160018733Y-111881300D01*
X160029824Y-111874966D01*
X162442978Y-109461812D01*
X162450592Y-109447868D01*
X162450461Y-109446035D01*
X162446210Y-109439420D01*
X160030690Y-107023900D01*
X160017614Y-107016759D01*
X160007247Y-107024216D01*
X159813123Y-107263939D01*
X159809253Y-107269265D01*
X159601169Y-107589687D01*
X159597872Y-107595397D01*
X159424422Y-107935811D01*
X159421740Y-107941836D01*
X159284829Y-108298502D01*
X159282788Y-108304784D01*
X159183906Y-108673816D01*
X159182535Y-108680266D01*
X159122766Y-109057629D01*
X159122080Y-109064167D01*
X159102084Y-109445699D01*
X159102084Y-109452301D01*
X154332559Y-109452301D01*
X154977536Y-108680266D01*
X155842771Y-107644583D01*
X155901795Y-107605129D01*
X155925747Y-107600116D01*
X156031257Y-107588560D01*
X156178707Y-107572412D01*
X156178712Y-107572411D01*
X156183360Y-107571902D01*
X156236164Y-107558000D01*
X156431594Y-107506548D01*
X156431596Y-107506547D01*
X156436117Y-107505357D01*
X156676262Y-107402182D01*
X156898519Y-107264646D01*
X156902082Y-107261629D01*
X156902087Y-107261626D01*
X157094439Y-107098787D01*
X157094440Y-107098786D01*
X157098005Y-107095768D01*
X157167346Y-107016700D01*
X157267257Y-106902774D01*
X157267261Y-106902769D01*
X157270339Y-106899259D01*
X157411733Y-106679437D01*
X157423762Y-106652733D01*
X160382700Y-106652733D01*
X160389034Y-106663824D01*
X162802188Y-109076978D01*
X162816132Y-109084592D01*
X162817965Y-109084461D01*
X162824580Y-109080210D01*
X165240100Y-106664690D01*
X165247241Y-106651614D01*
X165239784Y-106641247D01*
X165000065Y-106447126D01*
X164994728Y-106443249D01*
X164674315Y-106235170D01*
X164668606Y-106231873D01*
X164328189Y-106058422D01*
X164322164Y-106055740D01*
X163965498Y-105918829D01*
X163959216Y-105916788D01*
X163590184Y-105817906D01*
X163583734Y-105816535D01*
X163206371Y-105756766D01*
X163199833Y-105756080D01*
X162818301Y-105736084D01*
X162811699Y-105736084D01*
X162430167Y-105756080D01*
X162423629Y-105756766D01*
X162046266Y-105816535D01*
X162039816Y-105817906D01*
X161670784Y-105916788D01*
X161664502Y-105918829D01*
X161307836Y-106055740D01*
X161301811Y-106058422D01*
X160961397Y-106231872D01*
X160955687Y-106235169D01*
X160635265Y-106443253D01*
X160629939Y-106447123D01*
X160391165Y-106640478D01*
X160382700Y-106652733D01*
X157423762Y-106652733D01*
X157519083Y-106441129D01*
X157547316Y-106341024D01*
X157588760Y-106194076D01*
X157588761Y-106194073D01*
X157590030Y-106189572D01*
X157607055Y-106055740D01*
X157622616Y-105933421D01*
X157622616Y-105933417D01*
X157623014Y-105930291D01*
X157625431Y-105838000D01*
X157622238Y-105795037D01*
X157606407Y-105582000D01*
X157606406Y-105581996D01*
X157606061Y-105577348D01*
X157594725Y-105527248D01*
X157549408Y-105326980D01*
X157548377Y-105322423D01*
X157453647Y-105078823D01*
X157323951Y-104851902D01*
X157162138Y-104646643D01*
X157045167Y-104536608D01*
X157009255Y-104475364D01*
X157005500Y-104444833D01*
X157005500Y-102232500D01*
X157025502Y-102164379D01*
X157050088Y-102136333D01*
X157094439Y-102098787D01*
X157094440Y-102098786D01*
X157098005Y-102095768D01*
X157189729Y-101991177D01*
X157267257Y-101902774D01*
X157267261Y-101902769D01*
X157270339Y-101899259D01*
X157411733Y-101679437D01*
X157519083Y-101441129D01*
X157590030Y-101189572D01*
X157606832Y-101057496D01*
X157622616Y-100933421D01*
X157622616Y-100933417D01*
X157623014Y-100930291D01*
X157625431Y-100838000D01*
X157606061Y-100577348D01*
X157594725Y-100527248D01*
X157549408Y-100326980D01*
X157548377Y-100322423D01*
X157529603Y-100274146D01*
X157455340Y-100083176D01*
X157455339Y-100083173D01*
X157453647Y-100078823D01*
X157323951Y-99851902D01*
X157162138Y-99646643D01*
X157045167Y-99536608D01*
X157009255Y-99475364D01*
X157005500Y-99444833D01*
X157005500Y-97722500D01*
X157025502Y-97654379D01*
X157079158Y-97607886D01*
X157131500Y-97596500D01*
X157160134Y-97596500D01*
X157222316Y-97589745D01*
X157358705Y-97538615D01*
X157475261Y-97451261D01*
X157562615Y-97334705D01*
X157613745Y-97198316D01*
X157620500Y-97136134D01*
X157620500Y-94539866D01*
X157613745Y-94477684D01*
X157562615Y-94341295D01*
X157475261Y-94224739D01*
X157358705Y-94137385D01*
X157222316Y-94086255D01*
X157160134Y-94079500D01*
X154563866Y-94079500D01*
X154501684Y-94086255D01*
X154365295Y-94137385D01*
X154248739Y-94224739D01*
X154161385Y-94341295D01*
X154110255Y-94477684D01*
X154103500Y-94539866D01*
X154103500Y-97136134D01*
X154110255Y-97198316D01*
X154161385Y-97334705D01*
X154248739Y-97451261D01*
X154365295Y-97538615D01*
X154501684Y-97589745D01*
X154563866Y-97596500D01*
X154592500Y-97596500D01*
X154660621Y-97616502D01*
X154707114Y-97670158D01*
X154718500Y-97722500D01*
X154718500Y-99445018D01*
X154698498Y-99513139D01*
X154676402Y-99539020D01*
X154593494Y-99613018D01*
X154426363Y-99813970D01*
X154290771Y-100037419D01*
X154189697Y-100278455D01*
X154125359Y-100531783D01*
X154099173Y-100791839D01*
X154111713Y-101052908D01*
X154162704Y-101309256D01*
X154251026Y-101555252D01*
X154253242Y-101559376D01*
X154317753Y-101679437D01*
X154374737Y-101785491D01*
X154377532Y-101789234D01*
X154377534Y-101789237D01*
X154528330Y-101991177D01*
X154528335Y-101991183D01*
X154531122Y-101994915D01*
X154534431Y-101998195D01*
X154534436Y-101998201D01*
X154681206Y-102143695D01*
X154715502Y-102205858D01*
X154718500Y-102233178D01*
X154718500Y-104445018D01*
X154698498Y-104513139D01*
X154676402Y-104539020D01*
X154593494Y-104613018D01*
X154426363Y-104813970D01*
X154290771Y-105037419D01*
X154189697Y-105278455D01*
X154125359Y-105531783D01*
X154099173Y-105791839D01*
X154099397Y-105796505D01*
X154099397Y-105796511D01*
X154104991Y-105912963D01*
X154111713Y-106052908D01*
X154112625Y-106057494D01*
X154112626Y-106057500D01*
X154115476Y-106071827D01*
X154109150Y-106142541D01*
X154088594Y-106177194D01*
X151903048Y-108793283D01*
X151844024Y-108832737D01*
X151806352Y-108838500D01*
X134895498Y-108838500D01*
X134827377Y-108818498D01*
X134780884Y-108764842D01*
X134770780Y-108694568D01*
X134794672Y-108636935D01*
X134880115Y-108522929D01*
X134931245Y-108386540D01*
X134938000Y-108324358D01*
X134938000Y-106228090D01*
X134931245Y-106165908D01*
X134880115Y-106029519D01*
X134792761Y-105912963D01*
X134676205Y-105825609D01*
X134677489Y-105823896D01*
X134635848Y-105782164D01*
X134620500Y-105721898D01*
X134620500Y-97884950D01*
X135549493Y-97884950D01*
X135558789Y-97896965D01*
X135609994Y-97932819D01*
X135619489Y-97938302D01*
X135816947Y-98030378D01*
X135827239Y-98034124D01*
X136037688Y-98090513D01*
X136048481Y-98092416D01*
X136265525Y-98111405D01*
X136276475Y-98111405D01*
X136493519Y-98092416D01*
X136504312Y-98090513D01*
X136714761Y-98034124D01*
X136725053Y-98030378D01*
X136922511Y-97938302D01*
X136932006Y-97932819D01*
X136984048Y-97896379D01*
X136992424Y-97885900D01*
X136985356Y-97872454D01*
X136283812Y-97170910D01*
X136269868Y-97163296D01*
X136268035Y-97163427D01*
X136261420Y-97167678D01*
X135555923Y-97873175D01*
X135549493Y-97884950D01*
X134620500Y-97884950D01*
X134620500Y-97618731D01*
X134640502Y-97550610D01*
X134657405Y-97529636D01*
X134878747Y-97308294D01*
X134941059Y-97274268D01*
X135011874Y-97279333D01*
X135068710Y-97321880D01*
X135082037Y-97344139D01*
X135131586Y-97450399D01*
X135137069Y-97459894D01*
X135173509Y-97511936D01*
X135183988Y-97520312D01*
X135197434Y-97513244D01*
X135910658Y-96800020D01*
X136635408Y-96800020D01*
X136635539Y-96801853D01*
X136639790Y-96808468D01*
X137345287Y-97513965D01*
X137357062Y-97520395D01*
X137369077Y-97511099D01*
X137404931Y-97459894D01*
X137410414Y-97450399D01*
X137502490Y-97252941D01*
X137506236Y-97242649D01*
X137562625Y-97032200D01*
X137564528Y-97021407D01*
X137583517Y-96804363D01*
X137583517Y-96793413D01*
X137564528Y-96576369D01*
X137562625Y-96565576D01*
X137506236Y-96355127D01*
X137502490Y-96344835D01*
X137410414Y-96147377D01*
X137404931Y-96137882D01*
X137368491Y-96085840D01*
X137358012Y-96077464D01*
X137344566Y-96084532D01*
X136643022Y-96786076D01*
X136635408Y-96800020D01*
X135910658Y-96800020D01*
X136986077Y-95724601D01*
X137008871Y-95682859D01*
X137011047Y-95672859D01*
X137061253Y-95622661D01*
X137114814Y-95607437D01*
X137115719Y-95607388D01*
X137119134Y-95607388D01*
X137122530Y-95607019D01*
X137122532Y-95607019D01*
X137134879Y-95605678D01*
X137181316Y-95600633D01*
X137317705Y-95549503D01*
X137434261Y-95462149D01*
X137521615Y-95345593D01*
X137572745Y-95209204D01*
X137579500Y-95147022D01*
X137579500Y-93450754D01*
X137572745Y-93388572D01*
X137521615Y-93252183D01*
X137434261Y-93135627D01*
X137317705Y-93048273D01*
X137181316Y-92997143D01*
X137119134Y-92990388D01*
X136631843Y-92990388D01*
X136563722Y-92970386D01*
X136542748Y-92953483D01*
X134297327Y-90708062D01*
X135549493Y-90708062D01*
X135558789Y-90720077D01*
X135609994Y-90755931D01*
X135619489Y-90761414D01*
X135816947Y-90853490D01*
X135827239Y-90857236D01*
X136037688Y-90913625D01*
X136048481Y-90915528D01*
X136265525Y-90934517D01*
X136276475Y-90934517D01*
X136493519Y-90915528D01*
X136504312Y-90913625D01*
X136714761Y-90857236D01*
X136725053Y-90853490D01*
X136922511Y-90761414D01*
X136932006Y-90755931D01*
X136984048Y-90719491D01*
X136992424Y-90709012D01*
X136985356Y-90695566D01*
X136283812Y-89994022D01*
X136269868Y-89986408D01*
X136268035Y-89986539D01*
X136261420Y-89990790D01*
X135555923Y-90696287D01*
X135549493Y-90708062D01*
X134297327Y-90708062D01*
X133216740Y-89627475D01*
X134958483Y-89627475D01*
X134977472Y-89844519D01*
X134979375Y-89855312D01*
X135035764Y-90065761D01*
X135039510Y-90076053D01*
X135131586Y-90273511D01*
X135137069Y-90283006D01*
X135173509Y-90335048D01*
X135183988Y-90343424D01*
X135197434Y-90336356D01*
X135898978Y-89634812D01*
X135905356Y-89623132D01*
X136635408Y-89623132D01*
X136635539Y-89624965D01*
X136639790Y-89631580D01*
X137345287Y-90337077D01*
X137357062Y-90343507D01*
X137369077Y-90334211D01*
X137404931Y-90283006D01*
X137410414Y-90273511D01*
X137502490Y-90076053D01*
X137506236Y-90065761D01*
X137562625Y-89855312D01*
X137564528Y-89844519D01*
X137583517Y-89627475D01*
X137583517Y-89616525D01*
X137578671Y-89561133D01*
X154817612Y-89561133D01*
X154826325Y-89572653D01*
X154924018Y-89644284D01*
X154931928Y-89649227D01*
X155154890Y-89766533D01*
X155163453Y-89770256D01*
X155401304Y-89853318D01*
X155410313Y-89855732D01*
X155657842Y-89902727D01*
X155667098Y-89903781D01*
X155918857Y-89913673D01*
X155928171Y-89913347D01*
X156178615Y-89885920D01*
X156187792Y-89884219D01*
X156431431Y-89820074D01*
X156440251Y-89817037D01*
X156671736Y-89717583D01*
X156680008Y-89713276D01*
X156894249Y-89580700D01*
X156901188Y-89575658D01*
X156909518Y-89563019D01*
X156903456Y-89552666D01*
X155874812Y-88524022D01*
X155860868Y-88516408D01*
X155859035Y-88516539D01*
X155852420Y-88520790D01*
X154824270Y-89548940D01*
X154817612Y-89561133D01*
X137578671Y-89561133D01*
X137564528Y-89399481D01*
X137562625Y-89388688D01*
X137506236Y-89178239D01*
X137502490Y-89167947D01*
X137410414Y-88970489D01*
X137404931Y-88960994D01*
X137368491Y-88908952D01*
X137358012Y-88900576D01*
X137344566Y-88907644D01*
X136643022Y-89609188D01*
X136635408Y-89623132D01*
X135905356Y-89623132D01*
X135906592Y-89620868D01*
X135906461Y-89619035D01*
X135902210Y-89612420D01*
X135196713Y-88906923D01*
X135184938Y-88900493D01*
X135172923Y-88909789D01*
X135137069Y-88960994D01*
X135131586Y-88970489D01*
X135039510Y-89167947D01*
X135035764Y-89178239D01*
X134979375Y-89388688D01*
X134977472Y-89399481D01*
X134958483Y-89616525D01*
X134958483Y-89627475D01*
X133216740Y-89627475D01*
X129932961Y-86343696D01*
X129927324Y-86337678D01*
X129892586Y-86298067D01*
X129884618Y-86288981D01*
X129874714Y-86281173D01*
X129815130Y-86234202D01*
X129812565Y-86232124D01*
X129749012Y-86179266D01*
X129749007Y-86179262D01*
X129744572Y-86175574D01*
X129739538Y-86172755D01*
X129736528Y-86170686D01*
X129727258Y-86164492D01*
X129724113Y-86162449D01*
X129719575Y-86158872D01*
X129714467Y-86156184D01*
X129714463Y-86156182D01*
X129649665Y-86122091D01*
X129641286Y-86117682D01*
X129638396Y-86116113D01*
X129619164Y-86105342D01*
X129561208Y-86072885D01*
X129555736Y-86071028D01*
X129552336Y-86069514D01*
X129542125Y-86065127D01*
X129538691Y-86063705D01*
X129533585Y-86061018D01*
X129528071Y-86059306D01*
X129528069Y-86059305D01*
X129449113Y-86034788D01*
X129445977Y-86033769D01*
X129392832Y-86015729D01*
X129362200Y-86005331D01*
X129356487Y-86004502D01*
X129352974Y-86003659D01*
X129341961Y-86001167D01*
X129338394Y-86000409D01*
X129332878Y-85998696D01*
X129327150Y-85998018D01*
X129327145Y-85998017D01*
X129274745Y-85991816D01*
X129244994Y-85988294D01*
X129241772Y-85987870D01*
X129154215Y-85975175D01*
X129072058Y-85978403D01*
X129067111Y-85978500D01*
X126618500Y-85978500D01*
X126550379Y-85958498D01*
X126503886Y-85904842D01*
X126492500Y-85852500D01*
X126492500Y-80649067D01*
X126512502Y-80580946D01*
X126529405Y-80559972D01*
X129175304Y-77914073D01*
X129181322Y-77908436D01*
X129189631Y-77901149D01*
X129230019Y-77865730D01*
X129284798Y-77796242D01*
X129286876Y-77793677D01*
X129339734Y-77730124D01*
X129339738Y-77730119D01*
X129343426Y-77725684D01*
X129346245Y-77720650D01*
X129348314Y-77717640D01*
X129354508Y-77708370D01*
X129356551Y-77705225D01*
X129360128Y-77700687D01*
X129367151Y-77687340D01*
X129394374Y-77635595D01*
X129443793Y-77584622D01*
X129461654Y-77576280D01*
X129587795Y-77528992D01*
X129587796Y-77528991D01*
X129596205Y-77525839D01*
X129712761Y-77438485D01*
X129800115Y-77321929D01*
X129807758Y-77301541D01*
X129850401Y-77244777D01*
X129916962Y-77220078D01*
X129986311Y-77235286D01*
X130003832Y-77246890D01*
X130121944Y-77340169D01*
X130130531Y-77345874D01*
X130331722Y-77456938D01*
X130341134Y-77461168D01*
X130557768Y-77537883D01*
X130567739Y-77540517D01*
X130665163Y-77557871D01*
X130678460Y-77556411D01*
X130683000Y-77541854D01*
X130683000Y-74607128D01*
X130679082Y-74593784D01*
X130664806Y-74591797D01*
X130602485Y-74601334D01*
X130592457Y-74603723D01*
X130374012Y-74675122D01*
X130364503Y-74679119D01*
X130160656Y-74785235D01*
X130151939Y-74790724D01*
X130000901Y-74904126D01*
X129934416Y-74929031D01*
X129865020Y-74914038D01*
X129814747Y-74863908D01*
X129807268Y-74847599D01*
X129800115Y-74828519D01*
X129712761Y-74711963D01*
X129596205Y-74624609D01*
X129597489Y-74622896D01*
X129555848Y-74581164D01*
X129540500Y-74520898D01*
X129540500Y-66717795D01*
X129540770Y-66709554D01*
X129544627Y-66650705D01*
X129545005Y-66644939D01*
X129534608Y-66557092D01*
X129534264Y-66553813D01*
X129526698Y-66471477D01*
X129526698Y-66471476D01*
X129526169Y-66465721D01*
X129524601Y-66460162D01*
X129523939Y-66456588D01*
X129521750Y-66445585D01*
X129520982Y-66441972D01*
X129520303Y-66436235D01*
X129494062Y-66351724D01*
X129493139Y-66348605D01*
X129470692Y-66269015D01*
X129469123Y-66263451D01*
X129466565Y-66258263D01*
X129465240Y-66254812D01*
X129461099Y-66244434D01*
X129459696Y-66241047D01*
X129457982Y-66235527D01*
X129416801Y-66157254D01*
X129415305Y-66154318D01*
X129403882Y-66131155D01*
X129376171Y-66074963D01*
X129372713Y-66070332D01*
X129370750Y-66067129D01*
X129364827Y-66057742D01*
X129362818Y-66054649D01*
X129360129Y-66049537D01*
X129305344Y-65980044D01*
X129303373Y-65977474D01*
X129253884Y-65911199D01*
X129253877Y-65911192D01*
X129250427Y-65906571D01*
X129190026Y-65850737D01*
X129186461Y-65847308D01*
X127359287Y-64020134D01*
X131083500Y-64020134D01*
X131090255Y-64082316D01*
X131141385Y-64218705D01*
X131228739Y-64335261D01*
X131345295Y-64422615D01*
X131481684Y-64473745D01*
X131543866Y-64480500D01*
X132207500Y-64480500D01*
X132275621Y-64500502D01*
X132322114Y-64554158D01*
X132333500Y-64606500D01*
X132333500Y-75070684D01*
X132313498Y-75138805D01*
X132259842Y-75185298D01*
X132189568Y-75195402D01*
X132124988Y-75165908D01*
X132104147Y-75141929D01*
X132104067Y-75141991D01*
X132103027Y-75140641D01*
X132101708Y-75139123D01*
X132100918Y-75137902D01*
X132094622Y-75129726D01*
X131939950Y-74959744D01*
X131932417Y-74952718D01*
X131752056Y-74810279D01*
X131743469Y-74804574D01*
X131542278Y-74693510D01*
X131532866Y-74689280D01*
X131316232Y-74612565D01*
X131306261Y-74609931D01*
X131208837Y-74592577D01*
X131195540Y-74594037D01*
X131191000Y-74608594D01*
X131191000Y-77543320D01*
X131194918Y-77556664D01*
X131209194Y-77558651D01*
X131271515Y-77549114D01*
X131281543Y-77546725D01*
X131499988Y-77475326D01*
X131509497Y-77471329D01*
X131713344Y-77365213D01*
X131722069Y-77359719D01*
X131905852Y-77221731D01*
X131913559Y-77214888D01*
X132072339Y-77048733D01*
X132078822Y-77040728D01*
X132100275Y-77009279D01*
X132155187Y-76964277D01*
X132225711Y-76956106D01*
X132289458Y-76987360D01*
X132326188Y-77048118D01*
X132330093Y-77088525D01*
X132328994Y-77105285D01*
X132339399Y-77193197D01*
X132339736Y-77196410D01*
X132347831Y-77284503D01*
X132349399Y-77290063D01*
X132350061Y-77293636D01*
X132352250Y-77304639D01*
X132353018Y-77308252D01*
X132353697Y-77313989D01*
X132379938Y-77398500D01*
X132380854Y-77401597D01*
X132404877Y-77486773D01*
X132407435Y-77491961D01*
X132408760Y-77495412D01*
X132412901Y-77505790D01*
X132414304Y-77509177D01*
X132416018Y-77514697D01*
X132418709Y-77519811D01*
X132418709Y-77519812D01*
X132457198Y-77592969D01*
X132458695Y-77595905D01*
X132497829Y-77675261D01*
X132501287Y-77679892D01*
X132503250Y-77683095D01*
X132509173Y-77692482D01*
X132511182Y-77695575D01*
X132513871Y-77700687D01*
X132568656Y-77770180D01*
X132570627Y-77772750D01*
X132620116Y-77839025D01*
X132620123Y-77839032D01*
X132623573Y-77843653D01*
X132627807Y-77847567D01*
X132627809Y-77847569D01*
X132683973Y-77899486D01*
X132687539Y-77902916D01*
X135090595Y-80305972D01*
X135124621Y-80368284D01*
X135127500Y-80395067D01*
X135127500Y-85890397D01*
X135107498Y-85958518D01*
X135102330Y-85965956D01*
X135020385Y-86075295D01*
X134969255Y-86211684D01*
X134962500Y-86273866D01*
X134962500Y-87970134D01*
X134969255Y-88032316D01*
X135020385Y-88168705D01*
X135107739Y-88285261D01*
X135224295Y-88372615D01*
X135360684Y-88423745D01*
X135404252Y-88428478D01*
X135419486Y-88430133D01*
X135419489Y-88430133D01*
X135422866Y-88430500D01*
X135426185Y-88430500D01*
X135493110Y-88454153D01*
X135528804Y-88500156D01*
X135530734Y-88499141D01*
X135536442Y-88510000D01*
X135536632Y-88510245D01*
X135536653Y-88510403D01*
X135556644Y-88548434D01*
X136258188Y-89249978D01*
X136272132Y-89257592D01*
X136273965Y-89257461D01*
X136280580Y-89253210D01*
X136986077Y-88547713D01*
X137008871Y-88505971D01*
X137011047Y-88495971D01*
X137061253Y-88445773D01*
X137114814Y-88430549D01*
X137115719Y-88430500D01*
X137119134Y-88430500D01*
X137122530Y-88430131D01*
X137122532Y-88430131D01*
X137134879Y-88428790D01*
X137181316Y-88423745D01*
X137317705Y-88372615D01*
X137434261Y-88285261D01*
X137521615Y-88168705D01*
X137543426Y-88110523D01*
X154099898Y-88110523D01*
X154111987Y-88362175D01*
X154113124Y-88371435D01*
X154162274Y-88618535D01*
X154164768Y-88627528D01*
X154249900Y-88864639D01*
X154253700Y-88873174D01*
X154372946Y-89095101D01*
X154377957Y-89102968D01*
X154441446Y-89187990D01*
X154452704Y-89196439D01*
X154465123Y-89189667D01*
X155489978Y-88164812D01*
X155496356Y-88153132D01*
X156226408Y-88153132D01*
X156226539Y-88154965D01*
X156230790Y-88161580D01*
X157261913Y-89192703D01*
X157274293Y-89199463D01*
X157282634Y-89193219D01*
X157408765Y-88997127D01*
X157413212Y-88988936D01*
X157516691Y-88759222D01*
X157519882Y-88750455D01*
X157588269Y-88507976D01*
X157590129Y-88498834D01*
X157622116Y-88247396D01*
X157622597Y-88241108D01*
X157624847Y-88155160D01*
X157624696Y-88148851D01*
X157605912Y-87896074D01*
X157604536Y-87886868D01*
X157548929Y-87641126D01*
X157546205Y-87632215D01*
X157454888Y-87397392D01*
X157450877Y-87388983D01*
X157325854Y-87170240D01*
X157320643Y-87162514D01*
X157283391Y-87115261D01*
X157271466Y-87106790D01*
X157259934Y-87113276D01*
X156234022Y-88139188D01*
X156226408Y-88153132D01*
X155496356Y-88153132D01*
X155497592Y-88150868D01*
X155497461Y-88149035D01*
X155493210Y-88142420D01*
X154463321Y-87112531D01*
X154450013Y-87105264D01*
X154439974Y-87112386D01*
X154429761Y-87124666D01*
X154424346Y-87132258D01*
X154293646Y-87347646D01*
X154289408Y-87355963D01*
X154191981Y-87588299D01*
X154189020Y-87597149D01*
X154127006Y-87841331D01*
X154125384Y-87850528D01*
X154100143Y-88101198D01*
X154099898Y-88110523D01*
X137543426Y-88110523D01*
X137572745Y-88032316D01*
X137579500Y-87970134D01*
X137579500Y-86740803D01*
X154815216Y-86740803D01*
X154819789Y-86750579D01*
X155849188Y-87779978D01*
X155863132Y-87787592D01*
X155864965Y-87787461D01*
X155871580Y-87783210D01*
X156900419Y-86754371D01*
X156906803Y-86742681D01*
X156897391Y-86730570D01*
X156760593Y-86635670D01*
X156752565Y-86630942D01*
X156526593Y-86519505D01*
X156517960Y-86516017D01*
X156277998Y-86439205D01*
X156268938Y-86437029D01*
X156020260Y-86396529D01*
X156010973Y-86395717D01*
X155759053Y-86392419D01*
X155749742Y-86392989D01*
X155500097Y-86426964D01*
X155490978Y-86428902D01*
X155249098Y-86499404D01*
X155240367Y-86502667D01*
X155011558Y-86608151D01*
X155003406Y-86612670D01*
X154824353Y-86730062D01*
X154815216Y-86740803D01*
X137579500Y-86740803D01*
X137579500Y-86273866D01*
X137572745Y-86211684D01*
X137521615Y-86075295D01*
X137439674Y-85965961D01*
X137414826Y-85899456D01*
X137414500Y-85890397D01*
X137414500Y-84561133D01*
X154817612Y-84561133D01*
X154826325Y-84572653D01*
X154924018Y-84644284D01*
X154931928Y-84649227D01*
X155154890Y-84766533D01*
X155163453Y-84770256D01*
X155401304Y-84853318D01*
X155410313Y-84855732D01*
X155657842Y-84902727D01*
X155667098Y-84903781D01*
X155918857Y-84913673D01*
X155928171Y-84913347D01*
X156178615Y-84885920D01*
X156187792Y-84884219D01*
X156431431Y-84820074D01*
X156440251Y-84817037D01*
X156671736Y-84717583D01*
X156680008Y-84713276D01*
X156894249Y-84580700D01*
X156901188Y-84575658D01*
X156909518Y-84563019D01*
X156903456Y-84552666D01*
X155874812Y-83524022D01*
X155860868Y-83516408D01*
X155859035Y-83516539D01*
X155852420Y-83520790D01*
X154824270Y-84548940D01*
X154817612Y-84561133D01*
X137414500Y-84561133D01*
X137414500Y-83110523D01*
X154099898Y-83110523D01*
X154111987Y-83362175D01*
X154113124Y-83371435D01*
X154162274Y-83618535D01*
X154164768Y-83627528D01*
X154249900Y-83864639D01*
X154253700Y-83873174D01*
X154372946Y-84095101D01*
X154377957Y-84102968D01*
X154441446Y-84187990D01*
X154452704Y-84196439D01*
X154465123Y-84189667D01*
X155489978Y-83164812D01*
X155496356Y-83153132D01*
X156226408Y-83153132D01*
X156226539Y-83154965D01*
X156230790Y-83161580D01*
X157261913Y-84192703D01*
X157274293Y-84199463D01*
X157282634Y-84193219D01*
X157408765Y-83997127D01*
X157413212Y-83988936D01*
X157516691Y-83759222D01*
X157519882Y-83750455D01*
X157588269Y-83507976D01*
X157590129Y-83498834D01*
X157622116Y-83247396D01*
X157622597Y-83241108D01*
X157624847Y-83155160D01*
X157624696Y-83148851D01*
X157605912Y-82896074D01*
X157604536Y-82886868D01*
X157548929Y-82641126D01*
X157546205Y-82632215D01*
X157454888Y-82397392D01*
X157450877Y-82388983D01*
X157325854Y-82170240D01*
X157320643Y-82162514D01*
X157283391Y-82115261D01*
X157271466Y-82106790D01*
X157259934Y-82113276D01*
X156234022Y-83139188D01*
X156226408Y-83153132D01*
X155496356Y-83153132D01*
X155497592Y-83150868D01*
X155497461Y-83149035D01*
X155493210Y-83142420D01*
X154463321Y-82112531D01*
X154450013Y-82105264D01*
X154439974Y-82112386D01*
X154429761Y-82124666D01*
X154424346Y-82132258D01*
X154293646Y-82347646D01*
X154289408Y-82355963D01*
X154191981Y-82588299D01*
X154189020Y-82597149D01*
X154127006Y-82841331D01*
X154125384Y-82850528D01*
X154100143Y-83101198D01*
X154099898Y-83110523D01*
X137414500Y-83110523D01*
X137414500Y-81740803D01*
X154815216Y-81740803D01*
X154819789Y-81750579D01*
X155849188Y-82779978D01*
X155863132Y-82787592D01*
X155864965Y-82787461D01*
X155871580Y-82783210D01*
X156900419Y-81754371D01*
X156906803Y-81742681D01*
X156897391Y-81730570D01*
X156760593Y-81635670D01*
X156752565Y-81630942D01*
X156526593Y-81519505D01*
X156517960Y-81516017D01*
X156277998Y-81439205D01*
X156268938Y-81437029D01*
X156020260Y-81396529D01*
X156010973Y-81395717D01*
X155759053Y-81392419D01*
X155749742Y-81392989D01*
X155500097Y-81426964D01*
X155490978Y-81428902D01*
X155249098Y-81499404D01*
X155240367Y-81502667D01*
X155011558Y-81608151D01*
X155003406Y-81612670D01*
X154824353Y-81730062D01*
X154815216Y-81740803D01*
X137414500Y-81740803D01*
X137414500Y-79912029D01*
X137414770Y-79903788D01*
X137418628Y-79844929D01*
X137419006Y-79839163D01*
X137408602Y-79751265D01*
X137408259Y-79747990D01*
X137400698Y-79665704D01*
X137400169Y-79659945D01*
X137398599Y-79654379D01*
X137397914Y-79650683D01*
X137395756Y-79639834D01*
X137394983Y-79636198D01*
X137394304Y-79630459D01*
X137372778Y-79561133D01*
X154817612Y-79561133D01*
X154826325Y-79572653D01*
X154924018Y-79644284D01*
X154931928Y-79649227D01*
X155154890Y-79766533D01*
X155163453Y-79770256D01*
X155401304Y-79853318D01*
X155410313Y-79855732D01*
X155657842Y-79902727D01*
X155667098Y-79903781D01*
X155918857Y-79913673D01*
X155928171Y-79913347D01*
X156178615Y-79885920D01*
X156187792Y-79884219D01*
X156431431Y-79820074D01*
X156440251Y-79817037D01*
X156671736Y-79717583D01*
X156680008Y-79713276D01*
X156894249Y-79580700D01*
X156901188Y-79575658D01*
X156909518Y-79563019D01*
X156903456Y-79552666D01*
X155874812Y-78524022D01*
X155860868Y-78516408D01*
X155859035Y-78516539D01*
X155852420Y-78520790D01*
X154824270Y-79548940D01*
X154817612Y-79561133D01*
X137372778Y-79561133D01*
X137368069Y-79545968D01*
X137367140Y-79542832D01*
X137344693Y-79463242D01*
X137343123Y-79457675D01*
X137340565Y-79452487D01*
X137339240Y-79449036D01*
X137335099Y-79438658D01*
X137333696Y-79435271D01*
X137331982Y-79429751D01*
X137290801Y-79351478D01*
X137289305Y-79348542D01*
X137279622Y-79328908D01*
X137250171Y-79269187D01*
X137246713Y-79264556D01*
X137244750Y-79261353D01*
X137238827Y-79251966D01*
X137236818Y-79248873D01*
X137234129Y-79243761D01*
X137179344Y-79174268D01*
X137177373Y-79171698D01*
X137127884Y-79105423D01*
X137127877Y-79105416D01*
X137124427Y-79100795D01*
X137118268Y-79095101D01*
X137064027Y-79044962D01*
X137060461Y-79041532D01*
X136129452Y-78110523D01*
X154099898Y-78110523D01*
X154111987Y-78362175D01*
X154113124Y-78371435D01*
X154162274Y-78618535D01*
X154164768Y-78627528D01*
X154249900Y-78864639D01*
X154253700Y-78873174D01*
X154372946Y-79095101D01*
X154377957Y-79102968D01*
X154441446Y-79187990D01*
X154452704Y-79196439D01*
X154465123Y-79189667D01*
X155489978Y-78164812D01*
X155496356Y-78153132D01*
X156226408Y-78153132D01*
X156226539Y-78154965D01*
X156230790Y-78161580D01*
X157261913Y-79192703D01*
X157274293Y-79199463D01*
X157282634Y-79193219D01*
X157408765Y-78997127D01*
X157413212Y-78988936D01*
X157516691Y-78759222D01*
X157519882Y-78750455D01*
X157588269Y-78507976D01*
X157590129Y-78498834D01*
X157622116Y-78247396D01*
X157622597Y-78241108D01*
X157624847Y-78155160D01*
X157624696Y-78148851D01*
X157605912Y-77896074D01*
X157604536Y-77886868D01*
X157548929Y-77641126D01*
X157546205Y-77632215D01*
X157454888Y-77397392D01*
X157450877Y-77388983D01*
X157325854Y-77170240D01*
X157320643Y-77162514D01*
X157283391Y-77115261D01*
X157271466Y-77106790D01*
X157259934Y-77113276D01*
X156234022Y-78139188D01*
X156226408Y-78153132D01*
X155496356Y-78153132D01*
X155497592Y-78150868D01*
X155497461Y-78149035D01*
X155493210Y-78142420D01*
X154463321Y-77112531D01*
X154450013Y-77105264D01*
X154439974Y-77112386D01*
X154429761Y-77124666D01*
X154424346Y-77132258D01*
X154293646Y-77347646D01*
X154289408Y-77355963D01*
X154191981Y-77588299D01*
X154189020Y-77597149D01*
X154127006Y-77841331D01*
X154125384Y-77850528D01*
X154100143Y-78101198D01*
X154099898Y-78110523D01*
X136129452Y-78110523D01*
X134850125Y-76831196D01*
X134816099Y-76768884D01*
X134818107Y-76740803D01*
X154815216Y-76740803D01*
X154819789Y-76750579D01*
X155849188Y-77779978D01*
X155863132Y-77787592D01*
X155864965Y-77787461D01*
X155871580Y-77783210D01*
X156900419Y-76754371D01*
X156906803Y-76742681D01*
X156897391Y-76730570D01*
X156760593Y-76635670D01*
X156752565Y-76630942D01*
X156526593Y-76519505D01*
X156517960Y-76516017D01*
X156277998Y-76439205D01*
X156268938Y-76437029D01*
X156020260Y-76396529D01*
X156010973Y-76395717D01*
X155759053Y-76392419D01*
X155749742Y-76392989D01*
X155500097Y-76426964D01*
X155490978Y-76428902D01*
X155249098Y-76499404D01*
X155240367Y-76502667D01*
X155011558Y-76608151D01*
X155003406Y-76612670D01*
X154824353Y-76730062D01*
X154815216Y-76740803D01*
X134818107Y-76740803D01*
X134821164Y-76698069D01*
X134824932Y-76689051D01*
X134849710Y-76635670D01*
X134852837Y-76628934D01*
X134917040Y-76397426D01*
X134938000Y-76201296D01*
X134938000Y-75966822D01*
X134936548Y-75949152D01*
X134923746Y-75793448D01*
X134923322Y-75788287D01*
X134864794Y-75555280D01*
X134768997Y-75334961D01*
X134640708Y-75136657D01*
X134620500Y-75068217D01*
X134620500Y-74561133D01*
X154817612Y-74561133D01*
X154826325Y-74572653D01*
X154924018Y-74644284D01*
X154931928Y-74649227D01*
X155154890Y-74766533D01*
X155163453Y-74770256D01*
X155401304Y-74853318D01*
X155410313Y-74855732D01*
X155657842Y-74902727D01*
X155667098Y-74903781D01*
X155918857Y-74913673D01*
X155928171Y-74913347D01*
X156178615Y-74885920D01*
X156187792Y-74884219D01*
X156431431Y-74820074D01*
X156440251Y-74817037D01*
X156671736Y-74717583D01*
X156680008Y-74713276D01*
X156894250Y-74580699D01*
X156901188Y-74575658D01*
X156909518Y-74563019D01*
X156903456Y-74552666D01*
X155874812Y-73524022D01*
X155860868Y-73516408D01*
X155859035Y-73516539D01*
X155852420Y-73520790D01*
X154824270Y-74548940D01*
X154817612Y-74561133D01*
X134620500Y-74561133D01*
X134620500Y-73110523D01*
X154099898Y-73110523D01*
X154111987Y-73362175D01*
X154113124Y-73371435D01*
X154162274Y-73618535D01*
X154164768Y-73627528D01*
X154249900Y-73864639D01*
X154253700Y-73873174D01*
X154372946Y-74095101D01*
X154377957Y-74102968D01*
X154441446Y-74187990D01*
X154452704Y-74196439D01*
X154465123Y-74189667D01*
X155489978Y-73164812D01*
X155496356Y-73153132D01*
X156226408Y-73153132D01*
X156226539Y-73154965D01*
X156230790Y-73161580D01*
X157261913Y-74192703D01*
X157274293Y-74199463D01*
X157282634Y-74193219D01*
X157408765Y-73997127D01*
X157413212Y-73988936D01*
X157516691Y-73759222D01*
X157519882Y-73750455D01*
X157588269Y-73507976D01*
X157590129Y-73498834D01*
X157622116Y-73247396D01*
X157622597Y-73241108D01*
X157624847Y-73155160D01*
X157624696Y-73148851D01*
X157605912Y-72896074D01*
X157604536Y-72886868D01*
X157548929Y-72641126D01*
X157546205Y-72632215D01*
X157454888Y-72397392D01*
X157450877Y-72388983D01*
X157325854Y-72170240D01*
X157320643Y-72162514D01*
X157283391Y-72115261D01*
X157271466Y-72106790D01*
X157259934Y-72113276D01*
X156234022Y-73139188D01*
X156226408Y-73153132D01*
X155496356Y-73153132D01*
X155497592Y-73150868D01*
X155497461Y-73149035D01*
X155493210Y-73142420D01*
X154463321Y-72112531D01*
X154450013Y-72105264D01*
X154439974Y-72112386D01*
X154429761Y-72124666D01*
X154424346Y-72132258D01*
X154293646Y-72347646D01*
X154289408Y-72355963D01*
X154191981Y-72588299D01*
X154189020Y-72597149D01*
X154127006Y-72841331D01*
X154125384Y-72850528D01*
X154100143Y-73101198D01*
X154099898Y-73110523D01*
X134620500Y-73110523D01*
X134620500Y-71740803D01*
X154815216Y-71740803D01*
X154819789Y-71750579D01*
X155849188Y-72779978D01*
X155863132Y-72787592D01*
X155864965Y-72787461D01*
X155871580Y-72783210D01*
X156900419Y-71754371D01*
X156906803Y-71742681D01*
X156897391Y-71730570D01*
X156760593Y-71635670D01*
X156752565Y-71630942D01*
X156526593Y-71519505D01*
X156517960Y-71516017D01*
X156277998Y-71439205D01*
X156268938Y-71437029D01*
X156020260Y-71396529D01*
X156010973Y-71395717D01*
X155759053Y-71392419D01*
X155749742Y-71392989D01*
X155500097Y-71426964D01*
X155490978Y-71428902D01*
X155249098Y-71499404D01*
X155240367Y-71502667D01*
X155011558Y-71608151D01*
X155003406Y-71612670D01*
X154824353Y-71730062D01*
X154815216Y-71740803D01*
X134620500Y-71740803D01*
X134620500Y-69446669D01*
X154104001Y-69446669D01*
X154104371Y-69453490D01*
X154109895Y-69504352D01*
X154113521Y-69519604D01*
X154158676Y-69640054D01*
X154167214Y-69655649D01*
X154243715Y-69757724D01*
X154256276Y-69770285D01*
X154358351Y-69846786D01*
X154373946Y-69855324D01*
X154494394Y-69900478D01*
X154509649Y-69904105D01*
X154560514Y-69909631D01*
X154567328Y-69910000D01*
X155589885Y-69910000D01*
X155605124Y-69905525D01*
X155606329Y-69904135D01*
X155608000Y-69896452D01*
X155608000Y-69891884D01*
X156116000Y-69891884D01*
X156120475Y-69907123D01*
X156121865Y-69908328D01*
X156129548Y-69909999D01*
X157156669Y-69909999D01*
X157163490Y-69909629D01*
X157214352Y-69904105D01*
X157229604Y-69900479D01*
X157350054Y-69855324D01*
X157365649Y-69846786D01*
X157467724Y-69770285D01*
X157480285Y-69757724D01*
X157556786Y-69655649D01*
X157565324Y-69640054D01*
X157610478Y-69519606D01*
X157614105Y-69504351D01*
X157619631Y-69453486D01*
X157620000Y-69446672D01*
X157620000Y-68424115D01*
X157615525Y-68408876D01*
X157614135Y-68407671D01*
X157606452Y-68406000D01*
X156134115Y-68406000D01*
X156118876Y-68410475D01*
X156117671Y-68411865D01*
X156116000Y-68419548D01*
X156116000Y-69891884D01*
X155608000Y-69891884D01*
X155608000Y-68424115D01*
X155603525Y-68408876D01*
X155602135Y-68407671D01*
X155594452Y-68406000D01*
X154122116Y-68406000D01*
X154106877Y-68410475D01*
X154105672Y-68411865D01*
X154104001Y-68419548D01*
X154104001Y-69446669D01*
X134620500Y-69446669D01*
X134620500Y-67879885D01*
X154104000Y-67879885D01*
X154108475Y-67895124D01*
X154109865Y-67896329D01*
X154117548Y-67898000D01*
X155589885Y-67898000D01*
X155605124Y-67893525D01*
X155606329Y-67892135D01*
X155608000Y-67884452D01*
X155608000Y-67879885D01*
X156116000Y-67879885D01*
X156120475Y-67895124D01*
X156121865Y-67896329D01*
X156129548Y-67898000D01*
X157601884Y-67898000D01*
X157617123Y-67893525D01*
X157618328Y-67892135D01*
X157619999Y-67884452D01*
X157619999Y-66857331D01*
X157619629Y-66850510D01*
X157614105Y-66799648D01*
X157610479Y-66784396D01*
X157565324Y-66663946D01*
X157556786Y-66648351D01*
X157480285Y-66546276D01*
X157467724Y-66533715D01*
X157365649Y-66457214D01*
X157350054Y-66448676D01*
X157229606Y-66403522D01*
X157214351Y-66399895D01*
X157163486Y-66394369D01*
X157156672Y-66394000D01*
X156134115Y-66394000D01*
X156118876Y-66398475D01*
X156117671Y-66399865D01*
X156116000Y-66407548D01*
X156116000Y-67879885D01*
X155608000Y-67879885D01*
X155608000Y-66412116D01*
X155603525Y-66396877D01*
X155602135Y-66395672D01*
X155594452Y-66394001D01*
X154567331Y-66394001D01*
X154560510Y-66394371D01*
X154509648Y-66399895D01*
X154494396Y-66403521D01*
X154373946Y-66448676D01*
X154358351Y-66457214D01*
X154256276Y-66533715D01*
X154243715Y-66546276D01*
X154167214Y-66648351D01*
X154158676Y-66663946D01*
X154113522Y-66784394D01*
X154109895Y-66799649D01*
X154104369Y-66850514D01*
X154104000Y-66857328D01*
X154104000Y-67879885D01*
X134620500Y-67879885D01*
X134620500Y-66171386D01*
X160382759Y-66171386D01*
X160390216Y-66181753D01*
X160629935Y-66375874D01*
X160635272Y-66379751D01*
X160955685Y-66587830D01*
X160961394Y-66591127D01*
X161301811Y-66764578D01*
X161307836Y-66767260D01*
X161664502Y-66904171D01*
X161670784Y-66906212D01*
X162039816Y-67005094D01*
X162046266Y-67006465D01*
X162423629Y-67066234D01*
X162430167Y-67066920D01*
X162811699Y-67086916D01*
X162818301Y-67086916D01*
X163199833Y-67066920D01*
X163206371Y-67066234D01*
X163583734Y-67006465D01*
X163590184Y-67005094D01*
X163959216Y-66906212D01*
X163965498Y-66904171D01*
X164322164Y-66767260D01*
X164328189Y-66764578D01*
X164668606Y-66591127D01*
X164674315Y-66587830D01*
X164994728Y-66379751D01*
X165000065Y-66375874D01*
X165238835Y-66182522D01*
X165247300Y-66170267D01*
X165240966Y-66159176D01*
X162827812Y-63746022D01*
X162813868Y-63738408D01*
X162812035Y-63738539D01*
X162805420Y-63742790D01*
X160389900Y-66158310D01*
X160382759Y-66171386D01*
X134620500Y-66171386D01*
X134620500Y-63991500D01*
X134640502Y-63923379D01*
X134694158Y-63876886D01*
X134746500Y-63865500D01*
X136445721Y-63865500D01*
X136513842Y-63885502D01*
X136534424Y-63902015D01*
X136696743Y-64062923D01*
X136700505Y-64065681D01*
X136700508Y-64065684D01*
X136817979Y-64151817D01*
X136907524Y-64217474D01*
X136911667Y-64219654D01*
X136911669Y-64219655D01*
X137134684Y-64336989D01*
X137134689Y-64336991D01*
X137138834Y-64339172D01*
X137385590Y-64425344D01*
X137390183Y-64426216D01*
X137637785Y-64473224D01*
X137637788Y-64473224D01*
X137642374Y-64474095D01*
X137772958Y-64479226D01*
X137898875Y-64484174D01*
X137898881Y-64484174D01*
X137903543Y-64484357D01*
X137992651Y-64474598D01*
X138158707Y-64456412D01*
X138158712Y-64456411D01*
X138163360Y-64455902D01*
X138276116Y-64426216D01*
X138411594Y-64390548D01*
X138411596Y-64390547D01*
X138416117Y-64389357D01*
X138656262Y-64286182D01*
X138878519Y-64148646D01*
X138882082Y-64145629D01*
X138882087Y-64145626D01*
X139034359Y-64016717D01*
X139078005Y-63979768D01*
X139140574Y-63908421D01*
X139200527Y-63870395D01*
X139235305Y-63865500D01*
X141445721Y-63865500D01*
X141513842Y-63885502D01*
X141534424Y-63902015D01*
X141696743Y-64062923D01*
X141700505Y-64065681D01*
X141700508Y-64065684D01*
X141817979Y-64151817D01*
X141907524Y-64217474D01*
X141911667Y-64219654D01*
X141911669Y-64219655D01*
X142134684Y-64336989D01*
X142134689Y-64336991D01*
X142138834Y-64339172D01*
X142385590Y-64425344D01*
X142390183Y-64426216D01*
X142637785Y-64473224D01*
X142637788Y-64473224D01*
X142642374Y-64474095D01*
X142772958Y-64479226D01*
X142898875Y-64484174D01*
X142898881Y-64484174D01*
X142903543Y-64484357D01*
X142992651Y-64474598D01*
X143158707Y-64456412D01*
X143158712Y-64456411D01*
X143163360Y-64455902D01*
X143276116Y-64426216D01*
X143411594Y-64390548D01*
X143411596Y-64390547D01*
X143416117Y-64389357D01*
X143656262Y-64286182D01*
X143878519Y-64148646D01*
X143882082Y-64145629D01*
X143882087Y-64145626D01*
X144074439Y-63982787D01*
X144074440Y-63982786D01*
X144078005Y-63979768D01*
X144168230Y-63876886D01*
X144247257Y-63786774D01*
X144247261Y-63786769D01*
X144250339Y-63783259D01*
X144276370Y-63742790D01*
X144360614Y-63611817D01*
X144391733Y-63563437D01*
X144475581Y-63377301D01*
X159102084Y-63377301D01*
X159122080Y-63758833D01*
X159122766Y-63765371D01*
X159182535Y-64142734D01*
X159183906Y-64149184D01*
X159282788Y-64518216D01*
X159284829Y-64524498D01*
X159421740Y-64881164D01*
X159424422Y-64887189D01*
X159597872Y-65227603D01*
X159601169Y-65233313D01*
X159809253Y-65553735D01*
X159813123Y-65559061D01*
X160006478Y-65797835D01*
X160018733Y-65806300D01*
X160029824Y-65799966D01*
X162442978Y-63386812D01*
X162450592Y-63372868D01*
X162450461Y-63371035D01*
X162446210Y-63364420D01*
X160030690Y-60948900D01*
X160017614Y-60941759D01*
X160007247Y-60949216D01*
X159813123Y-61188939D01*
X159809253Y-61194265D01*
X159601169Y-61514687D01*
X159597872Y-61520397D01*
X159424422Y-61860811D01*
X159421740Y-61866836D01*
X159284829Y-62223502D01*
X159282788Y-62229784D01*
X159183906Y-62598816D01*
X159182535Y-62605266D01*
X159122766Y-62982629D01*
X159122080Y-62989167D01*
X159102084Y-63370699D01*
X159102084Y-63377301D01*
X144475581Y-63377301D01*
X144499083Y-63325129D01*
X144570030Y-63073572D01*
X144603014Y-62814291D01*
X144605431Y-62722000D01*
X144586061Y-62461348D01*
X144528377Y-62206423D01*
X144433647Y-61962823D01*
X144303951Y-61735902D01*
X144142138Y-61530643D01*
X143951763Y-61351557D01*
X143769226Y-61224926D01*
X143740851Y-61205241D01*
X143740848Y-61205239D01*
X143737009Y-61202576D01*
X143709356Y-61188939D01*
X143506781Y-61089040D01*
X143506778Y-61089039D01*
X143502593Y-61086975D01*
X143489154Y-61082673D01*
X143258123Y-61008720D01*
X143253665Y-61007293D01*
X142995693Y-60965279D01*
X142881942Y-60963790D01*
X142739022Y-60961919D01*
X142739019Y-60961919D01*
X142734345Y-60961858D01*
X142475362Y-60997104D01*
X142224433Y-61070243D01*
X142220180Y-61072203D01*
X142220179Y-61072204D01*
X142183659Y-61089040D01*
X141987072Y-61179668D01*
X141948067Y-61205241D01*
X141772404Y-61320410D01*
X141772399Y-61320414D01*
X141768491Y-61322976D01*
X141716321Y-61369540D01*
X141627546Y-61448775D01*
X141573494Y-61497018D01*
X141545529Y-61530643D01*
X141543511Y-61533069D01*
X141484574Y-61572653D01*
X141446637Y-61578500D01*
X139240962Y-61578500D01*
X139172841Y-61558498D01*
X139148064Y-61537623D01*
X139145032Y-61534314D01*
X139142138Y-61530643D01*
X138951763Y-61351557D01*
X138769226Y-61224926D01*
X138740851Y-61205241D01*
X138740848Y-61205239D01*
X138737009Y-61202576D01*
X138709356Y-61188939D01*
X138506781Y-61089040D01*
X138506778Y-61089039D01*
X138502593Y-61086975D01*
X138489154Y-61082673D01*
X138258123Y-61008720D01*
X138253665Y-61007293D01*
X137995693Y-60965279D01*
X137881942Y-60963790D01*
X137739022Y-60961919D01*
X137739019Y-60961919D01*
X137734345Y-60961858D01*
X137475362Y-60997104D01*
X137224433Y-61070243D01*
X137220180Y-61072203D01*
X137220179Y-61072204D01*
X137183659Y-61089040D01*
X136987072Y-61179668D01*
X136948067Y-61205241D01*
X136772404Y-61320410D01*
X136772399Y-61320414D01*
X136768491Y-61322976D01*
X136716321Y-61369540D01*
X136627546Y-61448775D01*
X136573494Y-61497018D01*
X136545529Y-61530643D01*
X136543511Y-61533069D01*
X136484574Y-61572653D01*
X136446637Y-61578500D01*
X134726500Y-61578500D01*
X134658379Y-61558498D01*
X134611886Y-61504842D01*
X134600500Y-61452500D01*
X134600500Y-61423866D01*
X134593745Y-61361684D01*
X134542615Y-61225295D01*
X134455261Y-61108739D01*
X134338705Y-61021385D01*
X134202316Y-60970255D01*
X134140134Y-60963500D01*
X131543866Y-60963500D01*
X131481684Y-60970255D01*
X131345295Y-61021385D01*
X131228739Y-61108739D01*
X131141385Y-61225295D01*
X131090255Y-61361684D01*
X131083500Y-61423866D01*
X131083500Y-64020134D01*
X127359287Y-64020134D01*
X124790849Y-61451696D01*
X124785212Y-61445678D01*
X124746316Y-61401326D01*
X124742506Y-61396981D01*
X124688346Y-61354285D01*
X124673018Y-61342202D01*
X124670453Y-61340124D01*
X124606900Y-61287266D01*
X124606895Y-61287262D01*
X124602460Y-61283574D01*
X124597426Y-61280755D01*
X124594416Y-61278686D01*
X124585146Y-61272492D01*
X124582001Y-61270449D01*
X124577463Y-61266872D01*
X124572355Y-61264184D01*
X124572351Y-61264182D01*
X124499184Y-61225688D01*
X124496284Y-61224113D01*
X124485564Y-61218109D01*
X124454135Y-61200508D01*
X124424139Y-61183709D01*
X124424137Y-61183708D01*
X124419096Y-61180885D01*
X124413624Y-61179028D01*
X124410224Y-61177514D01*
X124400013Y-61173127D01*
X124396579Y-61171705D01*
X124391473Y-61169018D01*
X124385959Y-61167306D01*
X124385957Y-61167305D01*
X124307001Y-61142788D01*
X124303865Y-61141769D01*
X124250720Y-61123729D01*
X124220088Y-61113331D01*
X124214375Y-61112502D01*
X124210862Y-61111659D01*
X124199849Y-61109167D01*
X124196282Y-61108409D01*
X124190766Y-61106696D01*
X124185038Y-61106018D01*
X124185033Y-61106017D01*
X124132633Y-61099816D01*
X124102882Y-61096294D01*
X124099660Y-61095870D01*
X124012103Y-61083175D01*
X123929946Y-61086403D01*
X123924999Y-61086500D01*
X120997571Y-61086500D01*
X120989330Y-61086230D01*
X120978986Y-61085552D01*
X120924705Y-61081994D01*
X120836807Y-61092398D01*
X120833539Y-61092740D01*
X120745487Y-61100831D01*
X120739921Y-61102401D01*
X120736225Y-61103086D01*
X120725376Y-61105244D01*
X120721740Y-61106017D01*
X120716001Y-61106696D01*
X120631510Y-61132931D01*
X120628374Y-61133860D01*
X120596718Y-61142788D01*
X120543217Y-61157877D01*
X120538029Y-61160435D01*
X120534578Y-61161760D01*
X120524143Y-61165923D01*
X120520799Y-61167308D01*
X120515293Y-61169018D01*
X120510190Y-61171703D01*
X120510180Y-61171707D01*
X120436998Y-61210210D01*
X120434074Y-61211701D01*
X120354729Y-61250829D01*
X120350100Y-61254286D01*
X120346950Y-61256216D01*
X120337507Y-61262174D01*
X120334415Y-61264182D01*
X120329304Y-61266871D01*
X120324772Y-61270444D01*
X120324770Y-61270445D01*
X120308116Y-61283574D01*
X120261391Y-61320410D01*
X120259843Y-61321630D01*
X120257242Y-61323626D01*
X120186337Y-61376573D01*
X120182423Y-61380807D01*
X120182421Y-61380809D01*
X120130504Y-61436973D01*
X120127074Y-61440539D01*
X118164018Y-63403595D01*
X118101706Y-63437621D01*
X118074923Y-63440500D01*
X117566600Y-63440500D01*
X117563354Y-63440837D01*
X117563350Y-63440837D01*
X117467692Y-63450762D01*
X117467688Y-63450763D01*
X117460834Y-63451474D01*
X117454298Y-63453655D01*
X117454296Y-63453655D01*
X117332727Y-63494214D01*
X117293054Y-63507450D01*
X117142652Y-63600522D01*
X117017695Y-63725697D01*
X117013855Y-63731927D01*
X117013854Y-63731928D01*
X116935548Y-63858964D01*
X116924885Y-63876262D01*
X116869203Y-64044139D01*
X116868503Y-64050975D01*
X116868502Y-64050978D01*
X116866248Y-64072978D01*
X116858500Y-64148600D01*
X116858500Y-64753157D01*
X116838498Y-64821278D01*
X116821595Y-64842252D01*
X110161252Y-71502595D01*
X110098940Y-71536621D01*
X110072157Y-71539500D01*
X109464866Y-71539500D01*
X109402684Y-71546255D01*
X109266295Y-71597385D01*
X109149739Y-71684739D01*
X109062385Y-71801295D01*
X109011255Y-71937684D01*
X109004500Y-71999866D01*
X109004500Y-73796134D01*
X109011255Y-73858316D01*
X109062385Y-73994705D01*
X109149739Y-74111261D01*
X109266295Y-74198615D01*
X109402684Y-74249745D01*
X109464866Y-74256500D01*
X111261134Y-74256500D01*
X111323316Y-74249745D01*
X111459705Y-74198615D01*
X111576261Y-74111261D01*
X111663615Y-73994705D01*
X111685799Y-73935529D01*
X111707598Y-73877382D01*
X111750240Y-73820618D01*
X111816802Y-73795918D01*
X111886150Y-73811126D01*
X111920817Y-73839114D01*
X111949250Y-73871938D01*
X112121126Y-74014632D01*
X112314000Y-74127338D01*
X112522692Y-74207030D01*
X112527760Y-74208061D01*
X112527763Y-74208062D01*
X112635017Y-74229883D01*
X112741597Y-74251567D01*
X112746772Y-74251757D01*
X112746774Y-74251757D01*
X112959673Y-74259564D01*
X112959677Y-74259564D01*
X112964837Y-74259753D01*
X112969957Y-74259097D01*
X112969959Y-74259097D01*
X113181288Y-74232025D01*
X113181289Y-74232025D01*
X113186416Y-74231368D01*
X113191366Y-74229883D01*
X113395429Y-74168661D01*
X113395434Y-74168659D01*
X113400384Y-74167174D01*
X113600994Y-74068896D01*
X113782860Y-73939173D01*
X113941096Y-73781489D01*
X113957097Y-73759222D01*
X114071177Y-73600461D01*
X114127172Y-73556813D01*
X114197875Y-73550367D01*
X114260840Y-73583170D01*
X114296074Y-73644806D01*
X114299500Y-73673987D01*
X114299500Y-81485391D01*
X114279498Y-81553512D01*
X114262595Y-81574486D01*
X113782573Y-82054508D01*
X113720261Y-82088534D01*
X113649446Y-82083469D01*
X113592610Y-82040922D01*
X113585759Y-82030778D01*
X113486204Y-81866715D01*
X113479938Y-81858122D01*
X113333667Y-81689559D01*
X113326036Y-81682139D01*
X113153458Y-81540632D01*
X113144691Y-81534607D01*
X112950738Y-81424203D01*
X112941074Y-81419738D01*
X112731289Y-81343590D01*
X112721021Y-81340819D01*
X112500234Y-81300894D01*
X112492005Y-81299961D01*
X112473126Y-81299070D01*
X112470151Y-81299000D01*
X112413115Y-81299000D01*
X112397876Y-81303475D01*
X112396671Y-81304865D01*
X112395000Y-81312548D01*
X112395000Y-82805000D01*
X112374998Y-82873121D01*
X112321342Y-82919614D01*
X112269000Y-82931000D01*
X110579373Y-82931000D01*
X110565842Y-82934973D01*
X110564317Y-82945580D01*
X110590252Y-83069188D01*
X110593312Y-83079384D01*
X110675284Y-83286952D01*
X110680018Y-83296489D01*
X110795796Y-83487285D01*
X110802062Y-83495878D01*
X110948333Y-83664441D01*
X110955964Y-83671861D01*
X111128542Y-83813368D01*
X111137309Y-83819393D01*
X111169978Y-83837989D01*
X111219285Y-83889071D01*
X111233146Y-83958702D01*
X111207163Y-84024773D01*
X111178013Y-84052011D01*
X111114010Y-84095101D01*
X111049104Y-84138798D01*
X110879832Y-84300276D01*
X110740187Y-84487965D01*
X110737771Y-84492716D01*
X110737769Y-84492720D01*
X110707291Y-84552666D01*
X110634162Y-84696500D01*
X110564790Y-84919917D01*
X110534052Y-85151829D01*
X110542828Y-85385604D01*
X110590868Y-85614559D01*
X110676797Y-85832146D01*
X110679566Y-85836709D01*
X110794073Y-86025410D01*
X110798159Y-86032144D01*
X110951483Y-86208834D01*
X110979888Y-86232124D01*
X110988770Y-86239407D01*
X111028764Y-86298067D01*
X111030695Y-86369038D01*
X110993950Y-86429786D01*
X110971610Y-86444733D01*
X110972054Y-86445450D01*
X110821652Y-86538522D01*
X110696695Y-86663697D01*
X110692855Y-86669927D01*
X110692854Y-86669928D01*
X110640803Y-86754371D01*
X110603885Y-86814262D01*
X110548203Y-86982139D01*
X110537500Y-87086600D01*
X110537500Y-87691157D01*
X110517498Y-87759278D01*
X110500595Y-87780252D01*
X109203696Y-89077151D01*
X109197678Y-89082788D01*
X109148981Y-89125494D01*
X109145406Y-89130029D01*
X109145405Y-89130030D01*
X109094202Y-89194982D01*
X109092124Y-89197547D01*
X109039266Y-89261100D01*
X109039262Y-89261105D01*
X109035574Y-89265540D01*
X109032755Y-89270574D01*
X109030686Y-89273584D01*
X109024492Y-89282854D01*
X109022449Y-89285999D01*
X109018872Y-89290537D01*
X109016184Y-89295645D01*
X109016182Y-89295649D01*
X108977688Y-89368816D01*
X108976118Y-89371706D01*
X108932885Y-89448904D01*
X108931028Y-89454376D01*
X108929514Y-89457776D01*
X108925127Y-89467987D01*
X108923705Y-89471421D01*
X108921018Y-89476527D01*
X108919306Y-89482041D01*
X108919305Y-89482043D01*
X108894788Y-89560999D01*
X108893769Y-89564135D01*
X108865331Y-89647912D01*
X108864502Y-89653625D01*
X108863659Y-89657138D01*
X108861167Y-89668151D01*
X108860409Y-89671718D01*
X108858696Y-89677234D01*
X108858018Y-89682962D01*
X108858017Y-89682967D01*
X108848297Y-89765098D01*
X108847870Y-89768340D01*
X108835175Y-89855897D01*
X108837432Y-89913347D01*
X108838403Y-89938054D01*
X108838500Y-89943001D01*
X108838500Y-95842195D01*
X108838230Y-95850436D01*
X108833994Y-95915061D01*
X104324500Y-95915061D01*
X104324500Y-82405043D01*
X110561964Y-82405043D01*
X110564160Y-82419207D01*
X110577345Y-82423000D01*
X111868885Y-82423000D01*
X111884124Y-82418525D01*
X111885329Y-82417135D01*
X111887000Y-82409452D01*
X111887000Y-81317115D01*
X111882525Y-81301876D01*
X111881135Y-81300671D01*
X111873452Y-81299000D01*
X111859946Y-81299000D01*
X111854637Y-81299225D01*
X111688293Y-81313339D01*
X111677821Y-81315129D01*
X111461798Y-81371198D01*
X111451758Y-81374734D01*
X111248268Y-81466399D01*
X111238982Y-81471568D01*
X111053845Y-81596210D01*
X111045559Y-81602871D01*
X110884070Y-81756924D01*
X110877021Y-81764892D01*
X110743797Y-81943952D01*
X110738198Y-81952982D01*
X110637047Y-82151931D01*
X110633044Y-82161792D01*
X110566862Y-82374929D01*
X110564580Y-82385309D01*
X110561964Y-82405043D01*
X104324500Y-82405043D01*
X104324500Y-66171386D01*
X105374759Y-66171386D01*
X105382216Y-66181753D01*
X105621935Y-66375874D01*
X105627272Y-66379751D01*
X105947685Y-66587830D01*
X105953394Y-66591127D01*
X106293811Y-66764578D01*
X106299836Y-66767260D01*
X106656502Y-66904171D01*
X106662784Y-66906212D01*
X107031816Y-67005094D01*
X107038266Y-67006465D01*
X107415629Y-67066234D01*
X107422167Y-67066920D01*
X107803699Y-67086916D01*
X107810301Y-67086916D01*
X108191833Y-67066920D01*
X108198371Y-67066234D01*
X108575734Y-67006465D01*
X108582184Y-67005094D01*
X108951216Y-66906212D01*
X108957498Y-66904171D01*
X109314164Y-66767260D01*
X109320189Y-66764578D01*
X109660606Y-66591127D01*
X109666315Y-66587830D01*
X109986728Y-66379751D01*
X109992065Y-66375874D01*
X110230835Y-66182522D01*
X110239300Y-66170267D01*
X110232966Y-66159176D01*
X107819812Y-63746022D01*
X107805868Y-63738408D01*
X107804035Y-63738539D01*
X107797420Y-63742790D01*
X105381900Y-66158310D01*
X105374759Y-66171386D01*
X104324500Y-66171386D01*
X104324500Y-65231609D01*
X104344502Y-65163488D01*
X104398158Y-65116995D01*
X104468432Y-65106891D01*
X104533012Y-65136385D01*
X104562767Y-65174406D01*
X104589872Y-65227602D01*
X104593169Y-65233313D01*
X104801253Y-65553735D01*
X104805123Y-65559061D01*
X104998478Y-65797835D01*
X105010733Y-65806300D01*
X105021824Y-65799966D01*
X107434978Y-63386812D01*
X107441356Y-63375132D01*
X108171408Y-63375132D01*
X108171539Y-63376965D01*
X108175790Y-63383580D01*
X110591310Y-65799100D01*
X110604386Y-65806241D01*
X110614753Y-65798784D01*
X110808877Y-65559061D01*
X110812747Y-65553735D01*
X111020831Y-65233313D01*
X111024128Y-65227603D01*
X111197578Y-64887189D01*
X111200260Y-64881164D01*
X111337171Y-64524498D01*
X111339212Y-64518216D01*
X111438094Y-64149184D01*
X111439465Y-64142734D01*
X111499234Y-63765371D01*
X111499920Y-63758833D01*
X111519916Y-63377301D01*
X111519916Y-63370699D01*
X111499920Y-62989167D01*
X111499234Y-62982629D01*
X111439465Y-62605266D01*
X111438094Y-62598816D01*
X111339212Y-62229784D01*
X111337171Y-62223502D01*
X111200260Y-61866836D01*
X111197578Y-61860811D01*
X111024128Y-61520397D01*
X111020831Y-61514687D01*
X110812747Y-61194265D01*
X110808877Y-61188939D01*
X110615522Y-60950165D01*
X110603267Y-60941700D01*
X110592176Y-60948034D01*
X108179022Y-63361188D01*
X108171408Y-63375132D01*
X107441356Y-63375132D01*
X107442592Y-63372868D01*
X107442461Y-63371035D01*
X107438210Y-63364420D01*
X105022690Y-60948900D01*
X105009614Y-60941759D01*
X104999247Y-60949216D01*
X104805123Y-61188939D01*
X104801253Y-61194265D01*
X104593169Y-61514687D01*
X104589872Y-61520398D01*
X104562767Y-61573594D01*
X104514018Y-61625209D01*
X104445103Y-61642275D01*
X104377902Y-61619374D01*
X104333750Y-61563776D01*
X104324500Y-61516391D01*
X104324500Y-59716500D01*
X104344502Y-59648379D01*
X104398158Y-59601886D01*
X104450500Y-59590500D01*
X106643536Y-59590500D01*
X106711657Y-59610502D01*
G37*
%TD.AperFunction*%
%TA.AperFunction,Conductor*%
G36*
X124879853Y-64775006D02*
G01*
X126056677Y-65951831D01*
X127216595Y-67111749D01*
X127250621Y-67174061D01*
X127253500Y-67200844D01*
X127253500Y-74520898D01*
X127233498Y-74589019D01*
X127196774Y-74623247D01*
X127197795Y-74624609D01*
X127081239Y-74711963D01*
X126993885Y-74828519D01*
X126942755Y-74964908D01*
X126936000Y-75027090D01*
X126936000Y-76866881D01*
X126915998Y-76935002D01*
X126899095Y-76955976D01*
X124570696Y-79284375D01*
X124564678Y-79290012D01*
X124515981Y-79332718D01*
X124512406Y-79337253D01*
X124512405Y-79337254D01*
X124461202Y-79402206D01*
X124459124Y-79404771D01*
X124406266Y-79468324D01*
X124406262Y-79468329D01*
X124402574Y-79472764D01*
X124399755Y-79477798D01*
X124397686Y-79480808D01*
X124391492Y-79490078D01*
X124389449Y-79493223D01*
X124385872Y-79497761D01*
X124383184Y-79502869D01*
X124383182Y-79502873D01*
X124344688Y-79576040D01*
X124343118Y-79578930D01*
X124299885Y-79656128D01*
X124298028Y-79661600D01*
X124296514Y-79665000D01*
X124292127Y-79675211D01*
X124290705Y-79678645D01*
X124288018Y-79683751D01*
X124286306Y-79689265D01*
X124286305Y-79689267D01*
X124261788Y-79768223D01*
X124260769Y-79771359D01*
X124232331Y-79855136D01*
X124231502Y-79860849D01*
X124230659Y-79864362D01*
X124228167Y-79875375D01*
X124227409Y-79878942D01*
X124225696Y-79884458D01*
X124225018Y-79890186D01*
X124225017Y-79890191D01*
X124215297Y-79972322D01*
X124214870Y-79975564D01*
X124202175Y-80063121D01*
X124202402Y-80068889D01*
X124205403Y-80145278D01*
X124205500Y-80150225D01*
X124205500Y-85852500D01*
X124185498Y-85920621D01*
X124131842Y-85967114D01*
X124079500Y-85978500D01*
X121327795Y-85978500D01*
X121319554Y-85978230D01*
X121303633Y-85977187D01*
X121254939Y-85973995D01*
X121203486Y-85980085D01*
X121167092Y-85984392D01*
X121163813Y-85984736D01*
X121081477Y-85992302D01*
X121081476Y-85992302D01*
X121075721Y-85992831D01*
X121070162Y-85994399D01*
X121066588Y-85995061D01*
X121055585Y-85997250D01*
X121051972Y-85998018D01*
X121046235Y-85998697D01*
X120961724Y-86024938D01*
X120958627Y-86025854D01*
X120873451Y-86049877D01*
X120868263Y-86052435D01*
X120864812Y-86053760D01*
X120854434Y-86057901D01*
X120851048Y-86059304D01*
X120845527Y-86061018D01*
X120767202Y-86102226D01*
X120764337Y-86103686D01*
X120760977Y-86105343D01*
X120716789Y-86117803D01*
X120694721Y-86119831D01*
X120689151Y-86121402D01*
X120685434Y-86122091D01*
X120674610Y-86124244D01*
X120670974Y-86125017D01*
X120665235Y-86125696D01*
X120580744Y-86151931D01*
X120577608Y-86152860D01*
X120516459Y-86170106D01*
X120492451Y-86176877D01*
X120487263Y-86179435D01*
X120483812Y-86180760D01*
X120473434Y-86184901D01*
X120470047Y-86186304D01*
X120464527Y-86188018D01*
X120459413Y-86190709D01*
X120459412Y-86190709D01*
X120386255Y-86229198D01*
X120383319Y-86230695D01*
X120303963Y-86269829D01*
X120299332Y-86273287D01*
X120296129Y-86275250D01*
X120286742Y-86281173D01*
X120283649Y-86283182D01*
X120278537Y-86285871D01*
X120209044Y-86340656D01*
X120206474Y-86342627D01*
X120140199Y-86392116D01*
X120140192Y-86392123D01*
X120135571Y-86395573D01*
X120131657Y-86399807D01*
X120131655Y-86399809D01*
X120079738Y-86455973D01*
X120076308Y-86459539D01*
X112648263Y-93887584D01*
X112585951Y-93921610D01*
X112569493Y-93924065D01*
X112527373Y-93927528D01*
X112489063Y-93930678D01*
X112256056Y-93989206D01*
X112127229Y-94045221D01*
X112040474Y-94082943D01*
X112040471Y-94082945D01*
X112035737Y-94085003D01*
X111954767Y-94137385D01*
X111842842Y-94209793D01*
X111834023Y-94215498D01*
X111656330Y-94377186D01*
X111653128Y-94381241D01*
X111510633Y-94561670D01*
X111510630Y-94561675D01*
X111507432Y-94565724D01*
X111391326Y-94776050D01*
X111389602Y-94780919D01*
X111389600Y-94780923D01*
X111370273Y-94835501D01*
X111328678Y-94893038D01*
X111262581Y-94918953D01*
X111192965Y-94905019D01*
X111141933Y-94855660D01*
X111125500Y-94793441D01*
X111125500Y-90441843D01*
X111145502Y-90373722D01*
X111162405Y-90352748D01*
X112342749Y-89172405D01*
X112405061Y-89138379D01*
X112431844Y-89135500D01*
X113036400Y-89135500D01*
X113039646Y-89135163D01*
X113039650Y-89135163D01*
X113135308Y-89125238D01*
X113135312Y-89125237D01*
X113142166Y-89124526D01*
X113148702Y-89122345D01*
X113148704Y-89122345D01*
X113302998Y-89070868D01*
X113309946Y-89068550D01*
X113460348Y-88975478D01*
X113585305Y-88850303D01*
X113589146Y-88844072D01*
X113674275Y-88705968D01*
X113674276Y-88705966D01*
X113678115Y-88699738D01*
X113733797Y-88531861D01*
X113734932Y-88520790D01*
X113741759Y-88454153D01*
X113744500Y-88427400D01*
X113744500Y-87086600D01*
X113733526Y-86980834D01*
X113677550Y-86813054D01*
X113584478Y-86662652D01*
X113459303Y-86537695D01*
X113429794Y-86519505D01*
X113308738Y-86444885D01*
X113310062Y-86442738D01*
X113265710Y-86403688D01*
X113246248Y-86335411D01*
X113266788Y-86267451D01*
X113285272Y-86245239D01*
X113398306Y-86137410D01*
X113398316Y-86137398D01*
X113402168Y-86133724D01*
X113541813Y-85946035D01*
X113554735Y-85920621D01*
X113645420Y-85742256D01*
X113645420Y-85742255D01*
X113647838Y-85737500D01*
X113717210Y-85514083D01*
X113736031Y-85372082D01*
X113764811Y-85307181D01*
X113771844Y-85299543D01*
X116221304Y-82850083D01*
X116227322Y-82844446D01*
X116230874Y-82841331D01*
X116276019Y-82801740D01*
X116287276Y-82787461D01*
X116330798Y-82732252D01*
X116332876Y-82729687D01*
X116385734Y-82666134D01*
X116385738Y-82666129D01*
X116389426Y-82661694D01*
X116392245Y-82656660D01*
X116394314Y-82653650D01*
X116400508Y-82644380D01*
X116402551Y-82641235D01*
X116406128Y-82636697D01*
X116447318Y-82558408D01*
X116448887Y-82555518D01*
X116489291Y-82483373D01*
X116489292Y-82483371D01*
X116492115Y-82478330D01*
X116493972Y-82472858D01*
X116495486Y-82469458D01*
X116499873Y-82459247D01*
X116501295Y-82455813D01*
X116503982Y-82450707D01*
X116505695Y-82445191D01*
X116530212Y-82366235D01*
X116531231Y-82363099D01*
X116557813Y-82284789D01*
X116559669Y-82279322D01*
X116560498Y-82273609D01*
X116561341Y-82270096D01*
X116563833Y-82259083D01*
X116564591Y-82255516D01*
X116566304Y-82250000D01*
X116576704Y-82162135D01*
X116577132Y-82158883D01*
X116588998Y-82077050D01*
X116588998Y-82077045D01*
X116589826Y-82071336D01*
X116586597Y-81989164D01*
X116586500Y-81984217D01*
X116586500Y-73675379D01*
X116607610Y-73609816D01*
X116605771Y-73608711D01*
X116608436Y-73604276D01*
X116611453Y-73600077D01*
X116632836Y-73556813D01*
X116708136Y-73404453D01*
X116708137Y-73404451D01*
X116710430Y-73399811D01*
X116775370Y-73186069D01*
X116804529Y-72964590D01*
X116806156Y-72898000D01*
X116787852Y-72675361D01*
X116733431Y-72458702D01*
X116644354Y-72253840D01*
X116523014Y-72066277D01*
X116372670Y-71901051D01*
X116368619Y-71897852D01*
X116368615Y-71897848D01*
X116201414Y-71765800D01*
X116201410Y-71765798D01*
X116197359Y-71762598D01*
X116001789Y-71654638D01*
X115991794Y-71651099D01*
X115956316Y-71638535D01*
X115898779Y-71596941D01*
X115872863Y-71530844D01*
X115886797Y-71461228D01*
X115907730Y-71432243D01*
X117221510Y-70071542D01*
X117234229Y-70060048D01*
X119930430Y-67938063D01*
X119931318Y-67937427D01*
X119931885Y-67937129D01*
X120066826Y-67830749D01*
X120100722Y-67796853D01*
X120103158Y-67794481D01*
X120165031Y-67735861D01*
X120165033Y-67735859D01*
X120169222Y-67731890D01*
X120172874Y-67726872D01*
X120185655Y-67711920D01*
X121374346Y-66523229D01*
X121398076Y-66504605D01*
X121587578Y-66389612D01*
X121587580Y-66389610D01*
X121592144Y-66386841D01*
X121768834Y-66233517D01*
X121917165Y-66052614D01*
X121919968Y-66047691D01*
X121938577Y-66014999D01*
X121989659Y-65965693D01*
X122059289Y-65951831D01*
X122125360Y-65977814D01*
X122152599Y-66006964D01*
X122236210Y-66131155D01*
X122242871Y-66139441D01*
X122396924Y-66300930D01*
X122404892Y-66307979D01*
X122583952Y-66441203D01*
X122592982Y-66446802D01*
X122791931Y-66547953D01*
X122801792Y-66551956D01*
X123014929Y-66618138D01*
X123025309Y-66620420D01*
X123045043Y-66623036D01*
X123059207Y-66620840D01*
X123063000Y-66607655D01*
X123063000Y-66605627D01*
X123571000Y-66605627D01*
X123574973Y-66619158D01*
X123585580Y-66620683D01*
X123709188Y-66594748D01*
X123719384Y-66591688D01*
X123926952Y-66509716D01*
X123936489Y-66504982D01*
X124127285Y-66389204D01*
X124135878Y-66382938D01*
X124304441Y-66236667D01*
X124311861Y-66229036D01*
X124453368Y-66056458D01*
X124459393Y-66047691D01*
X124569797Y-65853738D01*
X124574262Y-65844074D01*
X124650410Y-65634289D01*
X124653181Y-65624021D01*
X124693106Y-65403234D01*
X124694039Y-65395005D01*
X124694930Y-65376126D01*
X124695000Y-65373151D01*
X124695000Y-65316115D01*
X124690525Y-65300876D01*
X124689135Y-65299671D01*
X124681452Y-65298000D01*
X123589115Y-65298000D01*
X123573876Y-65302475D01*
X123572671Y-65303865D01*
X123571000Y-65311548D01*
X123571000Y-66605627D01*
X123063000Y-66605627D01*
X123063000Y-64916000D01*
X123083002Y-64847879D01*
X123136658Y-64801386D01*
X123189000Y-64790000D01*
X124676885Y-64790000D01*
X124692124Y-64785525D01*
X124695534Y-64781590D01*
X124755261Y-64743206D01*
X124826257Y-64743206D01*
X124879853Y-64775006D01*
G37*
%TD.AperFunction*%
%TD*%
M02*
