M48
; DRILL file {KiCad (6.0.6)} date Fri Jul 29 16:28:34 2022
; FORMAT={-:-/ absolute / inch / decimal}
; #@! TF.CreationDate,2022-07-29T16:28:34-07:00
; #@! TF.GenerationSoftware,Kicad,Pcbnew,(6.0.6)
; #@! TF.FileFunction,Plated,1,2,PTH
FMAT,2
INCH
; #@! TA.AperFunction,Plated,PTH,ViaDrill
T1C0.0295
; #@! TA.AperFunction,Plated,PTH,ComponentDrill
T2C0.0315
; #@! TA.AperFunction,Plated,PTH,ComponentDrill
T3C0.0394
; #@! TA.AperFunction,Plated,PTH,ComponentDrill
T4C0.0433
; #@! TA.AperFunction,Plated,PTH,ComponentDrill
T5C0.0469
; #@! TA.AperFunction,Plated,PTH,ComponentDrill
T6C0.0512
; #@! TA.AperFunction,Plated,PTH,ComponentDrill
T7C0.1260
%
G90
G05
T1
X4.16Y-3.99
X4.165Y-3.325
X4.185Y-2.725
X4.345Y-2.64
X4.42Y-2.43
X4.5Y-4.28
X4.715Y-3.755
X4.76Y-3.0
X4.76Y-3.21
X4.76Y-4.01
X4.8Y-4.37
X5.1Y-3.63
X5.135Y-3.25
X5.31Y-4.405
X5.485Y-3.045
X5.545Y-4.015
X5.625Y-3.2
X5.67Y-2.88
X5.68Y-3.535
X6.08Y-2.435
X6.445Y-2.745
X6.455Y-2.965
X6.455Y-3.715
X6.46Y-4.01
X6.465Y-3.285
T2
X4.935Y-3.43
X4.935Y-3.5284
X4.935Y-3.7276
X4.935Y-3.826
X5.365Y-3.43
X5.365Y-3.5284
X5.365Y-3.7126
X5.365Y-3.811
T3
X4.345Y-2.87
X4.445Y-2.87
X4.545Y-2.87
T4
X4.44Y-3.755
X4.44Y-3.855
X4.44Y-3.955
X5.055Y-2.9951
X5.055Y-4.2235
X5.155Y-2.9951
X5.155Y-4.2235
X5.255Y-2.9951
X5.255Y-4.2235
T5
X4.415Y-3.255
X4.415Y-3.355
X4.415Y-3.455
X4.655Y-2.5608
X4.755Y-2.5608
X4.855Y-2.5608
T6
X5.23Y-2.4694
X5.4269Y-2.4694
X5.6237Y-2.4694
X6.1363Y-2.6831
X6.1363Y-2.88
X6.1363Y-3.0769
X6.1363Y-3.2737
X6.1363Y-3.4706
X6.1363Y-3.7731
X6.1363Y-3.97
X6.1363Y-4.1669
T7
X4.2444Y-2.495
X4.2444Y-4.309
X6.41Y-2.495
X6.41Y-4.309
T0
M30
