%TF.GenerationSoftware,KiCad,Pcbnew,(6.0.6)*%
%TF.CreationDate,2022-07-29T16:28:39-07:00*%
%TF.ProjectId,ubitx power supply,75626974-7820-4706-9f77-657220737570,rev?*%
%TF.SameCoordinates,Original*%
%TF.FileFunction,Legend,Top*%
%TF.FilePolarity,Positive*%
%FSLAX46Y46*%
G04 Gerber Fmt 4.6, Leading zero omitted, Abs format (unit mm)*
G04 Created by KiCad (PCBNEW (6.0.6)) date 2022-07-29 16:28:39*
%MOMM*%
%LPD*%
G01*
G04 APERTURE LIST*
%ADD10C,0.150000*%
%ADD11C,0.120000*%
G04 APERTURE END LIST*
D10*
X148669476Y-60496380D02*
X148193285Y-60496380D01*
X148145666Y-60972571D01*
X148193285Y-60924952D01*
X148288523Y-60877333D01*
X148526619Y-60877333D01*
X148621857Y-60924952D01*
X148669476Y-60972571D01*
X148717095Y-61067809D01*
X148717095Y-61305904D01*
X148669476Y-61401142D01*
X148621857Y-61448761D01*
X148526619Y-61496380D01*
X148288523Y-61496380D01*
X148193285Y-61448761D01*
X148145666Y-61401142D01*
X149002809Y-60496380D02*
X149336142Y-61496380D01*
X149669476Y-60496380D01*
X150002809Y-61115428D02*
X150764714Y-61115428D01*
X150383761Y-61496380D02*
X150383761Y-60734476D01*
X147002809Y-63487333D02*
X146955190Y-63439714D01*
X146859952Y-63296857D01*
X146812333Y-63201619D01*
X146764714Y-63058761D01*
X146717095Y-62820666D01*
X146717095Y-62630190D01*
X146764714Y-62392095D01*
X146812333Y-62249238D01*
X146859952Y-62154000D01*
X146955190Y-62011142D01*
X147002809Y-61963523D01*
X147383761Y-63106380D02*
X147383761Y-62106380D01*
X147764714Y-62106380D01*
X147859952Y-62154000D01*
X147907571Y-62201619D01*
X147955190Y-62296857D01*
X147955190Y-62439714D01*
X147907571Y-62534952D01*
X147859952Y-62582571D01*
X147764714Y-62630190D01*
X147383761Y-62630190D01*
X148336142Y-63058761D02*
X148479000Y-63106380D01*
X148717095Y-63106380D01*
X148812333Y-63058761D01*
X148859952Y-63011142D01*
X148907571Y-62915904D01*
X148907571Y-62820666D01*
X148859952Y-62725428D01*
X148812333Y-62677809D01*
X148717095Y-62630190D01*
X148526619Y-62582571D01*
X148431380Y-62534952D01*
X148383761Y-62487333D01*
X148336142Y-62392095D01*
X148336142Y-62296857D01*
X148383761Y-62201619D01*
X148431380Y-62154000D01*
X148526619Y-62106380D01*
X148764714Y-62106380D01*
X148907571Y-62154000D01*
X150050428Y-62439714D02*
X150764714Y-62439714D01*
X150336142Y-62011142D02*
X150050428Y-63296857D01*
X150669476Y-62868285D02*
X149955190Y-62868285D01*
X150383761Y-63296857D02*
X150669476Y-62011142D01*
X151621857Y-63106380D02*
X151050428Y-63106380D01*
X151336142Y-63106380D02*
X151336142Y-62106380D01*
X151240904Y-62249238D01*
X151145666Y-62344476D01*
X151050428Y-62392095D01*
X151955190Y-63487333D02*
X152002809Y-63439714D01*
X152098047Y-63296857D01*
X152145666Y-63201619D01*
X152193285Y-63058761D01*
X152240904Y-62820666D01*
X152240904Y-62630190D01*
X152193285Y-62392095D01*
X152145666Y-62249238D01*
X152098047Y-62154000D01*
X152002809Y-62011142D01*
X151955190Y-61963523D01*
X161774142Y-84501952D02*
X161821761Y-84549571D01*
X161869380Y-84692428D01*
X161869380Y-84787666D01*
X161821761Y-84930523D01*
X161726523Y-85025761D01*
X161631285Y-85073380D01*
X161440809Y-85121000D01*
X161297952Y-85121000D01*
X161107476Y-85073380D01*
X161012238Y-85025761D01*
X160917000Y-84930523D01*
X160869380Y-84787666D01*
X160869380Y-84692428D01*
X160917000Y-84549571D01*
X160964619Y-84501952D01*
X161869380Y-83930523D02*
X161821761Y-84025761D01*
X161774142Y-84073380D01*
X161678904Y-84121000D01*
X161393190Y-84121000D01*
X161297952Y-84073380D01*
X161250333Y-84025761D01*
X161202714Y-83930523D01*
X161202714Y-83787666D01*
X161250333Y-83692428D01*
X161297952Y-83644809D01*
X161393190Y-83597190D01*
X161678904Y-83597190D01*
X161774142Y-83644809D01*
X161821761Y-83692428D01*
X161869380Y-83787666D01*
X161869380Y-83930523D01*
X161869380Y-83168619D02*
X161202714Y-83168619D01*
X161297952Y-83168619D02*
X161250333Y-83121000D01*
X161202714Y-83025761D01*
X161202714Y-82882904D01*
X161250333Y-82787666D01*
X161345571Y-82740047D01*
X161869380Y-82740047D01*
X161345571Y-82740047D02*
X161250333Y-82692428D01*
X161202714Y-82597190D01*
X161202714Y-82454333D01*
X161250333Y-82359095D01*
X161345571Y-82311476D01*
X161869380Y-82311476D01*
X161869380Y-81835285D02*
X161202714Y-81835285D01*
X161297952Y-81835285D02*
X161250333Y-81787666D01*
X161202714Y-81692428D01*
X161202714Y-81549571D01*
X161250333Y-81454333D01*
X161345571Y-81406714D01*
X161869380Y-81406714D01*
X161345571Y-81406714D02*
X161250333Y-81359095D01*
X161202714Y-81263857D01*
X161202714Y-81121000D01*
X161250333Y-81025761D01*
X161345571Y-80978142D01*
X161869380Y-80978142D01*
X161869380Y-80359095D02*
X161821761Y-80454333D01*
X161774142Y-80501952D01*
X161678904Y-80549571D01*
X161393190Y-80549571D01*
X161297952Y-80501952D01*
X161250333Y-80454333D01*
X161202714Y-80359095D01*
X161202714Y-80216238D01*
X161250333Y-80121000D01*
X161297952Y-80073380D01*
X161393190Y-80025761D01*
X161678904Y-80025761D01*
X161774142Y-80073380D01*
X161821761Y-80121000D01*
X161869380Y-80216238D01*
X161869380Y-80359095D01*
X161202714Y-79597190D02*
X161869380Y-79597190D01*
X161297952Y-79597190D02*
X161250333Y-79549571D01*
X161202714Y-79454333D01*
X161202714Y-79311476D01*
X161250333Y-79216238D01*
X161345571Y-79168619D01*
X161869380Y-79168619D01*
X160917000Y-77406714D02*
X160869380Y-77501952D01*
X160869380Y-77644809D01*
X160917000Y-77787666D01*
X161012238Y-77882904D01*
X161107476Y-77930523D01*
X161297952Y-77978142D01*
X161440809Y-77978142D01*
X161631285Y-77930523D01*
X161726523Y-77882904D01*
X161821761Y-77787666D01*
X161869380Y-77644809D01*
X161869380Y-77549571D01*
X161821761Y-77406714D01*
X161774142Y-77359095D01*
X161440809Y-77359095D01*
X161440809Y-77549571D01*
X161869380Y-76930523D02*
X161202714Y-76930523D01*
X161393190Y-76930523D02*
X161297952Y-76882904D01*
X161250333Y-76835285D01*
X161202714Y-76740047D01*
X161202714Y-76644809D01*
X161869380Y-76168619D02*
X161821761Y-76263857D01*
X161774142Y-76311476D01*
X161678904Y-76359095D01*
X161393190Y-76359095D01*
X161297952Y-76311476D01*
X161250333Y-76263857D01*
X161202714Y-76168619D01*
X161202714Y-76025761D01*
X161250333Y-75930523D01*
X161297952Y-75882904D01*
X161393190Y-75835285D01*
X161678904Y-75835285D01*
X161774142Y-75882904D01*
X161821761Y-75930523D01*
X161869380Y-76025761D01*
X161869380Y-76168619D01*
X161202714Y-74978142D02*
X161869380Y-74978142D01*
X161202714Y-75406714D02*
X161726523Y-75406714D01*
X161821761Y-75359095D01*
X161869380Y-75263857D01*
X161869380Y-75121000D01*
X161821761Y-75025761D01*
X161774142Y-74978142D01*
X161202714Y-74501952D02*
X161869380Y-74501952D01*
X161297952Y-74501952D02*
X161250333Y-74454333D01*
X161202714Y-74359095D01*
X161202714Y-74216238D01*
X161250333Y-74121000D01*
X161345571Y-74073380D01*
X161869380Y-74073380D01*
X161869380Y-73168619D02*
X160869380Y-73168619D01*
X161821761Y-73168619D02*
X161869380Y-73263857D01*
X161869380Y-73454333D01*
X161821761Y-73549571D01*
X161774142Y-73597190D01*
X161678904Y-73644809D01*
X161393190Y-73644809D01*
X161297952Y-73597190D01*
X161250333Y-73549571D01*
X161202714Y-73454333D01*
X161202714Y-73263857D01*
X161250333Y-73168619D01*
X117559666Y-73218523D02*
X117559666Y-71948523D01*
X118043476Y-71948523D01*
X118164428Y-72009000D01*
X118224904Y-72069476D01*
X118285380Y-72190428D01*
X118285380Y-72371857D01*
X118224904Y-72492809D01*
X118164428Y-72553285D01*
X118043476Y-72613761D01*
X117559666Y-72613761D01*
X118769190Y-72855666D02*
X119373952Y-72855666D01*
X118648238Y-73218523D02*
X119071571Y-71948523D01*
X119494904Y-73218523D01*
X120885857Y-73218523D02*
X120885857Y-71948523D01*
X121490619Y-73218523D02*
X121490619Y-71948523D01*
X122216333Y-73218523D01*
X122216333Y-71948523D01*
X105700285Y-73218523D02*
X104974571Y-73218523D01*
X105337428Y-73218523D02*
X105337428Y-71948523D01*
X105216476Y-72129952D01*
X105095523Y-72250904D01*
X104974571Y-72311380D01*
X106184095Y-72069476D02*
X106244571Y-72009000D01*
X106365523Y-71948523D01*
X106667904Y-71948523D01*
X106788857Y-72009000D01*
X106849333Y-72069476D01*
X106909809Y-72190428D01*
X106909809Y-72311380D01*
X106849333Y-72492809D01*
X106123619Y-73218523D01*
X106909809Y-73218523D01*
X107333142Y-72371857D02*
X107635523Y-73218523D01*
X107937904Y-72371857D01*
X159937380Y-100631523D02*
X159937380Y-101107714D01*
X160413571Y-101155333D01*
X160365952Y-101107714D01*
X160318333Y-101012476D01*
X160318333Y-100774380D01*
X160365952Y-100679142D01*
X160413571Y-100631523D01*
X160508809Y-100583904D01*
X160746904Y-100583904D01*
X160842142Y-100631523D01*
X160889761Y-100679142D01*
X160937380Y-100774380D01*
X160937380Y-101012476D01*
X160889761Y-101107714D01*
X160842142Y-101155333D01*
X159937380Y-100298190D02*
X160937380Y-99964857D01*
X159937380Y-99631523D01*
X160556428Y-99298190D02*
X160556428Y-98536285D01*
X160937380Y-98917238D02*
X160175476Y-98917238D01*
X162928333Y-102298190D02*
X162880714Y-102345809D01*
X162737857Y-102441047D01*
X162642619Y-102488666D01*
X162499761Y-102536285D01*
X162261666Y-102583904D01*
X162071190Y-102583904D01*
X161833095Y-102536285D01*
X161690238Y-102488666D01*
X161595000Y-102441047D01*
X161452142Y-102345809D01*
X161404523Y-102298190D01*
X162547380Y-101917238D02*
X161547380Y-101917238D01*
X161547380Y-101536285D01*
X161595000Y-101441047D01*
X161642619Y-101393428D01*
X161737857Y-101345809D01*
X161880714Y-101345809D01*
X161975952Y-101393428D01*
X162023571Y-101441047D01*
X162071190Y-101536285D01*
X162071190Y-101917238D01*
X162499761Y-100964857D02*
X162547380Y-100822000D01*
X162547380Y-100583904D01*
X162499761Y-100488666D01*
X162452142Y-100441047D01*
X162356904Y-100393428D01*
X162261666Y-100393428D01*
X162166428Y-100441047D01*
X162118809Y-100488666D01*
X162071190Y-100583904D01*
X162023571Y-100774380D01*
X161975952Y-100869619D01*
X161928333Y-100917238D01*
X161833095Y-100964857D01*
X161737857Y-100964857D01*
X161642619Y-100917238D01*
X161595000Y-100869619D01*
X161547380Y-100774380D01*
X161547380Y-100536285D01*
X161595000Y-100393428D01*
X161880714Y-99250571D02*
X161880714Y-98536285D01*
X161452142Y-98964857D02*
X162737857Y-99250571D01*
X162309285Y-98631523D02*
X162309285Y-99345809D01*
X162737857Y-98917238D02*
X161452142Y-98631523D01*
X161642619Y-98250571D02*
X161595000Y-98202952D01*
X161547380Y-98107714D01*
X161547380Y-97869619D01*
X161595000Y-97774380D01*
X161642619Y-97726761D01*
X161737857Y-97679142D01*
X161833095Y-97679142D01*
X161975952Y-97726761D01*
X162547380Y-98298190D01*
X162547380Y-97679142D01*
X162928333Y-97345809D02*
X162880714Y-97298190D01*
X162737857Y-97202952D01*
X162642619Y-97155333D01*
X162499761Y-97107714D01*
X162261666Y-97060095D01*
X162071190Y-97060095D01*
X161833095Y-97107714D01*
X161690238Y-97155333D01*
X161595000Y-97202952D01*
X161452142Y-97298190D01*
X161404523Y-97345809D01*
X137478761Y-110232714D02*
X137478761Y-110899380D01*
X137050190Y-110232714D02*
X137050190Y-110756523D01*
X137097809Y-110851761D01*
X137193047Y-110899380D01*
X137335904Y-110899380D01*
X137431142Y-110851761D01*
X137478761Y-110804142D01*
X138288285Y-110375571D02*
X138431142Y-110423190D01*
X138478761Y-110470809D01*
X138526380Y-110566047D01*
X138526380Y-110708904D01*
X138478761Y-110804142D01*
X138431142Y-110851761D01*
X138335904Y-110899380D01*
X137954952Y-110899380D01*
X137954952Y-109899380D01*
X138288285Y-109899380D01*
X138383523Y-109947000D01*
X138431142Y-109994619D01*
X138478761Y-110089857D01*
X138478761Y-110185095D01*
X138431142Y-110280333D01*
X138383523Y-110327952D01*
X138288285Y-110375571D01*
X137954952Y-110375571D01*
X138954952Y-110899380D02*
X138954952Y-109899380D01*
X139288285Y-109899380D02*
X139859714Y-109899380D01*
X139574000Y-110899380D02*
X139574000Y-109899380D01*
X140097809Y-110899380D02*
X140621619Y-110232714D01*
X140097809Y-110232714D02*
X140621619Y-110899380D01*
X141764476Y-110899380D02*
X141764476Y-109899380D01*
X142002571Y-109899380D01*
X142145428Y-109947000D01*
X142240666Y-110042238D01*
X142288285Y-110137476D01*
X142335904Y-110327952D01*
X142335904Y-110470809D01*
X142288285Y-110661285D01*
X142240666Y-110756523D01*
X142145428Y-110851761D01*
X142002571Y-110899380D01*
X141764476Y-110899380D01*
X143193047Y-110232714D02*
X143193047Y-110899380D01*
X142764476Y-110232714D02*
X142764476Y-110756523D01*
X142812095Y-110851761D01*
X142907333Y-110899380D01*
X143050190Y-110899380D01*
X143145428Y-110851761D01*
X143193047Y-110804142D01*
X144097809Y-110899380D02*
X144097809Y-110375571D01*
X144050190Y-110280333D01*
X143954952Y-110232714D01*
X143764476Y-110232714D01*
X143669238Y-110280333D01*
X144097809Y-110851761D02*
X144002571Y-110899380D01*
X143764476Y-110899380D01*
X143669238Y-110851761D01*
X143621619Y-110756523D01*
X143621619Y-110661285D01*
X143669238Y-110566047D01*
X143764476Y-110518428D01*
X144002571Y-110518428D01*
X144097809Y-110470809D01*
X144716857Y-110899380D02*
X144621619Y-110851761D01*
X144574000Y-110756523D01*
X144574000Y-109899380D01*
X146335904Y-109899380D02*
X145859714Y-109899380D01*
X145812095Y-110375571D01*
X145859714Y-110327952D01*
X145954952Y-110280333D01*
X146193047Y-110280333D01*
X146288285Y-110327952D01*
X146335904Y-110375571D01*
X146383523Y-110470809D01*
X146383523Y-110708904D01*
X146335904Y-110804142D01*
X146288285Y-110851761D01*
X146193047Y-110899380D01*
X145954952Y-110899380D01*
X145859714Y-110851761D01*
X145812095Y-110804142D01*
X146669238Y-109899380D02*
X147002571Y-110899380D01*
X147335904Y-109899380D01*
X148431142Y-110899380D02*
X148431142Y-109899380D01*
X148812095Y-109899380D01*
X148907333Y-109947000D01*
X148954952Y-109994619D01*
X149002571Y-110089857D01*
X149002571Y-110232714D01*
X148954952Y-110327952D01*
X148907333Y-110375571D01*
X148812095Y-110423190D01*
X148431142Y-110423190D01*
X149573999Y-110899380D02*
X149478761Y-110851761D01*
X149431142Y-110804142D01*
X149383523Y-110708904D01*
X149383523Y-110423190D01*
X149431142Y-110327952D01*
X149478761Y-110280333D01*
X149573999Y-110232714D01*
X149716857Y-110232714D01*
X149812095Y-110280333D01*
X149859714Y-110327952D01*
X149907333Y-110423190D01*
X149907333Y-110708904D01*
X149859714Y-110804142D01*
X149812095Y-110851761D01*
X149716857Y-110899380D01*
X149573999Y-110899380D01*
X150240666Y-110232714D02*
X150431142Y-110899380D01*
X150621619Y-110423190D01*
X150812095Y-110899380D01*
X151002571Y-110232714D01*
X151764476Y-110851761D02*
X151669238Y-110899380D01*
X151478761Y-110899380D01*
X151383523Y-110851761D01*
X151335904Y-110756523D01*
X151335904Y-110375571D01*
X151383523Y-110280333D01*
X151478761Y-110232714D01*
X151669238Y-110232714D01*
X151764476Y-110280333D01*
X151812095Y-110375571D01*
X151812095Y-110470809D01*
X151335904Y-110566047D01*
X152240666Y-110899380D02*
X152240666Y-110232714D01*
X152240666Y-110423190D02*
X152288285Y-110327952D01*
X152335904Y-110280333D01*
X152431142Y-110232714D01*
X152526380Y-110232714D01*
X153573999Y-110851761D02*
X153716857Y-110899380D01*
X153954952Y-110899380D01*
X154050190Y-110851761D01*
X154097809Y-110804142D01*
X154145428Y-110708904D01*
X154145428Y-110613666D01*
X154097809Y-110518428D01*
X154050190Y-110470809D01*
X153954952Y-110423190D01*
X153764476Y-110375571D01*
X153669238Y-110327952D01*
X153621619Y-110280333D01*
X153573999Y-110185095D01*
X153573999Y-110089857D01*
X153621619Y-109994619D01*
X153669238Y-109947000D01*
X153764476Y-109899380D01*
X154002571Y-109899380D01*
X154145428Y-109947000D01*
X155002571Y-110232714D02*
X155002571Y-110899380D01*
X154573999Y-110232714D02*
X154573999Y-110756523D01*
X154621619Y-110851761D01*
X154716857Y-110899380D01*
X154859714Y-110899380D01*
X154954952Y-110851761D01*
X155002571Y-110804142D01*
X155478761Y-110232714D02*
X155478761Y-111232714D01*
X155478761Y-110280333D02*
X155573999Y-110232714D01*
X155764476Y-110232714D01*
X155859714Y-110280333D01*
X155907333Y-110327952D01*
X155954952Y-110423190D01*
X155954952Y-110708904D01*
X155907333Y-110804142D01*
X155859714Y-110851761D01*
X155764476Y-110899380D01*
X155573999Y-110899380D01*
X155478761Y-110851761D01*
X156383523Y-110232714D02*
X156383523Y-111232714D01*
X156383523Y-110280333D02*
X156478761Y-110232714D01*
X156669238Y-110232714D01*
X156764476Y-110280333D01*
X156812095Y-110327952D01*
X156859714Y-110423190D01*
X156859714Y-110708904D01*
X156812095Y-110804142D01*
X156764476Y-110851761D01*
X156669238Y-110899380D01*
X156478761Y-110899380D01*
X156383523Y-110851761D01*
X157431142Y-110899380D02*
X157335904Y-110851761D01*
X157288285Y-110756523D01*
X157288285Y-109899380D01*
X157716857Y-110232714D02*
X157954952Y-110899380D01*
X158193047Y-110232714D02*
X157954952Y-110899380D01*
X157859714Y-111137476D01*
X157812095Y-111185095D01*
X157716857Y-111232714D01*
X137740666Y-112223666D02*
X138216857Y-112223666D01*
X137645428Y-112509380D02*
X137978761Y-111509380D01*
X138312095Y-112509380D01*
X138931142Y-111509380D02*
X138931142Y-112223666D01*
X138883523Y-112366523D01*
X138788285Y-112461761D01*
X138645428Y-112509380D01*
X138550190Y-112509380D01*
X139835904Y-111509380D02*
X139645428Y-111509380D01*
X139550190Y-111557000D01*
X139502571Y-111604619D01*
X139407333Y-111747476D01*
X139359714Y-111937952D01*
X139359714Y-112318904D01*
X139407333Y-112414142D01*
X139454952Y-112461761D01*
X139550190Y-112509380D01*
X139740666Y-112509380D01*
X139835904Y-112461761D01*
X139883523Y-112414142D01*
X139931142Y-112318904D01*
X139931142Y-112080809D01*
X139883523Y-111985571D01*
X139835904Y-111937952D01*
X139740666Y-111890333D01*
X139550190Y-111890333D01*
X139454952Y-111937952D01*
X139407333Y-111985571D01*
X139359714Y-112080809D01*
X140931142Y-112414142D02*
X140883523Y-112461761D01*
X140740666Y-112509380D01*
X140645428Y-112509380D01*
X140502571Y-112461761D01*
X140407333Y-112366523D01*
X140359714Y-112271285D01*
X140312095Y-112080809D01*
X140312095Y-111937952D01*
X140359714Y-111747476D01*
X140407333Y-111652238D01*
X140502571Y-111557000D01*
X140645428Y-111509380D01*
X140740666Y-111509380D01*
X140883523Y-111557000D01*
X140931142Y-111604619D01*
X141359714Y-111509380D02*
X141359714Y-112318904D01*
X141407333Y-112414142D01*
X141454952Y-112461761D01*
X141550190Y-112509380D01*
X141740666Y-112509380D01*
X141835904Y-112461761D01*
X141883523Y-112414142D01*
X141931142Y-112318904D01*
X141931142Y-111509380D01*
X143026380Y-111509380D02*
X143359714Y-112509380D01*
X143693047Y-111509380D01*
X144550190Y-112509380D02*
X143978761Y-112509380D01*
X144264476Y-112509380D02*
X144264476Y-111509380D01*
X144169238Y-111652238D01*
X144074000Y-111747476D01*
X143978761Y-111795095D01*
X144978761Y-112414142D02*
X145026380Y-112461761D01*
X144978761Y-112509380D01*
X144931142Y-112461761D01*
X144978761Y-112414142D01*
X144978761Y-112509380D01*
X145645428Y-111509380D02*
X145740666Y-111509380D01*
X145835904Y-111557000D01*
X145883523Y-111604619D01*
X145931142Y-111699857D01*
X145978761Y-111890333D01*
X145978761Y-112128428D01*
X145931142Y-112318904D01*
X145883523Y-112414142D01*
X145835904Y-112461761D01*
X145740666Y-112509380D01*
X145645428Y-112509380D01*
X145550190Y-112461761D01*
X145502571Y-112414142D01*
X145454952Y-112318904D01*
X145407333Y-112128428D01*
X145407333Y-111890333D01*
X145454952Y-111699857D01*
X145502571Y-111604619D01*
X145550190Y-111557000D01*
X145645428Y-111509380D01*
X147454952Y-111509380D02*
X147454952Y-112223666D01*
X147407333Y-112366523D01*
X147312095Y-112461761D01*
X147169238Y-112509380D01*
X147074000Y-112509380D01*
X148359714Y-111842714D02*
X148359714Y-112509380D01*
X147931142Y-111842714D02*
X147931142Y-112366523D01*
X147978761Y-112461761D01*
X148074000Y-112509380D01*
X148216857Y-112509380D01*
X148312095Y-112461761D01*
X148359714Y-112414142D01*
X148978761Y-112509380D02*
X148883523Y-112461761D01*
X148835904Y-112366523D01*
X148835904Y-111509380D01*
X149264476Y-111842714D02*
X149502571Y-112509380D01*
X149740666Y-111842714D02*
X149502571Y-112509380D01*
X149407333Y-112747476D01*
X149359714Y-112795095D01*
X149264476Y-112842714D01*
X150835904Y-111604619D02*
X150883523Y-111557000D01*
X150978761Y-111509380D01*
X151216857Y-111509380D01*
X151312095Y-111557000D01*
X151359714Y-111604619D01*
X151407333Y-111699857D01*
X151407333Y-111795095D01*
X151359714Y-111937952D01*
X150788285Y-112509380D01*
X151407333Y-112509380D01*
X151788285Y-111604619D02*
X151835904Y-111557000D01*
X151931142Y-111509380D01*
X152169238Y-111509380D01*
X152264476Y-111557000D01*
X152312095Y-111604619D01*
X152359714Y-111699857D01*
X152359714Y-111795095D01*
X152312095Y-111937952D01*
X151740666Y-112509380D01*
X152359714Y-112509380D01*
X152835904Y-112461761D02*
X152835904Y-112509380D01*
X152788285Y-112604619D01*
X152740666Y-112652238D01*
X153978761Y-111604619D02*
X154026380Y-111557000D01*
X154121619Y-111509380D01*
X154359714Y-111509380D01*
X154454952Y-111557000D01*
X154502571Y-111604619D01*
X154550190Y-111699857D01*
X154550190Y-111795095D01*
X154502571Y-111937952D01*
X153931142Y-112509380D01*
X154550190Y-112509380D01*
X155169238Y-111509380D02*
X155264476Y-111509380D01*
X155359714Y-111557000D01*
X155407333Y-111604619D01*
X155454952Y-111699857D01*
X155502571Y-111890333D01*
X155502571Y-112128428D01*
X155454952Y-112318904D01*
X155407333Y-112414142D01*
X155359714Y-112461761D01*
X155264476Y-112509380D01*
X155169238Y-112509380D01*
X155074000Y-112461761D01*
X155026380Y-112414142D01*
X154978761Y-112318904D01*
X154931142Y-112128428D01*
X154931142Y-111890333D01*
X154978761Y-111699857D01*
X155026380Y-111604619D01*
X155074000Y-111557000D01*
X155169238Y-111509380D01*
X155883523Y-111604619D02*
X155931142Y-111557000D01*
X156026380Y-111509380D01*
X156264476Y-111509380D01*
X156359714Y-111557000D01*
X156407333Y-111604619D01*
X156454952Y-111699857D01*
X156454952Y-111795095D01*
X156407333Y-111937952D01*
X155835904Y-112509380D01*
X156454952Y-112509380D01*
X156835904Y-111604619D02*
X156883523Y-111557000D01*
X156978761Y-111509380D01*
X157216857Y-111509380D01*
X157312095Y-111557000D01*
X157359714Y-111604619D01*
X157407333Y-111699857D01*
X157407333Y-111795095D01*
X157359714Y-111937952D01*
X156788285Y-112509380D01*
X157407333Y-112509380D01*
%TO.C,C2*%
X140676333Y-96369142D02*
X140628714Y-96416761D01*
X140485857Y-96464380D01*
X140390619Y-96464380D01*
X140247761Y-96416761D01*
X140152523Y-96321523D01*
X140104904Y-96226285D01*
X140057285Y-96035809D01*
X140057285Y-95892952D01*
X140104904Y-95702476D01*
X140152523Y-95607238D01*
X140247761Y-95512000D01*
X140390619Y-95464380D01*
X140485857Y-95464380D01*
X140628714Y-95512000D01*
X140676333Y-95559619D01*
X141057285Y-95559619D02*
X141104904Y-95512000D01*
X141200142Y-95464380D01*
X141438238Y-95464380D01*
X141533476Y-95512000D01*
X141581095Y-95559619D01*
X141628714Y-95654857D01*
X141628714Y-95750095D01*
X141581095Y-95892952D01*
X141009666Y-96464380D01*
X141628714Y-96464380D01*
X139739952Y-92924380D02*
X139835190Y-92924380D01*
X139930428Y-92972000D01*
X139978047Y-93019619D01*
X140025666Y-93114857D01*
X140073285Y-93305333D01*
X140073285Y-93543428D01*
X140025666Y-93733904D01*
X139978047Y-93829142D01*
X139930428Y-93876761D01*
X139835190Y-93924380D01*
X139739952Y-93924380D01*
X139644714Y-93876761D01*
X139597095Y-93829142D01*
X139549476Y-93733904D01*
X139501857Y-93543428D01*
X139501857Y-93305333D01*
X139549476Y-93114857D01*
X139597095Y-93019619D01*
X139644714Y-92972000D01*
X139739952Y-92924380D01*
X140501857Y-93829142D02*
X140549476Y-93876761D01*
X140501857Y-93924380D01*
X140454238Y-93876761D01*
X140501857Y-93829142D01*
X140501857Y-93924380D01*
X140882809Y-92924380D02*
X141501857Y-92924380D01*
X141168523Y-93305333D01*
X141311380Y-93305333D01*
X141406619Y-93352952D01*
X141454238Y-93400571D01*
X141501857Y-93495809D01*
X141501857Y-93733904D01*
X141454238Y-93829142D01*
X141406619Y-93876761D01*
X141311380Y-93924380D01*
X141025666Y-93924380D01*
X140930428Y-93876761D01*
X140882809Y-93829142D01*
X141835190Y-92924380D02*
X142454238Y-92924380D01*
X142120904Y-93305333D01*
X142263761Y-93305333D01*
X142359000Y-93352952D01*
X142406619Y-93400571D01*
X142454238Y-93495809D01*
X142454238Y-93733904D01*
X142406619Y-93829142D01*
X142359000Y-93876761D01*
X142263761Y-93924380D01*
X141978047Y-93924380D01*
X141882809Y-93876761D01*
X141835190Y-93829142D01*
X143311380Y-93257714D02*
X143311380Y-93924380D01*
X142882809Y-93257714D02*
X142882809Y-93781523D01*
X142930428Y-93876761D01*
X143025666Y-93924380D01*
X143168523Y-93924380D01*
X143263761Y-93876761D01*
X143311380Y-93829142D01*
X144120904Y-93400571D02*
X143787571Y-93400571D01*
X143787571Y-93924380D02*
X143787571Y-92924380D01*
X144263761Y-92924380D01*
%TO.C,Q1*%
X109053619Y-98012238D02*
X109006000Y-98107476D01*
X108910761Y-98202714D01*
X108767904Y-98345571D01*
X108720285Y-98440809D01*
X108720285Y-98536047D01*
X108958380Y-98488428D02*
X108910761Y-98583666D01*
X108815523Y-98678904D01*
X108625047Y-98726523D01*
X108291714Y-98726523D01*
X108101238Y-98678904D01*
X108006000Y-98583666D01*
X107958380Y-98488428D01*
X107958380Y-98297952D01*
X108006000Y-98202714D01*
X108101238Y-98107476D01*
X108291714Y-98059857D01*
X108625047Y-98059857D01*
X108815523Y-98107476D01*
X108910761Y-98202714D01*
X108958380Y-98297952D01*
X108958380Y-98488428D01*
X108958380Y-97107476D02*
X108958380Y-97678904D01*
X108958380Y-97393190D02*
X107958380Y-97393190D01*
X108101238Y-97488428D01*
X108196476Y-97583666D01*
X108244095Y-97678904D01*
X116093380Y-101274142D02*
X115093380Y-101274142D01*
X116093380Y-100226523D02*
X115617190Y-100559857D01*
X116093380Y-100797952D02*
X115093380Y-100797952D01*
X115093380Y-100417000D01*
X115141000Y-100321761D01*
X115188619Y-100274142D01*
X115283857Y-100226523D01*
X115426714Y-100226523D01*
X115521952Y-100274142D01*
X115569571Y-100321761D01*
X115617190Y-100417000D01*
X115617190Y-100797952D01*
X115569571Y-99464619D02*
X115569571Y-99797952D01*
X116093380Y-99797952D02*
X115093380Y-99797952D01*
X115093380Y-99321761D01*
X116093380Y-98893190D02*
X116093380Y-98702714D01*
X116045761Y-98607476D01*
X115998142Y-98559857D01*
X115855285Y-98464619D01*
X115664809Y-98417000D01*
X115283857Y-98417000D01*
X115188619Y-98464619D01*
X115141000Y-98512238D01*
X115093380Y-98607476D01*
X115093380Y-98797952D01*
X115141000Y-98893190D01*
X115188619Y-98940809D01*
X115283857Y-98988428D01*
X115521952Y-98988428D01*
X115617190Y-98940809D01*
X115664809Y-98893190D01*
X115712428Y-98797952D01*
X115712428Y-98607476D01*
X115664809Y-98512238D01*
X115617190Y-98464619D01*
X115521952Y-98417000D01*
X115093380Y-97512238D02*
X115093380Y-97988428D01*
X115569571Y-98036047D01*
X115521952Y-97988428D01*
X115474333Y-97893190D01*
X115474333Y-97655095D01*
X115521952Y-97559857D01*
X115569571Y-97512238D01*
X115664809Y-97464619D01*
X115902904Y-97464619D01*
X115998142Y-97512238D01*
X116045761Y-97559857D01*
X116093380Y-97655095D01*
X116093380Y-97893190D01*
X116045761Y-97988428D01*
X115998142Y-98036047D01*
X115426714Y-96607476D02*
X116093380Y-96607476D01*
X115045761Y-96845571D02*
X115760047Y-97083666D01*
X115760047Y-96464619D01*
X115093380Y-95893190D02*
X115093380Y-95797952D01*
X115141000Y-95702714D01*
X115188619Y-95655095D01*
X115283857Y-95607476D01*
X115474333Y-95559857D01*
X115712428Y-95559857D01*
X115902904Y-95607476D01*
X115998142Y-95655095D01*
X116045761Y-95702714D01*
X116093380Y-95797952D01*
X116093380Y-95893190D01*
X116045761Y-95988428D01*
X115998142Y-96036047D01*
X115902904Y-96083666D01*
X115712428Y-96131285D01*
X115474333Y-96131285D01*
X115283857Y-96083666D01*
X115188619Y-96036047D01*
X115141000Y-95988428D01*
X115093380Y-95893190D01*
X116093380Y-95131285D02*
X115093380Y-95131285D01*
X116093380Y-94559857D01*
X115093380Y-94559857D01*
%TO.C,C4*%
X128932333Y-96287030D02*
X128884714Y-96334649D01*
X128741857Y-96382268D01*
X128646619Y-96382268D01*
X128503761Y-96334649D01*
X128408523Y-96239411D01*
X128360904Y-96144173D01*
X128313285Y-95953697D01*
X128313285Y-95810840D01*
X128360904Y-95620364D01*
X128408523Y-95525126D01*
X128503761Y-95429888D01*
X128646619Y-95382268D01*
X128741857Y-95382268D01*
X128884714Y-95429888D01*
X128932333Y-95477507D01*
X129789476Y-95715602D02*
X129789476Y-96382268D01*
X129551380Y-95334649D02*
X129313285Y-96048935D01*
X129932333Y-96048935D01*
X119515142Y-92797380D02*
X119610380Y-92797380D01*
X119705619Y-92845000D01*
X119753238Y-92892619D01*
X119800857Y-92987857D01*
X119848476Y-93178333D01*
X119848476Y-93416428D01*
X119800857Y-93606904D01*
X119753238Y-93702142D01*
X119705619Y-93749761D01*
X119610380Y-93797380D01*
X119515142Y-93797380D01*
X119419904Y-93749761D01*
X119372285Y-93702142D01*
X119324666Y-93606904D01*
X119277047Y-93416428D01*
X119277047Y-93178333D01*
X119324666Y-92987857D01*
X119372285Y-92892619D01*
X119419904Y-92845000D01*
X119515142Y-92797380D01*
X120277047Y-93702142D02*
X120324666Y-93749761D01*
X120277047Y-93797380D01*
X120229428Y-93749761D01*
X120277047Y-93702142D01*
X120277047Y-93797380D01*
X121277047Y-93797380D02*
X120705619Y-93797380D01*
X120991333Y-93797380D02*
X120991333Y-92797380D01*
X120896095Y-92940238D01*
X120800857Y-93035476D01*
X120705619Y-93083095D01*
X122134190Y-93130714D02*
X122134190Y-93797380D01*
X121705619Y-93130714D02*
X121705619Y-93654523D01*
X121753238Y-93749761D01*
X121848476Y-93797380D01*
X121991333Y-93797380D01*
X122086571Y-93749761D01*
X122134190Y-93702142D01*
X122943714Y-93273571D02*
X122610380Y-93273571D01*
X122610380Y-93797380D02*
X122610380Y-92797380D01*
X123086571Y-92797380D01*
%TO.C,J3*%
X154987666Y-63714380D02*
X154987666Y-64428666D01*
X154940047Y-64571523D01*
X154844809Y-64666761D01*
X154701952Y-64714380D01*
X154606714Y-64714380D01*
X155368619Y-63714380D02*
X155987666Y-63714380D01*
X155654333Y-64095333D01*
X155797190Y-64095333D01*
X155892428Y-64142952D01*
X155940047Y-64190571D01*
X155987666Y-64285809D01*
X155987666Y-64523904D01*
X155940047Y-64619142D01*
X155892428Y-64666761D01*
X155797190Y-64714380D01*
X155511476Y-64714380D01*
X155416238Y-64666761D01*
X155368619Y-64619142D01*
X145756285Y-79247857D02*
X145756285Y-76962142D01*
%TO.C,U1*%
X130175095Y-71257604D02*
X130175095Y-72067128D01*
X130222714Y-72162366D01*
X130270333Y-72209985D01*
X130365571Y-72257604D01*
X130556047Y-72257604D01*
X130651285Y-72209985D01*
X130698904Y-72162366D01*
X130746523Y-72067128D01*
X130746523Y-71257604D01*
X131746523Y-72257604D02*
X131175095Y-72257604D01*
X131460809Y-72257604D02*
X131460809Y-71257604D01*
X131365571Y-71400462D01*
X131270333Y-71495700D01*
X131175095Y-71543319D01*
X126056047Y-79027604D02*
X125579857Y-79027604D01*
X125579857Y-78027604D01*
X126389380Y-79027604D02*
X126389380Y-78027604D01*
X126722714Y-78741890D01*
X127056047Y-78027604D01*
X127056047Y-79027604D01*
X127437000Y-78027604D02*
X128103666Y-78027604D01*
X127675095Y-79027604D01*
X128627476Y-78456176D02*
X128532238Y-78408557D01*
X128484619Y-78360938D01*
X128437000Y-78265700D01*
X128437000Y-78218081D01*
X128484619Y-78122843D01*
X128532238Y-78075224D01*
X128627476Y-78027604D01*
X128817952Y-78027604D01*
X128913190Y-78075224D01*
X128960809Y-78122843D01*
X129008428Y-78218081D01*
X129008428Y-78265700D01*
X128960809Y-78360938D01*
X128913190Y-78408557D01*
X128817952Y-78456176D01*
X128627476Y-78456176D01*
X128532238Y-78503795D01*
X128484619Y-78551414D01*
X128437000Y-78646652D01*
X128437000Y-78837128D01*
X128484619Y-78932366D01*
X128532238Y-78979985D01*
X128627476Y-79027604D01*
X128817952Y-79027604D01*
X128913190Y-78979985D01*
X128960809Y-78932366D01*
X129008428Y-78837128D01*
X129008428Y-78646652D01*
X128960809Y-78551414D01*
X128913190Y-78503795D01*
X128817952Y-78456176D01*
X129627476Y-78027604D02*
X129722714Y-78027604D01*
X129817952Y-78075224D01*
X129865571Y-78122843D01*
X129913190Y-78218081D01*
X129960809Y-78408557D01*
X129960809Y-78646652D01*
X129913190Y-78837128D01*
X129865571Y-78932366D01*
X129817952Y-78979985D01*
X129722714Y-79027604D01*
X129627476Y-79027604D01*
X129532238Y-78979985D01*
X129484619Y-78932366D01*
X129437000Y-78837128D01*
X129389380Y-78646652D01*
X129389380Y-78408557D01*
X129437000Y-78218081D01*
X129484619Y-78122843D01*
X129532238Y-78075224D01*
X129627476Y-78027604D01*
X130865571Y-78027604D02*
X130389380Y-78027604D01*
X130341761Y-78503795D01*
X130389380Y-78456176D01*
X130484619Y-78408557D01*
X130722714Y-78408557D01*
X130817952Y-78456176D01*
X130865571Y-78503795D01*
X130913190Y-78599033D01*
X130913190Y-78837128D01*
X130865571Y-78932366D01*
X130817952Y-78979985D01*
X130722714Y-79027604D01*
X130484619Y-79027604D01*
X130389380Y-78979985D01*
X130341761Y-78932366D01*
X131103666Y-79122843D02*
X131865571Y-79122843D01*
X131960809Y-78027604D02*
X132532238Y-78027604D01*
X132246523Y-79027604D02*
X132246523Y-78027604D01*
X133056047Y-78027604D02*
X133246523Y-78027604D01*
X133341761Y-78075224D01*
X133437000Y-78170462D01*
X133484619Y-78360938D01*
X133484619Y-78694271D01*
X133437000Y-78884747D01*
X133341761Y-78979985D01*
X133246523Y-79027604D01*
X133056047Y-79027604D01*
X132960809Y-78979985D01*
X132865571Y-78884747D01*
X132817952Y-78694271D01*
X132817952Y-78360938D01*
X132865571Y-78170462D01*
X132960809Y-78075224D01*
X133056047Y-78027604D01*
X133865571Y-78122843D02*
X133913190Y-78075224D01*
X134008428Y-78027604D01*
X134246523Y-78027604D01*
X134341761Y-78075224D01*
X134389380Y-78122843D01*
X134437000Y-78218081D01*
X134437000Y-78313319D01*
X134389380Y-78456176D01*
X133817952Y-79027604D01*
X134437000Y-79027604D01*
X134817952Y-78122843D02*
X134865571Y-78075224D01*
X134960809Y-78027604D01*
X135198904Y-78027604D01*
X135294142Y-78075224D01*
X135341761Y-78122843D01*
X135389380Y-78218081D01*
X135389380Y-78313319D01*
X135341761Y-78456176D01*
X134770333Y-79027604D01*
X135389380Y-79027604D01*
X136008428Y-78027604D02*
X136103666Y-78027604D01*
X136198904Y-78075224D01*
X136246523Y-78122843D01*
X136294142Y-78218081D01*
X136341761Y-78408557D01*
X136341761Y-78646652D01*
X136294142Y-78837128D01*
X136246523Y-78932366D01*
X136198904Y-78979985D01*
X136103666Y-79027604D01*
X136008428Y-79027604D01*
X135913190Y-78979985D01*
X135865571Y-78932366D01*
X135817952Y-78837128D01*
X135770333Y-78646652D01*
X135770333Y-78408557D01*
X135817952Y-78218081D01*
X135865571Y-78122843D01*
X135913190Y-78075224D01*
X136008428Y-78027604D01*
%TO.C,J4*%
X155495666Y-91527380D02*
X155495666Y-92241666D01*
X155448047Y-92384523D01*
X155352809Y-92479761D01*
X155209952Y-92527380D01*
X155114714Y-92527380D01*
X156400428Y-91860714D02*
X156400428Y-92527380D01*
X156162333Y-91479761D02*
X155924238Y-92194047D01*
X156543285Y-92194047D01*
X145756285Y-101599857D02*
X145756285Y-99314142D01*
X146899142Y-100457000D02*
X144613428Y-100457000D01*
%TO.C,J1*%
X112005666Y-79208380D02*
X112005666Y-79922666D01*
X111958047Y-80065523D01*
X111862809Y-80160761D01*
X111719952Y-80208380D01*
X111624714Y-80208380D01*
X113005666Y-80208380D02*
X112434238Y-80208380D01*
X112719952Y-80208380D02*
X112719952Y-79208380D01*
X112624714Y-79351238D01*
X112529476Y-79446476D01*
X112434238Y-79494095D01*
X116891380Y-88264619D02*
X115891380Y-88264619D01*
X115891380Y-87883666D01*
X115939000Y-87788428D01*
X115986619Y-87740809D01*
X116081857Y-87693190D01*
X116224714Y-87693190D01*
X116319952Y-87740809D01*
X116367571Y-87788428D01*
X116415190Y-87883666D01*
X116415190Y-88264619D01*
X116891380Y-87121761D02*
X116843761Y-87217000D01*
X116796142Y-87264619D01*
X116700904Y-87312238D01*
X116415190Y-87312238D01*
X116319952Y-87264619D01*
X116272333Y-87217000D01*
X116224714Y-87121761D01*
X116224714Y-86978904D01*
X116272333Y-86883666D01*
X116319952Y-86836047D01*
X116415190Y-86788428D01*
X116700904Y-86788428D01*
X116796142Y-86836047D01*
X116843761Y-86883666D01*
X116891380Y-86978904D01*
X116891380Y-87121761D01*
X116224714Y-86455095D02*
X116891380Y-86264619D01*
X116415190Y-86074142D01*
X116891380Y-85883666D01*
X116224714Y-85693190D01*
X116843761Y-84931285D02*
X116891380Y-85026523D01*
X116891380Y-85217000D01*
X116843761Y-85312238D01*
X116748523Y-85359857D01*
X116367571Y-85359857D01*
X116272333Y-85312238D01*
X116224714Y-85217000D01*
X116224714Y-85026523D01*
X116272333Y-84931285D01*
X116367571Y-84883666D01*
X116462809Y-84883666D01*
X116558047Y-85359857D01*
X116891380Y-84455095D02*
X116224714Y-84455095D01*
X116415190Y-84455095D02*
X116319952Y-84407476D01*
X116272333Y-84359857D01*
X116224714Y-84264619D01*
X116224714Y-84169380D01*
X116891380Y-83074142D02*
X115891380Y-83074142D01*
X116224714Y-82597952D02*
X116891380Y-82597952D01*
X116319952Y-82597952D02*
X116272333Y-82550333D01*
X116224714Y-82455095D01*
X116224714Y-82312238D01*
X116272333Y-82217000D01*
X116367571Y-82169380D01*
X116891380Y-82169380D01*
%TO.C,J5*%
X114982666Y-64349380D02*
X114982666Y-65063666D01*
X114935047Y-65206523D01*
X114839809Y-65301761D01*
X114696952Y-65349380D01*
X114601714Y-65349380D01*
X115935047Y-64349380D02*
X115458857Y-64349380D01*
X115411238Y-64825571D01*
X115458857Y-64777952D01*
X115554095Y-64730333D01*
X115792190Y-64730333D01*
X115887428Y-64777952D01*
X115935047Y-64825571D01*
X115982666Y-64920809D01*
X115982666Y-65158904D01*
X115935047Y-65254142D01*
X115887428Y-65301761D01*
X115792190Y-65349380D01*
X115554095Y-65349380D01*
X115458857Y-65301761D01*
X115411238Y-65254142D01*
X115316714Y-60904380D02*
X115316714Y-59904380D01*
X115697666Y-59904380D01*
X115792904Y-59952000D01*
X115840523Y-59999619D01*
X115888142Y-60094857D01*
X115888142Y-60237714D01*
X115840523Y-60332952D01*
X115792904Y-60380571D01*
X115697666Y-60428190D01*
X115316714Y-60428190D01*
X116745285Y-60904380D02*
X116745285Y-60380571D01*
X116697666Y-60285333D01*
X116602428Y-60237714D01*
X116411952Y-60237714D01*
X116316714Y-60285333D01*
X116745285Y-60856761D02*
X116650047Y-60904380D01*
X116411952Y-60904380D01*
X116316714Y-60856761D01*
X116269095Y-60761523D01*
X116269095Y-60666285D01*
X116316714Y-60571047D01*
X116411952Y-60523428D01*
X116650047Y-60523428D01*
X116745285Y-60475809D01*
X117173857Y-60856761D02*
X117269095Y-60904380D01*
X117459571Y-60904380D01*
X117554809Y-60856761D01*
X117602428Y-60761523D01*
X117602428Y-60713904D01*
X117554809Y-60618666D01*
X117459571Y-60571047D01*
X117316714Y-60571047D01*
X117221476Y-60523428D01*
X117173857Y-60428190D01*
X117173857Y-60380571D01*
X117221476Y-60285333D01*
X117316714Y-60237714D01*
X117459571Y-60237714D01*
X117554809Y-60285333D01*
X117983380Y-60856761D02*
X118078619Y-60904380D01*
X118269095Y-60904380D01*
X118364333Y-60856761D01*
X118411952Y-60761523D01*
X118411952Y-60713904D01*
X118364333Y-60618666D01*
X118269095Y-60571047D01*
X118126238Y-60571047D01*
X118031000Y-60523428D01*
X117983380Y-60428190D01*
X117983380Y-60380571D01*
X118031000Y-60285333D01*
X118126238Y-60237714D01*
X118269095Y-60237714D01*
X118364333Y-60285333D01*
X118697666Y-59904380D02*
X119269095Y-59904380D01*
X118983380Y-60904380D02*
X118983380Y-59904380D01*
X119602428Y-60904380D02*
X119602428Y-59904380D01*
X120031000Y-60904380D02*
X120031000Y-60380571D01*
X119983380Y-60285333D01*
X119888142Y-60237714D01*
X119745285Y-60237714D01*
X119650047Y-60285333D01*
X119602428Y-60332952D01*
X120507190Y-60904380D02*
X120507190Y-60237714D01*
X120507190Y-60428190D02*
X120554809Y-60332952D01*
X120602428Y-60285333D01*
X120697666Y-60237714D01*
X120792904Y-60237714D01*
X121554809Y-60237714D02*
X121554809Y-60904380D01*
X121126238Y-60237714D02*
X121126238Y-60761523D01*
X121173857Y-60856761D01*
X121269095Y-60904380D01*
X121411952Y-60904380D01*
X121507190Y-60856761D01*
X121554809Y-60809142D01*
X122792904Y-60904380D02*
X122792904Y-59904380D01*
X123173857Y-59904380D01*
X123269095Y-59952000D01*
X123316714Y-59999619D01*
X123364333Y-60094857D01*
X123364333Y-60237714D01*
X123316714Y-60332952D01*
X123269095Y-60380571D01*
X123173857Y-60428190D01*
X122792904Y-60428190D01*
X123935761Y-60904380D02*
X123840523Y-60856761D01*
X123792904Y-60809142D01*
X123745285Y-60713904D01*
X123745285Y-60428190D01*
X123792904Y-60332952D01*
X123840523Y-60285333D01*
X123935761Y-60237714D01*
X124078619Y-60237714D01*
X124173857Y-60285333D01*
X124221476Y-60332952D01*
X124269095Y-60428190D01*
X124269095Y-60713904D01*
X124221476Y-60809142D01*
X124173857Y-60856761D01*
X124078619Y-60904380D01*
X123935761Y-60904380D01*
X124602428Y-60237714D02*
X124792904Y-60904380D01*
X124983380Y-60428190D01*
X125173857Y-60904380D01*
X125364333Y-60237714D01*
X126126238Y-60856761D02*
X126031000Y-60904380D01*
X125840523Y-60904380D01*
X125745285Y-60856761D01*
X125697666Y-60761523D01*
X125697666Y-60380571D01*
X125745285Y-60285333D01*
X125840523Y-60237714D01*
X126031000Y-60237714D01*
X126126238Y-60285333D01*
X126173857Y-60380571D01*
X126173857Y-60475809D01*
X125697666Y-60571047D01*
X126602428Y-60904380D02*
X126602428Y-60237714D01*
X126602428Y-60428190D02*
X126650047Y-60332952D01*
X126697666Y-60285333D01*
X126792904Y-60237714D01*
X126888142Y-60237714D01*
%TO.C,C1*%
X128932333Y-88729142D02*
X128884714Y-88776761D01*
X128741857Y-88824380D01*
X128646619Y-88824380D01*
X128503761Y-88776761D01*
X128408523Y-88681523D01*
X128360904Y-88586285D01*
X128313285Y-88395809D01*
X128313285Y-88252952D01*
X128360904Y-88062476D01*
X128408523Y-87967238D01*
X128503761Y-87872000D01*
X128646619Y-87824380D01*
X128741857Y-87824380D01*
X128884714Y-87872000D01*
X128932333Y-87919619D01*
X129884714Y-88824380D02*
X129313285Y-88824380D01*
X129599000Y-88824380D02*
X129599000Y-87824380D01*
X129503761Y-87967238D01*
X129408523Y-88062476D01*
X129313285Y-88110095D01*
X119165952Y-84542380D02*
X119261190Y-84542380D01*
X119356428Y-84590000D01*
X119404047Y-84637619D01*
X119451666Y-84732857D01*
X119499285Y-84923333D01*
X119499285Y-85161428D01*
X119451666Y-85351904D01*
X119404047Y-85447142D01*
X119356428Y-85494761D01*
X119261190Y-85542380D01*
X119165952Y-85542380D01*
X119070714Y-85494761D01*
X119023095Y-85447142D01*
X118975476Y-85351904D01*
X118927857Y-85161428D01*
X118927857Y-84923333D01*
X118975476Y-84732857D01*
X119023095Y-84637619D01*
X119070714Y-84590000D01*
X119165952Y-84542380D01*
X119927857Y-85447142D02*
X119975476Y-85494761D01*
X119927857Y-85542380D01*
X119880238Y-85494761D01*
X119927857Y-85447142D01*
X119927857Y-85542380D01*
X120308809Y-84542380D02*
X120927857Y-84542380D01*
X120594523Y-84923333D01*
X120737380Y-84923333D01*
X120832619Y-84970952D01*
X120880238Y-85018571D01*
X120927857Y-85113809D01*
X120927857Y-85351904D01*
X120880238Y-85447142D01*
X120832619Y-85494761D01*
X120737380Y-85542380D01*
X120451666Y-85542380D01*
X120356428Y-85494761D01*
X120308809Y-85447142D01*
X121261190Y-84542380D02*
X121880238Y-84542380D01*
X121546904Y-84923333D01*
X121689761Y-84923333D01*
X121785000Y-84970952D01*
X121832619Y-85018571D01*
X121880238Y-85113809D01*
X121880238Y-85351904D01*
X121832619Y-85447142D01*
X121785000Y-85494761D01*
X121689761Y-85542380D01*
X121404047Y-85542380D01*
X121308809Y-85494761D01*
X121261190Y-85447142D01*
X122737380Y-84875714D02*
X122737380Y-85542380D01*
X122308809Y-84875714D02*
X122308809Y-85399523D01*
X122356428Y-85494761D01*
X122451666Y-85542380D01*
X122594523Y-85542380D01*
X122689761Y-85494761D01*
X122737380Y-85447142D01*
X123546904Y-85018571D02*
X123213571Y-85018571D01*
X123213571Y-85542380D02*
X123213571Y-84542380D01*
X123689761Y-84542380D01*
%TO.C,C3*%
X140168333Y-89257142D02*
X140120714Y-89304761D01*
X139977857Y-89352380D01*
X139882619Y-89352380D01*
X139739761Y-89304761D01*
X139644523Y-89209523D01*
X139596904Y-89114285D01*
X139549285Y-88923809D01*
X139549285Y-88780952D01*
X139596904Y-88590476D01*
X139644523Y-88495238D01*
X139739761Y-88400000D01*
X139882619Y-88352380D01*
X139977857Y-88352380D01*
X140120714Y-88400000D01*
X140168333Y-88447619D01*
X140501666Y-88352380D02*
X141120714Y-88352380D01*
X140787380Y-88733333D01*
X140930238Y-88733333D01*
X141025476Y-88780952D01*
X141073095Y-88828571D01*
X141120714Y-88923809D01*
X141120714Y-89161904D01*
X141073095Y-89257142D01*
X141025476Y-89304761D01*
X140930238Y-89352380D01*
X140644523Y-89352380D01*
X140549285Y-89304761D01*
X140501666Y-89257142D01*
X140089142Y-84669380D02*
X140184380Y-84669380D01*
X140279619Y-84717000D01*
X140327238Y-84764619D01*
X140374857Y-84859857D01*
X140422476Y-85050333D01*
X140422476Y-85288428D01*
X140374857Y-85478904D01*
X140327238Y-85574142D01*
X140279619Y-85621761D01*
X140184380Y-85669380D01*
X140089142Y-85669380D01*
X139993904Y-85621761D01*
X139946285Y-85574142D01*
X139898666Y-85478904D01*
X139851047Y-85288428D01*
X139851047Y-85050333D01*
X139898666Y-84859857D01*
X139946285Y-84764619D01*
X139993904Y-84717000D01*
X140089142Y-84669380D01*
X140851047Y-85574142D02*
X140898666Y-85621761D01*
X140851047Y-85669380D01*
X140803428Y-85621761D01*
X140851047Y-85574142D01*
X140851047Y-85669380D01*
X141851047Y-85669380D02*
X141279619Y-85669380D01*
X141565333Y-85669380D02*
X141565333Y-84669380D01*
X141470095Y-84812238D01*
X141374857Y-84907476D01*
X141279619Y-84955095D01*
X142708190Y-85002714D02*
X142708190Y-85669380D01*
X142279619Y-85002714D02*
X142279619Y-85526523D01*
X142327238Y-85621761D01*
X142422476Y-85669380D01*
X142565333Y-85669380D01*
X142660571Y-85621761D01*
X142708190Y-85574142D01*
X143517714Y-85145571D02*
X143184380Y-85145571D01*
X143184380Y-85669380D02*
X143184380Y-84669380D01*
X143660571Y-84669380D01*
%TO.C,JP1*%
X112450666Y-69556380D02*
X112450666Y-70270666D01*
X112403047Y-70413523D01*
X112307809Y-70508761D01*
X112164952Y-70556380D01*
X112069714Y-70556380D01*
X112926857Y-70556380D02*
X112926857Y-69556380D01*
X113307809Y-69556380D01*
X113403047Y-69604000D01*
X113450666Y-69651619D01*
X113498285Y-69746857D01*
X113498285Y-69889714D01*
X113450666Y-69984952D01*
X113403047Y-70032571D01*
X113307809Y-70080190D01*
X112926857Y-70080190D01*
X114450666Y-70556380D02*
X113879238Y-70556380D01*
X114164952Y-70556380D02*
X114164952Y-69556380D01*
X114069714Y-69699238D01*
X113974476Y-69794476D01*
X113879238Y-69842095D01*
X106799809Y-76144380D02*
X106799809Y-75144380D01*
X107180761Y-75144380D01*
X107276000Y-75192000D01*
X107323619Y-75239619D01*
X107371238Y-75334857D01*
X107371238Y-75477714D01*
X107323619Y-75572952D01*
X107276000Y-75620571D01*
X107180761Y-75668190D01*
X106799809Y-75668190D01*
X107752190Y-75858666D02*
X108228380Y-75858666D01*
X107656952Y-76144380D02*
X107990285Y-75144380D01*
X108323619Y-76144380D01*
X109418857Y-76144380D02*
X109418857Y-75144380D01*
X109799809Y-75144380D01*
X109895047Y-75192000D01*
X109942666Y-75239619D01*
X109990285Y-75334857D01*
X109990285Y-75477714D01*
X109942666Y-75572952D01*
X109895047Y-75620571D01*
X109799809Y-75668190D01*
X109418857Y-75668190D01*
X110561714Y-76144380D02*
X110466476Y-76096761D01*
X110418857Y-76049142D01*
X110371238Y-75953904D01*
X110371238Y-75668190D01*
X110418857Y-75572952D01*
X110466476Y-75525333D01*
X110561714Y-75477714D01*
X110704571Y-75477714D01*
X110799809Y-75525333D01*
X110847428Y-75572952D01*
X110895047Y-75668190D01*
X110895047Y-75953904D01*
X110847428Y-76049142D01*
X110799809Y-76096761D01*
X110704571Y-76144380D01*
X110561714Y-76144380D01*
X111228380Y-75477714D02*
X111418857Y-76144380D01*
X111609333Y-75668190D01*
X111799809Y-76144380D01*
X111990285Y-75477714D01*
X112752190Y-76096761D02*
X112656952Y-76144380D01*
X112466476Y-76144380D01*
X112371238Y-76096761D01*
X112323619Y-76001523D01*
X112323619Y-75620571D01*
X112371238Y-75525333D01*
X112466476Y-75477714D01*
X112656952Y-75477714D01*
X112752190Y-75525333D01*
X112799809Y-75620571D01*
X112799809Y-75715809D01*
X112323619Y-75811047D01*
X113228380Y-76144380D02*
X113228380Y-75477714D01*
X113228380Y-75668190D02*
X113276000Y-75572952D01*
X113323619Y-75525333D01*
X113418857Y-75477714D01*
X113514095Y-75477714D01*
X114561714Y-76096761D02*
X114704571Y-76144380D01*
X114942666Y-76144380D01*
X115037904Y-76096761D01*
X115085523Y-76049142D01*
X115133142Y-75953904D01*
X115133142Y-75858666D01*
X115085523Y-75763428D01*
X115037904Y-75715809D01*
X114942666Y-75668190D01*
X114752190Y-75620571D01*
X114656952Y-75572952D01*
X114609333Y-75525333D01*
X114561714Y-75430095D01*
X114561714Y-75334857D01*
X114609333Y-75239619D01*
X114656952Y-75192000D01*
X114752190Y-75144380D01*
X114990285Y-75144380D01*
X115133142Y-75192000D01*
X115942666Y-76096761D02*
X115847428Y-76144380D01*
X115656952Y-76144380D01*
X115561714Y-76096761D01*
X115514095Y-76001523D01*
X115514095Y-75620571D01*
X115561714Y-75525333D01*
X115656952Y-75477714D01*
X115847428Y-75477714D01*
X115942666Y-75525333D01*
X115990285Y-75620571D01*
X115990285Y-75715809D01*
X115514095Y-75811047D01*
X116561714Y-76144380D02*
X116466476Y-76096761D01*
X116418857Y-76001523D01*
X116418857Y-75144380D01*
X117323619Y-76096761D02*
X117228380Y-76144380D01*
X117037904Y-76144380D01*
X116942666Y-76096761D01*
X116895047Y-76001523D01*
X116895047Y-75620571D01*
X116942666Y-75525333D01*
X117037904Y-75477714D01*
X117228380Y-75477714D01*
X117323619Y-75525333D01*
X117371238Y-75620571D01*
X117371238Y-75715809D01*
X116895047Y-75811047D01*
X118228380Y-76096761D02*
X118133142Y-76144380D01*
X117942666Y-76144380D01*
X117847428Y-76096761D01*
X117799809Y-76049142D01*
X117752190Y-75953904D01*
X117752190Y-75668190D01*
X117799809Y-75572952D01*
X117847428Y-75525333D01*
X117942666Y-75477714D01*
X118133142Y-75477714D01*
X118228380Y-75525333D01*
X118514095Y-75477714D02*
X118895047Y-75477714D01*
X118656952Y-75144380D02*
X118656952Y-76001523D01*
X118704571Y-76096761D01*
X118799809Y-76144380D01*
X118895047Y-76144380D01*
%TO.C,U2*%
X130175095Y-110998604D02*
X130175095Y-111808128D01*
X130222714Y-111903366D01*
X130270333Y-111950985D01*
X130365571Y-111998604D01*
X130556047Y-111998604D01*
X130651285Y-111950985D01*
X130698904Y-111903366D01*
X130746523Y-111808128D01*
X130746523Y-110998604D01*
X131175095Y-111093843D02*
X131222714Y-111046224D01*
X131317952Y-110998604D01*
X131556047Y-110998604D01*
X131651285Y-111046224D01*
X131698904Y-111093843D01*
X131746523Y-111189081D01*
X131746523Y-111284319D01*
X131698904Y-111427176D01*
X131127476Y-111998604D01*
X131746523Y-111998604D01*
X126056047Y-105228604D02*
X125579857Y-105228604D01*
X125579857Y-104228604D01*
X126389380Y-105228604D02*
X126389380Y-104228604D01*
X126722714Y-104942890D01*
X127056047Y-104228604D01*
X127056047Y-105228604D01*
X127437000Y-104228604D02*
X128103666Y-104228604D01*
X127675095Y-105228604D01*
X128627476Y-104657176D02*
X128532238Y-104609557D01*
X128484619Y-104561938D01*
X128437000Y-104466700D01*
X128437000Y-104419081D01*
X128484619Y-104323843D01*
X128532238Y-104276224D01*
X128627476Y-104228604D01*
X128817952Y-104228604D01*
X128913190Y-104276224D01*
X128960809Y-104323843D01*
X129008428Y-104419081D01*
X129008428Y-104466700D01*
X128960809Y-104561938D01*
X128913190Y-104609557D01*
X128817952Y-104657176D01*
X128627476Y-104657176D01*
X128532238Y-104704795D01*
X128484619Y-104752414D01*
X128437000Y-104847652D01*
X128437000Y-105038128D01*
X128484619Y-105133366D01*
X128532238Y-105180985D01*
X128627476Y-105228604D01*
X128817952Y-105228604D01*
X128913190Y-105180985D01*
X128960809Y-105133366D01*
X129008428Y-105038128D01*
X129008428Y-104847652D01*
X128960809Y-104752414D01*
X128913190Y-104704795D01*
X128817952Y-104657176D01*
X129627476Y-104228604D02*
X129722714Y-104228604D01*
X129817952Y-104276224D01*
X129865571Y-104323843D01*
X129913190Y-104419081D01*
X129960809Y-104609557D01*
X129960809Y-104847652D01*
X129913190Y-105038128D01*
X129865571Y-105133366D01*
X129817952Y-105180985D01*
X129722714Y-105228604D01*
X129627476Y-105228604D01*
X129532238Y-105180985D01*
X129484619Y-105133366D01*
X129437000Y-105038128D01*
X129389380Y-104847652D01*
X129389380Y-104609557D01*
X129437000Y-104419081D01*
X129484619Y-104323843D01*
X129532238Y-104276224D01*
X129627476Y-104228604D01*
X130865571Y-104228604D02*
X130389380Y-104228604D01*
X130341761Y-104704795D01*
X130389380Y-104657176D01*
X130484619Y-104609557D01*
X130722714Y-104609557D01*
X130817952Y-104657176D01*
X130865571Y-104704795D01*
X130913190Y-104800033D01*
X130913190Y-105038128D01*
X130865571Y-105133366D01*
X130817952Y-105180985D01*
X130722714Y-105228604D01*
X130484619Y-105228604D01*
X130389380Y-105180985D01*
X130341761Y-105133366D01*
X131103666Y-105323843D02*
X131865571Y-105323843D01*
X131960809Y-104228604D02*
X132532238Y-104228604D01*
X132246523Y-105228604D02*
X132246523Y-104228604D01*
X133056047Y-104228604D02*
X133246523Y-104228604D01*
X133341761Y-104276224D01*
X133437000Y-104371462D01*
X133484619Y-104561938D01*
X133484619Y-104895271D01*
X133437000Y-105085747D01*
X133341761Y-105180985D01*
X133246523Y-105228604D01*
X133056047Y-105228604D01*
X132960809Y-105180985D01*
X132865571Y-105085747D01*
X132817952Y-104895271D01*
X132817952Y-104561938D01*
X132865571Y-104371462D01*
X132960809Y-104276224D01*
X133056047Y-104228604D01*
X133865571Y-104323843D02*
X133913190Y-104276224D01*
X134008428Y-104228604D01*
X134246523Y-104228604D01*
X134341761Y-104276224D01*
X134389380Y-104323843D01*
X134437000Y-104419081D01*
X134437000Y-104514319D01*
X134389380Y-104657176D01*
X133817952Y-105228604D01*
X134437000Y-105228604D01*
X134817952Y-104323843D02*
X134865571Y-104276224D01*
X134960809Y-104228604D01*
X135198904Y-104228604D01*
X135294142Y-104276224D01*
X135341761Y-104323843D01*
X135389380Y-104419081D01*
X135389380Y-104514319D01*
X135341761Y-104657176D01*
X134770333Y-105228604D01*
X135389380Y-105228604D01*
X136008428Y-104228604D02*
X136103666Y-104228604D01*
X136198904Y-104276224D01*
X136246523Y-104323843D01*
X136294142Y-104419081D01*
X136341761Y-104609557D01*
X136341761Y-104847652D01*
X136294142Y-105038128D01*
X136246523Y-105133366D01*
X136198904Y-105180985D01*
X136103666Y-105228604D01*
X136008428Y-105228604D01*
X135913190Y-105180985D01*
X135865571Y-105133366D01*
X135817952Y-105038128D01*
X135770333Y-104847652D01*
X135770333Y-104609557D01*
X135817952Y-104419081D01*
X135865571Y-104323843D01*
X135913190Y-104276224D01*
X136008428Y-104228604D01*
%TO.C,J2*%
X128190666Y-63968380D02*
X128190666Y-64682666D01*
X128143047Y-64825523D01*
X128047809Y-64920761D01*
X127904952Y-64968380D01*
X127809714Y-64968380D01*
X128619238Y-64063619D02*
X128666857Y-64016000D01*
X128762095Y-63968380D01*
X129000190Y-63968380D01*
X129095428Y-64016000D01*
X129143047Y-64063619D01*
X129190666Y-64158857D01*
X129190666Y-64254095D01*
X129143047Y-64396952D01*
X128571619Y-64968380D01*
X129190666Y-64968380D01*
X138557142Y-73366285D02*
X140842857Y-73366285D01*
X139700000Y-74509142D02*
X139700000Y-72223428D01*
D11*
%TO.C,C2*%
X137076000Y-98029888D02*
X135466000Y-98029888D01*
X138849000Y-95668888D02*
X133693000Y-95668888D01*
X137970000Y-97509888D02*
X137311000Y-97509888D01*
X135231000Y-96749888D02*
X133981000Y-96749888D01*
X137876000Y-97589888D02*
X137311000Y-97589888D01*
X138807000Y-96028888D02*
X137311000Y-96028888D01*
X135231000Y-96469888D02*
X133857000Y-96469888D01*
X138208000Y-97269888D02*
X137311000Y-97269888D01*
X138561000Y-96749888D02*
X137311000Y-96749888D01*
X135231000Y-97829888D02*
X135020000Y-97829888D01*
X138685000Y-96469888D02*
X137311000Y-96469888D01*
X138832000Y-95868888D02*
X137311000Y-95868888D01*
X135231000Y-96429888D02*
X133843000Y-96429888D01*
X135231000Y-96589888D02*
X133906000Y-96589888D01*
X135231000Y-96789888D02*
X134003000Y-96789888D01*
X135231000Y-97469888D02*
X134528000Y-97469888D01*
X138275000Y-97189888D02*
X137311000Y-97189888D01*
X135231000Y-97189888D02*
X134267000Y-97189888D01*
X138850000Y-95628888D02*
X133692000Y-95628888D01*
X135231000Y-97509888D02*
X134572000Y-97509888D01*
X138782000Y-96148888D02*
X137311000Y-96148888D01*
X138847000Y-95708888D02*
X133695000Y-95708888D01*
X135231000Y-97709888D02*
X134828000Y-97709888D01*
X138581000Y-96709888D02*
X137311000Y-96709888D01*
X138539000Y-96789888D02*
X137311000Y-96789888D01*
X135231000Y-97549888D02*
X134618000Y-97549888D01*
X137996000Y-92994113D02*
X137496000Y-92994113D01*
X135231000Y-96509888D02*
X133873000Y-96509888D01*
X135231000Y-96629888D02*
X133923000Y-96629888D01*
X138056000Y-97429888D02*
X137311000Y-97429888D01*
X138844000Y-95748888D02*
X133698000Y-95748888D01*
X137924000Y-97549888D02*
X137311000Y-97549888D01*
X135231000Y-95868888D02*
X133710000Y-95868888D01*
X135231000Y-97029888D02*
X134149000Y-97029888D01*
X135231000Y-97389888D02*
X134445000Y-97389888D01*
X135231000Y-96989888D02*
X134122000Y-96989888D01*
X135231000Y-97069888D02*
X134176000Y-97069888D01*
X136948000Y-98069888D02*
X135594000Y-98069888D01*
X135231000Y-95988888D02*
X133728000Y-95988888D01*
X135231000Y-96669888D02*
X133942000Y-96669888D01*
X138821000Y-95948888D02*
X137311000Y-95948888D01*
X138135000Y-97349888D02*
X137311000Y-97349888D01*
X135231000Y-96188888D02*
X133770000Y-96188888D01*
X135231000Y-96148888D02*
X133760000Y-96148888D01*
X138636000Y-96589888D02*
X137311000Y-96589888D01*
X138393000Y-97029888D02*
X137311000Y-97029888D01*
X138739000Y-96309888D02*
X137311000Y-96309888D01*
X138814000Y-95988888D02*
X137311000Y-95988888D01*
X135231000Y-97229888D02*
X134300000Y-97229888D01*
X136555000Y-98149888D02*
X135987000Y-98149888D01*
X135231000Y-97429888D02*
X134486000Y-97429888D01*
X135231000Y-95948888D02*
X133721000Y-95948888D01*
X138097000Y-97389888D02*
X137311000Y-97389888D01*
X135231000Y-97629888D02*
X134717000Y-97629888D01*
X138172000Y-97309888D02*
X137311000Y-97309888D01*
X138446000Y-96949888D02*
X137311000Y-96949888D01*
X138699000Y-96429888D02*
X137311000Y-96429888D01*
X135231000Y-97349888D02*
X134407000Y-97349888D01*
X138336000Y-97109888D02*
X137311000Y-97109888D01*
X135231000Y-96269888D02*
X133791000Y-96269888D01*
X137714000Y-97709888D02*
X137311000Y-97709888D01*
X138751000Y-96269888D02*
X137311000Y-96269888D01*
X138014000Y-97469888D02*
X137311000Y-97469888D01*
X138306000Y-97149888D02*
X137311000Y-97149888D01*
X138420000Y-96989888D02*
X137311000Y-96989888D01*
X135231000Y-97789888D02*
X134952000Y-97789888D01*
X138653000Y-96549888D02*
X137311000Y-96549888D01*
X135231000Y-96349888D02*
X133816000Y-96349888D01*
X135231000Y-97749888D02*
X134888000Y-97749888D01*
X137282000Y-97949888D02*
X135260000Y-97949888D01*
X138600000Y-96669888D02*
X137311000Y-96669888D01*
X138791000Y-96108888D02*
X137311000Y-96108888D01*
X135231000Y-97669888D02*
X134771000Y-97669888D01*
X135231000Y-96389888D02*
X133829000Y-96389888D01*
X137522000Y-97829888D02*
X137311000Y-97829888D01*
X135231000Y-96869888D02*
X134047000Y-96869888D01*
X138799000Y-96068888D02*
X137311000Y-96068888D01*
X138471000Y-96909888D02*
X137311000Y-96909888D01*
X135231000Y-96028888D02*
X133735000Y-96028888D01*
X138619000Y-96629888D02*
X137311000Y-96629888D01*
X138827000Y-95908888D02*
X137311000Y-95908888D01*
X138726000Y-96349888D02*
X137311000Y-96349888D01*
X138713000Y-96389888D02*
X137311000Y-96389888D01*
X135231000Y-96829888D02*
X134024000Y-96829888D01*
X135231000Y-96909888D02*
X134071000Y-96909888D01*
X138495000Y-96869888D02*
X137311000Y-96869888D01*
X135231000Y-95788888D02*
X133702000Y-95788888D01*
X135231000Y-97109888D02*
X134206000Y-97109888D01*
X138851000Y-95548888D02*
X133691000Y-95548888D01*
X135231000Y-96108888D02*
X133751000Y-96108888D01*
X137449000Y-97869888D02*
X135093000Y-97869888D01*
X135231000Y-96709888D02*
X133961000Y-96709888D01*
X135231000Y-96309888D02*
X133803000Y-96309888D01*
X137590000Y-97789888D02*
X137311000Y-97789888D01*
X138518000Y-96829888D02*
X137311000Y-96829888D01*
X137771000Y-97669888D02*
X137311000Y-97669888D01*
X137825000Y-97629888D02*
X137311000Y-97629888D01*
X138836000Y-95828888D02*
X137311000Y-95828888D01*
X138851000Y-95588888D02*
X133691000Y-95588888D01*
X135231000Y-95828888D02*
X133706000Y-95828888D01*
X135231000Y-97269888D02*
X134334000Y-97269888D01*
X135231000Y-96068888D02*
X133743000Y-96068888D01*
X135231000Y-96949888D02*
X134096000Y-96949888D01*
X135231000Y-96549888D02*
X133889000Y-96549888D01*
X135231000Y-97149888D02*
X134236000Y-97149888D01*
X137746000Y-92744113D02*
X137746000Y-93244113D01*
X135231000Y-96228888D02*
X133780000Y-96228888D01*
X138366000Y-97069888D02*
X137311000Y-97069888D01*
X137654000Y-97749888D02*
X137311000Y-97749888D01*
X135231000Y-97309888D02*
X134370000Y-97309888D01*
X137186000Y-97989888D02*
X135356000Y-97989888D01*
X136789000Y-98109888D02*
X135753000Y-98109888D01*
X138762000Y-96228888D02*
X137311000Y-96228888D01*
X138242000Y-97229888D02*
X137311000Y-97229888D01*
X138669000Y-96509888D02*
X137311000Y-96509888D01*
X135231000Y-97589888D02*
X134666000Y-97589888D01*
X138772000Y-96188888D02*
X137311000Y-96188888D01*
X137369000Y-97909888D02*
X135173000Y-97909888D01*
X138840000Y-95788888D02*
X137311000Y-95788888D01*
X135231000Y-95908888D02*
X133715000Y-95908888D01*
X138891000Y-95548888D02*
G75*
G03*
X138891000Y-95548888I-2620000J0D01*
G01*
%TO.C,Q1*%
X109506000Y-103037000D02*
X114147000Y-103037000D01*
X111016000Y-103037000D02*
X111016000Y-92797000D01*
X109506000Y-92797000D02*
X114147000Y-92797000D01*
X114147000Y-103037000D02*
X114147000Y-92797000D01*
X109506000Y-99767000D02*
X111016000Y-99767000D01*
X109506000Y-103037000D02*
X109506000Y-92797000D01*
X109506000Y-96066000D02*
X111016000Y-96066000D01*
%TO.C,C4*%
X127905000Y-96289888D02*
X126389000Y-96289888D01*
X127384000Y-97530888D02*
X126389000Y-97530888D01*
X124309000Y-96489888D02*
X122829000Y-96489888D01*
X124309000Y-97290888D02*
X123149000Y-97290888D01*
X126527000Y-98250888D02*
X124171000Y-98250888D01*
X126026000Y-98450888D02*
X124672000Y-98450888D01*
X127922000Y-96129888D02*
X122776000Y-96129888D01*
X124309000Y-97570888D02*
X123345000Y-97570888D01*
X127573000Y-97250888D02*
X126389000Y-97250888D01*
X127914000Y-96209888D02*
X126389000Y-96209888D01*
X124309000Y-97090888D02*
X123039000Y-97090888D01*
X124309000Y-97450888D02*
X123254000Y-97450888D01*
X127840000Y-96609888D02*
X126389000Y-96609888D01*
X124309000Y-98210888D02*
X124098000Y-98210888D01*
X126600000Y-98210888D02*
X126389000Y-98210888D01*
X126792000Y-98090888D02*
X126389000Y-98090888D01*
X127074000Y-93375113D02*
X126574000Y-93375113D01*
X124309000Y-96409888D02*
X122813000Y-96409888D01*
X126360000Y-98330888D02*
X124338000Y-98330888D01*
X127763000Y-96850888D02*
X126389000Y-96850888D01*
X127549000Y-97290888D02*
X126389000Y-97290888D01*
X127524000Y-97330888D02*
X126389000Y-97330888D01*
X124309000Y-97010888D02*
X123001000Y-97010888D01*
X127048000Y-97890888D02*
X126389000Y-97890888D01*
X127353000Y-97570888D02*
X126389000Y-97570888D01*
X127804000Y-96730888D02*
X126389000Y-96730888D01*
X127617000Y-97170888D02*
X126389000Y-97170888D01*
X124309000Y-96329888D02*
X122799000Y-96329888D01*
X126154000Y-98410888D02*
X124544000Y-98410888D01*
X124309000Y-97650888D02*
X123412000Y-97650888D01*
X127002000Y-97930888D02*
X126389000Y-97930888D01*
X125867000Y-98490888D02*
X124831000Y-98490888D01*
X127918000Y-96169888D02*
X126389000Y-96169888D01*
X124309000Y-97130888D02*
X123059000Y-97130888D01*
X124309000Y-96970888D02*
X122984000Y-96970888D01*
X124309000Y-97970888D02*
X123744000Y-97970888D01*
X127414000Y-97490888D02*
X126389000Y-97490888D01*
X124309000Y-96650888D02*
X122869000Y-96650888D01*
X124309000Y-97610888D02*
X123378000Y-97610888D01*
X127320000Y-97610888D02*
X126389000Y-97610888D01*
X124309000Y-96690888D02*
X122881000Y-96690888D01*
X125633000Y-98530888D02*
X125065000Y-98530888D01*
X124309000Y-97890888D02*
X123650000Y-97890888D01*
X124309000Y-98130888D02*
X123966000Y-98130888D01*
X124309000Y-97410888D02*
X123227000Y-97410888D01*
X124309000Y-97490888D02*
X123284000Y-97490888D01*
X124309000Y-97170888D02*
X123081000Y-97170888D01*
X127892000Y-96369888D02*
X126389000Y-96369888D01*
X124309000Y-97530888D02*
X123314000Y-97530888D01*
X124309000Y-96850888D02*
X122935000Y-96850888D01*
X127927000Y-96049888D02*
X122771000Y-96049888D01*
X126903000Y-98010888D02*
X126389000Y-98010888D01*
X124309000Y-96369888D02*
X122806000Y-96369888D01*
X127777000Y-96810888D02*
X126389000Y-96810888D01*
X124309000Y-96930888D02*
X122967000Y-96930888D01*
X124309000Y-97690888D02*
X123448000Y-97690888D01*
X127925000Y-96089888D02*
X122773000Y-96089888D01*
X124309000Y-97810888D02*
X123564000Y-97810888D01*
X124309000Y-97770888D02*
X123523000Y-97770888D01*
X124309000Y-96289888D02*
X122793000Y-96289888D01*
X127747000Y-96890888D02*
X126389000Y-96890888D01*
X124309000Y-97370888D02*
X123200000Y-97370888D01*
X124309000Y-97210888D02*
X123102000Y-97210888D01*
X127697000Y-97010888D02*
X126389000Y-97010888D01*
X124309000Y-97930888D02*
X123696000Y-97930888D01*
X127213000Y-97730888D02*
X126389000Y-97730888D01*
X127817000Y-96690888D02*
X126389000Y-96690888D01*
X126732000Y-98130888D02*
X126389000Y-98130888D01*
X127134000Y-97810888D02*
X126389000Y-97810888D01*
X124309000Y-96449888D02*
X122821000Y-96449888D01*
X124309000Y-97330888D02*
X123174000Y-97330888D01*
X124309000Y-96810888D02*
X122921000Y-96810888D01*
X127092000Y-97850888D02*
X126389000Y-97850888D01*
X126668000Y-98170888D02*
X126389000Y-98170888D01*
X124309000Y-97730888D02*
X123485000Y-97730888D01*
X127899000Y-96329888D02*
X126389000Y-96329888D01*
X127175000Y-97770888D02*
X126389000Y-97770888D01*
X124309000Y-98050888D02*
X123849000Y-98050888D01*
X127678000Y-97050888D02*
X126389000Y-97050888D01*
X124309000Y-97850888D02*
X123606000Y-97850888D01*
X124309000Y-98010888D02*
X123795000Y-98010888D01*
X127929000Y-95929888D02*
X122769000Y-95929888D01*
X127928000Y-96009888D02*
X122770000Y-96009888D01*
X124309000Y-97250888D02*
X123125000Y-97250888D01*
X127860000Y-96529888D02*
X126389000Y-96529888D01*
X127791000Y-96770888D02*
X126389000Y-96770888D01*
X124309000Y-98090888D02*
X123906000Y-98090888D01*
X124309000Y-96730888D02*
X122894000Y-96730888D01*
X127877000Y-96449888D02*
X126389000Y-96449888D01*
X124309000Y-96890888D02*
X122951000Y-96890888D01*
X127498000Y-97370888D02*
X126389000Y-97370888D01*
X124309000Y-96169888D02*
X122780000Y-96169888D01*
X127850000Y-96569888D02*
X126389000Y-96569888D01*
X127829000Y-96650888D02*
X126389000Y-96650888D01*
X127471000Y-97410888D02*
X126389000Y-97410888D01*
X124309000Y-96770888D02*
X122907000Y-96770888D01*
X127731000Y-96930888D02*
X126389000Y-96930888D01*
X126954000Y-97970888D02*
X126389000Y-97970888D01*
X126264000Y-98370888D02*
X124434000Y-98370888D01*
X127286000Y-97650888D02*
X126389000Y-97650888D01*
X127639000Y-97130888D02*
X126389000Y-97130888D01*
X126824000Y-93125113D02*
X126824000Y-93625113D01*
X127714000Y-96970888D02*
X126389000Y-96970888D01*
X124309000Y-97050888D02*
X123020000Y-97050888D01*
X127910000Y-96249888D02*
X126389000Y-96249888D01*
X127929000Y-95969888D02*
X122769000Y-95969888D01*
X127885000Y-96409888D02*
X126389000Y-96409888D01*
X124309000Y-96609888D02*
X122858000Y-96609888D01*
X127869000Y-96489888D02*
X126389000Y-96489888D01*
X127596000Y-97210888D02*
X126389000Y-97210888D01*
X127659000Y-97090888D02*
X126389000Y-97090888D01*
X124309000Y-96569888D02*
X122848000Y-96569888D01*
X126447000Y-98290888D02*
X124251000Y-98290888D01*
X127250000Y-97690888D02*
X126389000Y-97690888D01*
X124309000Y-96529888D02*
X122838000Y-96529888D01*
X126849000Y-98050888D02*
X126389000Y-98050888D01*
X124309000Y-96209888D02*
X122784000Y-96209888D01*
X124309000Y-98170888D02*
X124030000Y-98170888D01*
X127444000Y-97450888D02*
X126389000Y-97450888D01*
X124309000Y-96249888D02*
X122788000Y-96249888D01*
X127969000Y-95929888D02*
G75*
G03*
X127969000Y-95929888I-2620000J0D01*
G01*
%TO.C,J3*%
X151762000Y-76102000D02*
X151762000Y-80202000D01*
X157162000Y-90202000D02*
X151762000Y-90202000D01*
X151662000Y-65592000D02*
X151662000Y-90712000D01*
X157162000Y-89036000D02*
X157162000Y-90202000D01*
X157162000Y-66102000D02*
X151762000Y-66102000D01*
X157162000Y-84036000D02*
X157162000Y-85202000D01*
X157162000Y-86102000D02*
X157162000Y-87269000D01*
X157162000Y-69642000D02*
X157162000Y-70202000D01*
X157162000Y-76102000D02*
X151762000Y-76102000D01*
X157162000Y-80202000D02*
X151762000Y-80202000D01*
X157162000Y-71102000D02*
X157162000Y-72269000D01*
X151762000Y-71102000D02*
X151762000Y-75202000D01*
X158222000Y-90712000D02*
X148102000Y-90712000D01*
X150102000Y-65352000D02*
X147862000Y-65352000D01*
X148102000Y-65592000D02*
X148102000Y-90712000D01*
X157162000Y-81102000D02*
X151762000Y-81102000D01*
X157162000Y-75202000D02*
X151762000Y-75202000D01*
X158222000Y-65592000D02*
X158222000Y-90712000D01*
X157162000Y-86102000D02*
X151762000Y-86102000D01*
X147862000Y-65352000D02*
X147862000Y-67352000D01*
X151762000Y-86102000D02*
X151762000Y-90202000D01*
X157162000Y-85202000D02*
X151762000Y-85202000D01*
X157162000Y-71102000D02*
X151762000Y-71102000D01*
X157162000Y-76102000D02*
X157162000Y-77269000D01*
X157162000Y-74036000D02*
X157162000Y-75202000D01*
X158222000Y-65592000D02*
X148102000Y-65592000D01*
X151762000Y-81102000D02*
X151762000Y-85202000D01*
X157162000Y-79036000D02*
X157162000Y-80202000D01*
X157162000Y-66102000D02*
X157162000Y-66662000D01*
X157162000Y-81102000D02*
X157162000Y-82269000D01*
X151762000Y-66102000D02*
X151762000Y-70202000D01*
X157162000Y-70202000D02*
X151762000Y-70202000D01*
%TO.C,U1*%
X125817000Y-72805224D02*
X125817000Y-77446224D01*
X129087000Y-72805224D02*
X129087000Y-74315224D01*
X136057000Y-72805224D02*
X136057000Y-77446224D01*
X125817000Y-77446224D02*
X136057000Y-77446224D01*
X125817000Y-72805224D02*
X136057000Y-72805224D01*
X125817000Y-74315224D02*
X136057000Y-74315224D01*
X132788000Y-72805224D02*
X132788000Y-74315224D01*
%TO.C,J4*%
X157162000Y-93788000D02*
X151762000Y-93788000D01*
X151762000Y-98788000D02*
X151762000Y-102888000D01*
X157162000Y-98788000D02*
X151762000Y-98788000D01*
X157162000Y-103788000D02*
X151762000Y-103788000D01*
X157162000Y-102888000D02*
X151762000Y-102888000D01*
X157162000Y-97328000D02*
X157162000Y-97888000D01*
X151662000Y-93278000D02*
X151662000Y-108398000D01*
X151762000Y-93788000D02*
X151762000Y-97888000D01*
X157162000Y-97888000D02*
X151762000Y-97888000D01*
X158222000Y-93278000D02*
X148102000Y-93278000D01*
X158222000Y-93278000D02*
X158222000Y-108398000D01*
X157162000Y-106722000D02*
X157162000Y-107888000D01*
X147862000Y-93038000D02*
X147862000Y-95038000D01*
X157162000Y-103788000D02*
X157162000Y-104955000D01*
X157162000Y-93788000D02*
X157162000Y-94348000D01*
X151762000Y-103788000D02*
X151762000Y-107888000D01*
X150102000Y-93038000D02*
X147862000Y-93038000D01*
X157162000Y-101722000D02*
X157162000Y-102888000D01*
X157162000Y-107888000D02*
X151762000Y-107888000D01*
X148102000Y-93278000D02*
X148102000Y-108398000D01*
X157162000Y-98788000D02*
X157162000Y-99955000D01*
X158222000Y-108398000D02*
X148102000Y-108398000D01*
%TO.C,J1*%
X115131000Y-82927000D02*
X114131000Y-82927000D01*
X109111000Y-89137000D02*
X115131000Y-89137000D01*
X109711000Y-84417000D02*
X109111000Y-84417000D01*
X109711000Y-86017000D02*
X109711000Y-84417000D01*
X109711000Y-88557000D02*
X109711000Y-86957000D01*
X113601000Y-82927000D02*
X114131000Y-82677000D01*
X115131000Y-89137000D02*
X115131000Y-81297000D01*
X109111000Y-86017000D02*
X109711000Y-86017000D01*
X114131000Y-87757000D02*
X113601000Y-87507000D01*
X115131000Y-81297000D02*
X109111000Y-81297000D01*
X109711000Y-86957000D02*
X109111000Y-86957000D01*
X114131000Y-82677000D02*
X115131000Y-82677000D01*
X109711000Y-83477000D02*
X109711000Y-81877000D01*
X113601000Y-87507000D02*
X113601000Y-82927000D01*
X114131000Y-87757000D02*
X114131000Y-82677000D01*
X115131000Y-87757000D02*
X114131000Y-87757000D01*
X109711000Y-81877000D02*
X109111000Y-81877000D01*
X115131000Y-87507000D02*
X114131000Y-87507000D01*
X109111000Y-81297000D02*
X109111000Y-89137000D01*
X109111000Y-88557000D02*
X109711000Y-88557000D01*
X109111000Y-83477000D02*
X109711000Y-83477000D01*
X110141000Y-89427000D02*
X114141000Y-89427000D01*
%TO.C,J5*%
X124117000Y-62614000D02*
X124117000Y-62014000D01*
X118237000Y-67034000D02*
X123317000Y-67034000D01*
X118237000Y-68034000D02*
X118237000Y-67034000D01*
X119037000Y-62614000D02*
X119037000Y-62014000D01*
X124697000Y-68034000D02*
X124697000Y-62014000D01*
X116567000Y-63044000D02*
X116567000Y-67044000D01*
X122517000Y-62614000D02*
X124117000Y-62614000D01*
X123067000Y-66504000D02*
X123317000Y-67034000D01*
X121577000Y-62614000D02*
X121577000Y-62014000D01*
X118487000Y-66504000D02*
X123067000Y-66504000D01*
X119977000Y-62614000D02*
X121577000Y-62614000D01*
X123067000Y-68034000D02*
X123067000Y-67034000D01*
X119977000Y-62014000D02*
X119977000Y-62614000D01*
X122517000Y-62014000D02*
X122517000Y-62614000D01*
X123317000Y-67034000D02*
X123317000Y-68034000D01*
X116857000Y-68034000D02*
X124697000Y-68034000D01*
X116857000Y-62014000D02*
X116857000Y-68034000D01*
X117437000Y-62014000D02*
X117437000Y-62614000D01*
X118237000Y-67034000D02*
X118487000Y-66504000D01*
X117437000Y-62614000D02*
X119037000Y-62614000D01*
X124697000Y-62014000D02*
X116857000Y-62014000D01*
X118487000Y-68034000D02*
X118487000Y-67034000D01*
%TO.C,C1*%
X127885000Y-88852000D02*
X126389000Y-88852000D01*
X127763000Y-89293000D02*
X126389000Y-89293000D01*
X127791000Y-89213000D02*
X126389000Y-89213000D01*
X127929000Y-88412000D02*
X122769000Y-88412000D01*
X127639000Y-89573000D02*
X126389000Y-89573000D01*
X126954000Y-90413000D02*
X126389000Y-90413000D01*
X124309000Y-88932000D02*
X122829000Y-88932000D01*
X124309000Y-90653000D02*
X124098000Y-90653000D01*
X127731000Y-89373000D02*
X126389000Y-89373000D01*
X126447000Y-90733000D02*
X124251000Y-90733000D01*
X124309000Y-90333000D02*
X123650000Y-90333000D01*
X127892000Y-88812000D02*
X126389000Y-88812000D01*
X126792000Y-90533000D02*
X126389000Y-90533000D01*
X124309000Y-89333000D02*
X122951000Y-89333000D01*
X124309000Y-89853000D02*
X123227000Y-89853000D01*
X127905000Y-88732000D02*
X126389000Y-88732000D01*
X124309000Y-89052000D02*
X122858000Y-89052000D01*
X127444000Y-89893000D02*
X126389000Y-89893000D01*
X127134000Y-90253000D02*
X126389000Y-90253000D01*
X124309000Y-89213000D02*
X122907000Y-89213000D01*
X127925000Y-88532000D02*
X122773000Y-88532000D01*
X127002000Y-90373000D02*
X126389000Y-90373000D01*
X127840000Y-89052000D02*
X126389000Y-89052000D01*
X124309000Y-88892000D02*
X122821000Y-88892000D01*
X127414000Y-89933000D02*
X126389000Y-89933000D01*
X127074000Y-85817225D02*
X126574000Y-85817225D01*
X126824000Y-85567225D02*
X126824000Y-86067225D01*
X127817000Y-89133000D02*
X126389000Y-89133000D01*
X124309000Y-89453000D02*
X123001000Y-89453000D01*
X124309000Y-89693000D02*
X123125000Y-89693000D01*
X124309000Y-90093000D02*
X123412000Y-90093000D01*
X127918000Y-88612000D02*
X126389000Y-88612000D01*
X125867000Y-90933000D02*
X124831000Y-90933000D01*
X127850000Y-89012000D02*
X126389000Y-89012000D01*
X126360000Y-90773000D02*
X124338000Y-90773000D01*
X124309000Y-90373000D02*
X123696000Y-90373000D01*
X124309000Y-89012000D02*
X122848000Y-89012000D01*
X124309000Y-88812000D02*
X122806000Y-88812000D01*
X127877000Y-88892000D02*
X126389000Y-88892000D01*
X127092000Y-90293000D02*
X126389000Y-90293000D01*
X126264000Y-90813000D02*
X124434000Y-90813000D01*
X126903000Y-90453000D02*
X126389000Y-90453000D01*
X124309000Y-90413000D02*
X123744000Y-90413000D01*
X124309000Y-89733000D02*
X123149000Y-89733000D01*
X124309000Y-88772000D02*
X122799000Y-88772000D01*
X127910000Y-88692000D02*
X126389000Y-88692000D01*
X124309000Y-88972000D02*
X122838000Y-88972000D01*
X127829000Y-89093000D02*
X126389000Y-89093000D01*
X127250000Y-90133000D02*
X126389000Y-90133000D01*
X127899000Y-88772000D02*
X126389000Y-88772000D01*
X124309000Y-90253000D02*
X123564000Y-90253000D01*
X127213000Y-90173000D02*
X126389000Y-90173000D01*
X124309000Y-90493000D02*
X123849000Y-90493000D01*
X127048000Y-90333000D02*
X126389000Y-90333000D01*
X126600000Y-90653000D02*
X126389000Y-90653000D01*
X124309000Y-89133000D02*
X122881000Y-89133000D01*
X127617000Y-89613000D02*
X126389000Y-89613000D01*
X124309000Y-90213000D02*
X123523000Y-90213000D01*
X127747000Y-89333000D02*
X126389000Y-89333000D01*
X126668000Y-90613000D02*
X126389000Y-90613000D01*
X124309000Y-90613000D02*
X124030000Y-90613000D01*
X127927000Y-88492000D02*
X122771000Y-88492000D01*
X127175000Y-90213000D02*
X126389000Y-90213000D01*
X124309000Y-89613000D02*
X123081000Y-89613000D01*
X127320000Y-90053000D02*
X126389000Y-90053000D01*
X127922000Y-88572000D02*
X122776000Y-88572000D01*
X124309000Y-90573000D02*
X123966000Y-90573000D01*
X124309000Y-89893000D02*
X123254000Y-89893000D01*
X125633000Y-90973000D02*
X125065000Y-90973000D01*
X124309000Y-90453000D02*
X123795000Y-90453000D01*
X124309000Y-89173000D02*
X122894000Y-89173000D01*
X124309000Y-89413000D02*
X122984000Y-89413000D01*
X124309000Y-89773000D02*
X123174000Y-89773000D01*
X124309000Y-89933000D02*
X123284000Y-89933000D01*
X124309000Y-90133000D02*
X123448000Y-90133000D01*
X127659000Y-89533000D02*
X126389000Y-89533000D01*
X124309000Y-89253000D02*
X122921000Y-89253000D01*
X127596000Y-89653000D02*
X126389000Y-89653000D01*
X127860000Y-88972000D02*
X126389000Y-88972000D01*
X124309000Y-88692000D02*
X122788000Y-88692000D01*
X124309000Y-90173000D02*
X123485000Y-90173000D01*
X124309000Y-89293000D02*
X122935000Y-89293000D01*
X124309000Y-90293000D02*
X123606000Y-90293000D01*
X124309000Y-88652000D02*
X122784000Y-88652000D01*
X127573000Y-89693000D02*
X126389000Y-89693000D01*
X127777000Y-89253000D02*
X126389000Y-89253000D01*
X124309000Y-89653000D02*
X123102000Y-89653000D01*
X124309000Y-89573000D02*
X123059000Y-89573000D01*
X127697000Y-89453000D02*
X126389000Y-89453000D01*
X127929000Y-88372000D02*
X122769000Y-88372000D01*
X126732000Y-90573000D02*
X126389000Y-90573000D01*
X127286000Y-90093000D02*
X126389000Y-90093000D01*
X124309000Y-89373000D02*
X122967000Y-89373000D01*
X127524000Y-89773000D02*
X126389000Y-89773000D01*
X127914000Y-88652000D02*
X126389000Y-88652000D01*
X127928000Y-88452000D02*
X122770000Y-88452000D01*
X127869000Y-88932000D02*
X126389000Y-88932000D01*
X127714000Y-89413000D02*
X126389000Y-89413000D01*
X124309000Y-90013000D02*
X123345000Y-90013000D01*
X124309000Y-90533000D02*
X123906000Y-90533000D01*
X126154000Y-90853000D02*
X124544000Y-90853000D01*
X124309000Y-89533000D02*
X123039000Y-89533000D01*
X126026000Y-90893000D02*
X124672000Y-90893000D01*
X124309000Y-89493000D02*
X123020000Y-89493000D01*
X127549000Y-89733000D02*
X126389000Y-89733000D01*
X126849000Y-90493000D02*
X126389000Y-90493000D01*
X124309000Y-88612000D02*
X122780000Y-88612000D01*
X124309000Y-88852000D02*
X122813000Y-88852000D01*
X124309000Y-88732000D02*
X122793000Y-88732000D01*
X127471000Y-89853000D02*
X126389000Y-89853000D01*
X127804000Y-89173000D02*
X126389000Y-89173000D01*
X127498000Y-89813000D02*
X126389000Y-89813000D01*
X124309000Y-90053000D02*
X123378000Y-90053000D01*
X127678000Y-89493000D02*
X126389000Y-89493000D01*
X124309000Y-89973000D02*
X123314000Y-89973000D01*
X127384000Y-89973000D02*
X126389000Y-89973000D01*
X124309000Y-89813000D02*
X123200000Y-89813000D01*
X127353000Y-90013000D02*
X126389000Y-90013000D01*
X126527000Y-90693000D02*
X124171000Y-90693000D01*
X124309000Y-89093000D02*
X122869000Y-89093000D01*
X127969000Y-88372000D02*
G75*
G03*
X127969000Y-88372000I-2620000J0D01*
G01*
%TO.C,C3*%
X138713000Y-89213000D02*
X137311000Y-89213000D01*
X138751000Y-89093000D02*
X137311000Y-89093000D01*
X138014000Y-90293000D02*
X137311000Y-90293000D01*
X138669000Y-89333000D02*
X137311000Y-89333000D01*
X138495000Y-89693000D02*
X137311000Y-89693000D01*
X135231000Y-90453000D02*
X134717000Y-90453000D01*
X138851000Y-88412000D02*
X133691000Y-88412000D01*
X137771000Y-90493000D02*
X137311000Y-90493000D01*
X135231000Y-88852000D02*
X133735000Y-88852000D01*
X135231000Y-89933000D02*
X134206000Y-89933000D01*
X137186000Y-90813000D02*
X135356000Y-90813000D01*
X138726000Y-89173000D02*
X137311000Y-89173000D01*
X137590000Y-90613000D02*
X137311000Y-90613000D01*
X138242000Y-90053000D02*
X137311000Y-90053000D01*
X135231000Y-88972000D02*
X133760000Y-88972000D01*
X138581000Y-89533000D02*
X137311000Y-89533000D01*
X137449000Y-90693000D02*
X135093000Y-90693000D01*
X135231000Y-89413000D02*
X133906000Y-89413000D01*
X135231000Y-90613000D02*
X134952000Y-90613000D01*
X138832000Y-88692000D02*
X137311000Y-88692000D01*
X138600000Y-89493000D02*
X137311000Y-89493000D01*
X138844000Y-88572000D02*
X133698000Y-88572000D01*
X138172000Y-90133000D02*
X137311000Y-90133000D01*
X135231000Y-89973000D02*
X134236000Y-89973000D01*
X138471000Y-89733000D02*
X137311000Y-89733000D01*
X135231000Y-90013000D02*
X134267000Y-90013000D01*
X138653000Y-89373000D02*
X137311000Y-89373000D01*
X135231000Y-89813000D02*
X134122000Y-89813000D01*
X138685000Y-89293000D02*
X137311000Y-89293000D01*
X135231000Y-90573000D02*
X134888000Y-90573000D01*
X138827000Y-88732000D02*
X137311000Y-88732000D01*
X137714000Y-90533000D02*
X137311000Y-90533000D01*
X135231000Y-89012000D02*
X133770000Y-89012000D01*
X137746000Y-85567225D02*
X137746000Y-86067225D01*
X138539000Y-89613000D02*
X137311000Y-89613000D01*
X138306000Y-89973000D02*
X137311000Y-89973000D01*
X138135000Y-90173000D02*
X137311000Y-90173000D01*
X135231000Y-90213000D02*
X134445000Y-90213000D01*
X138807000Y-88852000D02*
X137311000Y-88852000D01*
X137970000Y-90333000D02*
X137311000Y-90333000D01*
X135231000Y-88732000D02*
X133715000Y-88732000D01*
X138836000Y-88652000D02*
X137311000Y-88652000D01*
X135231000Y-89893000D02*
X134176000Y-89893000D01*
X135231000Y-90333000D02*
X134572000Y-90333000D01*
X135231000Y-89373000D02*
X133889000Y-89373000D01*
X135231000Y-89493000D02*
X133942000Y-89493000D01*
X135231000Y-90373000D02*
X134618000Y-90373000D01*
X135231000Y-89533000D02*
X133961000Y-89533000D01*
X138772000Y-89012000D02*
X137311000Y-89012000D01*
X138847000Y-88532000D02*
X133695000Y-88532000D01*
X135231000Y-88932000D02*
X133751000Y-88932000D01*
X137076000Y-90853000D02*
X135466000Y-90853000D01*
X135231000Y-90253000D02*
X134486000Y-90253000D01*
X138336000Y-89933000D02*
X137311000Y-89933000D01*
X138782000Y-88972000D02*
X137311000Y-88972000D01*
X136948000Y-90893000D02*
X135594000Y-90893000D01*
X138518000Y-89653000D02*
X137311000Y-89653000D01*
X138840000Y-88612000D02*
X137311000Y-88612000D01*
X135231000Y-89453000D02*
X133923000Y-89453000D01*
X137924000Y-90373000D02*
X137311000Y-90373000D01*
X135231000Y-90493000D02*
X134771000Y-90493000D01*
X135231000Y-88892000D02*
X133743000Y-88892000D01*
X138420000Y-89813000D02*
X137311000Y-89813000D01*
X138275000Y-90013000D02*
X137311000Y-90013000D01*
X138799000Y-88892000D02*
X137311000Y-88892000D01*
X135231000Y-89133000D02*
X133803000Y-89133000D01*
X135231000Y-90653000D02*
X135020000Y-90653000D01*
X135231000Y-88772000D02*
X133721000Y-88772000D01*
X138208000Y-90093000D02*
X137311000Y-90093000D01*
X138849000Y-88492000D02*
X133693000Y-88492000D01*
X135231000Y-89333000D02*
X133873000Y-89333000D01*
X135231000Y-90413000D02*
X134666000Y-90413000D01*
X135231000Y-90093000D02*
X134334000Y-90093000D01*
X135231000Y-88612000D02*
X133702000Y-88612000D01*
X135231000Y-90133000D02*
X134370000Y-90133000D01*
X135231000Y-90053000D02*
X134300000Y-90053000D01*
X136789000Y-90933000D02*
X135753000Y-90933000D01*
X137369000Y-90733000D02*
X135173000Y-90733000D01*
X138097000Y-90213000D02*
X137311000Y-90213000D01*
X138814000Y-88812000D02*
X137311000Y-88812000D01*
X138791000Y-88932000D02*
X137311000Y-88932000D01*
X135231000Y-90293000D02*
X134528000Y-90293000D01*
X138699000Y-89253000D02*
X137311000Y-89253000D01*
X137825000Y-90453000D02*
X137311000Y-90453000D01*
X138446000Y-89773000D02*
X137311000Y-89773000D01*
X135231000Y-89653000D02*
X134024000Y-89653000D01*
X138056000Y-90253000D02*
X137311000Y-90253000D01*
X138851000Y-88372000D02*
X133691000Y-88372000D01*
X138561000Y-89573000D02*
X137311000Y-89573000D01*
X135231000Y-90173000D02*
X134407000Y-90173000D01*
X138762000Y-89052000D02*
X137311000Y-89052000D01*
X135231000Y-88652000D02*
X133706000Y-88652000D01*
X138393000Y-89853000D02*
X137311000Y-89853000D01*
X135231000Y-89613000D02*
X134003000Y-89613000D01*
X138739000Y-89133000D02*
X137311000Y-89133000D01*
X135231000Y-89253000D02*
X133843000Y-89253000D01*
X135231000Y-88812000D02*
X133728000Y-88812000D01*
X135231000Y-89733000D02*
X134071000Y-89733000D01*
X137654000Y-90573000D02*
X137311000Y-90573000D01*
X135231000Y-89853000D02*
X134149000Y-89853000D01*
X135231000Y-89293000D02*
X133857000Y-89293000D01*
X138821000Y-88772000D02*
X137311000Y-88772000D01*
X138850000Y-88452000D02*
X133692000Y-88452000D01*
X137522000Y-90653000D02*
X137311000Y-90653000D01*
X137996000Y-85817225D02*
X137496000Y-85817225D01*
X135231000Y-89213000D02*
X133829000Y-89213000D01*
X135231000Y-89173000D02*
X133816000Y-89173000D01*
X138636000Y-89413000D02*
X137311000Y-89413000D01*
X137876000Y-90413000D02*
X137311000Y-90413000D01*
X135231000Y-88692000D02*
X133710000Y-88692000D01*
X135231000Y-89693000D02*
X134047000Y-89693000D01*
X135231000Y-89573000D02*
X133981000Y-89573000D01*
X135231000Y-89773000D02*
X134096000Y-89773000D01*
X135231000Y-90533000D02*
X134828000Y-90533000D01*
X135231000Y-89052000D02*
X133780000Y-89052000D01*
X138619000Y-89453000D02*
X137311000Y-89453000D01*
X137282000Y-90773000D02*
X135260000Y-90773000D01*
X136555000Y-90973000D02*
X135987000Y-90973000D01*
X138366000Y-89893000D02*
X137311000Y-89893000D01*
X135231000Y-89093000D02*
X133791000Y-89093000D01*
X138891000Y-88372000D02*
G75*
G03*
X138891000Y-88372000I-2620000J0D01*
G01*
%TO.C,JP1*%
X109033000Y-74228000D02*
X109033000Y-72898000D01*
X111633000Y-74228000D02*
X116773000Y-74228000D01*
X110363000Y-74228000D02*
X109033000Y-74228000D01*
X116773000Y-74228000D02*
X116773000Y-71568000D01*
X111633000Y-74228000D02*
X111633000Y-71568000D01*
X111633000Y-71568000D02*
X116773000Y-71568000D01*
%TO.C,U2*%
X136057000Y-109036224D02*
X125817000Y-109036224D01*
X129086000Y-110546224D02*
X129086000Y-109036224D01*
X132787000Y-110546224D02*
X132787000Y-109036224D01*
X136057000Y-110546224D02*
X136057000Y-105905224D01*
X125817000Y-110546224D02*
X125817000Y-105905224D01*
X136057000Y-105905224D02*
X125817000Y-105905224D01*
X136057000Y-110546224D02*
X125817000Y-110546224D01*
%TO.C,J2*%
X140792000Y-61422000D02*
X140792000Y-66822000D01*
X130282000Y-70482000D02*
X145402000Y-70482000D01*
X143726000Y-61422000D02*
X144892000Y-61422000D01*
X130282000Y-60362000D02*
X130282000Y-70482000D01*
X130792000Y-61422000D02*
X131352000Y-61422000D01*
X140792000Y-66822000D02*
X144892000Y-66822000D01*
X130042000Y-68482000D02*
X130042000Y-70722000D01*
X139892000Y-61422000D02*
X139892000Y-66822000D01*
X135792000Y-61422000D02*
X136959000Y-61422000D01*
X130792000Y-61422000D02*
X130792000Y-66822000D01*
X130042000Y-70722000D02*
X132042000Y-70722000D01*
X140792000Y-61422000D02*
X141959000Y-61422000D01*
X134892000Y-61422000D02*
X134892000Y-66822000D01*
X138726000Y-61422000D02*
X139892000Y-61422000D01*
X144892000Y-61422000D02*
X144892000Y-66822000D01*
X134332000Y-61422000D02*
X134892000Y-61422000D01*
X135792000Y-61422000D02*
X135792000Y-66822000D01*
X130282000Y-60362000D02*
X145402000Y-60362000D01*
X135792000Y-66822000D02*
X139892000Y-66822000D01*
X130792000Y-66822000D02*
X134892000Y-66822000D01*
X145402000Y-60362000D02*
X145402000Y-70482000D01*
X130282000Y-66922000D02*
X145402000Y-66922000D01*
%TD*%
M02*
