M48
; DRILL file {KiCad (6.0.6)} date Fri Jul 29 16:24:57 2022
; FORMAT={-:-/ absolute / inch / decimal}
; #@! TF.CreationDate,2022-07-29T16:24:57-07:00
; #@! TF.GenerationSoftware,Kicad,Pcbnew,(6.0.6)
; #@! TF.FileFunction,Plated,1,2,PTH
FMAT,2
INCH
; #@! TA.AperFunction,Plated,PTH,ViaDrill
T1C0.0157
; #@! TA.AperFunction,Plated,PTH,ViaDrill
T2C0.0197
; #@! TA.AperFunction,Plated,PTH,ComponentDrill
T3C0.0300
; #@! TA.AperFunction,Plated,PTH,ComponentDrill
T4C0.0374
; #@! TA.AperFunction,Plated,PTH,ComponentDrill
T5C0.0394
; #@! TA.AperFunction,Plated,PTH,ComponentDrill
T6C0.1260
%
G90
G05
T1
X5.0998Y-3.6583
X5.2048Y-3.6483
X5.4298Y-3.4733
X5.4398Y-3.3883
X5.5298Y-3.3833
X5.5298Y-3.4683
X5.5698Y-3.0433
X5.6548Y-2.9433
X5.6648Y-2.9933
X6.1698Y-2.5533
X6.1698Y-2.6533
X6.2348Y-3.3433
X6.3448Y-3.8633
X6.3727Y-3.8033
X6.8998Y-3.7883
X6.9048Y-3.4883
X6.9048Y-3.5883
X6.9048Y-3.6883
X6.9498Y-3.5383
X6.9498Y-3.7383
X6.9598Y-3.8383
X6.9698Y-3.6383
X7.1048Y-2.9783
X7.1098Y-2.8683
X7.1148Y-2.7783
X7.1298Y-3.0683
X7.1398Y-3.1883
X7.1798Y-3.2783
T2
X4.6748Y-2.5783
X4.6898Y-3.6983
X4.9198Y-3.8983
X4.9698Y-2.2983
X5.5998Y-2.5733
X5.9198Y-3.8783
X5.9848Y-3.1633
X6.0498Y-2.5933
X6.0698Y-3.3733
X6.0748Y-3.2283
X6.0848Y-2.9033
X6.1248Y-3.1233
X6.2698Y-3.1383
X6.4448Y-3.0983
X6.5598Y-2.3933
X7.1398Y-3.9183
X7.1648Y-2.5383
X7.3798Y-2.5733
X7.4048Y-3.6683
T3
X4.7598Y-2.3933
X4.7598Y-3.8583
X7.3398Y-2.3933
X7.3398Y-3.8583
T4
X4.7892Y-2.7615
X4.7892Y-2.8599
X4.7892Y-2.9583
X4.7892Y-3.0568
X4.7892Y-3.1552
X5.218Y-2.4133
X5.3164Y-2.4133
X5.4148Y-2.4133
X6.7896Y-2.3583
X6.888Y-2.3583
X6.9864Y-2.3583
X7.0848Y-2.3583
T5
X4.7842Y-3.4441
X4.7842Y-3.5426
X5.3848Y-3.6158
X5.4246Y-3.2933
X5.4848Y-3.6158
X5.5246Y-3.2933
X5.5848Y-3.6158
X5.9048Y-2.4037
X5.9048Y-2.5037
X5.9048Y-2.6037
X5.9048Y-2.7037
X5.9048Y-2.8037
X5.9048Y-2.9037
X5.9048Y-3.0037
X6.2342Y-3.5641
X6.2342Y-3.6626
X6.2798Y-2.4083
X6.2798Y-2.5083
X6.2798Y-2.6083
X6.2798Y-2.7083
X6.2798Y-2.8083
X6.2798Y-2.9083
X6.2798Y-3.0083
X6.9548Y-2.6288
X6.9548Y-2.7288
X6.9548Y-2.8288
X6.9548Y-2.9288
X6.9548Y-3.0288
X6.9548Y-3.1288
X6.9548Y-3.2288
X6.9548Y-3.3288
X7.2698Y-2.7288
X7.2698Y-2.8288
X7.2698Y-2.9288
X7.2698Y-3.0288
X7.2698Y-3.1288
X7.2698Y-3.2288
X7.2698Y-3.3288
X7.2698Y-3.4288
T6
X4.7598Y-2.3933
X4.7598Y-3.8583
X7.3398Y-2.3933
X7.3398Y-3.8583
T0
M30
