%TF.GenerationSoftware,KiCad,Pcbnew,(6.0.6)*%
%TF.CreationDate,2022-07-29T16:25:05-07:00*%
%TF.ProjectId,ubitx raduino clone daughter board,75626974-7820-4726-9164-75696e6f2063,rev?*%
%TF.SameCoordinates,Original*%
%TF.FileFunction,Soldermask,Bot*%
%TF.FilePolarity,Negative*%
%FSLAX46Y46*%
G04 Gerber Fmt 4.6, Leading zero omitted, Abs format (unit mm)*
G04 Created by KiCad (PCBNEW (6.0.6)) date 2022-07-29 16:25:05*
%MOMM*%
%LPD*%
G01*
G04 APERTURE LIST*
G04 Aperture macros list*
%AMRoundRect*
0 Rectangle with rounded corners*
0 $1 Rounding radius*
0 $2 $3 $4 $5 $6 $7 $8 $9 X,Y pos of 4 corners*
0 Add a 4 corners polygon primitive as box body*
4,1,4,$2,$3,$4,$5,$6,$7,$8,$9,$2,$3,0*
0 Add four circle primitives for the rounded corners*
1,1,$1+$1,$2,$3*
1,1,$1+$1,$4,$5*
1,1,$1+$1,$6,$7*
1,1,$1+$1,$8,$9*
0 Add four rect primitives between the rounded corners*
20,1,$1+$1,$2,$3,$4,$5,0*
20,1,$1+$1,$4,$5,$6,$7,0*
20,1,$1+$1,$6,$7,$8,$9,0*
20,1,$1+$1,$8,$9,$2,$3,0*%
G04 Aperture macros list end*
%ADD10R,1.700000X1.700000*%
%ADD11O,1.700000X1.700000*%
%ADD12RoundRect,0.250000X0.750000X-0.600000X0.750000X0.600000X-0.750000X0.600000X-0.750000X-0.600000X0*%
%ADD13O,2.000000X1.700000*%
%ADD14C,5.600000*%
%ADD15C,3.600000*%
%ADD16RoundRect,0.250000X0.725000X-0.600000X0.725000X0.600000X-0.725000X0.600000X-0.725000X-0.600000X0*%
%ADD17O,1.950000X1.700000*%
%ADD18RoundRect,0.250000X0.600000X0.725000X-0.600000X0.725000X-0.600000X-0.725000X0.600000X-0.725000X0*%
%ADD19O,1.700000X1.950000*%
%ADD20RoundRect,0.150000X-0.875000X-0.150000X0.875000X-0.150000X0.875000X0.150000X-0.875000X0.150000X0*%
%ADD21RoundRect,0.250000X0.625000X-0.312500X0.625000X0.312500X-0.625000X0.312500X-0.625000X-0.312500X0*%
%ADD22O,2.748280X1.998980*%
%ADD23O,1.016000X2.032000*%
%ADD24C,1.143000*%
%ADD25RoundRect,0.250000X-0.625000X0.312500X-0.625000X-0.312500X0.625000X-0.312500X0.625000X0.312500X0*%
%ADD26RoundRect,0.150000X0.825000X0.150000X-0.825000X0.150000X-0.825000X-0.150000X0.825000X-0.150000X0*%
%ADD27RoundRect,0.250000X-0.650000X0.325000X-0.650000X-0.325000X0.650000X-0.325000X0.650000X0.325000X0*%
G04 APERTURE END LIST*
D10*
%TO.C,J4*%
X159508000Y-61172000D03*
D11*
X159508000Y-63712000D03*
X159508000Y-66252000D03*
X159508000Y-68792000D03*
X159508000Y-71332000D03*
X159508000Y-73872000D03*
X159508000Y-76412000D03*
%TD*%
D10*
%TO.C,J5*%
X149983000Y-76295000D03*
D11*
X149983000Y-73755000D03*
X149983000Y-71215000D03*
X149983000Y-68675000D03*
X149983000Y-66135000D03*
X149983000Y-63595000D03*
X149983000Y-61055000D03*
%TD*%
D12*
%TO.C,J9*%
X121518000Y-89981000D03*
D13*
X121518000Y-87481000D03*
%TD*%
D14*
%TO.C,Hole3*%
X186432000Y-98002000D03*
D15*
X186432000Y-98002000D03*
D14*
X186432000Y-98002000D03*
%TD*%
D10*
%TO.C,J7*%
X176653000Y-66771856D03*
D11*
X176653000Y-69311856D03*
X176653000Y-71851856D03*
X176653000Y-74391856D03*
X176653000Y-76931856D03*
X176653000Y-79471856D03*
X176653000Y-82011856D03*
X176653000Y-84551856D03*
%TD*%
D16*
%TO.C,J2*%
X121645000Y-80142000D03*
D17*
X121645000Y-77642000D03*
X121645000Y-75142000D03*
X121645000Y-72642000D03*
X121645000Y-70142000D03*
%TD*%
D12*
%TO.C,J8*%
X158348000Y-93029000D03*
D13*
X158348000Y-90529000D03*
%TD*%
D14*
%TO.C,Hole4*%
X120900000Y-98002000D03*
X120900000Y-98002000D03*
D15*
X120900000Y-98002000D03*
%TD*%
D18*
%TO.C,J3*%
X137537000Y-61299000D03*
D19*
X135037000Y-61299000D03*
X132537000Y-61299000D03*
%TD*%
D10*
%TO.C,JP1*%
X136775000Y-91842500D03*
D11*
X139315000Y-91842500D03*
X141855000Y-91842500D03*
%TD*%
D18*
%TO.C,J1*%
X179955000Y-59902000D03*
D19*
X177455000Y-59902000D03*
X174955000Y-59902000D03*
X172455000Y-59902000D03*
%TD*%
D10*
%TO.C,J6*%
X184654000Y-69311856D03*
D11*
X184654000Y-71851856D03*
X184654000Y-74391856D03*
X184654000Y-76931856D03*
X184654000Y-79471856D03*
X184654000Y-82011856D03*
X184654000Y-84551856D03*
X184654000Y-87091856D03*
%TD*%
D10*
%TO.C,JP2*%
X137786000Y-83651000D03*
D11*
X140326000Y-83651000D03*
%TD*%
D14*
%TO.C,Hole1*%
X120900000Y-60791000D03*
X120900000Y-60791000D03*
D15*
X120900000Y-60791000D03*
%TD*%
%TO.C,Hole2*%
X186432000Y-60791000D03*
D14*
X186432000Y-60791000D03*
X186432000Y-60791000D03*
%TD*%
D20*
%TO.C,U1*%
X163748000Y-98764000D03*
X163748000Y-97494000D03*
X163748000Y-96224000D03*
X163748000Y-94954000D03*
X163748000Y-93684000D03*
X163748000Y-92414000D03*
X163748000Y-91144000D03*
X163748000Y-89874000D03*
X163748000Y-88604000D03*
X173048000Y-88604000D03*
X173048000Y-89874000D03*
X173048000Y-91144000D03*
X173048000Y-92414000D03*
X173048000Y-93684000D03*
X173048000Y-94954000D03*
X173048000Y-96224000D03*
X173048000Y-97494000D03*
X173048000Y-98764000D03*
%TD*%
D21*
%TO.C,R2*%
X152269000Y-85367500D03*
X152269000Y-82442500D03*
%TD*%
D22*
%TO.C,M1*%
X162971290Y-60776490D03*
X162971290Y-63316490D03*
X162971290Y-65856490D03*
X162971290Y-68396490D03*
X162971290Y-70936490D03*
X162971290Y-73476490D03*
X162971290Y-76016490D03*
X146806730Y-76016490D03*
X146806730Y-73476490D03*
X146806730Y-70936490D03*
X146806730Y-68396490D03*
X146806730Y-65856490D03*
X146806730Y-63316490D03*
X146806730Y-60776490D03*
D23*
X156104410Y-77094310D03*
X153554410Y-77094310D03*
D24*
X156105607Y-60090123D03*
X153565607Y-60090123D03*
X156105607Y-62630123D03*
X153565607Y-62630123D03*
%TD*%
D25*
%TO.C,R1*%
X160143000Y-82442500D03*
X160143000Y-85367500D03*
%TD*%
D26*
%TO.C,U2*%
X172651000Y-69173000D03*
X172651000Y-70443000D03*
X172651000Y-71713000D03*
X172651000Y-72983000D03*
X172651000Y-74253000D03*
X172651000Y-75523000D03*
X172651000Y-76793000D03*
X172651000Y-78063000D03*
X167701000Y-78063000D03*
X167701000Y-76793000D03*
X167701000Y-75523000D03*
X167701000Y-74253000D03*
X167701000Y-72983000D03*
X167701000Y-71713000D03*
X167701000Y-70443000D03*
X167701000Y-69173000D03*
%TD*%
D27*
%TO.C,C1*%
X156206000Y-82450000D03*
X156206000Y-85400000D03*
%TD*%
M02*
