%TF.GenerationSoftware,KiCad,Pcbnew,(6.0.6)*%
%TF.CreationDate,2022-07-29T16:25:05-07:00*%
%TF.ProjectId,ubitx raduino clone daughter board,75626974-7820-4726-9164-75696e6f2063,rev?*%
%TF.SameCoordinates,Original*%
%TF.FileFunction,Legend,Bot*%
%TF.FilePolarity,Positive*%
%FSLAX46Y46*%
G04 Gerber Fmt 4.6, Leading zero omitted, Abs format (unit mm)*
G04 Created by KiCad (PCBNEW (6.0.6)) date 2022-07-29 16:25:05*
%MOMM*%
%LPD*%
G01*
G04 APERTURE LIST*
%ADD10C,0.150000*%
%ADD11C,0.101600*%
%ADD12C,0.076200*%
%ADD13C,0.120000*%
%ADD14C,0.127000*%
%ADD15C,0.066040*%
%ADD16C,0.254000*%
G04 APERTURE END LIST*
D10*
%TO.C,U1*%
X169159904Y-86024380D02*
X169159904Y-86833904D01*
X169112285Y-86929142D01*
X169064666Y-86976761D01*
X168969428Y-87024380D01*
X168778952Y-87024380D01*
X168683714Y-86976761D01*
X168636095Y-86929142D01*
X168588476Y-86833904D01*
X168588476Y-86024380D01*
X167588476Y-87024380D02*
X168159904Y-87024380D01*
X167874190Y-87024380D02*
X167874190Y-86024380D01*
X167969428Y-86167238D01*
X168064666Y-86262476D01*
X168159904Y-86310095D01*
%TO.C,R2*%
X152435666Y-81309380D02*
X152769000Y-80833190D01*
X153007095Y-81309380D02*
X153007095Y-80309380D01*
X152626142Y-80309380D01*
X152530904Y-80357000D01*
X152483285Y-80404619D01*
X152435666Y-80499857D01*
X152435666Y-80642714D01*
X152483285Y-80737952D01*
X152530904Y-80785571D01*
X152626142Y-80833190D01*
X153007095Y-80833190D01*
X152054714Y-80404619D02*
X152007095Y-80357000D01*
X151911857Y-80309380D01*
X151673761Y-80309380D01*
X151578523Y-80357000D01*
X151530904Y-80404619D01*
X151483285Y-80499857D01*
X151483285Y-80595095D01*
X151530904Y-80737952D01*
X152102333Y-81309380D01*
X151483285Y-81309380D01*
X153721619Y-82738333D02*
X153674000Y-82785952D01*
X153626380Y-82881190D01*
X153626380Y-83119285D01*
X153674000Y-83214523D01*
X153721619Y-83262142D01*
X153816857Y-83309761D01*
X153912095Y-83309761D01*
X154054952Y-83262142D01*
X154626380Y-82690714D01*
X154626380Y-83309761D01*
X153626380Y-83928809D02*
X153626380Y-84024047D01*
X153674000Y-84119285D01*
X153721619Y-84166904D01*
X153816857Y-84214523D01*
X154007333Y-84262142D01*
X154245428Y-84262142D01*
X154435904Y-84214523D01*
X154531142Y-84166904D01*
X154578761Y-84119285D01*
X154626380Y-84024047D01*
X154626380Y-83928809D01*
X154578761Y-83833571D01*
X154531142Y-83785952D01*
X154435904Y-83738333D01*
X154245428Y-83690714D01*
X154007333Y-83690714D01*
X153816857Y-83738333D01*
X153721619Y-83785952D01*
X153674000Y-83833571D01*
X153626380Y-83928809D01*
X154626380Y-84690714D02*
X153626380Y-84690714D01*
X154245428Y-84785952D02*
X154626380Y-85071666D01*
X153959714Y-85071666D02*
X154340666Y-84690714D01*
D11*
%TO.C,M1*%
X158872576Y-57261976D02*
X158872576Y-56372976D01*
X158576243Y-57007976D01*
X158279910Y-56372976D01*
X158279910Y-57261976D01*
X157390910Y-57261976D02*
X157898910Y-57261976D01*
X157644910Y-57261976D02*
X157644910Y-56372976D01*
X157729576Y-56499976D01*
X157814243Y-56584643D01*
X157898910Y-56626976D01*
D12*
X158394028Y-67696171D02*
X157987628Y-68305771D01*
X157987628Y-67696171D02*
X158394028Y-68305771D01*
X157755400Y-68305771D02*
X157755400Y-67696171D01*
X157494142Y-68131600D02*
X157203857Y-68131600D01*
X157552200Y-68305771D02*
X157349000Y-67696171D01*
X157145800Y-68305771D01*
X156826485Y-67696171D02*
X156710371Y-67696171D01*
X156652314Y-67725200D01*
X156594257Y-67783257D01*
X156565228Y-67899371D01*
X156565228Y-68102571D01*
X156594257Y-68218685D01*
X156652314Y-68276742D01*
X156710371Y-68305771D01*
X156826485Y-68305771D01*
X156884542Y-68276742D01*
X156942600Y-68218685D01*
X156971628Y-68102571D01*
X156971628Y-67899371D01*
X156942600Y-67783257D01*
X156884542Y-67725200D01*
X156826485Y-67696171D01*
X156303971Y-68073542D02*
X155839514Y-68073542D01*
X155200885Y-68305771D02*
X155404085Y-68015485D01*
X155549228Y-68305771D02*
X155549228Y-67696171D01*
X155317000Y-67696171D01*
X155258942Y-67725200D01*
X155229914Y-67754228D01*
X155200885Y-67812285D01*
X155200885Y-67899371D01*
X155229914Y-67957428D01*
X155258942Y-67986457D01*
X155317000Y-68015485D01*
X155549228Y-68015485D01*
X154939628Y-68305771D02*
X154939628Y-67696171D01*
X154707400Y-67696171D01*
X154649342Y-67725200D01*
X154620314Y-67754228D01*
X154591285Y-67812285D01*
X154591285Y-67899371D01*
X154620314Y-67957428D01*
X154649342Y-67986457D01*
X154707400Y-68015485D01*
X154939628Y-68015485D01*
X154359057Y-67754228D02*
X154330028Y-67725200D01*
X154271971Y-67696171D01*
X154126828Y-67696171D01*
X154068771Y-67725200D01*
X154039742Y-67754228D01*
X154010714Y-67812285D01*
X154010714Y-67870342D01*
X154039742Y-67957428D01*
X154388085Y-68305771D01*
X154010714Y-68305771D01*
X153633342Y-67696171D02*
X153575285Y-67696171D01*
X153517228Y-67725200D01*
X153488200Y-67754228D01*
X153459171Y-67812285D01*
X153430142Y-67928400D01*
X153430142Y-68073542D01*
X153459171Y-68189657D01*
X153488200Y-68247714D01*
X153517228Y-68276742D01*
X153575285Y-68305771D01*
X153633342Y-68305771D01*
X153691400Y-68276742D01*
X153720428Y-68247714D01*
X153749457Y-68189657D01*
X153778485Y-68073542D01*
X153778485Y-67928400D01*
X153749457Y-67812285D01*
X153720428Y-67754228D01*
X153691400Y-67725200D01*
X153633342Y-67696171D01*
X152907628Y-67899371D02*
X152907628Y-68305771D01*
X153052771Y-67667142D02*
X153197914Y-68102571D01*
X152820542Y-68102571D01*
X152472200Y-67696171D02*
X152414142Y-67696171D01*
X152356085Y-67725200D01*
X152327057Y-67754228D01*
X152298028Y-67812285D01*
X152269000Y-67928400D01*
X152269000Y-68073542D01*
X152298028Y-68189657D01*
X152327057Y-68247714D01*
X152356085Y-68276742D01*
X152414142Y-68305771D01*
X152472200Y-68305771D01*
X152530257Y-68276742D01*
X152559285Y-68247714D01*
X152588314Y-68189657D01*
X152617342Y-68073542D01*
X152617342Y-67928400D01*
X152588314Y-67812285D01*
X152559285Y-67754228D01*
X152530257Y-67725200D01*
X152472200Y-67696171D01*
D10*
%TO.C,R1*%
X160055666Y-81182380D02*
X160389000Y-80706190D01*
X160627095Y-81182380D02*
X160627095Y-80182380D01*
X160246142Y-80182380D01*
X160150904Y-80230000D01*
X160103285Y-80277619D01*
X160055666Y-80372857D01*
X160055666Y-80515714D01*
X160103285Y-80610952D01*
X160150904Y-80658571D01*
X160246142Y-80706190D01*
X160627095Y-80706190D01*
X159103285Y-81182380D02*
X159674714Y-81182380D01*
X159389000Y-81182380D02*
X159389000Y-80182380D01*
X159484238Y-80325238D01*
X159579476Y-80420476D01*
X159674714Y-80468095D01*
X161510619Y-82738333D02*
X161463000Y-82785952D01*
X161415380Y-82881190D01*
X161415380Y-83119285D01*
X161463000Y-83214523D01*
X161510619Y-83262142D01*
X161605857Y-83309761D01*
X161701095Y-83309761D01*
X161843952Y-83262142D01*
X162415380Y-82690714D01*
X162415380Y-83309761D01*
X161415380Y-83928809D02*
X161415380Y-84024047D01*
X161463000Y-84119285D01*
X161510619Y-84166904D01*
X161605857Y-84214523D01*
X161796333Y-84262142D01*
X162034428Y-84262142D01*
X162224904Y-84214523D01*
X162320142Y-84166904D01*
X162367761Y-84119285D01*
X162415380Y-84024047D01*
X162415380Y-83928809D01*
X162367761Y-83833571D01*
X162320142Y-83785952D01*
X162224904Y-83738333D01*
X162034428Y-83690714D01*
X161796333Y-83690714D01*
X161605857Y-83738333D01*
X161510619Y-83785952D01*
X161463000Y-83833571D01*
X161415380Y-83928809D01*
X162415380Y-84690714D02*
X161415380Y-84690714D01*
X162034428Y-84785952D02*
X162415380Y-85071666D01*
X161748714Y-85071666D02*
X162129666Y-84690714D01*
%TO.C,U2*%
X170937904Y-67170380D02*
X170937904Y-67979904D01*
X170890285Y-68075142D01*
X170842666Y-68122761D01*
X170747428Y-68170380D01*
X170556952Y-68170380D01*
X170461714Y-68122761D01*
X170414095Y-68075142D01*
X170366476Y-67979904D01*
X170366476Y-67170380D01*
X169937904Y-67265619D02*
X169890285Y-67218000D01*
X169795047Y-67170380D01*
X169556952Y-67170380D01*
X169461714Y-67218000D01*
X169414095Y-67265619D01*
X169366476Y-67360857D01*
X169366476Y-67456095D01*
X169414095Y-67598952D01*
X169985523Y-68170380D01*
X169366476Y-68170380D01*
%TO.C,C1*%
X156245666Y-81214142D02*
X156293285Y-81261761D01*
X156436142Y-81309380D01*
X156531380Y-81309380D01*
X156674238Y-81261761D01*
X156769476Y-81166523D01*
X156817095Y-81071285D01*
X156864714Y-80880809D01*
X156864714Y-80737952D01*
X156817095Y-80547476D01*
X156769476Y-80452238D01*
X156674238Y-80357000D01*
X156531380Y-80309380D01*
X156436142Y-80309380D01*
X156293285Y-80357000D01*
X156245666Y-80404619D01*
X155293285Y-81309380D02*
X155864714Y-81309380D01*
X155579000Y-81309380D02*
X155579000Y-80309380D01*
X155674238Y-80452238D01*
X155769476Y-80547476D01*
X155864714Y-80595095D01*
X158508380Y-82853571D02*
X158508380Y-82282142D01*
X158508380Y-82567857D02*
X157508380Y-82567857D01*
X157651238Y-82472619D01*
X157746476Y-82377380D01*
X157794095Y-82282142D01*
X157508380Y-83472619D02*
X157508380Y-83567857D01*
X157556000Y-83663095D01*
X157603619Y-83710714D01*
X157698857Y-83758333D01*
X157889333Y-83805952D01*
X158127428Y-83805952D01*
X158317904Y-83758333D01*
X158413142Y-83710714D01*
X158460761Y-83663095D01*
X158508380Y-83567857D01*
X158508380Y-83472619D01*
X158460761Y-83377380D01*
X158413142Y-83329761D01*
X158317904Y-83282142D01*
X158127428Y-83234523D01*
X157889333Y-83234523D01*
X157698857Y-83282142D01*
X157603619Y-83329761D01*
X157556000Y-83377380D01*
X157508380Y-83472619D01*
X157841714Y-84234523D02*
X158508380Y-84234523D01*
X157936952Y-84234523D02*
X157889333Y-84282142D01*
X157841714Y-84377380D01*
X157841714Y-84520238D01*
X157889333Y-84615476D01*
X157984571Y-84663095D01*
X158508380Y-84663095D01*
X157984571Y-85472619D02*
X157984571Y-85139285D01*
X158508380Y-85139285D02*
X157508380Y-85139285D01*
X157508380Y-85615476D01*
D13*
%TO.C,U1*%
X164538000Y-87799000D02*
X164538000Y-88044000D01*
X164538000Y-99324000D02*
X162723000Y-99324000D01*
X168398000Y-99569000D02*
X172258000Y-99569000D01*
X172258000Y-99569000D02*
X172258000Y-99324000D01*
X168398000Y-87799000D02*
X172258000Y-87799000D01*
X168398000Y-99569000D02*
X164538000Y-99569000D01*
X168398000Y-87799000D02*
X164538000Y-87799000D01*
X172258000Y-87799000D02*
X172258000Y-88044000D01*
X164538000Y-99569000D02*
X164538000Y-99324000D01*
%TO.C,R2*%
X153179000Y-84632064D02*
X153179000Y-83177936D01*
X151359000Y-84632064D02*
X151359000Y-83177936D01*
D14*
%TO.C,M1*%
X146006630Y-57896130D02*
X163133850Y-57896130D01*
D15*
X157454410Y-78259310D02*
X151739410Y-78259310D01*
X149707410Y-60479310D02*
X149707410Y-57812310D01*
X151485410Y-57812310D02*
X149707410Y-57812310D01*
D14*
X150410990Y-63824490D02*
X159410210Y-63824490D01*
D15*
X157454410Y-58574310D02*
X152374410Y-58574310D01*
X157454410Y-75719310D02*
X151739410Y-75719310D01*
X158343410Y-64545850D02*
X158343410Y-61876310D01*
X152374410Y-61114310D02*
X152374410Y-58574310D01*
X149707410Y-64545850D02*
X149707410Y-61876310D01*
D14*
X163804410Y-78894310D02*
X146006630Y-78894310D01*
D15*
X151485410Y-64545850D02*
X149707410Y-64545850D01*
X160121410Y-61876310D02*
X158343410Y-61876310D01*
D14*
X159405130Y-56471190D02*
X150410990Y-56471190D01*
D15*
X151485410Y-64545850D02*
X151485410Y-61876310D01*
X160121410Y-60479310D02*
X160121410Y-57812310D01*
D14*
X163804410Y-58566690D02*
X163804410Y-78894310D01*
D15*
X160121410Y-64545850D02*
X160121410Y-61876310D01*
D14*
X159410210Y-63824490D02*
X159410210Y-56471190D01*
D15*
X151485410Y-60479310D02*
X151485410Y-57812310D01*
X158343410Y-60479310D02*
X158343410Y-57812310D01*
X157454410Y-61114310D02*
X152374410Y-61114310D01*
D14*
X146006630Y-78894310D02*
X146006630Y-57896130D01*
D15*
X157454410Y-78259310D02*
X157454410Y-75719310D01*
X157454410Y-61114310D02*
X157454410Y-58574310D01*
X160121410Y-64545850D02*
X158343410Y-64545850D01*
X151485410Y-60479310D02*
X149707410Y-60479310D01*
D14*
X150410990Y-56471190D02*
X150410990Y-63824490D01*
D15*
X160121410Y-60479310D02*
X158343410Y-60479310D01*
X151739410Y-78259310D02*
X151739410Y-75719310D01*
X151485410Y-61876310D02*
X149707410Y-61876310D01*
X160121410Y-57812310D02*
X158343410Y-57812310D01*
D14*
X163133850Y-57896130D02*
X163804410Y-58566690D01*
D16*
X164820410Y-60733310D02*
G75*
G03*
X164820410Y-60733310I-127000J0D01*
G01*
D13*
%TO.C,R1*%
X161053000Y-83177936D02*
X161053000Y-84632064D01*
X159233000Y-83177936D02*
X159233000Y-84632064D01*
%TO.C,U2*%
X170176000Y-78678000D02*
X168226000Y-78678000D01*
X170176000Y-68558000D02*
X173626000Y-68558000D01*
X170176000Y-78678000D02*
X172126000Y-78678000D01*
X170176000Y-68558000D02*
X168226000Y-68558000D01*
%TO.C,C1*%
X157116000Y-83213748D02*
X157116000Y-84636252D01*
X155296000Y-83213748D02*
X155296000Y-84636252D01*
%TD*%
M02*
