%TF.GenerationSoftware,KiCad,Pcbnew,(6.0.6)*%
%TF.CreationDate,2022-07-29T16:25:05-07:00*%
%TF.ProjectId,ubitx raduino clone daughter board,75626974-7820-4726-9164-75696e6f2063,rev?*%
%TF.SameCoordinates,Original*%
%TF.FileFunction,Copper,L2,Bot*%
%TF.FilePolarity,Positive*%
%FSLAX46Y46*%
G04 Gerber Fmt 4.6, Leading zero omitted, Abs format (unit mm)*
G04 Created by KiCad (PCBNEW (6.0.6)) date 2022-07-29 16:25:05*
%MOMM*%
%LPD*%
G01*
G04 APERTURE LIST*
G04 Aperture macros list*
%AMRoundRect*
0 Rectangle with rounded corners*
0 $1 Rounding radius*
0 $2 $3 $4 $5 $6 $7 $8 $9 X,Y pos of 4 corners*
0 Add a 4 corners polygon primitive as box body*
4,1,4,$2,$3,$4,$5,$6,$7,$8,$9,$2,$3,0*
0 Add four circle primitives for the rounded corners*
1,1,$1+$1,$2,$3*
1,1,$1+$1,$4,$5*
1,1,$1+$1,$6,$7*
1,1,$1+$1,$8,$9*
0 Add four rect primitives between the rounded corners*
20,1,$1+$1,$2,$3,$4,$5,0*
20,1,$1+$1,$4,$5,$6,$7,0*
20,1,$1+$1,$6,$7,$8,$9,0*
20,1,$1+$1,$8,$9,$2,$3,0*%
G04 Aperture macros list end*
%TA.AperFunction,ComponentPad*%
%ADD10R,1.700000X1.700000*%
%TD*%
%TA.AperFunction,ComponentPad*%
%ADD11O,1.700000X1.700000*%
%TD*%
%TA.AperFunction,ComponentPad*%
%ADD12RoundRect,0.250000X0.750000X-0.600000X0.750000X0.600000X-0.750000X0.600000X-0.750000X-0.600000X0*%
%TD*%
%TA.AperFunction,ComponentPad*%
%ADD13O,2.000000X1.700000*%
%TD*%
%TA.AperFunction,ComponentPad*%
%ADD14C,5.600000*%
%TD*%
%TA.AperFunction,ComponentPad*%
%ADD15C,3.600000*%
%TD*%
%TA.AperFunction,ConnectorPad*%
%ADD16C,5.600000*%
%TD*%
%TA.AperFunction,ComponentPad*%
%ADD17RoundRect,0.250000X0.725000X-0.600000X0.725000X0.600000X-0.725000X0.600000X-0.725000X-0.600000X0*%
%TD*%
%TA.AperFunction,ComponentPad*%
%ADD18O,1.950000X1.700000*%
%TD*%
%TA.AperFunction,ComponentPad*%
%ADD19RoundRect,0.250000X0.600000X0.725000X-0.600000X0.725000X-0.600000X-0.725000X0.600000X-0.725000X0*%
%TD*%
%TA.AperFunction,ComponentPad*%
%ADD20O,1.700000X1.950000*%
%TD*%
%TA.AperFunction,SMDPad,CuDef*%
%ADD21RoundRect,0.150000X-0.875000X-0.150000X0.875000X-0.150000X0.875000X0.150000X-0.875000X0.150000X0*%
%TD*%
%TA.AperFunction,SMDPad,CuDef*%
%ADD22RoundRect,0.250000X0.625000X-0.312500X0.625000X0.312500X-0.625000X0.312500X-0.625000X-0.312500X0*%
%TD*%
%TA.AperFunction,SMDPad,CuDef*%
%ADD23O,2.748280X1.998980*%
%TD*%
%TA.AperFunction,SMDPad,CuDef*%
%ADD24O,1.016000X2.032000*%
%TD*%
%TA.AperFunction,SMDPad,CuDef*%
%ADD25C,1.143000*%
%TD*%
%TA.AperFunction,SMDPad,CuDef*%
%ADD26RoundRect,0.250000X-0.625000X0.312500X-0.625000X-0.312500X0.625000X-0.312500X0.625000X0.312500X0*%
%TD*%
%TA.AperFunction,SMDPad,CuDef*%
%ADD27RoundRect,0.150000X0.825000X0.150000X-0.825000X0.150000X-0.825000X-0.150000X0.825000X-0.150000X0*%
%TD*%
%TA.AperFunction,SMDPad,CuDef*%
%ADD28RoundRect,0.250000X-0.650000X0.325000X-0.650000X-0.325000X0.650000X-0.325000X0.650000X0.325000X0*%
%TD*%
%TA.AperFunction,ViaPad*%
%ADD29C,0.800000*%
%TD*%
%TA.AperFunction,ViaPad*%
%ADD30C,1.000760*%
%TD*%
%TA.AperFunction,Conductor*%
%ADD31C,0.304800*%
%TD*%
%TA.AperFunction,Conductor*%
%ADD32C,0.250000*%
%TD*%
%TA.AperFunction,Conductor*%
%ADD33C,0.508000*%
%TD*%
G04 APERTURE END LIST*
D10*
%TO.P,J4,1,Pin_1*%
%TO.N,Net-(J4-Pad1)*%
X159508000Y-61172000D03*
D11*
%TO.P,J4,2,Pin_2*%
%TO.N,Net-(C1-Pad2)*%
X159508000Y-63712000D03*
%TO.P,J4,3,Pin_3*%
%TO.N,SWR-FWD*%
X159508000Y-66252000D03*
%TO.P,J4,4,Pin_4*%
%TO.N,SWR-REV*%
X159508000Y-68792000D03*
%TO.P,J4,5,Pin_5*%
%TO.N,SDA*%
X159508000Y-71332000D03*
%TO.P,J4,6,Pin_6*%
%TO.N,SCL*%
X159508000Y-73872000D03*
%TO.P,J4,7,Pin_7*%
%TO.N,Net-(J4-Pad7)*%
X159508000Y-76412000D03*
%TD*%
D10*
%TO.P,J5,1,Pin_1*%
%TO.N,Net-(J5-Pad1)*%
X149983000Y-76295000D03*
D11*
%TO.P,J5,2,Pin_2*%
%TO.N,Net-(J5-Pad2)*%
X149983000Y-73755000D03*
%TO.P,J5,3,Pin_3*%
%TO.N,Net-(J5-Pad3)*%
X149983000Y-71215000D03*
%TO.P,J5,4,Pin_4*%
%TO.N,Net-(J5-Pad4)*%
X149983000Y-68675000D03*
%TO.P,J5,5,Pin_5*%
%TO.N,Net-(J5-Pad5)*%
X149983000Y-66135000D03*
%TO.P,J5,6,Pin_6*%
%TO.N,GND*%
X149983000Y-63595000D03*
%TO.P,J5,7,Pin_7*%
%TO.N,+5V Reg*%
X149983000Y-61055000D03*
%TD*%
D12*
%TO.P,J9,1,Pin_1*%
%TO.N,TXOUT*%
X121518000Y-89981000D03*
D13*
%TO.P,J9,2,Pin_2*%
%TO.N,TX-Pass*%
X121518000Y-87481000D03*
%TD*%
D14*
%TO.P,Hole3,1*%
%TO.N,GND*%
X186432000Y-98002000D03*
D15*
X186432000Y-98002000D03*
D16*
%TO.N,N/C*%
X186432000Y-98002000D03*
%TD*%
D10*
%TO.P,J7,1,Pin_1*%
%TO.N,Net-(J7-Pad1)*%
X176653000Y-66771856D03*
D11*
%TO.P,J7,2,Pin_2*%
%TO.N,Net-(J7-Pad2)*%
X176653000Y-69311856D03*
%TO.P,J7,3,Pin_3*%
%TO.N,Net-(J7-Pad3)*%
X176653000Y-71851856D03*
%TO.P,J7,4,Pin_4*%
%TO.N,Net-(J7-Pad4)*%
X176653000Y-74391856D03*
%TO.P,J7,5,Pin_5*%
%TO.N,Net-(J7-Pad5)*%
X176653000Y-76931856D03*
%TO.P,J7,6,Pin_6*%
%TO.N,Net-(J7-Pad6)*%
X176653000Y-79471856D03*
%TO.P,J7,7,Pin_7*%
%TO.N,Net-(J7-Pad7)*%
X176653000Y-82011856D03*
%TO.P,J7,8,Pin_8*%
%TO.N,Net-(J7-Pad8)*%
X176653000Y-84551856D03*
%TD*%
D17*
%TO.P,J2,1,Pin_1*%
%TO.N,+3.3V*%
X121645000Y-80142000D03*
D18*
%TO.P,J2,2,Pin_2*%
%TO.N,SCL*%
X121645000Y-77642000D03*
%TO.P,J2,3,Pin_3*%
%TO.N,SDA*%
X121645000Y-75142000D03*
%TO.P,J2,4,Pin_4*%
%TO.N,+5V Reg*%
X121645000Y-72642000D03*
%TO.P,J2,5,Pin_5*%
%TO.N,GND*%
X121645000Y-70142000D03*
%TD*%
D12*
%TO.P,J8,1,Pin_1*%
%TO.N,VolHi*%
X158348000Y-93029000D03*
D13*
%TO.P,J8,2,Pin_2*%
%TO.N,GND*%
X158348000Y-90529000D03*
%TD*%
D14*
%TO.P,Hole4,1*%
%TO.N,GND*%
X120900000Y-98002000D03*
D16*
%TO.N,N/C*%
X120900000Y-98002000D03*
D15*
%TO.N,GND*%
X120900000Y-98002000D03*
%TD*%
D19*
%TO.P,J3,1,Pin_1*%
%TO.N,SWR-FWD*%
X137537000Y-61299000D03*
D20*
%TO.P,J3,2,Pin_2*%
%TO.N,SWR-REV*%
X135037000Y-61299000D03*
%TO.P,J3,3,Pin_3*%
%TO.N,GND*%
X132537000Y-61299000D03*
%TD*%
D10*
%TO.P,JP1,1,A*%
%TO.N,TX-Pass*%
X136775000Y-91842500D03*
D11*
%TO.P,JP1,2,C*%
%TO.N,TXOUT*%
X139315000Y-91842500D03*
%TO.P,JP1,3,B*%
%TO.N,Net-(J5-Pad1)*%
X141855000Y-91842500D03*
%TD*%
D19*
%TO.P,J1,1,Pin_1*%
%TO.N,D10{slash}SS*%
X179955000Y-59902000D03*
D20*
%TO.P,J1,2,Pin_2*%
%TO.N,D11{slash}MOSI*%
X177455000Y-59902000D03*
%TO.P,J1,3,Pin_3*%
%TO.N,D12{slash}MISO*%
X174955000Y-59902000D03*
%TO.P,J1,4,Pin_4*%
%TO.N,D13{slash}SCK*%
X172455000Y-59902000D03*
%TD*%
D10*
%TO.P,J6,1,Pin_1*%
%TO.N,Net-(J6-Pad1)*%
X184654000Y-69311856D03*
D11*
%TO.P,J6,2,Pin_2*%
%TO.N,Net-(J6-Pad2)*%
X184654000Y-71851856D03*
%TO.P,J6,3,Pin_3*%
%TO.N,Net-(J6-Pad3)*%
X184654000Y-74391856D03*
%TO.P,J6,4,Pin_4*%
%TO.N,Net-(J6-Pad4)*%
X184654000Y-76931856D03*
%TO.P,J6,5,Pin_5*%
%TO.N,Net-(J6-Pad5)*%
X184654000Y-79471856D03*
%TO.P,J6,6,Pin_6*%
%TO.N,Net-(J6-Pad6)*%
X184654000Y-82011856D03*
%TO.P,J6,7,Pin_7*%
%TO.N,Net-(J6-Pad7)*%
X184654000Y-84551856D03*
%TO.P,J6,8,Pin_8*%
%TO.N,Net-(J6-Pad8)*%
X184654000Y-87091856D03*
%TD*%
D10*
%TO.P,JP2,1,A*%
%TO.N,TX-Pass*%
X137786000Y-83651000D03*
D11*
%TO.P,JP2,2,B*%
%TO.N,Net-(J5-Pad3)*%
X140326000Y-83651000D03*
%TD*%
D16*
%TO.P,Hole1,1*%
%TO.N,N/C*%
X120900000Y-60791000D03*
D14*
%TO.N,GND*%
X120900000Y-60791000D03*
D15*
X120900000Y-60791000D03*
%TD*%
%TO.P,Hole2,1*%
%TO.N,GND*%
X186432000Y-60791000D03*
D14*
X186432000Y-60791000D03*
D16*
%TO.N,N/C*%
X186432000Y-60791000D03*
%TD*%
D21*
%TO.P,U1,1,SCL*%
%TO.N,SCL*%
X163748000Y-98764000D03*
%TO.P,U1,2,SDA*%
%TO.N,SDA*%
X163748000Y-97494000D03*
%TO.P,U1,3,A2*%
%TO.N,GND*%
X163748000Y-96224000D03*
%TO.P,U1,4,A1*%
X163748000Y-94954000D03*
%TO.P,U1,5,A0*%
X163748000Y-93684000D03*
%TO.P,U1,6,~{RESET}*%
%TO.N,+3.3V*%
X163748000Y-92414000D03*
%TO.P,U1,7,NC*%
%TO.N,unconnected-(U1-Pad7)*%
X163748000Y-91144000D03*
%TO.P,U1,8,INT*%
%TO.N,unconnected-(U1-Pad8)*%
X163748000Y-89874000D03*
%TO.P,U1,9,VSS*%
%TO.N,GND*%
X163748000Y-88604000D03*
%TO.P,U1,10,GP0*%
%TO.N,Net-(J6-Pad1)*%
X173048000Y-88604000D03*
%TO.P,U1,11,GP1*%
%TO.N,Net-(J6-Pad2)*%
X173048000Y-89874000D03*
%TO.P,U1,12,GP2*%
%TO.N,Net-(J6-Pad3)*%
X173048000Y-91144000D03*
%TO.P,U1,13,GP3*%
%TO.N,Net-(J6-Pad4)*%
X173048000Y-92414000D03*
%TO.P,U1,14,GP4*%
%TO.N,Net-(J6-Pad5)*%
X173048000Y-93684000D03*
%TO.P,U1,15,GP5*%
%TO.N,Net-(J6-Pad6)*%
X173048000Y-94954000D03*
%TO.P,U1,16,GP6*%
%TO.N,Net-(J6-Pad7)*%
X173048000Y-96224000D03*
%TO.P,U1,17,GP7*%
%TO.N,Net-(J6-Pad8)*%
X173048000Y-97494000D03*
%TO.P,U1,18,VDD*%
%TO.N,+3.3V*%
X173048000Y-98764000D03*
%TD*%
D22*
%TO.P,R2,1*%
%TO.N,Net-(C1-Pad2)*%
X152269000Y-85367500D03*
%TO.P,R2,2*%
%TO.N,+3.3V*%
X152269000Y-82442500D03*
%TD*%
D23*
%TO.P,M1,1,D0*%
%TO.N,Net-(J4-Pad1)*%
X162971290Y-60776490D03*
%TO.P,M1,2,D1*%
%TO.N,Net-(C1-Pad2)*%
X162971290Y-63316490D03*
%TO.P,M1,3,D2*%
%TO.N,SWR-FWD*%
X162971290Y-65856490D03*
%TO.P,M1,4,D3*%
%TO.N,SWR-REV*%
X162971290Y-68396490D03*
%TO.P,M1,5,D4*%
%TO.N,SDA*%
X162971290Y-70936490D03*
%TO.P,M1,6,D5*%
%TO.N,SCL*%
X162971290Y-73476490D03*
%TO.P,M1,7,D6*%
%TO.N,Net-(J4-Pad7)*%
X162971290Y-76016490D03*
%TO.P,M1,8,D7*%
%TO.N,Net-(J5-Pad1)*%
X146806730Y-76016490D03*
%TO.P,M1,9,D8*%
%TO.N,Net-(J5-Pad2)*%
X146806730Y-73476490D03*
%TO.P,M1,10,D9*%
%TO.N,Net-(J5-Pad3)*%
X146806730Y-70936490D03*
%TO.P,M1,11,D10*%
%TO.N,Net-(J5-Pad4)*%
X146806730Y-68396490D03*
%TO.P,M1,12,3V3*%
%TO.N,Net-(J5-Pad5)*%
X146806730Y-65856490D03*
%TO.P,M1,13,GND*%
%TO.N,GND*%
X146806730Y-63316490D03*
%TO.P,M1,14,5V*%
%TO.N,+5V Reg*%
X146806730Y-60776490D03*
D24*
%TO.P,M1,15*%
%TO.N,N/C*%
X156104410Y-77094310D03*
%TO.P,M1,16*%
X153554410Y-77094310D03*
D25*
%TO.P,M1,17*%
X156105607Y-60090123D03*
%TO.P,M1,18*%
X153565607Y-60090123D03*
%TO.P,M1,19*%
X156105607Y-62630123D03*
%TO.P,M1,20*%
X153565607Y-62630123D03*
%TD*%
D26*
%TO.P,R1,1*%
%TO.N,GND*%
X160143000Y-82442500D03*
%TO.P,R1,2*%
%TO.N,Net-(C1-Pad2)*%
X160143000Y-85367500D03*
%TD*%
D27*
%TO.P,U2,1,CH0*%
%TO.N,Net-(J7-Pad1)*%
X172651000Y-69173000D03*
%TO.P,U2,2,CH1*%
%TO.N,Net-(J7-Pad2)*%
X172651000Y-70443000D03*
%TO.P,U2,3,CH2*%
%TO.N,Net-(J7-Pad3)*%
X172651000Y-71713000D03*
%TO.P,U2,4,CH3*%
%TO.N,Net-(J7-Pad4)*%
X172651000Y-72983000D03*
%TO.P,U2,5,CH4*%
%TO.N,Net-(J7-Pad5)*%
X172651000Y-74253000D03*
%TO.P,U2,6,CH5*%
%TO.N,Net-(J7-Pad6)*%
X172651000Y-75523000D03*
%TO.P,U2,7,CH6*%
%TO.N,Net-(J7-Pad7)*%
X172651000Y-76793000D03*
%TO.P,U2,8,CH7*%
%TO.N,Net-(J7-Pad8)*%
X172651000Y-78063000D03*
%TO.P,U2,9,DGND*%
%TO.N,GND*%
X167701000Y-78063000D03*
%TO.P,U2,10,~{CS}/SHDN*%
%TO.N,D10{slash}SS*%
X167701000Y-76793000D03*
%TO.P,U2,11,Din*%
%TO.N,D11{slash}MOSI*%
X167701000Y-75523000D03*
%TO.P,U2,12,Dout*%
%TO.N,D12{slash}MISO*%
X167701000Y-74253000D03*
%TO.P,U2,13,CLK*%
%TO.N,D13{slash}SCK*%
X167701000Y-72983000D03*
%TO.P,U2,14,AGND*%
%TO.N,unconnected-(U2-Pad14)*%
X167701000Y-71713000D03*
%TO.P,U2,15,Vref*%
%TO.N,unconnected-(U2-Pad15)*%
X167701000Y-70443000D03*
%TO.P,U2,16,Vdd*%
%TO.N,+3.3V*%
X167701000Y-69173000D03*
%TD*%
D28*
%TO.P,C1,1*%
%TO.N,VolHi*%
X156206000Y-82450000D03*
%TO.P,C1,2*%
%TO.N,Net-(C1-Pad2)*%
X156206000Y-85400000D03*
%TD*%
D29*
%TO.N,Net-(C1-Pad2)*%
X158365000Y-84921000D03*
%TO.N,SCL*%
X161159000Y-98129000D03*
%TO.N,SDA*%
X161866204Y-96602736D03*
%TO.N,GND*%
X143887000Y-76031000D03*
D30*
X181987000Y-64474000D03*
X159254000Y-79714000D03*
X152015000Y-80349000D03*
X154174000Y-85683000D03*
X187448000Y-65363000D03*
X166620000Y-60791000D03*
X124964000Y-99018000D03*
X118741000Y-65490000D03*
D29*
X140458000Y-85937000D03*
X140458000Y-88096000D03*
X141474000Y-77301000D03*
X180463000Y-75650000D03*
D30*
X154555000Y-73745000D03*
D29*
X137918000Y-88223000D03*
X138172000Y-86064000D03*
D30*
X154301000Y-82000000D03*
X119122000Y-93938000D03*
X181352000Y-99526000D03*
X188083000Y-93176000D03*
D29*
X143633000Y-74761000D03*
D30*
X153666000Y-65871000D03*
D29*
X132203000Y-92668000D03*
D30*
X155571000Y-79333000D03*
X126234000Y-58378000D03*
D29*
X129536000Y-92922000D03*
X181352000Y-80984000D03*
D30*
X142236000Y-65363000D03*
X163699000Y-78698000D03*
D29*
X181098000Y-77936000D03*
X182368000Y-83270000D03*
X180590000Y-72856000D03*
D30*
X150364000Y-98510000D03*
D29*
X180717000Y-70570000D03*
%TO.N,SWR-FWD*%
X156714000Y-64855000D03*
%TO.N,SWR-REV*%
X156714000Y-67395000D03*
%TO.N,Net-(J6-Pad1)*%
X175383000Y-88604000D03*
%TO.N,Net-(J6-Pad2)*%
X176526000Y-89874000D03*
%TO.N,Net-(J6-Pad3)*%
X175383000Y-91144000D03*
%TO.N,Net-(J6-Pad4)*%
X177034000Y-92414000D03*
%TO.N,Net-(J6-Pad5)*%
X175383000Y-93684000D03*
%TO.N,Net-(J6-Pad6)*%
X176526000Y-94954000D03*
%TO.N,Net-(J6-Pad7)*%
X175256000Y-96224000D03*
%TO.N,Net-(J6-Pad8)*%
X176780000Y-97494000D03*
%TD*%
D31*
%TO.N,VolHi*%
X160981922Y-81492000D02*
X157164000Y-81492000D01*
X162370600Y-82880678D02*
X160981922Y-81492000D01*
X157164000Y-81492000D02*
X156206000Y-82450000D01*
X162370600Y-89006400D02*
X162370600Y-82880678D01*
X158348000Y-93029000D02*
X162370600Y-89006400D01*
%TO.N,Net-(C1-Pad2)*%
X160143000Y-85367500D02*
X158811500Y-86699000D01*
X156206000Y-85400000D02*
X156206000Y-86445000D01*
X156460000Y-86699000D02*
X153285000Y-86699000D01*
D32*
X159508000Y-63712000D02*
X162575780Y-63712000D01*
D31*
X160143000Y-85367500D02*
X158811500Y-85367500D01*
X156206000Y-86445000D02*
X156460000Y-86699000D01*
D32*
X162575780Y-63712000D02*
X162971290Y-63316490D01*
D31*
X153285000Y-86699000D02*
X152269000Y-85683000D01*
X158811500Y-86699000D02*
X156460000Y-86699000D01*
X152269000Y-85683000D02*
X152269000Y-85367500D01*
X158811500Y-85367500D02*
X158365000Y-84921000D01*
D32*
%TO.N,D10{slash}SS*%
X177923000Y-61934000D02*
X176018000Y-61934000D01*
X176018000Y-61934000D02*
X171065000Y-66887000D01*
X179955000Y-59902000D02*
X177923000Y-61934000D01*
X171065000Y-66887000D02*
X171065000Y-74380000D01*
X168652000Y-76793000D02*
X167701000Y-76793000D01*
X171065000Y-74380000D02*
X168652000Y-76793000D01*
%TO.N,D11{slash}MOSI*%
X168652000Y-75523000D02*
X167701000Y-75523000D01*
X176780000Y-59902000D02*
X170557000Y-66125000D01*
X177455000Y-59902000D02*
X176780000Y-59902000D01*
X170557000Y-73618000D02*
X168652000Y-75523000D01*
X170557000Y-66125000D02*
X170557000Y-73618000D01*
%TO.N,D12{slash}MISO*%
X174955000Y-59902000D02*
X174955000Y-59949000D01*
X174955000Y-59949000D02*
X169922000Y-64982000D01*
X168077751Y-74253000D02*
X167701000Y-74253000D01*
X169922000Y-64982000D02*
X169922000Y-72408751D01*
X169922000Y-72408751D02*
X168077751Y-74253000D01*
%TO.N,D13{slash}SCK*%
X172455000Y-59902000D02*
X172455000Y-61433000D01*
X168398000Y-72983000D02*
X167701000Y-72983000D01*
X169160000Y-64728000D02*
X169160000Y-72221000D01*
X169160000Y-72221000D02*
X168398000Y-72983000D01*
X172455000Y-61433000D02*
X169160000Y-64728000D01*
D31*
%TO.N,SCL*%
X126996000Y-79460000D02*
X153412000Y-79460000D01*
D32*
X159508000Y-73872000D02*
X162575780Y-73872000D01*
D31*
X156333000Y-73872000D02*
X159508000Y-73872000D01*
X153412000Y-79460000D02*
X155063000Y-77809000D01*
X121645000Y-77642000D02*
X125178000Y-77642000D01*
D32*
X163240000Y-98256000D02*
X163748000Y-98764000D01*
D31*
X125178000Y-77642000D02*
X126996000Y-79460000D01*
D32*
X162575780Y-73872000D02*
X162971290Y-73476490D01*
D31*
X155063000Y-75142000D02*
X156333000Y-73872000D01*
D32*
X161159000Y-98129000D02*
X163240000Y-98256000D01*
D31*
X155063000Y-77809000D02*
X155063000Y-75142000D01*
%TO.N,SDA*%
X151634000Y-78571000D02*
X152523000Y-77682000D01*
X128012000Y-78571000D02*
X151634000Y-78571000D01*
D32*
X162575780Y-71332000D02*
X162971290Y-70936490D01*
D31*
X152523000Y-74380000D02*
X155571000Y-71332000D01*
X121645000Y-75142000D02*
X124583000Y-75142000D01*
X155571000Y-71332000D02*
X159508000Y-71332000D01*
D32*
X161866204Y-96602736D02*
X162757468Y-97494000D01*
X162757468Y-97494000D02*
X163748000Y-97494000D01*
X159508000Y-71332000D02*
X162575780Y-71332000D01*
D31*
X124583000Y-75142000D02*
X128012000Y-78571000D01*
X152523000Y-77682000D02*
X152523000Y-74380000D01*
D32*
%TO.N,SWR-FWD*%
X162575780Y-66252000D02*
X162971290Y-65856490D01*
X159508000Y-66252000D02*
X162575780Y-66252000D01*
D31*
X156714000Y-64855000D02*
X158111000Y-64855000D01*
X158111000Y-64855000D02*
X159508000Y-66252000D01*
D32*
%TO.N,SWR-REV*%
X159508000Y-68792000D02*
X162575780Y-68792000D01*
X162575780Y-68792000D02*
X162971290Y-68396490D01*
D31*
X158111000Y-67395000D02*
X159508000Y-68792000D01*
X156714000Y-67395000D02*
X158111000Y-67395000D01*
D32*
%TO.N,Net-(J4-Pad1)*%
X162575780Y-61172000D02*
X162971290Y-60776490D01*
X159508000Y-61172000D02*
X162575780Y-61172000D01*
%TO.N,Net-(J4-Pad7)*%
X159508000Y-76412000D02*
X162575780Y-76412000D01*
X162575780Y-76412000D02*
X162971290Y-76016490D01*
%TO.N,Net-(J5-Pad1)*%
X147085240Y-76295000D02*
X146806730Y-76016490D01*
X149983000Y-76295000D02*
X147085240Y-76295000D01*
%TO.N,Net-(J5-Pad2)*%
X147085240Y-73755000D02*
X146806730Y-73476490D01*
X149983000Y-73755000D02*
X147085240Y-73755000D01*
%TO.N,Net-(J5-Pad3)*%
X149983000Y-71215000D02*
X147085240Y-71215000D01*
X147085240Y-71215000D02*
X146806730Y-70936490D01*
%TO.N,Net-(J5-Pad4)*%
X149983000Y-68675000D02*
X147085240Y-68675000D01*
X147085240Y-68675000D02*
X146806730Y-68396490D01*
%TO.N,Net-(J5-Pad5)*%
X147085240Y-66135000D02*
X146806730Y-65856490D01*
X149983000Y-66135000D02*
X147085240Y-66135000D01*
%TO.N,Net-(J6-Pad1)*%
X175383000Y-88604000D02*
X173048000Y-88604000D01*
%TO.N,Net-(J6-Pad2)*%
X173048000Y-89874000D02*
X176526000Y-89874000D01*
%TO.N,Net-(J6-Pad3)*%
X173048000Y-91144000D02*
X175383000Y-91144000D01*
%TO.N,Net-(J6-Pad4)*%
X177034000Y-92414000D02*
X173048000Y-92414000D01*
%TO.N,Net-(J6-Pad5)*%
X175383000Y-93684000D02*
X173048000Y-93684000D01*
%TO.N,Net-(J6-Pad6)*%
X176526000Y-94954000D02*
X173048000Y-94954000D01*
%TO.N,Net-(J6-Pad7)*%
X175256000Y-96224000D02*
X173048000Y-96224000D01*
%TO.N,Net-(J6-Pad8)*%
X176780000Y-97494000D02*
X173048000Y-97494000D01*
%TO.N,Net-(J7-Pad1)*%
X172651000Y-69173000D02*
X175052144Y-66771856D01*
X175052144Y-66771856D02*
X176653000Y-66771856D01*
%TO.N,Net-(J7-Pad2)*%
X172651000Y-70443000D02*
X175521856Y-70443000D01*
X175521856Y-70443000D02*
X176653000Y-69311856D01*
%TO.N,Net-(J7-Pad3)*%
X172789856Y-71851856D02*
X176653000Y-71851856D01*
X172651000Y-71713000D02*
X172789856Y-71851856D01*
%TO.N,Net-(J7-Pad4)*%
X172651000Y-72983000D02*
X175244144Y-72983000D01*
X175244144Y-72983000D02*
X176653000Y-74391856D01*
%TO.N,Net-(J7-Pad5)*%
X172651000Y-74253000D02*
X173974144Y-74253000D01*
X173974144Y-74253000D02*
X176653000Y-76931856D01*
%TO.N,Net-(J7-Pad6)*%
X172651000Y-75523000D02*
X174367000Y-75777000D01*
X174367000Y-75777000D02*
X176653000Y-79148249D01*
X176653000Y-79148249D02*
X176653000Y-79471856D01*
%TO.N,Net-(J7-Pad7)*%
X173859000Y-76793000D02*
X175002000Y-77936000D01*
X175002000Y-77936000D02*
X175002000Y-80360856D01*
X172651000Y-76793000D02*
X173859000Y-76793000D01*
X175002000Y-80360856D02*
X176653000Y-82011856D01*
%TO.N,Net-(J7-Pad8)*%
X174113000Y-78444000D02*
X175129000Y-83905000D01*
X175129000Y-83905000D02*
X176653000Y-84551856D01*
X173732000Y-78063000D02*
X174113000Y-78444000D01*
X172651000Y-78063000D02*
X173732000Y-78063000D01*
D33*
%TO.N,+3.3V*%
X165350000Y-70824000D02*
X167001000Y-69173000D01*
X149968500Y-80142000D02*
X152269000Y-82442500D01*
X163699000Y-80857000D02*
X165350000Y-79206000D01*
X150940000Y-83771500D02*
X150940000Y-90577000D01*
X121645000Y-80142000D02*
X149968500Y-80142000D01*
X167001000Y-69173000D02*
X167701000Y-69173000D01*
X150940000Y-90577000D02*
X155444000Y-95081000D01*
X164969000Y-92414000D02*
X171319000Y-98764000D01*
X171319000Y-98764000D02*
X173048000Y-98764000D01*
X159508000Y-95081000D02*
X162175000Y-92414000D01*
X155444000Y-95081000D02*
X159508000Y-95081000D01*
X153854500Y-80857000D02*
X163699000Y-80857000D01*
X162175000Y-92414000D02*
X163748000Y-92414000D01*
X165350000Y-79206000D02*
X165350000Y-70824000D01*
X163748000Y-92414000D02*
X164969000Y-92414000D01*
X152269000Y-82442500D02*
X153854500Y-80857000D01*
X152269000Y-82442500D02*
X150940000Y-83771500D01*
D32*
%TO.N,+5V Reg*%
X147085240Y-61055000D02*
X146806730Y-60776490D01*
D33*
X132671000Y-72642000D02*
X144536510Y-60776490D01*
X144536510Y-60776490D02*
X146806730Y-60776490D01*
X121645000Y-72642000D02*
X132671000Y-72642000D01*
D32*
X149983000Y-61055000D02*
X147085240Y-61055000D01*
%TD*%
%TA.AperFunction,Conductor*%
%TO.N,GND*%
G36*
X186270234Y-57255502D02*
G01*
X186316727Y-57309158D01*
X186326831Y-57379432D01*
X186297337Y-57444012D01*
X186237611Y-57482396D01*
X186215502Y-57486787D01*
X185905639Y-57519901D01*
X185905631Y-57519902D01*
X185902256Y-57520263D01*
X185552117Y-57596606D01*
X185212271Y-57710317D01*
X185209178Y-57711739D01*
X185209177Y-57711740D01*
X185202974Y-57714593D01*
X184886694Y-57860066D01*
X184579193Y-58044101D01*
X184576467Y-58046163D01*
X184576465Y-58046164D01*
X184570620Y-58050585D01*
X184293367Y-58260270D01*
X184032559Y-58506043D01*
X183799819Y-58778546D01*
X183797900Y-58781358D01*
X183797897Y-58781363D01*
X183737300Y-58870195D01*
X183597871Y-59074591D01*
X183429077Y-59390714D01*
X183295411Y-59723218D01*
X183294491Y-59726492D01*
X183294489Y-59726497D01*
X183201908Y-60055865D01*
X183198437Y-60068213D01*
X183197875Y-60071570D01*
X183197875Y-60071571D01*
X183152185Y-60344608D01*
X183139290Y-60421663D01*
X183118661Y-60779434D01*
X183136792Y-61137340D01*
X183137329Y-61140695D01*
X183137330Y-61140701D01*
X183169744Y-61343069D01*
X183193470Y-61491195D01*
X183288033Y-61836859D01*
X183419374Y-62170288D01*
X183440191Y-62209938D01*
X183580129Y-62476481D01*
X183585957Y-62487582D01*
X183587858Y-62490411D01*
X183587864Y-62490421D01*
X183740703Y-62717868D01*
X183785834Y-62785029D01*
X184016665Y-63059150D01*
X184275751Y-63306738D01*
X184560061Y-63524897D01*
X184592056Y-63544350D01*
X184863355Y-63709303D01*
X184863360Y-63709306D01*
X184866270Y-63711075D01*
X184870943Y-63713264D01*
X185187710Y-63861649D01*
X185187720Y-63861653D01*
X185190794Y-63863093D01*
X185194012Y-63864195D01*
X185194015Y-63864196D01*
X185526615Y-63978071D01*
X185526623Y-63978073D01*
X185529838Y-63979174D01*
X185879435Y-64057959D01*
X185960404Y-64067184D01*
X186232114Y-64098142D01*
X186232122Y-64098142D01*
X186235497Y-64098527D01*
X186238901Y-64098545D01*
X186238904Y-64098545D01*
X186433227Y-64099562D01*
X186593857Y-64100403D01*
X186597243Y-64100053D01*
X186597245Y-64100053D01*
X186946932Y-64063917D01*
X186946941Y-64063916D01*
X186950324Y-64063566D01*
X186953657Y-64062852D01*
X186953660Y-64062851D01*
X187227815Y-64004077D01*
X187300727Y-63988446D01*
X187640968Y-63875922D01*
X187967066Y-63727311D01*
X188081466Y-63659385D01*
X188272262Y-63546099D01*
X188272267Y-63546096D01*
X188275207Y-63544350D01*
X188298566Y-63526812D01*
X188466449Y-63400761D01*
X188561786Y-63329180D01*
X188823451Y-63084319D01*
X189057140Y-62812630D01*
X189180028Y-62633827D01*
X189258190Y-62520101D01*
X189258195Y-62520094D01*
X189260120Y-62517292D01*
X189261732Y-62514298D01*
X189261737Y-62514290D01*
X189422859Y-62215054D01*
X189430017Y-62201760D01*
X189531254Y-61952443D01*
X189563562Y-61872877D01*
X189563564Y-61872872D01*
X189564842Y-61869724D01*
X189566476Y-61863990D01*
X189588321Y-61787301D01*
X189626220Y-61727266D01*
X189690560Y-61697252D01*
X189760913Y-61706787D01*
X189814943Y-61752844D01*
X189835500Y-61821820D01*
X189835500Y-96968424D01*
X189815498Y-97036545D01*
X189761842Y-97083038D01*
X189691568Y-97093142D01*
X189626988Y-97063648D01*
X189588084Y-97002099D01*
X189572297Y-96945173D01*
X189569243Y-96937497D01*
X189444421Y-96623834D01*
X189439793Y-96612205D01*
X189329735Y-96404342D01*
X189273702Y-96298513D01*
X189273698Y-96298506D01*
X189272103Y-96295494D01*
X189071190Y-95998746D01*
X189066467Y-95993176D01*
X188955645Y-95862500D01*
X188839403Y-95725432D01*
X188579454Y-95478750D01*
X188294384Y-95261585D01*
X188291472Y-95259828D01*
X188291467Y-95259825D01*
X187990443Y-95078236D01*
X187990437Y-95078233D01*
X187987528Y-95076478D01*
X187737816Y-94960565D01*
X187665571Y-94927030D01*
X187665569Y-94927029D01*
X187662475Y-94925593D01*
X187492752Y-94868145D01*
X187326255Y-94811789D01*
X187326250Y-94811788D01*
X187323028Y-94810697D01*
X187112718Y-94764072D01*
X186976493Y-94733871D01*
X186976487Y-94733870D01*
X186973158Y-94733132D01*
X186969769Y-94732758D01*
X186969764Y-94732757D01*
X186620338Y-94694180D01*
X186620333Y-94694180D01*
X186616957Y-94693807D01*
X186613558Y-94693801D01*
X186613557Y-94693801D01*
X186444080Y-94693505D01*
X186258592Y-94693182D01*
X186145413Y-94705277D01*
X185905639Y-94730901D01*
X185905631Y-94730902D01*
X185902256Y-94731263D01*
X185552117Y-94807606D01*
X185212271Y-94921317D01*
X185209178Y-94922739D01*
X185209177Y-94922740D01*
X185141213Y-94954000D01*
X184886694Y-95071066D01*
X184883760Y-95072822D01*
X184883758Y-95072823D01*
X184647855Y-95214008D01*
X184579193Y-95255101D01*
X184576467Y-95257163D01*
X184576465Y-95257164D01*
X184430442Y-95367601D01*
X184293367Y-95471270D01*
X184032559Y-95717043D01*
X184030347Y-95719633D01*
X184030345Y-95719635D01*
X183977706Y-95781267D01*
X183799819Y-95989546D01*
X183797900Y-95992358D01*
X183797897Y-95992363D01*
X183743907Y-96071510D01*
X183597871Y-96285591D01*
X183429077Y-96601714D01*
X183295411Y-96934218D01*
X183294491Y-96937492D01*
X183294489Y-96937497D01*
X183203780Y-97260206D01*
X183198437Y-97279213D01*
X183197875Y-97282570D01*
X183197875Y-97282571D01*
X183146907Y-97587148D01*
X183139290Y-97632663D01*
X183118661Y-97990434D01*
X183118833Y-97993829D01*
X183118833Y-97993830D01*
X183136551Y-98343579D01*
X183136792Y-98348340D01*
X183137329Y-98351695D01*
X183137330Y-98351701D01*
X183162713Y-98510169D01*
X183193470Y-98702195D01*
X183288033Y-99047859D01*
X183419374Y-99381288D01*
X183449386Y-99438453D01*
X183580129Y-99687481D01*
X183585957Y-99698582D01*
X183587858Y-99701411D01*
X183587864Y-99701421D01*
X183771569Y-99974800D01*
X183785834Y-99996029D01*
X184016665Y-100270150D01*
X184275751Y-100517738D01*
X184560061Y-100735897D01*
X184592056Y-100755350D01*
X184863355Y-100920303D01*
X184863360Y-100920306D01*
X184866270Y-100922075D01*
X184869358Y-100923521D01*
X184869357Y-100923521D01*
X184986507Y-100978398D01*
X185039710Y-101025408D01*
X185059052Y-101093719D01*
X185038392Y-101161643D01*
X184984289Y-101207615D01*
X184933058Y-101218500D01*
X122400567Y-101218500D01*
X122332446Y-101198498D01*
X122285953Y-101144842D01*
X122275849Y-101074568D01*
X122305343Y-101009988D01*
X122348316Y-100977845D01*
X122431955Y-100939729D01*
X122431959Y-100939727D01*
X122435066Y-100938311D01*
X122529052Y-100882506D01*
X122740262Y-100757099D01*
X122740267Y-100757096D01*
X122743207Y-100755350D01*
X123029786Y-100540180D01*
X123291451Y-100295319D01*
X123525140Y-100023630D01*
X123631750Y-99868512D01*
X123726190Y-99731101D01*
X123726195Y-99731094D01*
X123728120Y-99728292D01*
X123729732Y-99725298D01*
X123729737Y-99725290D01*
X123896395Y-99415772D01*
X123898017Y-99412760D01*
X124032842Y-99080724D01*
X124043142Y-99044568D01*
X124071037Y-98946639D01*
X124131020Y-98736070D01*
X124163673Y-98545042D01*
X124190829Y-98386175D01*
X124190829Y-98386173D01*
X124191401Y-98382828D01*
X124192543Y-98364166D01*
X124206925Y-98129000D01*
X160245496Y-98129000D01*
X160246186Y-98135565D01*
X160262187Y-98287803D01*
X160265458Y-98318928D01*
X160324473Y-98500556D01*
X160419960Y-98665944D01*
X160424378Y-98670851D01*
X160424379Y-98670852D01*
X160483102Y-98736070D01*
X160547747Y-98807866D01*
X160702248Y-98920118D01*
X160708276Y-98922802D01*
X160708278Y-98922803D01*
X160870681Y-98995109D01*
X160876712Y-98997794D01*
X160940822Y-99011421D01*
X161057056Y-99036128D01*
X161057061Y-99036128D01*
X161063513Y-99037500D01*
X161254487Y-99037500D01*
X161260939Y-99036128D01*
X161260944Y-99036128D01*
X161377178Y-99011421D01*
X161441288Y-98997794D01*
X161447319Y-98995109D01*
X161609722Y-98922803D01*
X161609724Y-98922802D01*
X161615752Y-98920118D01*
X161742402Y-98828101D01*
X161809270Y-98804243D01*
X161824138Y-98804271D01*
X162096175Y-98820873D01*
X162162951Y-98844987D01*
X162206089Y-98901376D01*
X162214500Y-98946639D01*
X162214500Y-98980502D01*
X162214693Y-98982950D01*
X162214693Y-98982958D01*
X162215901Y-98998301D01*
X162217438Y-99017831D01*
X162263855Y-99177601D01*
X162267892Y-99184427D01*
X162344509Y-99313980D01*
X162344511Y-99313983D01*
X162348547Y-99320807D01*
X162466193Y-99438453D01*
X162473017Y-99442489D01*
X162473020Y-99442491D01*
X162560006Y-99493934D01*
X162609399Y-99523145D01*
X162617010Y-99525356D01*
X162617012Y-99525357D01*
X162669231Y-99540528D01*
X162769169Y-99569562D01*
X162775574Y-99570066D01*
X162775579Y-99570067D01*
X162804042Y-99572307D01*
X162804050Y-99572307D01*
X162806498Y-99572500D01*
X164689502Y-99572500D01*
X164691950Y-99572307D01*
X164691958Y-99572307D01*
X164720421Y-99570067D01*
X164720426Y-99570066D01*
X164726831Y-99569562D01*
X164826769Y-99540528D01*
X164878988Y-99525357D01*
X164878990Y-99525356D01*
X164886601Y-99523145D01*
X164935994Y-99493934D01*
X165022980Y-99442491D01*
X165022983Y-99442489D01*
X165029807Y-99438453D01*
X165147453Y-99320807D01*
X165151489Y-99313983D01*
X165151491Y-99313980D01*
X165228108Y-99184427D01*
X165232145Y-99177601D01*
X165278562Y-99017831D01*
X165280100Y-98998301D01*
X165281307Y-98982958D01*
X165281307Y-98982950D01*
X165281500Y-98980502D01*
X165281500Y-98547498D01*
X165278562Y-98510169D01*
X165242539Y-98386175D01*
X165234357Y-98358012D01*
X165234356Y-98358010D01*
X165232145Y-98350399D01*
X165147453Y-98207193D01*
X165144771Y-98204511D01*
X165119498Y-98140139D01*
X165133400Y-98070516D01*
X165143572Y-98054688D01*
X165147453Y-98050807D01*
X165232145Y-97907601D01*
X165242698Y-97871279D01*
X165276767Y-97754008D01*
X165278562Y-97747831D01*
X165281500Y-97710502D01*
X165281500Y-97277498D01*
X165281307Y-97275042D01*
X165279067Y-97246579D01*
X165279066Y-97246574D01*
X165278562Y-97240169D01*
X165243191Y-97118420D01*
X165234357Y-97088012D01*
X165234356Y-97088010D01*
X165232145Y-97080399D01*
X165159200Y-96957056D01*
X165151493Y-96944024D01*
X165151492Y-96944023D01*
X165147453Y-96937193D01*
X165144513Y-96934253D01*
X165119180Y-96869734D01*
X165133079Y-96800111D01*
X165145126Y-96781364D01*
X165151090Y-96773676D01*
X165227648Y-96644221D01*
X165233893Y-96629790D01*
X165272939Y-96495395D01*
X165272899Y-96481294D01*
X165265630Y-96478000D01*
X163620000Y-96478000D01*
X163551879Y-96457998D01*
X163505386Y-96404342D01*
X163494000Y-96352000D01*
X163494000Y-95951885D01*
X164002000Y-95951885D01*
X164006475Y-95967124D01*
X164007865Y-95968329D01*
X164015548Y-95970000D01*
X165259878Y-95970000D01*
X165273409Y-95966027D01*
X165274544Y-95958129D01*
X165233893Y-95818210D01*
X165227648Y-95803779D01*
X165151088Y-95674322D01*
X165144811Y-95666230D01*
X165118861Y-95600146D01*
X165132759Y-95530523D01*
X165144811Y-95511770D01*
X165151088Y-95503678D01*
X165227648Y-95374221D01*
X165233893Y-95359790D01*
X165272939Y-95225395D01*
X165272899Y-95211294D01*
X165265630Y-95208000D01*
X164020115Y-95208000D01*
X164004876Y-95212475D01*
X164003671Y-95213865D01*
X164002000Y-95221548D01*
X164002000Y-95951885D01*
X163494000Y-95951885D01*
X163494000Y-95226115D01*
X163489525Y-95210876D01*
X163488135Y-95209671D01*
X163480452Y-95208000D01*
X162236122Y-95208000D01*
X162222591Y-95211973D01*
X162221456Y-95219871D01*
X162262107Y-95359790D01*
X162268352Y-95374221D01*
X162344912Y-95503678D01*
X162351189Y-95511770D01*
X162377139Y-95577854D01*
X162363241Y-95647477D01*
X162351189Y-95666230D01*
X162344910Y-95674325D01*
X162333209Y-95694110D01*
X162281317Y-95742563D01*
X162211467Y-95755269D01*
X162173506Y-95745079D01*
X162154523Y-95736627D01*
X162154522Y-95736627D01*
X162148492Y-95733942D01*
X162055092Y-95714089D01*
X161968148Y-95695608D01*
X161968143Y-95695608D01*
X161961691Y-95694236D01*
X161770717Y-95694236D01*
X161764265Y-95695608D01*
X161764260Y-95695608D01*
X161677316Y-95714089D01*
X161583916Y-95733942D01*
X161577886Y-95736627D01*
X161577885Y-95736627D01*
X161415482Y-95808933D01*
X161415480Y-95808934D01*
X161409452Y-95811618D01*
X161404111Y-95815498D01*
X161404110Y-95815499D01*
X161390528Y-95825367D01*
X161254951Y-95923870D01*
X161250530Y-95928780D01*
X161250529Y-95928781D01*
X161161378Y-96027794D01*
X161127164Y-96065792D01*
X161123863Y-96071510D01*
X161055406Y-96190081D01*
X161031677Y-96231180D01*
X160972662Y-96412808D01*
X160971972Y-96419369D01*
X160971972Y-96419371D01*
X160965828Y-96477831D01*
X160952700Y-96602736D01*
X160953390Y-96609301D01*
X160971518Y-96781775D01*
X160972662Y-96792664D01*
X161031677Y-96974292D01*
X161034980Y-96980014D01*
X161034981Y-96980015D01*
X161075055Y-97049425D01*
X161091793Y-97118420D01*
X161068573Y-97185512D01*
X161012765Y-97229399D01*
X160992133Y-97235671D01*
X160883178Y-97258831D01*
X160883173Y-97258833D01*
X160876712Y-97260206D01*
X160870682Y-97262891D01*
X160870681Y-97262891D01*
X160708278Y-97335197D01*
X160708276Y-97335198D01*
X160702248Y-97337882D01*
X160547747Y-97450134D01*
X160543326Y-97455044D01*
X160543325Y-97455045D01*
X160492731Y-97511236D01*
X160419960Y-97592056D01*
X160389878Y-97644159D01*
X160353001Y-97708033D01*
X160324473Y-97757444D01*
X160265458Y-97939072D01*
X160264768Y-97945633D01*
X160264768Y-97945635D01*
X160251643Y-98070516D01*
X160245496Y-98129000D01*
X124206925Y-98129000D01*
X124213168Y-98026928D01*
X124213278Y-98025131D01*
X124213359Y-98002000D01*
X124193979Y-97644159D01*
X124136066Y-97290505D01*
X124040297Y-96945173D01*
X124037243Y-96937497D01*
X123912421Y-96623834D01*
X123907793Y-96612205D01*
X123797735Y-96404342D01*
X123741702Y-96298513D01*
X123741698Y-96298506D01*
X123740103Y-96295494D01*
X123539190Y-95998746D01*
X123534467Y-95993176D01*
X123423645Y-95862500D01*
X123307403Y-95725432D01*
X123047454Y-95478750D01*
X122762384Y-95261585D01*
X122759472Y-95259828D01*
X122759467Y-95259825D01*
X122458443Y-95078236D01*
X122458437Y-95078233D01*
X122455528Y-95076478D01*
X122205816Y-94960565D01*
X122133571Y-94927030D01*
X122133569Y-94927029D01*
X122130475Y-94925593D01*
X121960752Y-94868145D01*
X121794255Y-94811789D01*
X121794250Y-94811788D01*
X121791028Y-94810697D01*
X121580718Y-94764072D01*
X121444493Y-94733871D01*
X121444487Y-94733870D01*
X121441158Y-94733132D01*
X121437769Y-94732758D01*
X121437764Y-94732757D01*
X121088338Y-94694180D01*
X121088333Y-94694180D01*
X121084957Y-94693807D01*
X121081558Y-94693801D01*
X121081557Y-94693801D01*
X120912080Y-94693505D01*
X120726592Y-94693182D01*
X120613413Y-94705277D01*
X120373639Y-94730901D01*
X120373631Y-94730902D01*
X120370256Y-94731263D01*
X120020117Y-94807606D01*
X119680271Y-94921317D01*
X119677178Y-94922739D01*
X119677177Y-94922740D01*
X119609213Y-94954000D01*
X119354694Y-95071066D01*
X119351760Y-95072822D01*
X119351758Y-95072823D01*
X119115855Y-95214008D01*
X119047193Y-95255101D01*
X119044467Y-95257163D01*
X119044465Y-95257164D01*
X118898442Y-95367601D01*
X118761367Y-95471270D01*
X118500559Y-95717043D01*
X118498347Y-95719633D01*
X118498345Y-95719635D01*
X118445706Y-95781267D01*
X118267819Y-95989546D01*
X118265900Y-95992358D01*
X118265897Y-95992363D01*
X118211907Y-96071510D01*
X118107886Y-96224000D01*
X118082588Y-96261085D01*
X118027677Y-96306088D01*
X117957152Y-96314259D01*
X117893405Y-96283005D01*
X117856675Y-96222248D01*
X117852500Y-96190081D01*
X117852500Y-92740634D01*
X135416500Y-92740634D01*
X135423255Y-92802816D01*
X135474385Y-92939205D01*
X135561739Y-93055761D01*
X135678295Y-93143115D01*
X135814684Y-93194245D01*
X135876866Y-93201000D01*
X137673134Y-93201000D01*
X137735316Y-93194245D01*
X137871705Y-93143115D01*
X137988261Y-93055761D01*
X138075615Y-92939205D01*
X138117454Y-92827601D01*
X138119598Y-92821882D01*
X138162240Y-92765118D01*
X138228802Y-92740418D01*
X138298150Y-92755626D01*
X138332817Y-92783614D01*
X138361250Y-92816438D01*
X138533126Y-92959132D01*
X138726000Y-93071838D01*
X138934692Y-93151530D01*
X138939760Y-93152561D01*
X138939763Y-93152562D01*
X139013206Y-93167504D01*
X139153597Y-93196067D01*
X139158772Y-93196257D01*
X139158774Y-93196257D01*
X139371673Y-93204064D01*
X139371677Y-93204064D01*
X139376837Y-93204253D01*
X139381957Y-93203597D01*
X139381959Y-93203597D01*
X139593288Y-93176525D01*
X139593289Y-93176525D01*
X139598416Y-93175868D01*
X139603366Y-93174383D01*
X139807429Y-93113161D01*
X139807434Y-93113159D01*
X139812384Y-93111674D01*
X140012994Y-93013396D01*
X140194860Y-92883673D01*
X140353096Y-92725989D01*
X140483453Y-92544577D01*
X140484776Y-92545528D01*
X140531645Y-92502357D01*
X140601580Y-92490125D01*
X140667026Y-92517644D01*
X140694875Y-92549494D01*
X140754987Y-92647588D01*
X140901250Y-92816438D01*
X141073126Y-92959132D01*
X141266000Y-93071838D01*
X141474692Y-93151530D01*
X141479760Y-93152561D01*
X141479763Y-93152562D01*
X141553206Y-93167504D01*
X141693597Y-93196067D01*
X141698772Y-93196257D01*
X141698774Y-93196257D01*
X141911673Y-93204064D01*
X141911677Y-93204064D01*
X141916837Y-93204253D01*
X141921957Y-93203597D01*
X141921959Y-93203597D01*
X142133288Y-93176525D01*
X142133289Y-93176525D01*
X142138416Y-93175868D01*
X142143366Y-93174383D01*
X142347429Y-93113161D01*
X142347434Y-93113159D01*
X142352384Y-93111674D01*
X142552994Y-93013396D01*
X142734860Y-92883673D01*
X142893096Y-92725989D01*
X143023453Y-92544577D01*
X143044320Y-92502357D01*
X143120136Y-92348953D01*
X143120137Y-92348951D01*
X143122430Y-92344311D01*
X143187370Y-92130569D01*
X143216529Y-91909090D01*
X143217101Y-91885693D01*
X143218074Y-91845865D01*
X143218074Y-91845861D01*
X143218156Y-91842500D01*
X143199852Y-91619861D01*
X143145431Y-91403202D01*
X143056354Y-91198340D01*
X142972962Y-91069435D01*
X142937822Y-91015117D01*
X142937820Y-91015114D01*
X142935014Y-91010777D01*
X142784670Y-90845551D01*
X142780619Y-90842352D01*
X142780615Y-90842348D01*
X142613414Y-90710300D01*
X142613410Y-90710298D01*
X142609359Y-90707098D01*
X142413789Y-90599138D01*
X142408920Y-90597414D01*
X142408916Y-90597412D01*
X142208087Y-90526295D01*
X142208083Y-90526294D01*
X142203212Y-90524569D01*
X142198119Y-90523662D01*
X142198116Y-90523661D01*
X141988373Y-90486300D01*
X141988367Y-90486299D01*
X141983284Y-90485394D01*
X141909452Y-90484492D01*
X141765081Y-90482728D01*
X141765079Y-90482728D01*
X141759911Y-90482665D01*
X141539091Y-90516455D01*
X141326756Y-90585857D01*
X141296443Y-90601637D01*
X141181953Y-90661237D01*
X141128607Y-90689007D01*
X141124474Y-90692110D01*
X141124471Y-90692112D01*
X140998128Y-90786973D01*
X140949965Y-90823135D01*
X140946393Y-90826873D01*
X140824839Y-90954072D01*
X140795629Y-90984638D01*
X140688201Y-91142121D01*
X140633293Y-91187121D01*
X140562768Y-91195292D01*
X140499021Y-91164038D01*
X140478324Y-91139554D01*
X140397822Y-91015117D01*
X140397820Y-91015114D01*
X140395014Y-91010777D01*
X140244670Y-90845551D01*
X140240619Y-90842352D01*
X140240615Y-90842348D01*
X140073414Y-90710300D01*
X140073410Y-90710298D01*
X140069359Y-90707098D01*
X139873789Y-90599138D01*
X139868920Y-90597414D01*
X139868916Y-90597412D01*
X139668087Y-90526295D01*
X139668083Y-90526294D01*
X139663212Y-90524569D01*
X139658119Y-90523662D01*
X139658116Y-90523661D01*
X139448373Y-90486300D01*
X139448367Y-90486299D01*
X139443284Y-90485394D01*
X139369452Y-90484492D01*
X139225081Y-90482728D01*
X139225079Y-90482728D01*
X139219911Y-90482665D01*
X138999091Y-90516455D01*
X138786756Y-90585857D01*
X138756443Y-90601637D01*
X138641953Y-90661237D01*
X138588607Y-90689007D01*
X138584474Y-90692110D01*
X138584471Y-90692112D01*
X138458128Y-90786973D01*
X138409965Y-90823135D01*
X138353537Y-90882184D01*
X138329283Y-90907564D01*
X138267759Y-90942994D01*
X138196846Y-90939537D01*
X138139060Y-90898291D01*
X138120207Y-90864743D01*
X138078767Y-90754203D01*
X138075615Y-90745795D01*
X137988261Y-90629239D01*
X137871705Y-90541885D01*
X137735316Y-90490755D01*
X137673134Y-90484000D01*
X135876866Y-90484000D01*
X135814684Y-90490755D01*
X135678295Y-90541885D01*
X135561739Y-90629239D01*
X135474385Y-90745795D01*
X135423255Y-90882184D01*
X135416500Y-90944366D01*
X135416500Y-92740634D01*
X117852500Y-92740634D01*
X117852500Y-87416774D01*
X120006102Y-87416774D01*
X120014751Y-87647158D01*
X120062093Y-87872791D01*
X120064051Y-87877750D01*
X120064052Y-87877752D01*
X120141071Y-88072774D01*
X120146776Y-88087221D01*
X120149543Y-88091780D01*
X120149544Y-88091783D01*
X120231427Y-88226721D01*
X120266377Y-88284317D01*
X120269874Y-88288347D01*
X120413281Y-88453609D01*
X120417477Y-88458445D01*
X120453120Y-88487670D01*
X120493114Y-88546329D01*
X120495046Y-88617299D01*
X120458302Y-88678048D01*
X120439532Y-88692248D01*
X120375294Y-88732000D01*
X120293652Y-88782522D01*
X120168695Y-88907697D01*
X120164855Y-88913927D01*
X120164854Y-88913928D01*
X120105642Y-89009988D01*
X120075885Y-89058262D01*
X120073581Y-89065209D01*
X120038179Y-89171944D01*
X120020203Y-89226139D01*
X120019503Y-89232975D01*
X120019502Y-89232978D01*
X120018202Y-89245665D01*
X120009500Y-89330600D01*
X120009500Y-90631400D01*
X120009837Y-90634646D01*
X120009837Y-90634650D01*
X120019064Y-90723573D01*
X120020474Y-90737166D01*
X120022655Y-90743702D01*
X120022655Y-90743704D01*
X120035765Y-90783000D01*
X120076450Y-90904946D01*
X120169522Y-91055348D01*
X120294697Y-91180305D01*
X120300927Y-91184145D01*
X120300928Y-91184146D01*
X120438090Y-91268694D01*
X120445262Y-91273115D01*
X120525005Y-91299564D01*
X120606611Y-91326632D01*
X120606613Y-91326632D01*
X120613139Y-91328797D01*
X120619975Y-91329497D01*
X120619978Y-91329498D01*
X120663031Y-91333909D01*
X120717600Y-91339500D01*
X122318400Y-91339500D01*
X122321646Y-91339163D01*
X122321650Y-91339163D01*
X122417308Y-91329238D01*
X122417312Y-91329237D01*
X122424166Y-91328526D01*
X122430702Y-91326345D01*
X122430704Y-91326345D01*
X122562806Y-91282272D01*
X122591946Y-91272550D01*
X122742348Y-91179478D01*
X122867305Y-91054303D01*
X122932965Y-90947783D01*
X122956275Y-90909968D01*
X122956276Y-90909966D01*
X122960115Y-90903738D01*
X123012502Y-90745795D01*
X123013632Y-90742389D01*
X123013632Y-90742387D01*
X123015797Y-90735861D01*
X123016662Y-90727426D01*
X123024606Y-90649887D01*
X123026500Y-90631400D01*
X123026500Y-89330600D01*
X123025818Y-89324024D01*
X123016238Y-89231692D01*
X123016237Y-89231688D01*
X123015526Y-89224834D01*
X123011311Y-89212198D01*
X122961868Y-89064002D01*
X122959550Y-89057054D01*
X122866478Y-88906652D01*
X122741303Y-88781695D01*
X122595660Y-88691919D01*
X122548168Y-88639148D01*
X122536744Y-88569076D01*
X122565018Y-88503952D01*
X122574805Y-88493490D01*
X122664637Y-88407794D01*
X122689135Y-88384424D01*
X122826754Y-88199458D01*
X122834831Y-88183573D01*
X122893033Y-88069096D01*
X122931240Y-87993949D01*
X122947989Y-87940011D01*
X122998024Y-87778871D01*
X122999607Y-87773773D01*
X123013361Y-87670001D01*
X123029198Y-87550511D01*
X123029198Y-87550506D01*
X123029898Y-87545226D01*
X123021249Y-87314842D01*
X123003831Y-87231825D01*
X122975002Y-87094428D01*
X122973907Y-87089209D01*
X122963836Y-87063707D01*
X122891185Y-86879744D01*
X122891184Y-86879742D01*
X122889224Y-86874779D01*
X122882804Y-86864198D01*
X122772390Y-86682243D01*
X122769623Y-86677683D01*
X122682755Y-86577576D01*
X122622023Y-86507588D01*
X122622021Y-86507586D01*
X122618523Y-86503555D01*
X122550398Y-86447696D01*
X122444373Y-86360760D01*
X122444367Y-86360756D01*
X122440245Y-86357376D01*
X122435609Y-86354737D01*
X122435606Y-86354735D01*
X122244529Y-86245968D01*
X122239886Y-86243325D01*
X122023175Y-86164663D01*
X122017926Y-86163714D01*
X122017923Y-86163713D01*
X121800392Y-86124377D01*
X121800385Y-86124376D01*
X121796308Y-86123639D01*
X121778586Y-86122803D01*
X121773644Y-86122570D01*
X121773637Y-86122570D01*
X121772156Y-86122500D01*
X121310110Y-86122500D01*
X121243191Y-86128178D01*
X121143591Y-86136629D01*
X121143587Y-86136630D01*
X121138280Y-86137080D01*
X121133125Y-86138418D01*
X121133119Y-86138419D01*
X120920297Y-86193657D01*
X120920293Y-86193658D01*
X120915128Y-86194999D01*
X120910262Y-86197191D01*
X120910259Y-86197192D01*
X120801980Y-86245968D01*
X120704925Y-86289688D01*
X120513681Y-86418441D01*
X120509824Y-86422120D01*
X120509822Y-86422122D01*
X120440464Y-86488287D01*
X120346865Y-86577576D01*
X120209246Y-86762542D01*
X120104760Y-86968051D01*
X120103178Y-86973145D01*
X120103177Y-86973148D01*
X120065272Y-87095221D01*
X120036393Y-87188227D01*
X120035692Y-87193516D01*
X120010986Y-87379925D01*
X120006102Y-87416774D01*
X117852500Y-87416774D01*
X117852500Y-84549134D01*
X136427500Y-84549134D01*
X136434255Y-84611316D01*
X136485385Y-84747705D01*
X136572739Y-84864261D01*
X136689295Y-84951615D01*
X136825684Y-85002745D01*
X136887866Y-85009500D01*
X138684134Y-85009500D01*
X138746316Y-85002745D01*
X138882705Y-84951615D01*
X138999261Y-84864261D01*
X139086615Y-84747705D01*
X139117532Y-84665234D01*
X139130598Y-84630382D01*
X139173240Y-84573618D01*
X139239802Y-84548918D01*
X139309150Y-84564126D01*
X139343817Y-84592114D01*
X139372250Y-84624938D01*
X139544126Y-84767632D01*
X139737000Y-84880338D01*
X139945692Y-84960030D01*
X139950760Y-84961061D01*
X139950763Y-84961062D01*
X140058017Y-84982883D01*
X140164597Y-85004567D01*
X140169772Y-85004757D01*
X140169774Y-85004757D01*
X140382673Y-85012564D01*
X140382677Y-85012564D01*
X140387837Y-85012753D01*
X140392957Y-85012097D01*
X140392959Y-85012097D01*
X140604288Y-84985025D01*
X140604289Y-84985025D01*
X140609416Y-84984368D01*
X140614366Y-84982883D01*
X140818429Y-84921661D01*
X140818434Y-84921659D01*
X140823384Y-84920174D01*
X141023994Y-84821896D01*
X141205860Y-84692173D01*
X141276516Y-84621764D01*
X141317771Y-84580652D01*
X141364096Y-84534489D01*
X141389148Y-84499626D01*
X141491435Y-84357277D01*
X141494453Y-84353077D01*
X141505629Y-84330465D01*
X141591136Y-84157453D01*
X141591137Y-84157451D01*
X141593430Y-84152811D01*
X141635036Y-84015869D01*
X141656865Y-83944023D01*
X141656865Y-83944021D01*
X141658370Y-83939069D01*
X141687529Y-83717590D01*
X141687611Y-83714240D01*
X141689074Y-83654365D01*
X141689074Y-83654361D01*
X141689156Y-83651000D01*
X141670852Y-83428361D01*
X141616431Y-83211702D01*
X141527354Y-83006840D01*
X141468839Y-82916389D01*
X141408822Y-82823617D01*
X141408820Y-82823614D01*
X141406014Y-82819277D01*
X141255670Y-82654051D01*
X141251619Y-82650852D01*
X141251615Y-82650848D01*
X141084414Y-82518800D01*
X141084410Y-82518798D01*
X141080359Y-82515598D01*
X140884789Y-82407638D01*
X140879920Y-82405914D01*
X140879916Y-82405912D01*
X140679087Y-82334795D01*
X140679083Y-82334794D01*
X140674212Y-82333069D01*
X140669119Y-82332162D01*
X140669116Y-82332161D01*
X140459373Y-82294800D01*
X140459367Y-82294799D01*
X140454284Y-82293894D01*
X140380452Y-82292992D01*
X140236081Y-82291228D01*
X140236079Y-82291228D01*
X140230911Y-82291165D01*
X140010091Y-82324955D01*
X139797756Y-82394357D01*
X139767443Y-82410137D01*
X139697272Y-82446666D01*
X139599607Y-82497507D01*
X139595474Y-82500610D01*
X139595471Y-82500612D01*
X139434217Y-82621685D01*
X139420965Y-82631635D01*
X139341668Y-82714615D01*
X139340283Y-82716064D01*
X139278759Y-82751494D01*
X139207846Y-82748037D01*
X139150060Y-82706791D01*
X139131207Y-82673243D01*
X139089767Y-82562703D01*
X139086615Y-82554295D01*
X138999261Y-82437739D01*
X138882705Y-82350385D01*
X138746316Y-82299255D01*
X138684134Y-82292500D01*
X136887866Y-82292500D01*
X136825684Y-82299255D01*
X136689295Y-82350385D01*
X136572739Y-82437739D01*
X136485385Y-82554295D01*
X136434255Y-82690684D01*
X136427500Y-82752866D01*
X136427500Y-84549134D01*
X117852500Y-84549134D01*
X117852500Y-77577774D01*
X120158102Y-77577774D01*
X120158302Y-77583103D01*
X120158302Y-77583105D01*
X120158772Y-77595615D01*
X120166751Y-77808158D01*
X120214093Y-78033791D01*
X120298776Y-78248221D01*
X120301543Y-78252780D01*
X120301544Y-78252783D01*
X120344158Y-78323008D01*
X120418377Y-78445317D01*
X120421874Y-78449347D01*
X120563600Y-78612672D01*
X120569477Y-78619445D01*
X120605120Y-78648670D01*
X120645114Y-78707329D01*
X120647046Y-78778299D01*
X120610302Y-78839048D01*
X120591532Y-78853248D01*
X120531880Y-78890162D01*
X120445652Y-78943522D01*
X120320695Y-79068697D01*
X120316855Y-79074927D01*
X120316854Y-79074928D01*
X120244065Y-79193014D01*
X120227885Y-79219262D01*
X120216238Y-79254378D01*
X120177173Y-79372156D01*
X120172203Y-79387139D01*
X120161500Y-79491600D01*
X120161500Y-80792400D01*
X120161837Y-80795646D01*
X120161837Y-80795650D01*
X120167672Y-80851883D01*
X120172474Y-80898166D01*
X120174655Y-80904702D01*
X120174655Y-80904704D01*
X120210353Y-81011704D01*
X120228450Y-81065946D01*
X120321522Y-81216348D01*
X120446697Y-81341305D01*
X120452927Y-81345145D01*
X120452928Y-81345146D01*
X120590090Y-81429694D01*
X120597262Y-81434115D01*
X120632932Y-81445946D01*
X120758611Y-81487632D01*
X120758613Y-81487632D01*
X120765139Y-81489797D01*
X120771975Y-81490497D01*
X120771978Y-81490498D01*
X120815031Y-81494909D01*
X120869600Y-81500500D01*
X122420400Y-81500500D01*
X122423646Y-81500163D01*
X122423650Y-81500163D01*
X122519308Y-81490238D01*
X122519312Y-81490237D01*
X122526166Y-81489526D01*
X122532702Y-81487345D01*
X122532704Y-81487345D01*
X122672713Y-81440634D01*
X122693946Y-81433550D01*
X122844348Y-81340478D01*
X122969305Y-81215303D01*
X123062115Y-81064738D01*
X123086628Y-80990833D01*
X123127058Y-80932473D01*
X123192623Y-80905236D01*
X123206221Y-80904500D01*
X149600472Y-80904500D01*
X149668593Y-80924502D01*
X149689567Y-80941405D01*
X150848595Y-82100433D01*
X150882621Y-82162745D01*
X150885500Y-82189528D01*
X150885500Y-82695472D01*
X150865498Y-82763593D01*
X150848595Y-82784567D01*
X150448472Y-83184690D01*
X150434059Y-83197077D01*
X150416436Y-83210046D01*
X150411692Y-83215629D01*
X150411693Y-83215629D01*
X150382021Y-83250555D01*
X150375091Y-83258071D01*
X150369347Y-83263815D01*
X150367073Y-83266689D01*
X150367067Y-83266696D01*
X150351628Y-83286211D01*
X150348837Y-83289615D01*
X150306055Y-83339972D01*
X150306052Y-83339976D01*
X150301316Y-83345551D01*
X150297988Y-83352068D01*
X150294611Y-83357132D01*
X150291384Y-83362356D01*
X150286840Y-83368100D01*
X150283741Y-83374731D01*
X150255768Y-83434582D01*
X150253837Y-83438533D01*
X150248793Y-83448412D01*
X150220457Y-83503904D01*
X150218716Y-83511019D01*
X150216579Y-83516765D01*
X150214655Y-83522548D01*
X150211556Y-83529179D01*
X150210066Y-83536343D01*
X150196608Y-83601047D01*
X150195639Y-83605329D01*
X150178196Y-83676612D01*
X150177500Y-83687830D01*
X150177461Y-83687828D01*
X150177228Y-83691729D01*
X150176839Y-83696088D01*
X150175348Y-83703256D01*
X150175546Y-83710573D01*
X150177454Y-83781077D01*
X150177500Y-83784486D01*
X150177500Y-90509624D01*
X150176067Y-90528574D01*
X150173876Y-90542973D01*
X150173876Y-90542979D01*
X150172776Y-90550208D01*
X150173369Y-90557500D01*
X150173369Y-90557503D01*
X150177085Y-90603183D01*
X150177500Y-90613398D01*
X150177500Y-90621525D01*
X150180811Y-90649924D01*
X150181238Y-90654244D01*
X150187191Y-90727426D01*
X150189447Y-90734388D01*
X150190643Y-90740376D01*
X150192051Y-90746333D01*
X150192899Y-90753607D01*
X150195397Y-90760489D01*
X150195398Y-90760493D01*
X150217945Y-90822607D01*
X150219355Y-90826711D01*
X150241987Y-90896575D01*
X150245787Y-90902838D01*
X150248325Y-90908380D01*
X150251067Y-90913856D01*
X150253566Y-90920741D01*
X150257581Y-90926865D01*
X150293815Y-90982132D01*
X150296130Y-90985800D01*
X150334227Y-91048581D01*
X150337941Y-91052786D01*
X150337943Y-91052789D01*
X150341667Y-91057005D01*
X150341638Y-91057031D01*
X150344238Y-91059962D01*
X150347042Y-91063316D01*
X150351054Y-91069435D01*
X150356366Y-91074467D01*
X150407586Y-91122988D01*
X150410028Y-91125366D01*
X154857190Y-95572528D01*
X154869577Y-95586941D01*
X154882546Y-95604564D01*
X154888129Y-95609307D01*
X154923055Y-95638979D01*
X154930571Y-95645909D01*
X154936315Y-95651653D01*
X154939189Y-95653927D01*
X154939196Y-95653933D01*
X154958711Y-95669372D01*
X154962115Y-95672163D01*
X155012472Y-95714945D01*
X155012476Y-95714948D01*
X155018051Y-95719684D01*
X155024568Y-95723012D01*
X155029632Y-95726389D01*
X155034856Y-95729616D01*
X155040600Y-95734160D01*
X155107104Y-95765242D01*
X155111001Y-95767147D01*
X155176404Y-95800543D01*
X155183518Y-95802283D01*
X155189260Y-95804419D01*
X155195051Y-95806346D01*
X155201680Y-95809444D01*
X155208843Y-95810934D01*
X155228798Y-95815085D01*
X155273569Y-95824397D01*
X155277835Y-95825363D01*
X155349112Y-95842804D01*
X155354714Y-95843152D01*
X155354717Y-95843152D01*
X155360330Y-95843500D01*
X155360328Y-95843539D01*
X155364229Y-95843772D01*
X155368588Y-95844161D01*
X155375756Y-95845652D01*
X155383073Y-95845454D01*
X155453577Y-95843546D01*
X155456986Y-95843500D01*
X159440624Y-95843500D01*
X159459574Y-95844933D01*
X159473973Y-95847124D01*
X159473979Y-95847124D01*
X159481208Y-95848224D01*
X159488500Y-95847631D01*
X159488503Y-95847631D01*
X159534183Y-95843915D01*
X159544398Y-95843500D01*
X159552525Y-95843500D01*
X159556161Y-95843076D01*
X159556163Y-95843076D01*
X159559615Y-95842673D01*
X159580924Y-95840189D01*
X159585244Y-95839762D01*
X159658426Y-95833809D01*
X159665388Y-95831553D01*
X159671376Y-95830357D01*
X159677333Y-95828949D01*
X159684607Y-95828101D01*
X159691489Y-95825603D01*
X159691493Y-95825602D01*
X159753607Y-95803055D01*
X159757711Y-95801645D01*
X159827575Y-95779013D01*
X159833838Y-95775213D01*
X159839380Y-95772675D01*
X159844856Y-95769933D01*
X159851741Y-95767434D01*
X159904918Y-95732570D01*
X159913132Y-95727185D01*
X159916800Y-95724870D01*
X159979581Y-95686773D01*
X159983786Y-95683059D01*
X159983789Y-95683057D01*
X159988005Y-95679333D01*
X159988031Y-95679362D01*
X159990962Y-95676762D01*
X159994316Y-95673958D01*
X160000435Y-95669946D01*
X160053989Y-95613413D01*
X160056366Y-95610972D01*
X161717467Y-93949871D01*
X162221456Y-93949871D01*
X162262107Y-94089790D01*
X162268352Y-94104221D01*
X162344912Y-94233678D01*
X162351189Y-94241770D01*
X162377139Y-94307854D01*
X162363241Y-94377477D01*
X162351189Y-94396230D01*
X162344912Y-94404322D01*
X162268352Y-94533779D01*
X162262107Y-94548210D01*
X162223061Y-94682605D01*
X162223101Y-94696706D01*
X162230370Y-94700000D01*
X163475885Y-94700000D01*
X163491124Y-94695525D01*
X163492329Y-94694135D01*
X163494000Y-94686452D01*
X163494000Y-93956115D01*
X163489525Y-93940876D01*
X163488135Y-93939671D01*
X163480452Y-93938000D01*
X162236122Y-93938000D01*
X162222591Y-93941973D01*
X162221456Y-93949871D01*
X161717467Y-93949871D01*
X162200433Y-93466905D01*
X162262745Y-93432879D01*
X162289528Y-93430000D01*
X163876000Y-93430000D01*
X163944121Y-93450002D01*
X163990614Y-93503658D01*
X164002000Y-93556000D01*
X164002000Y-94681885D01*
X164006475Y-94697124D01*
X164007865Y-94698329D01*
X164015548Y-94700000D01*
X165259878Y-94700000D01*
X165273409Y-94696027D01*
X165274544Y-94688129D01*
X165233893Y-94548210D01*
X165227648Y-94533779D01*
X165151088Y-94404322D01*
X165144811Y-94396230D01*
X165118861Y-94330146D01*
X165132759Y-94260523D01*
X165144811Y-94241770D01*
X165151088Y-94233678D01*
X165227648Y-94104221D01*
X165233893Y-94089790D01*
X165249320Y-94036691D01*
X165287534Y-93976856D01*
X165352030Y-93947179D01*
X165422332Y-93957083D01*
X165459412Y-93982750D01*
X170732190Y-99255528D01*
X170744577Y-99269941D01*
X170757546Y-99287564D01*
X170763129Y-99292307D01*
X170798055Y-99321979D01*
X170805571Y-99328909D01*
X170811315Y-99334653D01*
X170814189Y-99336927D01*
X170814196Y-99336933D01*
X170833711Y-99352372D01*
X170837115Y-99355163D01*
X170887472Y-99397945D01*
X170887476Y-99397948D01*
X170893051Y-99402684D01*
X170899568Y-99406012D01*
X170904632Y-99409389D01*
X170909856Y-99412616D01*
X170915600Y-99417160D01*
X170922231Y-99420259D01*
X170982082Y-99448232D01*
X170986033Y-99450163D01*
X171051404Y-99483543D01*
X171058519Y-99485284D01*
X171064265Y-99487421D01*
X171070048Y-99489345D01*
X171076679Y-99492444D01*
X171148557Y-99507394D01*
X171152829Y-99508361D01*
X171224112Y-99525804D01*
X171229711Y-99526151D01*
X171229715Y-99526152D01*
X171235330Y-99526500D01*
X171235328Y-99526539D01*
X171239229Y-99526772D01*
X171243588Y-99527161D01*
X171250756Y-99528652D01*
X171258073Y-99528454D01*
X171328577Y-99526546D01*
X171331986Y-99526500D01*
X171903015Y-99526500D01*
X171938167Y-99531503D01*
X172069169Y-99569562D01*
X172075574Y-99570066D01*
X172075579Y-99570067D01*
X172104042Y-99572307D01*
X172104050Y-99572307D01*
X172106498Y-99572500D01*
X173989502Y-99572500D01*
X173991950Y-99572307D01*
X173991958Y-99572307D01*
X174020421Y-99570067D01*
X174020426Y-99570066D01*
X174026831Y-99569562D01*
X174126769Y-99540528D01*
X174178988Y-99525357D01*
X174178990Y-99525356D01*
X174186601Y-99523145D01*
X174235994Y-99493934D01*
X174322980Y-99442491D01*
X174322983Y-99442489D01*
X174329807Y-99438453D01*
X174447453Y-99320807D01*
X174451489Y-99313983D01*
X174451491Y-99313980D01*
X174528108Y-99184427D01*
X174532145Y-99177601D01*
X174578562Y-99017831D01*
X174580100Y-98998301D01*
X174581307Y-98982958D01*
X174581307Y-98982950D01*
X174581500Y-98980502D01*
X174581500Y-98547498D01*
X174578562Y-98510169D01*
X174542539Y-98386175D01*
X174534357Y-98358012D01*
X174534356Y-98358010D01*
X174532145Y-98350399D01*
X174512769Y-98317637D01*
X174495311Y-98248822D01*
X174517828Y-98181491D01*
X174573173Y-98137022D01*
X174621224Y-98127500D01*
X176071800Y-98127500D01*
X176139921Y-98147502D01*
X176159147Y-98163843D01*
X176159420Y-98163540D01*
X176164332Y-98167963D01*
X176168747Y-98172866D01*
X176180618Y-98181491D01*
X176214662Y-98206225D01*
X176323248Y-98285118D01*
X176329276Y-98287802D01*
X176329278Y-98287803D01*
X176486971Y-98358012D01*
X176497712Y-98362794D01*
X176591112Y-98382647D01*
X176678056Y-98401128D01*
X176678061Y-98401128D01*
X176684513Y-98402500D01*
X176875487Y-98402500D01*
X176881939Y-98401128D01*
X176881944Y-98401128D01*
X176968887Y-98382647D01*
X177062288Y-98362794D01*
X177073029Y-98358012D01*
X177230722Y-98287803D01*
X177230724Y-98287802D01*
X177236752Y-98285118D01*
X177391253Y-98172866D01*
X177414091Y-98147502D01*
X177514621Y-98035852D01*
X177514622Y-98035851D01*
X177519040Y-98030944D01*
X177614527Y-97865556D01*
X177673542Y-97683928D01*
X177678076Y-97640795D01*
X177692814Y-97500565D01*
X177693504Y-97494000D01*
X177688485Y-97446251D01*
X177674232Y-97310635D01*
X177674232Y-97310633D01*
X177673542Y-97304072D01*
X177614527Y-97122444D01*
X177597610Y-97093142D01*
X177525603Y-96968424D01*
X177519040Y-96957056D01*
X177495631Y-96931057D01*
X177395675Y-96820045D01*
X177395674Y-96820044D01*
X177391253Y-96815134D01*
X177236752Y-96702882D01*
X177230724Y-96700198D01*
X177230722Y-96700197D01*
X177068319Y-96627891D01*
X177068318Y-96627891D01*
X177062288Y-96625206D01*
X176956576Y-96602736D01*
X176881944Y-96586872D01*
X176881939Y-96586872D01*
X176875487Y-96585500D01*
X176684513Y-96585500D01*
X176678061Y-96586872D01*
X176678056Y-96586872D01*
X176603424Y-96602736D01*
X176497712Y-96625206D01*
X176491682Y-96627891D01*
X176491681Y-96627891D01*
X176329278Y-96700197D01*
X176329276Y-96700198D01*
X176323248Y-96702882D01*
X176286691Y-96729442D01*
X176219825Y-96753301D01*
X176150673Y-96737222D01*
X176101192Y-96686309D01*
X176087092Y-96616726D01*
X176092797Y-96588571D01*
X176135223Y-96457998D01*
X176149542Y-96413928D01*
X176161673Y-96298513D01*
X176168814Y-96230565D01*
X176169504Y-96224000D01*
X176149542Y-96034072D01*
X176136254Y-95993176D01*
X176134226Y-95922209D01*
X176170889Y-95861411D01*
X176234601Y-95830085D01*
X176282284Y-95830993D01*
X176424056Y-95861128D01*
X176424061Y-95861128D01*
X176430513Y-95862500D01*
X176621487Y-95862500D01*
X176627939Y-95861128D01*
X176627944Y-95861128D01*
X176714887Y-95842647D01*
X176808288Y-95822794D01*
X176833390Y-95811618D01*
X176976722Y-95747803D01*
X176976724Y-95747802D01*
X176982752Y-95745118D01*
X176997835Y-95734160D01*
X177073297Y-95679333D01*
X177137253Y-95632866D01*
X177155862Y-95612199D01*
X177260621Y-95495852D01*
X177260622Y-95495851D01*
X177265040Y-95490944D01*
X177360527Y-95325556D01*
X177419542Y-95143928D01*
X177426447Y-95078236D01*
X177438814Y-94960565D01*
X177439504Y-94954000D01*
X177436404Y-94924501D01*
X177420232Y-94770635D01*
X177420232Y-94770633D01*
X177419542Y-94764072D01*
X177360527Y-94582444D01*
X177265040Y-94417056D01*
X177175400Y-94317500D01*
X177141675Y-94280045D01*
X177141674Y-94280044D01*
X177137253Y-94275134D01*
X176982752Y-94162882D01*
X176976724Y-94160198D01*
X176976722Y-94160197D01*
X176814319Y-94087891D01*
X176814318Y-94087891D01*
X176808288Y-94085206D01*
X176714888Y-94065353D01*
X176627944Y-94046872D01*
X176627939Y-94046872D01*
X176621487Y-94045500D01*
X176430513Y-94045500D01*
X176418709Y-94048009D01*
X176347918Y-94042609D01*
X176291285Y-93999794D01*
X176266789Y-93933157D01*
X176272675Y-93885829D01*
X176274503Y-93880204D01*
X176274503Y-93880202D01*
X176276542Y-93873928D01*
X176296504Y-93684000D01*
X176276542Y-93494072D01*
X176217527Y-93312444D01*
X176200409Y-93282794D01*
X176173681Y-93236500D01*
X176156943Y-93167504D01*
X176180164Y-93100413D01*
X176235971Y-93056526D01*
X176282800Y-93047500D01*
X176325800Y-93047500D01*
X176393921Y-93067502D01*
X176413147Y-93083843D01*
X176413420Y-93083540D01*
X176418332Y-93087963D01*
X176422747Y-93092866D01*
X176433135Y-93100413D01*
X176563457Y-93195098D01*
X176577248Y-93205118D01*
X176583276Y-93207802D01*
X176583278Y-93207803D01*
X176723872Y-93270399D01*
X176751712Y-93282794D01*
X176845112Y-93302647D01*
X176932056Y-93321128D01*
X176932061Y-93321128D01*
X176938513Y-93322500D01*
X177129487Y-93322500D01*
X177135939Y-93321128D01*
X177135944Y-93321128D01*
X177222887Y-93302647D01*
X177316288Y-93282794D01*
X177344128Y-93270399D01*
X177484722Y-93207803D01*
X177484724Y-93207802D01*
X177490752Y-93205118D01*
X177504544Y-93195098D01*
X177576091Y-93143115D01*
X177645253Y-93092866D01*
X177668091Y-93067502D01*
X177768621Y-92955852D01*
X177768622Y-92955851D01*
X177773040Y-92950944D01*
X177868527Y-92785556D01*
X177927542Y-92603928D01*
X177938218Y-92502357D01*
X177946814Y-92420565D01*
X177947504Y-92414000D01*
X177946814Y-92407435D01*
X177928232Y-92230635D01*
X177928232Y-92230633D01*
X177927542Y-92224072D01*
X177868527Y-92042444D01*
X177773040Y-91877056D01*
X177740636Y-91841067D01*
X177649675Y-91740045D01*
X177649674Y-91740044D01*
X177645253Y-91735134D01*
X177490752Y-91622882D01*
X177484724Y-91620198D01*
X177484722Y-91620197D01*
X177322319Y-91547891D01*
X177322318Y-91547891D01*
X177316288Y-91545206D01*
X177203721Y-91521279D01*
X177135944Y-91506872D01*
X177135939Y-91506872D01*
X177129487Y-91505500D01*
X176938513Y-91505500D01*
X176932061Y-91506872D01*
X176932056Y-91506872D01*
X176864279Y-91521279D01*
X176751712Y-91545206D01*
X176745682Y-91547891D01*
X176745681Y-91547891D01*
X176583278Y-91620197D01*
X176583276Y-91620198D01*
X176577248Y-91622882D01*
X176571907Y-91626762D01*
X176571906Y-91626763D01*
X176461687Y-91706842D01*
X176422747Y-91735134D01*
X176418332Y-91740037D01*
X176413420Y-91744460D01*
X176412295Y-91743211D01*
X176358986Y-91776051D01*
X176325800Y-91780500D01*
X176282800Y-91780500D01*
X176214679Y-91760498D01*
X176168186Y-91706842D01*
X176158082Y-91636568D01*
X176173681Y-91591500D01*
X176214223Y-91521279D01*
X176214224Y-91521278D01*
X176217527Y-91515556D01*
X176276542Y-91333928D01*
X176282692Y-91275419D01*
X176295814Y-91150565D01*
X176296504Y-91144000D01*
X176287361Y-91057005D01*
X176277232Y-90960635D01*
X176277232Y-90960633D01*
X176276542Y-90954072D01*
X176272675Y-90942171D01*
X176270649Y-90871203D01*
X176307313Y-90810406D01*
X176371025Y-90779082D01*
X176418709Y-90779991D01*
X176430513Y-90782500D01*
X176621487Y-90782500D01*
X176627939Y-90781128D01*
X176627944Y-90781128D01*
X176725021Y-90760493D01*
X176808288Y-90742794D01*
X176836128Y-90730399D01*
X176976722Y-90667803D01*
X176976724Y-90667802D01*
X176982752Y-90665118D01*
X176993926Y-90657000D01*
X177053938Y-90613398D01*
X177137253Y-90552866D01*
X177147140Y-90541885D01*
X177260621Y-90415852D01*
X177260622Y-90415851D01*
X177265040Y-90410944D01*
X177340648Y-90279988D01*
X177357223Y-90251279D01*
X177357224Y-90251278D01*
X177360527Y-90245556D01*
X177419542Y-90063928D01*
X177433832Y-89927971D01*
X177438814Y-89880565D01*
X177439504Y-89874000D01*
X177419542Y-89684072D01*
X177360527Y-89502444D01*
X177265040Y-89337056D01*
X177175400Y-89237500D01*
X177141675Y-89200045D01*
X177141674Y-89200044D01*
X177137253Y-89195134D01*
X176982752Y-89082882D01*
X176976724Y-89080198D01*
X176976722Y-89080197D01*
X176814319Y-89007891D01*
X176814318Y-89007891D01*
X176808288Y-89005206D01*
X176714887Y-88985353D01*
X176627944Y-88966872D01*
X176627939Y-88966872D01*
X176621487Y-88965500D01*
X176430513Y-88965500D01*
X176418709Y-88968009D01*
X176347918Y-88962609D01*
X176291285Y-88919794D01*
X176266789Y-88853157D01*
X176272675Y-88805829D01*
X176274503Y-88800204D01*
X176274503Y-88800202D01*
X176276542Y-88793928D01*
X176278232Y-88777854D01*
X176295814Y-88610565D01*
X176296504Y-88604000D01*
X176290443Y-88546329D01*
X176277232Y-88420635D01*
X176277232Y-88420633D01*
X176276542Y-88414072D01*
X176217527Y-88232444D01*
X176198483Y-88199458D01*
X176180314Y-88167990D01*
X176122040Y-88067056D01*
X176110303Y-88054020D01*
X175998675Y-87930045D01*
X175998674Y-87930044D01*
X175994253Y-87925134D01*
X175839752Y-87812882D01*
X175833724Y-87810198D01*
X175833722Y-87810197D01*
X175671319Y-87737891D01*
X175671318Y-87737891D01*
X175665288Y-87735206D01*
X175571887Y-87715353D01*
X175484944Y-87696872D01*
X175484939Y-87696872D01*
X175478487Y-87695500D01*
X175287513Y-87695500D01*
X175281061Y-87696872D01*
X175281056Y-87696872D01*
X175194113Y-87715353D01*
X175100712Y-87735206D01*
X175094682Y-87737891D01*
X175094681Y-87737891D01*
X174932278Y-87810197D01*
X174932276Y-87810198D01*
X174926248Y-87812882D01*
X174920907Y-87816762D01*
X174920906Y-87816763D01*
X174850974Y-87867572D01*
X174771747Y-87925134D01*
X174767332Y-87930037D01*
X174762420Y-87934460D01*
X174761295Y-87933211D01*
X174707986Y-87966051D01*
X174674800Y-87970500D01*
X174422950Y-87970500D01*
X174354829Y-87950498D01*
X174341729Y-87939941D01*
X174341675Y-87940011D01*
X174335415Y-87935155D01*
X174329807Y-87929547D01*
X174322983Y-87925511D01*
X174322980Y-87925509D01*
X174193427Y-87848892D01*
X174193428Y-87848892D01*
X174186601Y-87844855D01*
X174178990Y-87842644D01*
X174178988Y-87842643D01*
X174126769Y-87827472D01*
X174026831Y-87798438D01*
X174020426Y-87797934D01*
X174020421Y-87797933D01*
X173991958Y-87795693D01*
X173991950Y-87795693D01*
X173989502Y-87795500D01*
X172106498Y-87795500D01*
X172104050Y-87795693D01*
X172104042Y-87795693D01*
X172075579Y-87797933D01*
X172075574Y-87797934D01*
X172069169Y-87798438D01*
X171969231Y-87827472D01*
X171917012Y-87842643D01*
X171917010Y-87842644D01*
X171909399Y-87844855D01*
X171902572Y-87848892D01*
X171902573Y-87848892D01*
X171773020Y-87925509D01*
X171773017Y-87925511D01*
X171766193Y-87929547D01*
X171648547Y-88047193D01*
X171644511Y-88054017D01*
X171644509Y-88054020D01*
X171580893Y-88161589D01*
X171563855Y-88190399D01*
X171561644Y-88198010D01*
X171561643Y-88198012D01*
X171551640Y-88232444D01*
X171517438Y-88350169D01*
X171516934Y-88356574D01*
X171516933Y-88356579D01*
X171514742Y-88384424D01*
X171514500Y-88387498D01*
X171514500Y-88820502D01*
X171517438Y-88857831D01*
X171531622Y-88906652D01*
X171561586Y-89009790D01*
X171563855Y-89017601D01*
X171648547Y-89160807D01*
X171651229Y-89163489D01*
X171676502Y-89227861D01*
X171662600Y-89297484D01*
X171652428Y-89313312D01*
X171648547Y-89317193D01*
X171563855Y-89460399D01*
X171561644Y-89468010D01*
X171561643Y-89468012D01*
X171551640Y-89502444D01*
X171517438Y-89620169D01*
X171516934Y-89626574D01*
X171516933Y-89626579D01*
X171514693Y-89655042D01*
X171514500Y-89657498D01*
X171514500Y-90090502D01*
X171517438Y-90127831D01*
X171519233Y-90134008D01*
X171553303Y-90251279D01*
X171563855Y-90287601D01*
X171648547Y-90430807D01*
X171651229Y-90433489D01*
X171676502Y-90497861D01*
X171662600Y-90567484D01*
X171652428Y-90583312D01*
X171648547Y-90587193D01*
X171563855Y-90730399D01*
X171561644Y-90738010D01*
X171561643Y-90738012D01*
X171556939Y-90754203D01*
X171517438Y-90890169D01*
X171516934Y-90896575D01*
X171516934Y-90896576D01*
X171515451Y-90915421D01*
X171514500Y-90927498D01*
X171514500Y-91360502D01*
X171517438Y-91397831D01*
X171544435Y-91490756D01*
X171553303Y-91521279D01*
X171563855Y-91557601D01*
X171648547Y-91700807D01*
X171651229Y-91703489D01*
X171676502Y-91767861D01*
X171662600Y-91837484D01*
X171652428Y-91853312D01*
X171648547Y-91857193D01*
X171563855Y-92000399D01*
X171561644Y-92008010D01*
X171561643Y-92008012D01*
X171551640Y-92042444D01*
X171517438Y-92160169D01*
X171514500Y-92197498D01*
X171514500Y-92630502D01*
X171514693Y-92632950D01*
X171514693Y-92632958D01*
X171516152Y-92651490D01*
X171517438Y-92667831D01*
X171519233Y-92674008D01*
X171553303Y-92791279D01*
X171563855Y-92827601D01*
X171648547Y-92970807D01*
X171651229Y-92973489D01*
X171676502Y-93037861D01*
X171662600Y-93107484D01*
X171652428Y-93123312D01*
X171648547Y-93127193D01*
X171563855Y-93270399D01*
X171561644Y-93278010D01*
X171561643Y-93278012D01*
X171551640Y-93312444D01*
X171517438Y-93430169D01*
X171516934Y-93436574D01*
X171516933Y-93436579D01*
X171515877Y-93450002D01*
X171514500Y-93467498D01*
X171514500Y-93900502D01*
X171517438Y-93937831D01*
X171528776Y-93976856D01*
X171561586Y-94089790D01*
X171563855Y-94097601D01*
X171648547Y-94240807D01*
X171651229Y-94243489D01*
X171676502Y-94307861D01*
X171662600Y-94377484D01*
X171652428Y-94393312D01*
X171648547Y-94397193D01*
X171563855Y-94540399D01*
X171561644Y-94548010D01*
X171561643Y-94548012D01*
X171551640Y-94582444D01*
X171517438Y-94700169D01*
X171516934Y-94706574D01*
X171516933Y-94706579D01*
X171514785Y-94733871D01*
X171514500Y-94737498D01*
X171514500Y-95170502D01*
X171517438Y-95207831D01*
X171533055Y-95261585D01*
X171561586Y-95359790D01*
X171563855Y-95367601D01*
X171648547Y-95510807D01*
X171651229Y-95513489D01*
X171676502Y-95577861D01*
X171662600Y-95647484D01*
X171652428Y-95663312D01*
X171648547Y-95667193D01*
X171563855Y-95810399D01*
X171561644Y-95818010D01*
X171561643Y-95818012D01*
X171553038Y-95847631D01*
X171517438Y-95970169D01*
X171516934Y-95976574D01*
X171516933Y-95976579D01*
X171514693Y-96005042D01*
X171514500Y-96007498D01*
X171514500Y-96440502D01*
X171517438Y-96477831D01*
X171519233Y-96484008D01*
X171561586Y-96629790D01*
X171563855Y-96637601D01*
X171648547Y-96780807D01*
X171651229Y-96783489D01*
X171676502Y-96847861D01*
X171662600Y-96917484D01*
X171652428Y-96933312D01*
X171648547Y-96937193D01*
X171563855Y-97080399D01*
X171561644Y-97088010D01*
X171561643Y-97088012D01*
X171552809Y-97118420D01*
X171517438Y-97240169D01*
X171516934Y-97246574D01*
X171516933Y-97246579D01*
X171514693Y-97275042D01*
X171514500Y-97277498D01*
X171514500Y-97576972D01*
X171494498Y-97645093D01*
X171440842Y-97691586D01*
X171370568Y-97701690D01*
X171305988Y-97672196D01*
X171299405Y-97666067D01*
X165555810Y-91922472D01*
X165543423Y-91908059D01*
X165534795Y-91896335D01*
X165530454Y-91890436D01*
X165499363Y-91864022D01*
X165489945Y-91856021D01*
X165482429Y-91849091D01*
X165476685Y-91843347D01*
X165473811Y-91841073D01*
X165473804Y-91841067D01*
X165454289Y-91825628D01*
X165450885Y-91822837D01*
X165400528Y-91780055D01*
X165400524Y-91780052D01*
X165394949Y-91775316D01*
X165388432Y-91771988D01*
X165383368Y-91768611D01*
X165378144Y-91765384D01*
X165372400Y-91760840D01*
X165337353Y-91744460D01*
X165305918Y-91729768D01*
X165301970Y-91727838D01*
X165288848Y-91721138D01*
X165237274Y-91672346D01*
X165220266Y-91603417D01*
X165229950Y-91561313D01*
X165232145Y-91557601D01*
X165242698Y-91521279D01*
X165251565Y-91490756D01*
X165278562Y-91397831D01*
X165281500Y-91360502D01*
X165281500Y-90927498D01*
X165280550Y-90915421D01*
X165279066Y-90896576D01*
X165279066Y-90896575D01*
X165278562Y-90890169D01*
X165239061Y-90754203D01*
X165234357Y-90738012D01*
X165234356Y-90738010D01*
X165232145Y-90730399D01*
X165147453Y-90587193D01*
X165144771Y-90584511D01*
X165119498Y-90520139D01*
X165133400Y-90450516D01*
X165143572Y-90434688D01*
X165147453Y-90430807D01*
X165232145Y-90287601D01*
X165242698Y-90251279D01*
X165276767Y-90134008D01*
X165278562Y-90127831D01*
X165281500Y-90090502D01*
X165281500Y-89657498D01*
X165281307Y-89655042D01*
X165279067Y-89626579D01*
X165279066Y-89626574D01*
X165278562Y-89620169D01*
X165244360Y-89502444D01*
X165234357Y-89468012D01*
X165234356Y-89468010D01*
X165232145Y-89460399D01*
X165158538Y-89335937D01*
X165151493Y-89324024D01*
X165151492Y-89324023D01*
X165147453Y-89317193D01*
X165144513Y-89314253D01*
X165119180Y-89249734D01*
X165133079Y-89180111D01*
X165145126Y-89161364D01*
X165151090Y-89153676D01*
X165227648Y-89024221D01*
X165233893Y-89009790D01*
X165272939Y-88875395D01*
X165272899Y-88861294D01*
X165265630Y-88858000D01*
X163620000Y-88858000D01*
X163551879Y-88837998D01*
X163505386Y-88784342D01*
X163494000Y-88732000D01*
X163494000Y-88331885D01*
X164002000Y-88331885D01*
X164006475Y-88347124D01*
X164007865Y-88348329D01*
X164015548Y-88350000D01*
X165259878Y-88350000D01*
X165273409Y-88346027D01*
X165274544Y-88338129D01*
X165233893Y-88198210D01*
X165227648Y-88183779D01*
X165151089Y-88054322D01*
X165141449Y-88041896D01*
X165035104Y-87935551D01*
X165022678Y-87925911D01*
X164893221Y-87849352D01*
X164878790Y-87843107D01*
X164732935Y-87800731D01*
X164720333Y-87798430D01*
X164691916Y-87796193D01*
X164686986Y-87796000D01*
X164020115Y-87796000D01*
X164004876Y-87800475D01*
X164003671Y-87801865D01*
X164002000Y-87809548D01*
X164002000Y-88331885D01*
X163494000Y-88331885D01*
X163494000Y-87814116D01*
X163489525Y-87798877D01*
X163488135Y-87797672D01*
X163480452Y-87796001D01*
X163157500Y-87796001D01*
X163089379Y-87775999D01*
X163042886Y-87722343D01*
X163031500Y-87670001D01*
X163031500Y-87058551D01*
X183291251Y-87058551D01*
X183291548Y-87063704D01*
X183291548Y-87063707D01*
X183303084Y-87263777D01*
X183304110Y-87281571D01*
X183305247Y-87286617D01*
X183305248Y-87286623D01*
X183321828Y-87360192D01*
X183353222Y-87499495D01*
X183437266Y-87706472D01*
X183454874Y-87735206D01*
X183500829Y-87810197D01*
X183553987Y-87896944D01*
X183700250Y-88065794D01*
X183872126Y-88208488D01*
X184065000Y-88321194D01*
X184273692Y-88400886D01*
X184278760Y-88401917D01*
X184278763Y-88401918D01*
X184370761Y-88420635D01*
X184492597Y-88445423D01*
X184497772Y-88445613D01*
X184497774Y-88445613D01*
X184710673Y-88453420D01*
X184710677Y-88453420D01*
X184715837Y-88453609D01*
X184720957Y-88452953D01*
X184720959Y-88452953D01*
X184932288Y-88425881D01*
X184932289Y-88425881D01*
X184937416Y-88425224D01*
X184952712Y-88420635D01*
X185146429Y-88362517D01*
X185146434Y-88362515D01*
X185151384Y-88361030D01*
X185351994Y-88262752D01*
X185533860Y-88133029D01*
X185575251Y-88091783D01*
X185688435Y-87978993D01*
X185692096Y-87975345D01*
X185695578Y-87970500D01*
X185819435Y-87798133D01*
X185822453Y-87793933D01*
X185831317Y-87775999D01*
X185919136Y-87598309D01*
X185919137Y-87598307D01*
X185921430Y-87593667D01*
X185986370Y-87379925D01*
X186015529Y-87158446D01*
X186015611Y-87155096D01*
X186017074Y-87095221D01*
X186017074Y-87095217D01*
X186017156Y-87091856D01*
X185998852Y-86869217D01*
X185944431Y-86652558D01*
X185855354Y-86447696D01*
X185734014Y-86260133D01*
X185583670Y-86094907D01*
X185579619Y-86091708D01*
X185579615Y-86091704D01*
X185412414Y-85959656D01*
X185412410Y-85959654D01*
X185408359Y-85956454D01*
X185367053Y-85933652D01*
X185317084Y-85883220D01*
X185302312Y-85813777D01*
X185327428Y-85747372D01*
X185354780Y-85720765D01*
X185414924Y-85677865D01*
X185533860Y-85593029D01*
X185692096Y-85435345D01*
X185751594Y-85352545D01*
X185819435Y-85258133D01*
X185822453Y-85253933D01*
X185921430Y-85053667D01*
X185986370Y-84839925D01*
X186015529Y-84618446D01*
X186016065Y-84596517D01*
X186017074Y-84555221D01*
X186017074Y-84555217D01*
X186017156Y-84551856D01*
X185998852Y-84329217D01*
X185944431Y-84112558D01*
X185855354Y-83907696D01*
X185774540Y-83782777D01*
X185736822Y-83724473D01*
X185736820Y-83724470D01*
X185734014Y-83720133D01*
X185583670Y-83554907D01*
X185579619Y-83551708D01*
X185579615Y-83551704D01*
X185412414Y-83419656D01*
X185412410Y-83419654D01*
X185408359Y-83416454D01*
X185367053Y-83393652D01*
X185317084Y-83343220D01*
X185302312Y-83273777D01*
X185327428Y-83207372D01*
X185354780Y-83180765D01*
X185398603Y-83149506D01*
X185533860Y-83053029D01*
X185539721Y-83047189D01*
X185650908Y-82936389D01*
X185692096Y-82895345D01*
X185751594Y-82812545D01*
X185819435Y-82718133D01*
X185822453Y-82713933D01*
X185828171Y-82702365D01*
X185919136Y-82518309D01*
X185919137Y-82518307D01*
X185921430Y-82513667D01*
X185986370Y-82299925D01*
X186015529Y-82078446D01*
X186017156Y-82011856D01*
X185998852Y-81789217D01*
X185944431Y-81572558D01*
X185855354Y-81367696D01*
X185756767Y-81215303D01*
X185736822Y-81184473D01*
X185736820Y-81184470D01*
X185734014Y-81180133D01*
X185583670Y-81014907D01*
X185579619Y-81011708D01*
X185579615Y-81011704D01*
X185412414Y-80879656D01*
X185412410Y-80879654D01*
X185408359Y-80876454D01*
X185367053Y-80853652D01*
X185317084Y-80803220D01*
X185302312Y-80733777D01*
X185327428Y-80667372D01*
X185354780Y-80640765D01*
X185398603Y-80609506D01*
X185533860Y-80513029D01*
X185692096Y-80355345D01*
X185713326Y-80325801D01*
X185819435Y-80178133D01*
X185822453Y-80173933D01*
X185836243Y-80146032D01*
X185919136Y-79978309D01*
X185919137Y-79978307D01*
X185921430Y-79973667D01*
X185986370Y-79759925D01*
X186015529Y-79538446D01*
X186017156Y-79471856D01*
X185998852Y-79249217D01*
X185944431Y-79032558D01*
X185855354Y-78827696D01*
X185802209Y-78745547D01*
X185736822Y-78644473D01*
X185736820Y-78644470D01*
X185734014Y-78640133D01*
X185583670Y-78474907D01*
X185579619Y-78471708D01*
X185579615Y-78471704D01*
X185412414Y-78339656D01*
X185412410Y-78339654D01*
X185408359Y-78336454D01*
X185367053Y-78313652D01*
X185317084Y-78263220D01*
X185302312Y-78193777D01*
X185327428Y-78127372D01*
X185354780Y-78100765D01*
X185398603Y-78069506D01*
X185533860Y-77973029D01*
X185692096Y-77815345D01*
X185697261Y-77808158D01*
X185819435Y-77638133D01*
X185822453Y-77633933D01*
X185838483Y-77601500D01*
X185919136Y-77438309D01*
X185919137Y-77438307D01*
X185921430Y-77433667D01*
X185953900Y-77326796D01*
X185984865Y-77224879D01*
X185984865Y-77224877D01*
X185986370Y-77219925D01*
X186015529Y-76998446D01*
X186016039Y-76977560D01*
X186017074Y-76935221D01*
X186017074Y-76935217D01*
X186017156Y-76931856D01*
X185998852Y-76709217D01*
X185944431Y-76492558D01*
X185855354Y-76287696D01*
X185748699Y-76122832D01*
X185736822Y-76104473D01*
X185736820Y-76104470D01*
X185734014Y-76100133D01*
X185583670Y-75934907D01*
X185579619Y-75931708D01*
X185579615Y-75931704D01*
X185412414Y-75799656D01*
X185412410Y-75799654D01*
X185408359Y-75796454D01*
X185367053Y-75773652D01*
X185317084Y-75723220D01*
X185302312Y-75653777D01*
X185327428Y-75587372D01*
X185354780Y-75560765D01*
X185399913Y-75528572D01*
X185533860Y-75433029D01*
X185551196Y-75415754D01*
X185688435Y-75278993D01*
X185692096Y-75275345D01*
X185751594Y-75192545D01*
X185819435Y-75098133D01*
X185822453Y-75093933D01*
X185827805Y-75083105D01*
X185919136Y-74898309D01*
X185919137Y-74898307D01*
X185921430Y-74893667D01*
X185958575Y-74771408D01*
X185984865Y-74684879D01*
X185984865Y-74684877D01*
X185986370Y-74679925D01*
X186015529Y-74458446D01*
X186015768Y-74448665D01*
X186017074Y-74395221D01*
X186017074Y-74395217D01*
X186017156Y-74391856D01*
X185998852Y-74169217D01*
X185944431Y-73952558D01*
X185855354Y-73747696D01*
X185783419Y-73636502D01*
X185736822Y-73564473D01*
X185736820Y-73564470D01*
X185734014Y-73560133D01*
X185583670Y-73394907D01*
X185579619Y-73391708D01*
X185579615Y-73391704D01*
X185412414Y-73259656D01*
X185412410Y-73259654D01*
X185408359Y-73256454D01*
X185367053Y-73233652D01*
X185317084Y-73183220D01*
X185302312Y-73113777D01*
X185327428Y-73047372D01*
X185354780Y-73020765D01*
X185399407Y-72988933D01*
X185533860Y-72893029D01*
X185574396Y-72852635D01*
X185665478Y-72761870D01*
X185692096Y-72735345D01*
X185751594Y-72652545D01*
X185819435Y-72558133D01*
X185822453Y-72553933D01*
X185832952Y-72532691D01*
X185919136Y-72358309D01*
X185919137Y-72358307D01*
X185921430Y-72353667D01*
X185957771Y-72234055D01*
X185984865Y-72144879D01*
X185984865Y-72144877D01*
X185986370Y-72139925D01*
X186015529Y-71918446D01*
X186015768Y-71908665D01*
X186017074Y-71855221D01*
X186017074Y-71855217D01*
X186017156Y-71851856D01*
X185998852Y-71629217D01*
X185944431Y-71412558D01*
X185855354Y-71207696D01*
X185771450Y-71078000D01*
X185736822Y-71024473D01*
X185736820Y-71024470D01*
X185734014Y-71020133D01*
X185715519Y-70999807D01*
X185586798Y-70858344D01*
X185555746Y-70794498D01*
X185564141Y-70723999D01*
X185609317Y-70669231D01*
X185635761Y-70655562D01*
X185742297Y-70615623D01*
X185750705Y-70612471D01*
X185867261Y-70525117D01*
X185954615Y-70408561D01*
X186005745Y-70272172D01*
X186012500Y-70209990D01*
X186012500Y-68413722D01*
X186005745Y-68351540D01*
X185954615Y-68215151D01*
X185867261Y-68098595D01*
X185750705Y-68011241D01*
X185614316Y-67960111D01*
X185552134Y-67953356D01*
X183755866Y-67953356D01*
X183693684Y-67960111D01*
X183557295Y-68011241D01*
X183440739Y-68098595D01*
X183353385Y-68215151D01*
X183302255Y-68351540D01*
X183295500Y-68413722D01*
X183295500Y-70209990D01*
X183302255Y-70272172D01*
X183353385Y-70408561D01*
X183440739Y-70525117D01*
X183557295Y-70612471D01*
X183565704Y-70615623D01*
X183565705Y-70615624D01*
X183674451Y-70656391D01*
X183731216Y-70699032D01*
X183755916Y-70765594D01*
X183740709Y-70834943D01*
X183721316Y-70861424D01*
X183594629Y-70993994D01*
X183591715Y-70998266D01*
X183591714Y-70998267D01*
X183557262Y-71048772D01*
X183468743Y-71178536D01*
X183430081Y-71261826D01*
X183386368Y-71355999D01*
X183374688Y-71381161D01*
X183314989Y-71596426D01*
X183291251Y-71818551D01*
X183291548Y-71823704D01*
X183291548Y-71823707D01*
X183302457Y-72012902D01*
X183304110Y-72041571D01*
X183305247Y-72046617D01*
X183305248Y-72046623D01*
X183323825Y-72129051D01*
X183353222Y-72259495D01*
X183399392Y-72373198D01*
X183420911Y-72426193D01*
X183437266Y-72466472D01*
X183455298Y-72495897D01*
X183533064Y-72622800D01*
X183553987Y-72656944D01*
X183700250Y-72825794D01*
X183872126Y-72968488D01*
X183907114Y-72988933D01*
X183945445Y-73011332D01*
X183994169Y-73062970D01*
X184007240Y-73132753D01*
X183980509Y-73198525D01*
X183940055Y-73231883D01*
X183927607Y-73238363D01*
X183923474Y-73241466D01*
X183923471Y-73241468D01*
X183753100Y-73369386D01*
X183748965Y-73372491D01*
X183594629Y-73533994D01*
X183591715Y-73538266D01*
X183591714Y-73538267D01*
X183589750Y-73541146D01*
X183468743Y-73718536D01*
X183441668Y-73776865D01*
X183387581Y-73893386D01*
X183374688Y-73921161D01*
X183314989Y-74136426D01*
X183291251Y-74358551D01*
X183291548Y-74363704D01*
X183291548Y-74363707D01*
X183302434Y-74552509D01*
X183304110Y-74581571D01*
X183305247Y-74586617D01*
X183305248Y-74586623D01*
X183324346Y-74671365D01*
X183353222Y-74799495D01*
X183399392Y-74913198D01*
X183420911Y-74966193D01*
X183437266Y-75006472D01*
X183454927Y-75035292D01*
X183534547Y-75165220D01*
X183553987Y-75196944D01*
X183700250Y-75365794D01*
X183872126Y-75508488D01*
X183906496Y-75528572D01*
X183945445Y-75551332D01*
X183994169Y-75602970D01*
X184007240Y-75672753D01*
X183980509Y-75738525D01*
X183940055Y-75771883D01*
X183927607Y-75778363D01*
X183923474Y-75781466D01*
X183923471Y-75781468D01*
X183753100Y-75909386D01*
X183748965Y-75912491D01*
X183594629Y-76073994D01*
X183591715Y-76078266D01*
X183591714Y-76078267D01*
X183541698Y-76151588D01*
X183468743Y-76258536D01*
X183434033Y-76333312D01*
X183401100Y-76404262D01*
X183374688Y-76461161D01*
X183314989Y-76676426D01*
X183291251Y-76898551D01*
X183291548Y-76903704D01*
X183291548Y-76903707D01*
X183302653Y-77096307D01*
X183304110Y-77121571D01*
X183305247Y-77126617D01*
X183305248Y-77126623D01*
X183324346Y-77211365D01*
X183353222Y-77339495D01*
X183399412Y-77453248D01*
X183420911Y-77506193D01*
X183437266Y-77546472D01*
X183453209Y-77572489D01*
X183500340Y-77649399D01*
X183553987Y-77736944D01*
X183700250Y-77905794D01*
X183872126Y-78048488D01*
X183942595Y-78089667D01*
X183945445Y-78091332D01*
X183994169Y-78142970D01*
X184007240Y-78212753D01*
X183980509Y-78278525D01*
X183940055Y-78311883D01*
X183927607Y-78318363D01*
X183923474Y-78321466D01*
X183923471Y-78321468D01*
X183753476Y-78449104D01*
X183748965Y-78452491D01*
X183745393Y-78456229D01*
X183608549Y-78599428D01*
X183594629Y-78613994D01*
X183591715Y-78618266D01*
X183591714Y-78618267D01*
X183566542Y-78655168D01*
X183468743Y-78798536D01*
X183435078Y-78871061D01*
X183399038Y-78948704D01*
X183374688Y-79001161D01*
X183314989Y-79216426D01*
X183291251Y-79438551D01*
X183291548Y-79443704D01*
X183291548Y-79443707D01*
X183301102Y-79609400D01*
X183304110Y-79661571D01*
X183305247Y-79666617D01*
X183305248Y-79666623D01*
X183317149Y-79719429D01*
X183353222Y-79879495D01*
X183437266Y-80086472D01*
X183458560Y-80121221D01*
X183538228Y-80251227D01*
X183553987Y-80276944D01*
X183700250Y-80445794D01*
X183872126Y-80588488D01*
X183942595Y-80629667D01*
X183945445Y-80631332D01*
X183994169Y-80682970D01*
X184007240Y-80752753D01*
X183980509Y-80818525D01*
X183940055Y-80851883D01*
X183927607Y-80858363D01*
X183923474Y-80861466D01*
X183923471Y-80861468D01*
X183817005Y-80941405D01*
X183748965Y-80992491D01*
X183594629Y-81153994D01*
X183468743Y-81338536D01*
X183453003Y-81372446D01*
X183393719Y-81500163D01*
X183374688Y-81541161D01*
X183314989Y-81756426D01*
X183291251Y-81978551D01*
X183291548Y-81983704D01*
X183291548Y-81983707D01*
X183299488Y-82121407D01*
X183304110Y-82201571D01*
X183305247Y-82206617D01*
X183305248Y-82206623D01*
X183327392Y-82304879D01*
X183353222Y-82419495D01*
X183437266Y-82626472D01*
X183482921Y-82700975D01*
X183548873Y-82808598D01*
X183553987Y-82816944D01*
X183700250Y-82985794D01*
X183872126Y-83128488D01*
X183916524Y-83154432D01*
X183945445Y-83171332D01*
X183994169Y-83222970D01*
X184007240Y-83292753D01*
X183980509Y-83358525D01*
X183940055Y-83391883D01*
X183927607Y-83398363D01*
X183923477Y-83401464D01*
X183923471Y-83401468D01*
X183753376Y-83529179D01*
X183748965Y-83532491D01*
X183594629Y-83693994D01*
X183591715Y-83698266D01*
X183591714Y-83698267D01*
X183573838Y-83724473D01*
X183468743Y-83878536D01*
X183453003Y-83912446D01*
X183379216Y-84071407D01*
X183374688Y-84081161D01*
X183314989Y-84296426D01*
X183291251Y-84518551D01*
X183291548Y-84523704D01*
X183291548Y-84523707D01*
X183300545Y-84679746D01*
X183304110Y-84741571D01*
X183305247Y-84746617D01*
X183305248Y-84746623D01*
X183309238Y-84764327D01*
X183353222Y-84959495D01*
X183437266Y-85166472D01*
X183553987Y-85356944D01*
X183700250Y-85525794D01*
X183872126Y-85668488D01*
X183888173Y-85677865D01*
X183945445Y-85711332D01*
X183994169Y-85762970D01*
X184007240Y-85832753D01*
X183980509Y-85898525D01*
X183940055Y-85931883D01*
X183927607Y-85938363D01*
X183923474Y-85941466D01*
X183923471Y-85941468D01*
X183753100Y-86069386D01*
X183748965Y-86072491D01*
X183745393Y-86076229D01*
X183631894Y-86194999D01*
X183594629Y-86233994D01*
X183468743Y-86418536D01*
X183432610Y-86496379D01*
X183392934Y-86581854D01*
X183374688Y-86621161D01*
X183314989Y-86836426D01*
X183291251Y-87058551D01*
X163031500Y-87058551D01*
X163031500Y-82907930D01*
X163031792Y-82899360D01*
X163034925Y-82853410D01*
X163034925Y-82853406D01*
X163035441Y-82845834D01*
X163030140Y-82815457D01*
X163025233Y-82787344D01*
X163024270Y-82780818D01*
X163018050Y-82729415D01*
X163018049Y-82729412D01*
X163017137Y-82721873D01*
X163014451Y-82714765D01*
X163012740Y-82707799D01*
X163011321Y-82702610D01*
X163009244Y-82695731D01*
X163007939Y-82688254D01*
X162984076Y-82633893D01*
X162981585Y-82627789D01*
X162981088Y-82626472D01*
X162960594Y-82572237D01*
X162956294Y-82565980D01*
X162952960Y-82559603D01*
X162950360Y-82554933D01*
X162946695Y-82548736D01*
X162943642Y-82541781D01*
X162918268Y-82508713D01*
X162907494Y-82494673D01*
X162903616Y-82489335D01*
X162874291Y-82446666D01*
X162874289Y-82446664D01*
X162869989Y-82440407D01*
X162826790Y-82401918D01*
X162821514Y-82396938D01*
X162259171Y-81834595D01*
X162225146Y-81772283D01*
X162230210Y-81701468D01*
X162272757Y-81644632D01*
X162339277Y-81619821D01*
X162348266Y-81619500D01*
X163631624Y-81619500D01*
X163650574Y-81620933D01*
X163664973Y-81623124D01*
X163664979Y-81623124D01*
X163672208Y-81624224D01*
X163679500Y-81623631D01*
X163679503Y-81623631D01*
X163725183Y-81619915D01*
X163735398Y-81619500D01*
X163743525Y-81619500D01*
X163747161Y-81619076D01*
X163747163Y-81619076D01*
X163750615Y-81618673D01*
X163771924Y-81616189D01*
X163776244Y-81615762D01*
X163849426Y-81609809D01*
X163856388Y-81607553D01*
X163862376Y-81606357D01*
X163868333Y-81604949D01*
X163875607Y-81604101D01*
X163882489Y-81601603D01*
X163882493Y-81601602D01*
X163944607Y-81579055D01*
X163948711Y-81577645D01*
X164018575Y-81555013D01*
X164024838Y-81551213D01*
X164030380Y-81548675D01*
X164035856Y-81545933D01*
X164042741Y-81543434D01*
X164104132Y-81503185D01*
X164107800Y-81500870D01*
X164170581Y-81462773D01*
X164174786Y-81459059D01*
X164174789Y-81459057D01*
X164179005Y-81455333D01*
X164179031Y-81455362D01*
X164181962Y-81452762D01*
X164185316Y-81449958D01*
X164191435Y-81445946D01*
X164244989Y-81389413D01*
X164247366Y-81386972D01*
X165841528Y-79792810D01*
X165855941Y-79780423D01*
X165867665Y-79771795D01*
X165873564Y-79767454D01*
X165907979Y-79726945D01*
X165914909Y-79719429D01*
X165920653Y-79713685D01*
X165922927Y-79710811D01*
X165922933Y-79710804D01*
X165938372Y-79691289D01*
X165941163Y-79687885D01*
X165983945Y-79637528D01*
X165983948Y-79637524D01*
X165988684Y-79631949D01*
X165992012Y-79625432D01*
X165995389Y-79620368D01*
X165998616Y-79615144D01*
X166003160Y-79609400D01*
X166034242Y-79542896D01*
X166036147Y-79538999D01*
X166069543Y-79473596D01*
X166071284Y-79466482D01*
X166073416Y-79460748D01*
X166075344Y-79454952D01*
X166078444Y-79448320D01*
X166093395Y-79376440D01*
X166094365Y-79372156D01*
X166110469Y-79306342D01*
X166111804Y-79300888D01*
X166112500Y-79289670D01*
X166112537Y-79289672D01*
X166112773Y-79285773D01*
X166113163Y-79281402D01*
X166114652Y-79274243D01*
X166112546Y-79196423D01*
X166112500Y-79193014D01*
X166112500Y-78675198D01*
X166132502Y-78607077D01*
X166186158Y-78560584D01*
X166256432Y-78550480D01*
X166321012Y-78579974D01*
X166346952Y-78611057D01*
X166347907Y-78612672D01*
X166357551Y-78625104D01*
X166463896Y-78731449D01*
X166476322Y-78741089D01*
X166605779Y-78817648D01*
X166620210Y-78823893D01*
X166766065Y-78866269D01*
X166778667Y-78868570D01*
X166807084Y-78870807D01*
X166812014Y-78871000D01*
X167428885Y-78871000D01*
X167444124Y-78866525D01*
X167445329Y-78865135D01*
X167447000Y-78857452D01*
X167447000Y-78852884D01*
X167955000Y-78852884D01*
X167959475Y-78868123D01*
X167960865Y-78869328D01*
X167968548Y-78870999D01*
X168589984Y-78870999D01*
X168594920Y-78870805D01*
X168623336Y-78868570D01*
X168635931Y-78866270D01*
X168781790Y-78823893D01*
X168796221Y-78817648D01*
X168925678Y-78741089D01*
X168938104Y-78731449D01*
X169044449Y-78625104D01*
X169054089Y-78612678D01*
X169130648Y-78483221D01*
X169136893Y-78468790D01*
X169175939Y-78334395D01*
X169175899Y-78320294D01*
X169168630Y-78317000D01*
X167973115Y-78317000D01*
X167957876Y-78321475D01*
X167956671Y-78322865D01*
X167955000Y-78330548D01*
X167955000Y-78852884D01*
X167447000Y-78852884D01*
X167447000Y-77935000D01*
X167467002Y-77866879D01*
X167520658Y-77820386D01*
X167573000Y-77809000D01*
X169162878Y-77809000D01*
X169176409Y-77805027D01*
X169177544Y-77797129D01*
X169136893Y-77657210D01*
X169130648Y-77642779D01*
X169054089Y-77513323D01*
X169048129Y-77505640D01*
X169022180Y-77439556D01*
X169036078Y-77369933D01*
X169046421Y-77353839D01*
X169050453Y-77349807D01*
X169128261Y-77218240D01*
X169147619Y-77193285D01*
X170952405Y-75388499D01*
X171014717Y-75354473D01*
X171085532Y-75359538D01*
X171142368Y-75402085D01*
X171167179Y-75468605D01*
X171167500Y-75477594D01*
X171167500Y-75739502D01*
X171167693Y-75741950D01*
X171167693Y-75741958D01*
X171169793Y-75768631D01*
X171170438Y-75776831D01*
X171216855Y-75936601D01*
X171301547Y-76079807D01*
X171304229Y-76082489D01*
X171329502Y-76146861D01*
X171315600Y-76216484D01*
X171305428Y-76232312D01*
X171301547Y-76236193D01*
X171216855Y-76379399D01*
X171214644Y-76387010D01*
X171214643Y-76387012D01*
X171209632Y-76404262D01*
X171170438Y-76539169D01*
X171169934Y-76545574D01*
X171169933Y-76545579D01*
X171167693Y-76574042D01*
X171167500Y-76576498D01*
X171167500Y-77009502D01*
X171167693Y-77011950D01*
X171167693Y-77011958D01*
X171169194Y-77031020D01*
X171170438Y-77046831D01*
X171197736Y-77140791D01*
X171212943Y-77193134D01*
X171216855Y-77206601D01*
X171301547Y-77349807D01*
X171304229Y-77352489D01*
X171329502Y-77416861D01*
X171315600Y-77486484D01*
X171305428Y-77502312D01*
X171301547Y-77506193D01*
X171216855Y-77649399D01*
X171214644Y-77657010D01*
X171214643Y-77657012D01*
X171199472Y-77709231D01*
X171170438Y-77809169D01*
X171169934Y-77815574D01*
X171169933Y-77815579D01*
X171169555Y-77820386D01*
X171167500Y-77846498D01*
X171167500Y-78279502D01*
X171167693Y-78281950D01*
X171167693Y-78281958D01*
X171169342Y-78302900D01*
X171170438Y-78316831D01*
X171183113Y-78360458D01*
X171214586Y-78468790D01*
X171216855Y-78476601D01*
X171220892Y-78483427D01*
X171297509Y-78612980D01*
X171297511Y-78612983D01*
X171301547Y-78619807D01*
X171419193Y-78737453D01*
X171426017Y-78741489D01*
X171426020Y-78741491D01*
X171510086Y-78791207D01*
X171562399Y-78822145D01*
X171570010Y-78824356D01*
X171570012Y-78824357D01*
X171616876Y-78837972D01*
X171722169Y-78868562D01*
X171728574Y-78869066D01*
X171728579Y-78869067D01*
X171757042Y-78871307D01*
X171757050Y-78871307D01*
X171759498Y-78871500D01*
X173443445Y-78871500D01*
X173511566Y-78891502D01*
X173558059Y-78945158D01*
X173567319Y-78974453D01*
X174485132Y-83907696D01*
X174504798Y-84013403D01*
X174505232Y-84015869D01*
X174515265Y-84076466D01*
X174517081Y-84087437D01*
X174528162Y-84112558D01*
X174533150Y-84123867D01*
X174537875Y-84136324D01*
X174550005Y-84174242D01*
X174554223Y-84180955D01*
X174563127Y-84195128D01*
X174571718Y-84211307D01*
X174578477Y-84226630D01*
X174581677Y-84233884D01*
X174606305Y-84265179D01*
X174613972Y-84276061D01*
X174630933Y-84303058D01*
X174630936Y-84303061D01*
X174635153Y-84309774D01*
X174653064Y-84326748D01*
X174665405Y-84340278D01*
X174680662Y-84359665D01*
X174712295Y-84383849D01*
X174722430Y-84392485D01*
X174745574Y-84414417D01*
X174745577Y-84414419D01*
X174751331Y-84419872D01*
X174772901Y-84431858D01*
X174788215Y-84441891D01*
X174807817Y-84456877D01*
X174815111Y-84459973D01*
X174815113Y-84459974D01*
X174844465Y-84472432D01*
X174856439Y-84478280D01*
X174891240Y-84497619D01*
X174898907Y-84499625D01*
X174898910Y-84499626D01*
X174915111Y-84503864D01*
X174932445Y-84509775D01*
X175188476Y-84618446D01*
X175226813Y-84634718D01*
X175281704Y-84679746D01*
X175302357Y-84733165D01*
X175302812Y-84736401D01*
X175303110Y-84741571D01*
X175352222Y-84959495D01*
X175436266Y-85166472D01*
X175552987Y-85356944D01*
X175699250Y-85525794D01*
X175871126Y-85668488D01*
X176064000Y-85781194D01*
X176272692Y-85860886D01*
X176277760Y-85861917D01*
X176277763Y-85861918D01*
X176372371Y-85881166D01*
X176491597Y-85905423D01*
X176496772Y-85905613D01*
X176496774Y-85905613D01*
X176709673Y-85913420D01*
X176709677Y-85913420D01*
X176714837Y-85913609D01*
X176719957Y-85912953D01*
X176719959Y-85912953D01*
X176931288Y-85885881D01*
X176931289Y-85885881D01*
X176936416Y-85885224D01*
X176977094Y-85873020D01*
X177145429Y-85822517D01*
X177145434Y-85822515D01*
X177150384Y-85821030D01*
X177350994Y-85722752D01*
X177532860Y-85593029D01*
X177691096Y-85435345D01*
X177750594Y-85352545D01*
X177818435Y-85258133D01*
X177821453Y-85253933D01*
X177920430Y-85053667D01*
X177985370Y-84839925D01*
X178014529Y-84618446D01*
X178015065Y-84596517D01*
X178016074Y-84555221D01*
X178016074Y-84555217D01*
X178016156Y-84551856D01*
X177997852Y-84329217D01*
X177943431Y-84112558D01*
X177854354Y-83907696D01*
X177773540Y-83782777D01*
X177735822Y-83724473D01*
X177735820Y-83724470D01*
X177733014Y-83720133D01*
X177582670Y-83554907D01*
X177578619Y-83551708D01*
X177578615Y-83551704D01*
X177411414Y-83419656D01*
X177411410Y-83419654D01*
X177407359Y-83416454D01*
X177366053Y-83393652D01*
X177316084Y-83343220D01*
X177301312Y-83273777D01*
X177326428Y-83207372D01*
X177353780Y-83180765D01*
X177397603Y-83149506D01*
X177532860Y-83053029D01*
X177538721Y-83047189D01*
X177649908Y-82936389D01*
X177691096Y-82895345D01*
X177750594Y-82812545D01*
X177818435Y-82718133D01*
X177821453Y-82713933D01*
X177827171Y-82702365D01*
X177918136Y-82518309D01*
X177918137Y-82518307D01*
X177920430Y-82513667D01*
X177985370Y-82299925D01*
X178014529Y-82078446D01*
X178016156Y-82011856D01*
X177997852Y-81789217D01*
X177943431Y-81572558D01*
X177854354Y-81367696D01*
X177755767Y-81215303D01*
X177735822Y-81184473D01*
X177735820Y-81184470D01*
X177733014Y-81180133D01*
X177582670Y-81014907D01*
X177578619Y-81011708D01*
X177578615Y-81011704D01*
X177411414Y-80879656D01*
X177411410Y-80879654D01*
X177407359Y-80876454D01*
X177366053Y-80853652D01*
X177316084Y-80803220D01*
X177301312Y-80733777D01*
X177326428Y-80667372D01*
X177353780Y-80640765D01*
X177397603Y-80609506D01*
X177532860Y-80513029D01*
X177691096Y-80355345D01*
X177712326Y-80325801D01*
X177818435Y-80178133D01*
X177821453Y-80173933D01*
X177835243Y-80146032D01*
X177918136Y-79978309D01*
X177918137Y-79978307D01*
X177920430Y-79973667D01*
X177985370Y-79759925D01*
X178014529Y-79538446D01*
X178016156Y-79471856D01*
X177997852Y-79249217D01*
X177943431Y-79032558D01*
X177854354Y-78827696D01*
X177801209Y-78745547D01*
X177735822Y-78644473D01*
X177735820Y-78644470D01*
X177733014Y-78640133D01*
X177582670Y-78474907D01*
X177578619Y-78471708D01*
X177578615Y-78471704D01*
X177411414Y-78339656D01*
X177411410Y-78339654D01*
X177407359Y-78336454D01*
X177366053Y-78313652D01*
X177316084Y-78263220D01*
X177301312Y-78193777D01*
X177326428Y-78127372D01*
X177353780Y-78100765D01*
X177397603Y-78069506D01*
X177532860Y-77973029D01*
X177691096Y-77815345D01*
X177696261Y-77808158D01*
X177818435Y-77638133D01*
X177821453Y-77633933D01*
X177837483Y-77601500D01*
X177918136Y-77438309D01*
X177918137Y-77438307D01*
X177920430Y-77433667D01*
X177952900Y-77326796D01*
X177983865Y-77224879D01*
X177983865Y-77224877D01*
X177985370Y-77219925D01*
X178014529Y-76998446D01*
X178015039Y-76977560D01*
X178016074Y-76935221D01*
X178016074Y-76935217D01*
X178016156Y-76931856D01*
X177997852Y-76709217D01*
X177943431Y-76492558D01*
X177854354Y-76287696D01*
X177747699Y-76122832D01*
X177735822Y-76104473D01*
X177735820Y-76104470D01*
X177733014Y-76100133D01*
X177582670Y-75934907D01*
X177578619Y-75931708D01*
X177578615Y-75931704D01*
X177411414Y-75799656D01*
X177411410Y-75799654D01*
X177407359Y-75796454D01*
X177366053Y-75773652D01*
X177316084Y-75723220D01*
X177301312Y-75653777D01*
X177326428Y-75587372D01*
X177353780Y-75560765D01*
X177398913Y-75528572D01*
X177532860Y-75433029D01*
X177550196Y-75415754D01*
X177687435Y-75278993D01*
X177691096Y-75275345D01*
X177750594Y-75192545D01*
X177818435Y-75098133D01*
X177821453Y-75093933D01*
X177826805Y-75083105D01*
X177918136Y-74898309D01*
X177918137Y-74898307D01*
X177920430Y-74893667D01*
X177957575Y-74771408D01*
X177983865Y-74684879D01*
X177983865Y-74684877D01*
X177985370Y-74679925D01*
X178014529Y-74458446D01*
X178014768Y-74448665D01*
X178016074Y-74395221D01*
X178016074Y-74395217D01*
X178016156Y-74391856D01*
X177997852Y-74169217D01*
X177943431Y-73952558D01*
X177854354Y-73747696D01*
X177782419Y-73636502D01*
X177735822Y-73564473D01*
X177735820Y-73564470D01*
X177733014Y-73560133D01*
X177582670Y-73394907D01*
X177578619Y-73391708D01*
X177578615Y-73391704D01*
X177411414Y-73259656D01*
X177411410Y-73259654D01*
X177407359Y-73256454D01*
X177366053Y-73233652D01*
X177316084Y-73183220D01*
X177301312Y-73113777D01*
X177326428Y-73047372D01*
X177353780Y-73020765D01*
X177398407Y-72988933D01*
X177532860Y-72893029D01*
X177573396Y-72852635D01*
X177664478Y-72761870D01*
X177691096Y-72735345D01*
X177750594Y-72652545D01*
X177818435Y-72558133D01*
X177821453Y-72553933D01*
X177831952Y-72532691D01*
X177918136Y-72358309D01*
X177918137Y-72358307D01*
X177920430Y-72353667D01*
X177956771Y-72234055D01*
X177983865Y-72144879D01*
X177983865Y-72144877D01*
X177985370Y-72139925D01*
X178014529Y-71918446D01*
X178014768Y-71908665D01*
X178016074Y-71855221D01*
X178016074Y-71855217D01*
X178016156Y-71851856D01*
X177997852Y-71629217D01*
X177943431Y-71412558D01*
X177854354Y-71207696D01*
X177770450Y-71078000D01*
X177735822Y-71024473D01*
X177735820Y-71024470D01*
X177733014Y-71020133D01*
X177582670Y-70854907D01*
X177578619Y-70851708D01*
X177578615Y-70851704D01*
X177411414Y-70719656D01*
X177411410Y-70719654D01*
X177407359Y-70716454D01*
X177366053Y-70693652D01*
X177316084Y-70643220D01*
X177301312Y-70573777D01*
X177326428Y-70507372D01*
X177353780Y-70480765D01*
X177447388Y-70413995D01*
X177532860Y-70353029D01*
X177573396Y-70312635D01*
X177664478Y-70221870D01*
X177691096Y-70195345D01*
X177781772Y-70069156D01*
X177818435Y-70018133D01*
X177821453Y-70013933D01*
X177831952Y-69992691D01*
X177918136Y-69818309D01*
X177918137Y-69818307D01*
X177920430Y-69813667D01*
X177956771Y-69694055D01*
X177983865Y-69604879D01*
X177983865Y-69604877D01*
X177985370Y-69599925D01*
X178014529Y-69378446D01*
X178014768Y-69368665D01*
X178016074Y-69315221D01*
X178016074Y-69315217D01*
X178016156Y-69311856D01*
X177997852Y-69089217D01*
X177943431Y-68872558D01*
X177854354Y-68667696D01*
X177744927Y-68498547D01*
X177735822Y-68484473D01*
X177735820Y-68484470D01*
X177733014Y-68480133D01*
X177729532Y-68476306D01*
X177585798Y-68318344D01*
X177554746Y-68254498D01*
X177563141Y-68183999D01*
X177608317Y-68129231D01*
X177634761Y-68115562D01*
X177741297Y-68075623D01*
X177749705Y-68072471D01*
X177866261Y-67985117D01*
X177953615Y-67868561D01*
X178004745Y-67732172D01*
X178011500Y-67669990D01*
X178011500Y-65873722D01*
X178004745Y-65811540D01*
X177953615Y-65675151D01*
X177866261Y-65558595D01*
X177749705Y-65471241D01*
X177613316Y-65420111D01*
X177551134Y-65413356D01*
X175754866Y-65413356D01*
X175692684Y-65420111D01*
X175556295Y-65471241D01*
X175439739Y-65558595D01*
X175352385Y-65675151D01*
X175301255Y-65811540D01*
X175294500Y-65873722D01*
X175294500Y-66012356D01*
X175274498Y-66080477D01*
X175220842Y-66126970D01*
X175168500Y-66138356D01*
X175130907Y-66138356D01*
X175119723Y-66137829D01*
X175112235Y-66136155D01*
X175104312Y-66136404D01*
X175044177Y-66138294D01*
X175040219Y-66138356D01*
X175012288Y-66138356D01*
X175008373Y-66138851D01*
X175008369Y-66138851D01*
X175008311Y-66138859D01*
X175008282Y-66138862D01*
X174996440Y-66139795D01*
X174952254Y-66141183D01*
X174938038Y-66145313D01*
X174932802Y-66146834D01*
X174913450Y-66150842D01*
X174901212Y-66152388D01*
X174901210Y-66152389D01*
X174893347Y-66153382D01*
X174852230Y-66169662D01*
X174841029Y-66173497D01*
X174798550Y-66185838D01*
X174791731Y-66189871D01*
X174791726Y-66189873D01*
X174781115Y-66196149D01*
X174763365Y-66204846D01*
X174744527Y-66212304D01*
X174738111Y-66216965D01*
X174738110Y-66216966D01*
X174708769Y-66238284D01*
X174698845Y-66244803D01*
X174667604Y-66263278D01*
X174667599Y-66263282D01*
X174660781Y-66267314D01*
X174646457Y-66281638D01*
X174631425Y-66294477D01*
X174615037Y-66306384D01*
X174586856Y-66340449D01*
X174578866Y-66349229D01*
X172600500Y-68327595D01*
X172538188Y-68361621D01*
X172511405Y-68364500D01*
X171824500Y-68364500D01*
X171756379Y-68344498D01*
X171709886Y-68290842D01*
X171698500Y-68238500D01*
X171698500Y-67201594D01*
X171718502Y-67133473D01*
X171735405Y-67112499D01*
X176243500Y-62604405D01*
X176305812Y-62570379D01*
X176332595Y-62567500D01*
X177844233Y-62567500D01*
X177855416Y-62568027D01*
X177862909Y-62569702D01*
X177870835Y-62569453D01*
X177870836Y-62569453D01*
X177930986Y-62567562D01*
X177934945Y-62567500D01*
X177962856Y-62567500D01*
X177966791Y-62567003D01*
X177966856Y-62566995D01*
X177978693Y-62566062D01*
X178011693Y-62565025D01*
X178014970Y-62564922D01*
X178022889Y-62564673D01*
X178042343Y-62559021D01*
X178061700Y-62555013D01*
X178073930Y-62553468D01*
X178073931Y-62553468D01*
X178081797Y-62552474D01*
X178089168Y-62549555D01*
X178089170Y-62549555D01*
X178122912Y-62536196D01*
X178134142Y-62532351D01*
X178168983Y-62522229D01*
X178168984Y-62522229D01*
X178176593Y-62520018D01*
X178183412Y-62515985D01*
X178183417Y-62515983D01*
X178194028Y-62509707D01*
X178211776Y-62501012D01*
X178230617Y-62493552D01*
X178240207Y-62486585D01*
X178266387Y-62467564D01*
X178276307Y-62461048D01*
X178307535Y-62442580D01*
X178307538Y-62442578D01*
X178314362Y-62438542D01*
X178328683Y-62424221D01*
X178343717Y-62411380D01*
X178360107Y-62399472D01*
X178388298Y-62365395D01*
X178396288Y-62356616D01*
X179330499Y-61422405D01*
X179392811Y-61388379D01*
X179419594Y-61385500D01*
X180605400Y-61385500D01*
X180608646Y-61385163D01*
X180608650Y-61385163D01*
X180704308Y-61375238D01*
X180704312Y-61375237D01*
X180711166Y-61374526D01*
X180717702Y-61372345D01*
X180717704Y-61372345D01*
X180871998Y-61320868D01*
X180878946Y-61318550D01*
X181029348Y-61225478D01*
X181154305Y-61100303D01*
X181158146Y-61094072D01*
X181243275Y-60955968D01*
X181243276Y-60955966D01*
X181247115Y-60949738D01*
X181298594Y-60794532D01*
X181300632Y-60788389D01*
X181300632Y-60788387D01*
X181302797Y-60781861D01*
X181313500Y-60677400D01*
X181313500Y-59126600D01*
X181313163Y-59123350D01*
X181303238Y-59027692D01*
X181303237Y-59027688D01*
X181302526Y-59020834D01*
X181298710Y-59009394D01*
X181248868Y-58860002D01*
X181246550Y-58853054D01*
X181153478Y-58702652D01*
X181028303Y-58577695D01*
X181022072Y-58573854D01*
X180883968Y-58488725D01*
X180883966Y-58488724D01*
X180877738Y-58484885D01*
X180797995Y-58458436D01*
X180716389Y-58431368D01*
X180716387Y-58431368D01*
X180709861Y-58429203D01*
X180703025Y-58428503D01*
X180703022Y-58428502D01*
X180659969Y-58424091D01*
X180605400Y-58418500D01*
X179304600Y-58418500D01*
X179301354Y-58418837D01*
X179301350Y-58418837D01*
X179205692Y-58428762D01*
X179205688Y-58428763D01*
X179198834Y-58429474D01*
X179192298Y-58431655D01*
X179192296Y-58431655D01*
X179153220Y-58444692D01*
X179031054Y-58485450D01*
X178880652Y-58578522D01*
X178755695Y-58703697D01*
X178682170Y-58822977D01*
X178665920Y-58849339D01*
X178613148Y-58896832D01*
X178543076Y-58908256D01*
X178477952Y-58879982D01*
X178467490Y-58870195D01*
X178382748Y-58781363D01*
X178358424Y-58755865D01*
X178173458Y-58618246D01*
X178168707Y-58615830D01*
X178168703Y-58615828D01*
X177974390Y-58517035D01*
X177967949Y-58513760D01*
X177962855Y-58512178D01*
X177962852Y-58512177D01*
X177752871Y-58446976D01*
X177747773Y-58445393D01*
X177742484Y-58444692D01*
X177524511Y-58415802D01*
X177524506Y-58415802D01*
X177519226Y-58415102D01*
X177513897Y-58415302D01*
X177513895Y-58415302D01*
X177404034Y-58419427D01*
X177288842Y-58423751D01*
X177283623Y-58424846D01*
X177261566Y-58429474D01*
X177063209Y-58471093D01*
X177058250Y-58473051D01*
X177058248Y-58473052D01*
X176853744Y-58553815D01*
X176853742Y-58553816D01*
X176848779Y-58555776D01*
X176844220Y-58558543D01*
X176844217Y-58558544D01*
X176745832Y-58618246D01*
X176651683Y-58675377D01*
X176647653Y-58678874D01*
X176522189Y-58787746D01*
X176477555Y-58826477D01*
X176458809Y-58849339D01*
X176334760Y-59000627D01*
X176334756Y-59000633D01*
X176331376Y-59004755D01*
X176313448Y-59036250D01*
X176262368Y-59085555D01*
X176192738Y-59099417D01*
X176126667Y-59073434D01*
X176099427Y-59044284D01*
X176077314Y-59011438D01*
X176017559Y-58922681D01*
X175858424Y-58755865D01*
X175673458Y-58618246D01*
X175668707Y-58615830D01*
X175668703Y-58615828D01*
X175474390Y-58517035D01*
X175467949Y-58513760D01*
X175462855Y-58512178D01*
X175462852Y-58512177D01*
X175252871Y-58446976D01*
X175247773Y-58445393D01*
X175242484Y-58444692D01*
X175024511Y-58415802D01*
X175024506Y-58415802D01*
X175019226Y-58415102D01*
X175013897Y-58415302D01*
X175013895Y-58415302D01*
X174904034Y-58419427D01*
X174788842Y-58423751D01*
X174783623Y-58424846D01*
X174761566Y-58429474D01*
X174563209Y-58471093D01*
X174558250Y-58473051D01*
X174558248Y-58473052D01*
X174353744Y-58553815D01*
X174353742Y-58553816D01*
X174348779Y-58555776D01*
X174344220Y-58558543D01*
X174344217Y-58558544D01*
X174245832Y-58618246D01*
X174151683Y-58675377D01*
X174147653Y-58678874D01*
X174022189Y-58787746D01*
X173977555Y-58826477D01*
X173958809Y-58849339D01*
X173834760Y-59000627D01*
X173834756Y-59000633D01*
X173831376Y-59004755D01*
X173813448Y-59036250D01*
X173762368Y-59085555D01*
X173692738Y-59099417D01*
X173626667Y-59073434D01*
X173599427Y-59044284D01*
X173577314Y-59011438D01*
X173517559Y-58922681D01*
X173358424Y-58755865D01*
X173173458Y-58618246D01*
X173168707Y-58615830D01*
X173168703Y-58615828D01*
X172974390Y-58517035D01*
X172967949Y-58513760D01*
X172962855Y-58512178D01*
X172962852Y-58512177D01*
X172752871Y-58446976D01*
X172747773Y-58445393D01*
X172742484Y-58444692D01*
X172524511Y-58415802D01*
X172524506Y-58415802D01*
X172519226Y-58415102D01*
X172513897Y-58415302D01*
X172513895Y-58415302D01*
X172404034Y-58419427D01*
X172288842Y-58423751D01*
X172283623Y-58424846D01*
X172261566Y-58429474D01*
X172063209Y-58471093D01*
X172058250Y-58473051D01*
X172058248Y-58473052D01*
X171853744Y-58553815D01*
X171853742Y-58553816D01*
X171848779Y-58555776D01*
X171844220Y-58558543D01*
X171844217Y-58558544D01*
X171745832Y-58618246D01*
X171651683Y-58675377D01*
X171647653Y-58678874D01*
X171522189Y-58787746D01*
X171477555Y-58826477D01*
X171458809Y-58849339D01*
X171334760Y-59000627D01*
X171334756Y-59000633D01*
X171331376Y-59004755D01*
X171328738Y-59009390D01*
X171328735Y-59009394D01*
X171269233Y-59113925D01*
X171217325Y-59205114D01*
X171138663Y-59421825D01*
X171137714Y-59427074D01*
X171137713Y-59427077D01*
X171098377Y-59644608D01*
X171098376Y-59644615D01*
X171097639Y-59648692D01*
X171096500Y-59672844D01*
X171096500Y-60084890D01*
X171097279Y-60094071D01*
X171110437Y-60249137D01*
X171111080Y-60256720D01*
X171112418Y-60261875D01*
X171112419Y-60261881D01*
X171160826Y-60448384D01*
X171168999Y-60479872D01*
X171171191Y-60484738D01*
X171171192Y-60484741D01*
X171228047Y-60610954D01*
X171263688Y-60690075D01*
X171392441Y-60881319D01*
X171396120Y-60885176D01*
X171396122Y-60885178D01*
X171457710Y-60949738D01*
X171551576Y-61048135D01*
X171659557Y-61128475D01*
X171702269Y-61185184D01*
X171707542Y-61255984D01*
X171673438Y-61318658D01*
X170220569Y-62771526D01*
X168767747Y-64224348D01*
X168759461Y-64231888D01*
X168752982Y-64236000D01*
X168747557Y-64241777D01*
X168706357Y-64285651D01*
X168703602Y-64288493D01*
X168683865Y-64308230D01*
X168681385Y-64311427D01*
X168673682Y-64320447D01*
X168643414Y-64352679D01*
X168639595Y-64359625D01*
X168639593Y-64359628D01*
X168633652Y-64370434D01*
X168622801Y-64386953D01*
X168610386Y-64402959D01*
X168607241Y-64410228D01*
X168607238Y-64410232D01*
X168592826Y-64443537D01*
X168587609Y-64454187D01*
X168566305Y-64492940D01*
X168564334Y-64500615D01*
X168564334Y-64500616D01*
X168561267Y-64512562D01*
X168554863Y-64531266D01*
X168546819Y-64549855D01*
X168545580Y-64557678D01*
X168545577Y-64557688D01*
X168539901Y-64593524D01*
X168537495Y-64605144D01*
X168528856Y-64638792D01*
X168526500Y-64647970D01*
X168526500Y-64668224D01*
X168524949Y-64687934D01*
X168521780Y-64707943D01*
X168522526Y-64715835D01*
X168525941Y-64751961D01*
X168526500Y-64763819D01*
X168526500Y-68238500D01*
X168506498Y-68306621D01*
X168452842Y-68353114D01*
X168400500Y-68364500D01*
X166809498Y-68364500D01*
X166807050Y-68364693D01*
X166807042Y-68364693D01*
X166778579Y-68366933D01*
X166778574Y-68366934D01*
X166772169Y-68367438D01*
X166672231Y-68396472D01*
X166620012Y-68411643D01*
X166620010Y-68411644D01*
X166612399Y-68413855D01*
X166605572Y-68417892D01*
X166605573Y-68417892D01*
X166476020Y-68494509D01*
X166476017Y-68494511D01*
X166469193Y-68498547D01*
X166351547Y-68616193D01*
X166347511Y-68623017D01*
X166347509Y-68623020D01*
X166310669Y-68685313D01*
X166266855Y-68759399D01*
X166264644Y-68767010D01*
X166264643Y-68767012D01*
X166247458Y-68826164D01*
X166215556Y-68880106D01*
X164866569Y-70229093D01*
X164804257Y-70263119D01*
X164733442Y-70258054D01*
X164676606Y-70215507D01*
X164666188Y-70198106D01*
X164666034Y-70198194D01*
X164663532Y-70193789D01*
X164661395Y-70189207D01*
X164658553Y-70185025D01*
X164527843Y-69992691D01*
X164527840Y-69992687D01*
X164524997Y-69988504D01*
X164358265Y-69812189D01*
X164299227Y-69767051D01*
X164257261Y-69709789D01*
X164252916Y-69638925D01*
X164292433Y-69572443D01*
X164430429Y-69450784D01*
X164430432Y-69450781D01*
X164434226Y-69447436D01*
X164588253Y-69259920D01*
X164710319Y-69050191D01*
X164736605Y-68981715D01*
X164795467Y-68828372D01*
X164795468Y-68828369D01*
X164797282Y-68823643D01*
X164846906Y-68586106D01*
X164849156Y-68536570D01*
X164854450Y-68419977D01*
X164857914Y-68343691D01*
X164854982Y-68318344D01*
X164836471Y-68158363D01*
X164830023Y-68102634D01*
X164827358Y-68093214D01*
X164765328Y-67874006D01*
X164765327Y-67874004D01*
X164763950Y-67869137D01*
X164761816Y-67864562D01*
X164761814Y-67864555D01*
X164663532Y-67653789D01*
X164663530Y-67653785D01*
X164661395Y-67649207D01*
X164628838Y-67601301D01*
X164527843Y-67452691D01*
X164527840Y-67452687D01*
X164524997Y-67448504D01*
X164358265Y-67272189D01*
X164299227Y-67227051D01*
X164257261Y-67169789D01*
X164252916Y-67098925D01*
X164292433Y-67032443D01*
X164430429Y-66910784D01*
X164430432Y-66910781D01*
X164434226Y-66907436D01*
X164588253Y-66719920D01*
X164710319Y-66510191D01*
X164718887Y-66487872D01*
X164795467Y-66288372D01*
X164795468Y-66288369D01*
X164797282Y-66283643D01*
X164846906Y-66046106D01*
X164849156Y-65996570D01*
X164856809Y-65828018D01*
X164857914Y-65803691D01*
X164848829Y-65725166D01*
X164836487Y-65618500D01*
X164830023Y-65562634D01*
X164827358Y-65553214D01*
X164765328Y-65334006D01*
X164765327Y-65334004D01*
X164763950Y-65329137D01*
X164761816Y-65324562D01*
X164761814Y-65324555D01*
X164663532Y-65113789D01*
X164663530Y-65113785D01*
X164661395Y-65109207D01*
X164650922Y-65093797D01*
X164527843Y-64912691D01*
X164527840Y-64912687D01*
X164524997Y-64908504D01*
X164358265Y-64732189D01*
X164299227Y-64687051D01*
X164257261Y-64629789D01*
X164252916Y-64558925D01*
X164292433Y-64492443D01*
X164430429Y-64370784D01*
X164430432Y-64370781D01*
X164434226Y-64367436D01*
X164451095Y-64346900D01*
X164516030Y-64267846D01*
X164588253Y-64179920D01*
X164710319Y-63970191D01*
X164718887Y-63947872D01*
X164795467Y-63748372D01*
X164795468Y-63748369D01*
X164797282Y-63743643D01*
X164846906Y-63506106D01*
X164849156Y-63456570D01*
X164854996Y-63327947D01*
X164857914Y-63263691D01*
X164855902Y-63246297D01*
X164836949Y-63082492D01*
X164830023Y-63022634D01*
X164819821Y-62986579D01*
X164765328Y-62794006D01*
X164765327Y-62794004D01*
X164763950Y-62789137D01*
X164761816Y-62784562D01*
X164761814Y-62784555D01*
X164663532Y-62573789D01*
X164663530Y-62573785D01*
X164661395Y-62569207D01*
X164654123Y-62558507D01*
X164527843Y-62372691D01*
X164527840Y-62372687D01*
X164524997Y-62368504D01*
X164358265Y-62192189D01*
X164299227Y-62147051D01*
X164257261Y-62089789D01*
X164252916Y-62018925D01*
X164292433Y-61952443D01*
X164430429Y-61830784D01*
X164430432Y-61830781D01*
X164434226Y-61827436D01*
X164588253Y-61639920D01*
X164710319Y-61430191D01*
X164731414Y-61375238D01*
X164795467Y-61208372D01*
X164795468Y-61208369D01*
X164797282Y-61203643D01*
X164846906Y-60966106D01*
X164847367Y-60955968D01*
X164853207Y-60827342D01*
X164857914Y-60723691D01*
X164854538Y-60694508D01*
X164836234Y-60536316D01*
X164830023Y-60482634D01*
X164824989Y-60464842D01*
X164765328Y-60254006D01*
X164765327Y-60254004D01*
X164763950Y-60249137D01*
X164761816Y-60244562D01*
X164761814Y-60244555D01*
X164663532Y-60033789D01*
X164663530Y-60033785D01*
X164661395Y-60029207D01*
X164657236Y-60023087D01*
X164527843Y-59832691D01*
X164527840Y-59832687D01*
X164524997Y-59828504D01*
X164358265Y-59652189D01*
X164353691Y-59648692D01*
X164169508Y-59507873D01*
X164169504Y-59507870D01*
X164165488Y-59504800D01*
X163951626Y-59390128D01*
X163722182Y-59311124D01*
X163483058Y-59269820D01*
X163479099Y-59269640D01*
X163479097Y-59269640D01*
X163455407Y-59268564D01*
X163455386Y-59268564D01*
X163453987Y-59268500D01*
X162535663Y-59268500D01*
X162533155Y-59268702D01*
X162533150Y-59268702D01*
X162359797Y-59282649D01*
X162359792Y-59282650D01*
X162354756Y-59283055D01*
X162349848Y-59284260D01*
X162349845Y-59284261D01*
X162125292Y-59339417D01*
X162119096Y-59340939D01*
X162114444Y-59342914D01*
X162114440Y-59342915D01*
X162008908Y-59387711D01*
X161895721Y-59435756D01*
X161891437Y-59438454D01*
X161694659Y-59562372D01*
X161694656Y-59562374D01*
X161690380Y-59565067D01*
X161686586Y-59568412D01*
X161512151Y-59722196D01*
X161512148Y-59722199D01*
X161508354Y-59725544D01*
X161505144Y-59729452D01*
X161505143Y-59729453D01*
X161454509Y-59791096D01*
X161354327Y-59913060D01*
X161232261Y-60122789D01*
X161230447Y-60127515D01*
X161230445Y-60127519D01*
X161147606Y-60343324D01*
X161145298Y-60349337D01*
X161127076Y-60436561D01*
X161126720Y-60438266D01*
X161093211Y-60500857D01*
X161031181Y-60535395D01*
X161003383Y-60538500D01*
X160992500Y-60538500D01*
X160924379Y-60518498D01*
X160877886Y-60464842D01*
X160866500Y-60412500D01*
X160866500Y-60273866D01*
X160859745Y-60211684D01*
X160808615Y-60075295D01*
X160721261Y-59958739D01*
X160604705Y-59871385D01*
X160468316Y-59820255D01*
X160406134Y-59813500D01*
X158609866Y-59813500D01*
X158547684Y-59820255D01*
X158411295Y-59871385D01*
X158294739Y-59958739D01*
X158207385Y-60075295D01*
X158156255Y-60211684D01*
X158149500Y-60273866D01*
X158149500Y-62070134D01*
X158156255Y-62132316D01*
X158207385Y-62268705D01*
X158294739Y-62385261D01*
X158411295Y-62472615D01*
X158419704Y-62475767D01*
X158419705Y-62475768D01*
X158528451Y-62516535D01*
X158585216Y-62559176D01*
X158609916Y-62625738D01*
X158594709Y-62695087D01*
X158575316Y-62721568D01*
X158506072Y-62794028D01*
X158448629Y-62854138D01*
X158322743Y-63038680D01*
X158228688Y-63241305D01*
X158168989Y-63456570D01*
X158145251Y-63678695D01*
X158145548Y-63683848D01*
X158145548Y-63683851D01*
X158156733Y-63877837D01*
X158158110Y-63901715D01*
X158159247Y-63906761D01*
X158159248Y-63906767D01*
X158189364Y-64040399D01*
X158184828Y-64111251D01*
X158142706Y-64168402D01*
X158076373Y-64193708D01*
X158066447Y-64194100D01*
X157390921Y-64194100D01*
X157322800Y-64174098D01*
X157316860Y-64170036D01*
X157176094Y-64067763D01*
X157176093Y-64067762D01*
X157170752Y-64063882D01*
X157164724Y-64061198D01*
X157164722Y-64061197D01*
X157002319Y-63988891D01*
X157002318Y-63988891D01*
X156996288Y-63986206D01*
X156898691Y-63965461D01*
X156815944Y-63947872D01*
X156815939Y-63947872D01*
X156809487Y-63946500D01*
X156618513Y-63946500D01*
X156612061Y-63947872D01*
X156612056Y-63947872D01*
X156529309Y-63965461D01*
X156431712Y-63986206D01*
X156425682Y-63988891D01*
X156425681Y-63988891D01*
X156263278Y-64061197D01*
X156263276Y-64061198D01*
X156257248Y-64063882D01*
X156251907Y-64067762D01*
X156251906Y-64067763D01*
X156210093Y-64098142D01*
X156102747Y-64176134D01*
X156098326Y-64181044D01*
X156098325Y-64181045D01*
X156001579Y-64288493D01*
X155974960Y-64318056D01*
X155879473Y-64483444D01*
X155820458Y-64665072D01*
X155819768Y-64671633D01*
X155819768Y-64671635D01*
X155818055Y-64687935D01*
X155800496Y-64855000D01*
X155801186Y-64861565D01*
X155815007Y-64993060D01*
X155820458Y-65044928D01*
X155879473Y-65226556D01*
X155882776Y-65232278D01*
X155882777Y-65232279D01*
X155906519Y-65273401D01*
X155974960Y-65391944D01*
X155979378Y-65396851D01*
X155979379Y-65396852D01*
X156086570Y-65515900D01*
X156102747Y-65533866D01*
X156257248Y-65646118D01*
X156263276Y-65648802D01*
X156263278Y-65648803D01*
X156425681Y-65721109D01*
X156431712Y-65723794D01*
X156525113Y-65743647D01*
X156612056Y-65762128D01*
X156612061Y-65762128D01*
X156618513Y-65763500D01*
X156809487Y-65763500D01*
X156815939Y-65762128D01*
X156815944Y-65762128D01*
X156902887Y-65743647D01*
X156996288Y-65723794D01*
X157002319Y-65721109D01*
X157164722Y-65648803D01*
X157164724Y-65648802D01*
X157170752Y-65646118D01*
X157213039Y-65615395D01*
X157316860Y-65539964D01*
X157383728Y-65516106D01*
X157390921Y-65515900D01*
X157785056Y-65515900D01*
X157853177Y-65535902D01*
X157874151Y-65552805D01*
X158149364Y-65828018D01*
X158183390Y-65890330D01*
X158181687Y-65950782D01*
X158168989Y-65996570D01*
X158145251Y-66218695D01*
X158145548Y-66223848D01*
X158145548Y-66223851D01*
X158150038Y-66301726D01*
X158158110Y-66441715D01*
X158159247Y-66446761D01*
X158159248Y-66446767D01*
X158189364Y-66580399D01*
X158184828Y-66651251D01*
X158142706Y-66708402D01*
X158076373Y-66733708D01*
X158066447Y-66734100D01*
X157390921Y-66734100D01*
X157322800Y-66714098D01*
X157316860Y-66710036D01*
X157176094Y-66607763D01*
X157176093Y-66607762D01*
X157170752Y-66603882D01*
X157164724Y-66601198D01*
X157164722Y-66601197D01*
X157002319Y-66528891D01*
X157002318Y-66528891D01*
X156996288Y-66526206D01*
X156898691Y-66505461D01*
X156815944Y-66487872D01*
X156815939Y-66487872D01*
X156809487Y-66486500D01*
X156618513Y-66486500D01*
X156612061Y-66487872D01*
X156612056Y-66487872D01*
X156529309Y-66505461D01*
X156431712Y-66526206D01*
X156425682Y-66528891D01*
X156425681Y-66528891D01*
X156263278Y-66601197D01*
X156263276Y-66601198D01*
X156257248Y-66603882D01*
X156102747Y-66716134D01*
X156098326Y-66721044D01*
X156098325Y-66721045D01*
X155993850Y-66837077D01*
X155974960Y-66858056D01*
X155879473Y-67023444D01*
X155820458Y-67205072D01*
X155819768Y-67211633D01*
X155819768Y-67211635D01*
X155815912Y-67248327D01*
X155800496Y-67395000D01*
X155801186Y-67401565D01*
X155815432Y-67537104D01*
X155820458Y-67584928D01*
X155879473Y-67766556D01*
X155882776Y-67772278D01*
X155882777Y-67772279D01*
X155906519Y-67813401D01*
X155974960Y-67931944D01*
X155979378Y-67936851D01*
X155979379Y-67936852D01*
X156086570Y-68055900D01*
X156102747Y-68073866D01*
X156167424Y-68120857D01*
X156243947Y-68176454D01*
X156257248Y-68186118D01*
X156263276Y-68188802D01*
X156263278Y-68188803D01*
X156425681Y-68261109D01*
X156431712Y-68263794D01*
X156525113Y-68283647D01*
X156612056Y-68302128D01*
X156612061Y-68302128D01*
X156618513Y-68303500D01*
X156809487Y-68303500D01*
X156815939Y-68302128D01*
X156815944Y-68302128D01*
X156902887Y-68283647D01*
X156996288Y-68263794D01*
X157002319Y-68261109D01*
X157164722Y-68188803D01*
X157164724Y-68188802D01*
X157170752Y-68186118D01*
X157184054Y-68176454D01*
X157316860Y-68079964D01*
X157383728Y-68056106D01*
X157390921Y-68055900D01*
X157785056Y-68055900D01*
X157853177Y-68075902D01*
X157874151Y-68092805D01*
X158149364Y-68368018D01*
X158183390Y-68430330D01*
X158181687Y-68490782D01*
X158168989Y-68536570D01*
X158145251Y-68758695D01*
X158145548Y-68763848D01*
X158145548Y-68763851D01*
X158154492Y-68918974D01*
X158158110Y-68981715D01*
X158159247Y-68986761D01*
X158159248Y-68986767D01*
X158165870Y-69016150D01*
X158207222Y-69199639D01*
X158262165Y-69334948D01*
X158279272Y-69377077D01*
X158291266Y-69406616D01*
X158318332Y-69450784D01*
X158401561Y-69586601D01*
X158407987Y-69597088D01*
X158554250Y-69765938D01*
X158726126Y-69908632D01*
X158774537Y-69936921D01*
X158799445Y-69951476D01*
X158848169Y-70003114D01*
X158861240Y-70072897D01*
X158834509Y-70138669D01*
X158794055Y-70172027D01*
X158781607Y-70178507D01*
X158777474Y-70181610D01*
X158777471Y-70181612D01*
X158607100Y-70309530D01*
X158602965Y-70312635D01*
X158448629Y-70474138D01*
X158445715Y-70478410D01*
X158445714Y-70478411D01*
X158351786Y-70616104D01*
X158296875Y-70661107D01*
X158247698Y-70671100D01*
X155598263Y-70671100D01*
X155589692Y-70670808D01*
X155536157Y-70667158D01*
X155528680Y-70668463D01*
X155528679Y-70668463D01*
X155524279Y-70669231D01*
X155477653Y-70677369D01*
X155471135Y-70678330D01*
X155452777Y-70680552D01*
X155419738Y-70684550D01*
X155419736Y-70684550D01*
X155412195Y-70685463D01*
X155405087Y-70688149D01*
X155398121Y-70689860D01*
X155392932Y-70691279D01*
X155386053Y-70693356D01*
X155378576Y-70694661D01*
X155324205Y-70718529D01*
X155318114Y-70721014D01*
X155269664Y-70739321D01*
X155269662Y-70739322D01*
X155262559Y-70742006D01*
X155256298Y-70746309D01*
X155249974Y-70749615D01*
X155245202Y-70752271D01*
X155239056Y-70755906D01*
X155232104Y-70758958D01*
X155203743Y-70780720D01*
X155184999Y-70795102D01*
X155179672Y-70798973D01*
X155130729Y-70832611D01*
X155102339Y-70864475D01*
X155092232Y-70875819D01*
X155087251Y-70881095D01*
X152074961Y-73893386D01*
X152068696Y-73899239D01*
X152028248Y-73934524D01*
X152012047Y-73957576D01*
X151994109Y-73983099D01*
X151990177Y-73988393D01*
X151953537Y-74035121D01*
X151950411Y-74042045D01*
X151946698Y-74048176D01*
X151944062Y-74052796D01*
X151940640Y-74059178D01*
X151936269Y-74065397D01*
X151933509Y-74072476D01*
X151914702Y-74120713D01*
X151912146Y-74126792D01*
X151887711Y-74180912D01*
X151886325Y-74188388D01*
X151884170Y-74195266D01*
X151882710Y-74200391D01*
X151880922Y-74207355D01*
X151878162Y-74214434D01*
X151877170Y-74221966D01*
X151877170Y-74221968D01*
X151870414Y-74273292D01*
X151869384Y-74279798D01*
X151858560Y-74338197D01*
X151858997Y-74345777D01*
X151858997Y-74345778D01*
X151861891Y-74395967D01*
X151862100Y-74403220D01*
X151862100Y-77356057D01*
X151842098Y-77424178D01*
X151825195Y-77445152D01*
X151397152Y-77873195D01*
X151334840Y-77907221D01*
X151308057Y-77910100D01*
X128337944Y-77910100D01*
X128269823Y-77890098D01*
X128248849Y-77873195D01*
X125069614Y-74693961D01*
X125063760Y-74687695D01*
X125028476Y-74647248D01*
X124979898Y-74613107D01*
X124974604Y-74609175D01*
X124933855Y-74577223D01*
X124933856Y-74577223D01*
X124927879Y-74572537D01*
X124920955Y-74569411D01*
X124914824Y-74565698D01*
X124910204Y-74563062D01*
X124903822Y-74559640D01*
X124897603Y-74555269D01*
X124842286Y-74533701D01*
X124836207Y-74531146D01*
X124827990Y-74527436D01*
X124782088Y-74506711D01*
X124774612Y-74505325D01*
X124767734Y-74503170D01*
X124762609Y-74501710D01*
X124755645Y-74499922D01*
X124748566Y-74497162D01*
X124741034Y-74496170D01*
X124741032Y-74496170D01*
X124715804Y-74492849D01*
X124689700Y-74489413D01*
X124683202Y-74488384D01*
X124624803Y-74477560D01*
X124617223Y-74477997D01*
X124617222Y-74477997D01*
X124567033Y-74480891D01*
X124559780Y-74481100D01*
X123028969Y-74481100D01*
X122960848Y-74461098D01*
X122921250Y-74420465D01*
X122874394Y-74343248D01*
X122874389Y-74343241D01*
X122871623Y-74338683D01*
X122814880Y-74273292D01*
X122724023Y-74168588D01*
X122724021Y-74168586D01*
X122720523Y-74164555D01*
X122635202Y-74094596D01*
X122546373Y-74021760D01*
X122546367Y-74021756D01*
X122542245Y-74018376D01*
X122510750Y-74000448D01*
X122461445Y-73949368D01*
X122447583Y-73879738D01*
X122473566Y-73813667D01*
X122502716Y-73786427D01*
X122560245Y-73747696D01*
X122624319Y-73704559D01*
X122679624Y-73651801D01*
X122709991Y-73622832D01*
X122791135Y-73545424D01*
X122858199Y-73455287D01*
X122914909Y-73412574D01*
X122959288Y-73404500D01*
X132603624Y-73404500D01*
X132622574Y-73405933D01*
X132636973Y-73408124D01*
X132636979Y-73408124D01*
X132644208Y-73409224D01*
X132651500Y-73408631D01*
X132651503Y-73408631D01*
X132697183Y-73404915D01*
X132707398Y-73404500D01*
X132715525Y-73404500D01*
X132719161Y-73404076D01*
X132719163Y-73404076D01*
X132722615Y-73403673D01*
X132743924Y-73401189D01*
X132748244Y-73400762D01*
X132821426Y-73394809D01*
X132828388Y-73392553D01*
X132834376Y-73391357D01*
X132840333Y-73389949D01*
X132847607Y-73389101D01*
X132854489Y-73386603D01*
X132854493Y-73386602D01*
X132916607Y-73364055D01*
X132920711Y-73362645D01*
X132990575Y-73340013D01*
X132996838Y-73336213D01*
X133002380Y-73333675D01*
X133007856Y-73330933D01*
X133014741Y-73328434D01*
X133076132Y-73288185D01*
X133079800Y-73285870D01*
X133142581Y-73247773D01*
X133146786Y-73244059D01*
X133146789Y-73244057D01*
X133151005Y-73240333D01*
X133151031Y-73240362D01*
X133153962Y-73237762D01*
X133157316Y-73234958D01*
X133163435Y-73230946D01*
X133216989Y-73174413D01*
X133219366Y-73171972D01*
X144815443Y-61575895D01*
X144877755Y-61541869D01*
X144904538Y-61538990D01*
X145060253Y-61538990D01*
X145128374Y-61558992D01*
X145164464Y-61594166D01*
X145201836Y-61649157D01*
X145228574Y-61688500D01*
X145253023Y-61724476D01*
X145419755Y-61900791D01*
X145423781Y-61903869D01*
X145423782Y-61903870D01*
X145479196Y-61946237D01*
X145521164Y-62003501D01*
X145525509Y-62074365D01*
X145485992Y-62140847D01*
X145347948Y-62262549D01*
X145340945Y-62269801D01*
X145193391Y-62449436D01*
X145187637Y-62457714D01*
X145070698Y-62658635D01*
X145066341Y-62667730D01*
X144983031Y-62884758D01*
X144980184Y-62894430D01*
X144948780Y-63044754D01*
X144949903Y-63058815D01*
X144960011Y-63062490D01*
X146934730Y-63062490D01*
X147002851Y-63082492D01*
X147049344Y-63136148D01*
X147060730Y-63188490D01*
X147060730Y-63444490D01*
X147040728Y-63512611D01*
X146987072Y-63559104D01*
X146934730Y-63570490D01*
X144962004Y-63570490D01*
X144947918Y-63574626D01*
X144945869Y-63587604D01*
X144947907Y-63605217D01*
X144949869Y-63615125D01*
X145013162Y-63838799D01*
X145016676Y-63848250D01*
X145114924Y-64058943D01*
X145119903Y-64067707D01*
X145250566Y-64259971D01*
X145256898Y-64267846D01*
X145416609Y-64436736D01*
X145424112Y-64443492D01*
X145479174Y-64485590D01*
X145521141Y-64542855D01*
X145525486Y-64613719D01*
X145485969Y-64680200D01*
X145347591Y-64802196D01*
X145347588Y-64802199D01*
X145343794Y-64805544D01*
X145189767Y-64993060D01*
X145067701Y-65202789D01*
X145065887Y-65207515D01*
X145065885Y-65207519D01*
X144982553Y-65424608D01*
X144980738Y-65429337D01*
X144931114Y-65666874D01*
X144930885Y-65671923D01*
X144930884Y-65671929D01*
X144926726Y-65763500D01*
X144920106Y-65909289D01*
X144920687Y-65914309D01*
X144920687Y-65914313D01*
X144924907Y-65950784D01*
X144947997Y-66150346D01*
X144949376Y-66155220D01*
X144949377Y-66155224D01*
X144988783Y-66294480D01*
X145014070Y-66383843D01*
X145016204Y-66388418D01*
X145016206Y-66388425D01*
X145114488Y-66599191D01*
X145116625Y-66603773D01*
X145119467Y-66607954D01*
X145119467Y-66607955D01*
X145250177Y-66800289D01*
X145250180Y-66800293D01*
X145253023Y-66804476D01*
X145419755Y-66980791D01*
X145478793Y-67025929D01*
X145520759Y-67083191D01*
X145525104Y-67154055D01*
X145485587Y-67220537D01*
X145347591Y-67342196D01*
X145347588Y-67342199D01*
X145343794Y-67345544D01*
X145189767Y-67533060D01*
X145067701Y-67742789D01*
X145065887Y-67747515D01*
X145065885Y-67747519D01*
X144982553Y-67964608D01*
X144980738Y-67969337D01*
X144931114Y-68206874D01*
X144930885Y-68211923D01*
X144930884Y-68211929D01*
X144926208Y-68314907D01*
X144920106Y-68449289D01*
X144920687Y-68454309D01*
X144920687Y-68454313D01*
X144921145Y-68458267D01*
X144947997Y-68690346D01*
X144949376Y-68695220D01*
X144949377Y-68695224D01*
X145008160Y-68902959D01*
X145014070Y-68923843D01*
X145016204Y-68928418D01*
X145016206Y-68928425D01*
X145114488Y-69139191D01*
X145116625Y-69143773D01*
X145119467Y-69147954D01*
X145119467Y-69147955D01*
X145250177Y-69340289D01*
X145250180Y-69340293D01*
X145253023Y-69344476D01*
X145419755Y-69520791D01*
X145478793Y-69565929D01*
X145520759Y-69623191D01*
X145525104Y-69694055D01*
X145485587Y-69760537D01*
X145347591Y-69882196D01*
X145347588Y-69882199D01*
X145343794Y-69885544D01*
X145189767Y-70073060D01*
X145067701Y-70282789D01*
X145065887Y-70287515D01*
X145065885Y-70287519D01*
X144990943Y-70482752D01*
X144980738Y-70509337D01*
X144931114Y-70746874D01*
X144930885Y-70751923D01*
X144930884Y-70751929D01*
X144929805Y-70775702D01*
X144920106Y-70989289D01*
X144920687Y-70994309D01*
X144920687Y-70994313D01*
X144930370Y-71078000D01*
X144947997Y-71230346D01*
X144949376Y-71235220D01*
X144949377Y-71235224D01*
X145012692Y-71458974D01*
X145014070Y-71463843D01*
X145016204Y-71468418D01*
X145016206Y-71468425D01*
X145109544Y-71668588D01*
X145116625Y-71683773D01*
X145119467Y-71687954D01*
X145119467Y-71687955D01*
X145250177Y-71880289D01*
X145250180Y-71880293D01*
X145253023Y-71884476D01*
X145419755Y-72060791D01*
X145478793Y-72105929D01*
X145520759Y-72163191D01*
X145525104Y-72234055D01*
X145485587Y-72300537D01*
X145347591Y-72422196D01*
X145347588Y-72422199D01*
X145343794Y-72425544D01*
X145340584Y-72429452D01*
X145340583Y-72429453D01*
X145310175Y-72466472D01*
X145189767Y-72613060D01*
X145067701Y-72822789D01*
X145065887Y-72827515D01*
X145065885Y-72827519D01*
X144985682Y-73036457D01*
X144980738Y-73049337D01*
X144931114Y-73286874D01*
X144930885Y-73291922D01*
X144930884Y-73291929D01*
X144927993Y-73355596D01*
X144920106Y-73529289D01*
X144920687Y-73534309D01*
X144920687Y-73534313D01*
X144930370Y-73618000D01*
X144947997Y-73770346D01*
X144949376Y-73775220D01*
X144949377Y-73775224D01*
X145008200Y-73983099D01*
X145014070Y-74003843D01*
X145016204Y-74008418D01*
X145016206Y-74008425D01*
X145112270Y-74214434D01*
X145116625Y-74223773D01*
X145119467Y-74227954D01*
X145119467Y-74227955D01*
X145250177Y-74420289D01*
X145250180Y-74420293D01*
X145253023Y-74424476D01*
X145419755Y-74600791D01*
X145478793Y-74645929D01*
X145520759Y-74703191D01*
X145525104Y-74774055D01*
X145485587Y-74840537D01*
X145347591Y-74962196D01*
X145347588Y-74962199D01*
X145343794Y-74965544D01*
X145340584Y-74969452D01*
X145340583Y-74969453D01*
X145310175Y-75006472D01*
X145189767Y-75153060D01*
X145067701Y-75362789D01*
X145065887Y-75367515D01*
X145065885Y-75367519D01*
X144982553Y-75584608D01*
X144980738Y-75589337D01*
X144931114Y-75826874D01*
X144930885Y-75831923D01*
X144930884Y-75831929D01*
X144929094Y-75871359D01*
X144920106Y-76069289D01*
X144920687Y-76074309D01*
X144920687Y-76074313D01*
X144925909Y-76119445D01*
X144947997Y-76310346D01*
X144949376Y-76315220D01*
X144949377Y-76315224D01*
X145007821Y-76521760D01*
X145014070Y-76543843D01*
X145016204Y-76548418D01*
X145016206Y-76548425D01*
X145104875Y-76738576D01*
X145116625Y-76763773D01*
X145119467Y-76767954D01*
X145119467Y-76767955D01*
X145250177Y-76960289D01*
X145250180Y-76960293D01*
X145253023Y-76964476D01*
X145419755Y-77140791D01*
X145423781Y-77143869D01*
X145423782Y-77143870D01*
X145608512Y-77285107D01*
X145608516Y-77285110D01*
X145612532Y-77288180D01*
X145826394Y-77402852D01*
X146055838Y-77481856D01*
X146294962Y-77523160D01*
X146298921Y-77523340D01*
X146298923Y-77523340D01*
X146322613Y-77524416D01*
X146322634Y-77524416D01*
X146324033Y-77524480D01*
X147242357Y-77524480D01*
X147244865Y-77524278D01*
X147244870Y-77524278D01*
X147418223Y-77510331D01*
X147418228Y-77510330D01*
X147423264Y-77509925D01*
X147428172Y-77508720D01*
X147428175Y-77508719D01*
X147654010Y-77453248D01*
X147658924Y-77452041D01*
X147663576Y-77450066D01*
X147663580Y-77450065D01*
X147877641Y-77359201D01*
X147882299Y-77357224D01*
X147986997Y-77291292D01*
X148083361Y-77230608D01*
X148083364Y-77230606D01*
X148087640Y-77227913D01*
X148179137Y-77147248D01*
X148265869Y-77070784D01*
X148265872Y-77070781D01*
X148269666Y-77067436D01*
X148272875Y-77063529D01*
X148272884Y-77063520D01*
X148345986Y-76974524D01*
X148404680Y-76934581D01*
X148443350Y-76928500D01*
X148498500Y-76928500D01*
X148566621Y-76948502D01*
X148613114Y-77002158D01*
X148624500Y-77054500D01*
X148624500Y-77193134D01*
X148631255Y-77255316D01*
X148682385Y-77391705D01*
X148769739Y-77508261D01*
X148886295Y-77595615D01*
X149022684Y-77646745D01*
X149084866Y-77653500D01*
X150881134Y-77653500D01*
X150943316Y-77646745D01*
X151079705Y-77595615D01*
X151196261Y-77508261D01*
X151283615Y-77391705D01*
X151334745Y-77255316D01*
X151341500Y-77193134D01*
X151341500Y-75396866D01*
X151334745Y-75334684D01*
X151283615Y-75198295D01*
X151196261Y-75081739D01*
X151079705Y-74994385D01*
X151031821Y-74976434D01*
X150961203Y-74949960D01*
X150904439Y-74907318D01*
X150879739Y-74840756D01*
X150894947Y-74771408D01*
X150916493Y-74742727D01*
X150971718Y-74687695D01*
X151021096Y-74638489D01*
X151040697Y-74611212D01*
X151148435Y-74461277D01*
X151151453Y-74457077D01*
X151155611Y-74448665D01*
X151248136Y-74261453D01*
X151248137Y-74261451D01*
X151250430Y-74256811D01*
X151305225Y-74076461D01*
X151313865Y-74048023D01*
X151313865Y-74048021D01*
X151315370Y-74043069D01*
X151344529Y-73821590D01*
X151345388Y-73786427D01*
X151346074Y-73758365D01*
X151346074Y-73758361D01*
X151346156Y-73755000D01*
X151327852Y-73532361D01*
X151273431Y-73315702D01*
X151184354Y-73110840D01*
X151093951Y-72971098D01*
X151065822Y-72927617D01*
X151065820Y-72927614D01*
X151063014Y-72923277D01*
X150912670Y-72758051D01*
X150908619Y-72754852D01*
X150908615Y-72754848D01*
X150741414Y-72622800D01*
X150741410Y-72622798D01*
X150737359Y-72619598D01*
X150696053Y-72596796D01*
X150646084Y-72546364D01*
X150631312Y-72476921D01*
X150656428Y-72410516D01*
X150683780Y-72383909D01*
X150733123Y-72348713D01*
X150862860Y-72256173D01*
X150869267Y-72249789D01*
X150990427Y-72129051D01*
X151021096Y-72098489D01*
X151061996Y-72041571D01*
X151148435Y-71921277D01*
X151151453Y-71917077D01*
X151155611Y-71908665D01*
X151248136Y-71721453D01*
X151248137Y-71721451D01*
X151250430Y-71716811D01*
X151310719Y-71518376D01*
X151313865Y-71508023D01*
X151313865Y-71508021D01*
X151315370Y-71503069D01*
X151344529Y-71281590D01*
X151346156Y-71215000D01*
X151327852Y-70992361D01*
X151273431Y-70775702D01*
X151184354Y-70570840D01*
X151084020Y-70415747D01*
X151065822Y-70387617D01*
X151065820Y-70387614D01*
X151063014Y-70383277D01*
X150912670Y-70218051D01*
X150908619Y-70214852D01*
X150908615Y-70214848D01*
X150741414Y-70082800D01*
X150741410Y-70082798D01*
X150737359Y-70079598D01*
X150696053Y-70056796D01*
X150646084Y-70006364D01*
X150631312Y-69936921D01*
X150656428Y-69870516D01*
X150683780Y-69843909D01*
X150733123Y-69808713D01*
X150862860Y-69716173D01*
X150869267Y-69709789D01*
X150986776Y-69592689D01*
X151021096Y-69558489D01*
X151061996Y-69501571D01*
X151148435Y-69381277D01*
X151151453Y-69377077D01*
X151155611Y-69368665D01*
X151248136Y-69181453D01*
X151248137Y-69181451D01*
X151250430Y-69176811D01*
X151290337Y-69045461D01*
X151313865Y-68968023D01*
X151313865Y-68968021D01*
X151315370Y-68963069D01*
X151344529Y-68741590D01*
X151345904Y-68685313D01*
X151346074Y-68678365D01*
X151346074Y-68678361D01*
X151346156Y-68675000D01*
X151327852Y-68452361D01*
X151273431Y-68235702D01*
X151184354Y-68030840D01*
X151084020Y-67875747D01*
X151065822Y-67847617D01*
X151065820Y-67847614D01*
X151063014Y-67843277D01*
X150912670Y-67678051D01*
X150908619Y-67674852D01*
X150908615Y-67674848D01*
X150741414Y-67542800D01*
X150741410Y-67542798D01*
X150737359Y-67539598D01*
X150696053Y-67516796D01*
X150646084Y-67466364D01*
X150631312Y-67396921D01*
X150656428Y-67330516D01*
X150683780Y-67303909D01*
X150732557Y-67269117D01*
X150862860Y-67176173D01*
X150869267Y-67169789D01*
X151007093Y-67032443D01*
X151021096Y-67018489D01*
X151064363Y-66958277D01*
X151148435Y-66841277D01*
X151151453Y-66837077D01*
X151155611Y-66828665D01*
X151248136Y-66641453D01*
X151248137Y-66641451D01*
X151250430Y-66636811D01*
X151315370Y-66423069D01*
X151344529Y-66201590D01*
X151346156Y-66135000D01*
X151327852Y-65912361D01*
X151273431Y-65695702D01*
X151184354Y-65490840D01*
X151105489Y-65368933D01*
X151065822Y-65307617D01*
X151065820Y-65307614D01*
X151063014Y-65303277D01*
X150912670Y-65138051D01*
X150908619Y-65134852D01*
X150908615Y-65134848D01*
X150741414Y-65002800D01*
X150741410Y-65002798D01*
X150737359Y-64999598D01*
X150725516Y-64993060D01*
X150695569Y-64976529D01*
X150645598Y-64926097D01*
X150630826Y-64856654D01*
X150655942Y-64790248D01*
X150683294Y-64763641D01*
X150858328Y-64638792D01*
X150866200Y-64632139D01*
X151017052Y-64481812D01*
X151023730Y-64473965D01*
X151148003Y-64301020D01*
X151153313Y-64292183D01*
X151247670Y-64101267D01*
X151251469Y-64091672D01*
X151313377Y-63887910D01*
X151315555Y-63877837D01*
X151316986Y-63866962D01*
X151314775Y-63852778D01*
X151301617Y-63849000D01*
X149855000Y-63849000D01*
X149786879Y-63828998D01*
X149740386Y-63775342D01*
X149729000Y-63723000D01*
X149729000Y-63467000D01*
X149749002Y-63398879D01*
X149802658Y-63352386D01*
X149855000Y-63341000D01*
X151301344Y-63341000D01*
X151314875Y-63337027D01*
X151316180Y-63327947D01*
X151274214Y-63160875D01*
X151270894Y-63151124D01*
X151185972Y-62955814D01*
X151181105Y-62946739D01*
X151065426Y-62767926D01*
X151059136Y-62759757D01*
X150915806Y-62602240D01*
X150915260Y-62601731D01*
X152481352Y-62601731D01*
X152494334Y-62799796D01*
X152543193Y-62992179D01*
X152626292Y-63172436D01*
X152629625Y-63177152D01*
X152737068Y-63329180D01*
X152740850Y-63334532D01*
X152883029Y-63473036D01*
X153048068Y-63583312D01*
X153053371Y-63585590D01*
X153053374Y-63585592D01*
X153129176Y-63618159D01*
X153230439Y-63661665D01*
X153283017Y-63673562D01*
X153418398Y-63704196D01*
X153418403Y-63704197D01*
X153424035Y-63705471D01*
X153429806Y-63705698D01*
X153429808Y-63705698D01*
X153488869Y-63708018D01*
X153622372Y-63713264D01*
X153720590Y-63699023D01*
X153813094Y-63685611D01*
X153813099Y-63685610D01*
X153818808Y-63684782D01*
X154006765Y-63620979D01*
X154179946Y-63523993D01*
X154332554Y-63397070D01*
X154459477Y-63244462D01*
X154556463Y-63071281D01*
X154620266Y-62883324D01*
X154621094Y-62877615D01*
X154621095Y-62877610D01*
X154638457Y-62757861D01*
X154648748Y-62686888D01*
X154650234Y-62630123D01*
X154647625Y-62601731D01*
X155021352Y-62601731D01*
X155034334Y-62799796D01*
X155083193Y-62992179D01*
X155166292Y-63172436D01*
X155169625Y-63177152D01*
X155277068Y-63329180D01*
X155280850Y-63334532D01*
X155423029Y-63473036D01*
X155588068Y-63583312D01*
X155593371Y-63585590D01*
X155593374Y-63585592D01*
X155669176Y-63618159D01*
X155770439Y-63661665D01*
X155823017Y-63673562D01*
X155958398Y-63704196D01*
X155958403Y-63704197D01*
X155964035Y-63705471D01*
X155969806Y-63705698D01*
X155969808Y-63705698D01*
X156028869Y-63708018D01*
X156162372Y-63713264D01*
X156260590Y-63699023D01*
X156353094Y-63685611D01*
X156353099Y-63685610D01*
X156358808Y-63684782D01*
X156546765Y-63620979D01*
X156719946Y-63523993D01*
X156872554Y-63397070D01*
X156999477Y-63244462D01*
X157096463Y-63071281D01*
X157160266Y-62883324D01*
X157161094Y-62877615D01*
X157161095Y-62877610D01*
X157178457Y-62757861D01*
X157188748Y-62686888D01*
X157190234Y-62630123D01*
X157172072Y-62432465D01*
X157166126Y-62411380D01*
X157129600Y-62281870D01*
X157118194Y-62241427D01*
X157030404Y-62063407D01*
X156911642Y-61904366D01*
X156903787Y-61897105D01*
X156770127Y-61773551D01*
X156770125Y-61773549D01*
X156765886Y-61769631D01*
X156598017Y-61663713D01*
X156592657Y-61661575D01*
X156592654Y-61661573D01*
X156505837Y-61626937D01*
X156413658Y-61590161D01*
X156408001Y-61589036D01*
X156407995Y-61589034D01*
X156224648Y-61552565D01*
X156224646Y-61552565D01*
X156218981Y-61551438D01*
X156213206Y-61551362D01*
X156213202Y-61551362D01*
X156114245Y-61550067D01*
X156020508Y-61548840D01*
X156014811Y-61549819D01*
X156014810Y-61549819D01*
X155890874Y-61571115D01*
X155824885Y-61582454D01*
X155638663Y-61651155D01*
X155468079Y-61752641D01*
X155318846Y-61883515D01*
X155315271Y-61888050D01*
X155315270Y-61888051D01*
X155305227Y-61900791D01*
X155195962Y-62039393D01*
X155193273Y-62044504D01*
X155193271Y-62044507D01*
X155164511Y-62099171D01*
X155103542Y-62215054D01*
X155044682Y-62404616D01*
X155021352Y-62601731D01*
X154647625Y-62601731D01*
X154632072Y-62432465D01*
X154626126Y-62411380D01*
X154589600Y-62281870D01*
X154578194Y-62241427D01*
X154490404Y-62063407D01*
X154371642Y-61904366D01*
X154363787Y-61897105D01*
X154230127Y-61773551D01*
X154230125Y-61773549D01*
X154225886Y-61769631D01*
X154058017Y-61663713D01*
X154052657Y-61661575D01*
X154052654Y-61661573D01*
X153965837Y-61626937D01*
X153873658Y-61590161D01*
X153868001Y-61589036D01*
X153867995Y-61589034D01*
X153684648Y-61552565D01*
X153684646Y-61552565D01*
X153678981Y-61551438D01*
X153673206Y-61551362D01*
X153673202Y-61551362D01*
X153574245Y-61550067D01*
X153480508Y-61548840D01*
X153474811Y-61549819D01*
X153474810Y-61549819D01*
X153350874Y-61571115D01*
X153284885Y-61582454D01*
X153098663Y-61651155D01*
X152928079Y-61752641D01*
X152778846Y-61883515D01*
X152775271Y-61888050D01*
X152775270Y-61888051D01*
X152765227Y-61900791D01*
X152655962Y-62039393D01*
X152653273Y-62044504D01*
X152653271Y-62044507D01*
X152624511Y-62099171D01*
X152563542Y-62215054D01*
X152504682Y-62404616D01*
X152481352Y-62601731D01*
X150915260Y-62601731D01*
X150908273Y-62595215D01*
X150741139Y-62463222D01*
X150732556Y-62457520D01*
X150695602Y-62437120D01*
X150645631Y-62386687D01*
X150630859Y-62317245D01*
X150655975Y-62250839D01*
X150683327Y-62224232D01*
X150722565Y-62196244D01*
X150862860Y-62096173D01*
X150869267Y-62089789D01*
X151017435Y-61942137D01*
X151021096Y-61938489D01*
X151098490Y-61830784D01*
X151148435Y-61761277D01*
X151151453Y-61757077D01*
X151155611Y-61748665D01*
X151248136Y-61561453D01*
X151248137Y-61561451D01*
X151250430Y-61556811D01*
X151301604Y-61388379D01*
X151313865Y-61348023D01*
X151313865Y-61348021D01*
X151315370Y-61343069D01*
X151344529Y-61121590D01*
X151345049Y-61100303D01*
X151346074Y-61058365D01*
X151346074Y-61058361D01*
X151346156Y-61055000D01*
X151327852Y-60832361D01*
X151273431Y-60615702D01*
X151184354Y-60410840D01*
X151097952Y-60277283D01*
X151065822Y-60227617D01*
X151065820Y-60227614D01*
X151063014Y-60223277D01*
X150916019Y-60061731D01*
X152481352Y-60061731D01*
X152494334Y-60259796D01*
X152543193Y-60452179D01*
X152626292Y-60632436D01*
X152629625Y-60637152D01*
X152736509Y-60788389D01*
X152740850Y-60794532D01*
X152883029Y-60933036D01*
X153048068Y-61043312D01*
X153053371Y-61045590D01*
X153053374Y-61045592D01*
X153192774Y-61105483D01*
X153230439Y-61121665D01*
X153284709Y-61133945D01*
X153418398Y-61164196D01*
X153418403Y-61164197D01*
X153424035Y-61165471D01*
X153429806Y-61165698D01*
X153429808Y-61165698D01*
X153488869Y-61168018D01*
X153622372Y-61173264D01*
X153720590Y-61159023D01*
X153813094Y-61145611D01*
X153813099Y-61145610D01*
X153818808Y-61144782D01*
X153830831Y-61140701D01*
X153934579Y-61105483D01*
X154006765Y-61080979D01*
X154179946Y-60983993D01*
X154332554Y-60857070D01*
X154459477Y-60704462D01*
X154556463Y-60531281D01*
X154620266Y-60343324D01*
X154621094Y-60337615D01*
X154621095Y-60337610D01*
X154638100Y-60220327D01*
X154648748Y-60146888D01*
X154650234Y-60090123D01*
X154647625Y-60061731D01*
X155021352Y-60061731D01*
X155034334Y-60259796D01*
X155083193Y-60452179D01*
X155166292Y-60632436D01*
X155169625Y-60637152D01*
X155276509Y-60788389D01*
X155280850Y-60794532D01*
X155423029Y-60933036D01*
X155588068Y-61043312D01*
X155593371Y-61045590D01*
X155593374Y-61045592D01*
X155732774Y-61105483D01*
X155770439Y-61121665D01*
X155824709Y-61133945D01*
X155958398Y-61164196D01*
X155958403Y-61164197D01*
X155964035Y-61165471D01*
X155969806Y-61165698D01*
X155969808Y-61165698D01*
X156028869Y-61168018D01*
X156162372Y-61173264D01*
X156260590Y-61159023D01*
X156353094Y-61145611D01*
X156353099Y-61145610D01*
X156358808Y-61144782D01*
X156370831Y-61140701D01*
X156474579Y-61105483D01*
X156546765Y-61080979D01*
X156719946Y-60983993D01*
X156872554Y-60857070D01*
X156999477Y-60704462D01*
X157096463Y-60531281D01*
X157160266Y-60343324D01*
X157161094Y-60337615D01*
X157161095Y-60337610D01*
X157178100Y-60220327D01*
X157188748Y-60146888D01*
X157190234Y-60090123D01*
X157172072Y-59892465D01*
X157169248Y-59882450D01*
X157149407Y-59812102D01*
X157118194Y-59701427D01*
X157030404Y-59523407D01*
X156931317Y-59390714D01*
X156915095Y-59368990D01*
X156915095Y-59368989D01*
X156911642Y-59364366D01*
X156907406Y-59360450D01*
X156770127Y-59233551D01*
X156770125Y-59233549D01*
X156765886Y-59229631D01*
X156727029Y-59205114D01*
X156602897Y-59126792D01*
X156602896Y-59126792D01*
X156598017Y-59123713D01*
X156592657Y-59121575D01*
X156592654Y-59121573D01*
X156468410Y-59072005D01*
X156413658Y-59050161D01*
X156408001Y-59049036D01*
X156407995Y-59049034D01*
X156224648Y-59012565D01*
X156224646Y-59012565D01*
X156218981Y-59011438D01*
X156213206Y-59011362D01*
X156213202Y-59011362D01*
X156114245Y-59010067D01*
X156020508Y-59008840D01*
X156014811Y-59009819D01*
X156014810Y-59009819D01*
X155824885Y-59042454D01*
X155638663Y-59111155D01*
X155468079Y-59212641D01*
X155318846Y-59343515D01*
X155315271Y-59348050D01*
X155315270Y-59348051D01*
X155302408Y-59364366D01*
X155195962Y-59499393D01*
X155193273Y-59504504D01*
X155193271Y-59504507D01*
X155162827Y-59562372D01*
X155103542Y-59675054D01*
X155044682Y-59864616D01*
X155021352Y-60061731D01*
X154647625Y-60061731D01*
X154632072Y-59892465D01*
X154629248Y-59882450D01*
X154609407Y-59812102D01*
X154578194Y-59701427D01*
X154490404Y-59523407D01*
X154391317Y-59390714D01*
X154375095Y-59368990D01*
X154375095Y-59368989D01*
X154371642Y-59364366D01*
X154367406Y-59360450D01*
X154230127Y-59233551D01*
X154230125Y-59233549D01*
X154225886Y-59229631D01*
X154187029Y-59205114D01*
X154062897Y-59126792D01*
X154062896Y-59126792D01*
X154058017Y-59123713D01*
X154052657Y-59121575D01*
X154052654Y-59121573D01*
X153928410Y-59072005D01*
X153873658Y-59050161D01*
X153868001Y-59049036D01*
X153867995Y-59049034D01*
X153684648Y-59012565D01*
X153684646Y-59012565D01*
X153678981Y-59011438D01*
X153673206Y-59011362D01*
X153673202Y-59011362D01*
X153574245Y-59010067D01*
X153480508Y-59008840D01*
X153474811Y-59009819D01*
X153474810Y-59009819D01*
X153284885Y-59042454D01*
X153098663Y-59111155D01*
X152928079Y-59212641D01*
X152778846Y-59343515D01*
X152775271Y-59348050D01*
X152775270Y-59348051D01*
X152762408Y-59364366D01*
X152655962Y-59499393D01*
X152653273Y-59504504D01*
X152653271Y-59504507D01*
X152622827Y-59562372D01*
X152563542Y-59675054D01*
X152504682Y-59864616D01*
X152481352Y-60061731D01*
X150916019Y-60061731D01*
X150912670Y-60058051D01*
X150908619Y-60054852D01*
X150908615Y-60054848D01*
X150741414Y-59922800D01*
X150741410Y-59922798D01*
X150737359Y-59919598D01*
X150726572Y-59913643D01*
X150644057Y-59868093D01*
X150541789Y-59811638D01*
X150536920Y-59809914D01*
X150536916Y-59809912D01*
X150336087Y-59738795D01*
X150336083Y-59738794D01*
X150331212Y-59737069D01*
X150326119Y-59736162D01*
X150326116Y-59736161D01*
X150116373Y-59698800D01*
X150116367Y-59698799D01*
X150111284Y-59697894D01*
X150037452Y-59696992D01*
X149893081Y-59695228D01*
X149893079Y-59695228D01*
X149887911Y-59695165D01*
X149667091Y-59728955D01*
X149454756Y-59798357D01*
X149396844Y-59828504D01*
X149320795Y-59868093D01*
X149256607Y-59901507D01*
X149252474Y-59904610D01*
X149252471Y-59904612D01*
X149082100Y-60032530D01*
X149077965Y-60035635D01*
X149032030Y-60083703D01*
X148945324Y-60174436D01*
X148923629Y-60197138D01*
X148920715Y-60201410D01*
X148920714Y-60201411D01*
X148835978Y-60325630D01*
X148781067Y-60370633D01*
X148710542Y-60378804D01*
X148646795Y-60347550D01*
X148610652Y-60288937D01*
X148599390Y-60249137D01*
X148597256Y-60244562D01*
X148597254Y-60244555D01*
X148498972Y-60033789D01*
X148498970Y-60033785D01*
X148496835Y-60029207D01*
X148492676Y-60023087D01*
X148363283Y-59832691D01*
X148363280Y-59832687D01*
X148360437Y-59828504D01*
X148193705Y-59652189D01*
X148189131Y-59648692D01*
X148004948Y-59507873D01*
X148004944Y-59507870D01*
X148000928Y-59504800D01*
X147787066Y-59390128D01*
X147557622Y-59311124D01*
X147318498Y-59269820D01*
X147314539Y-59269640D01*
X147314537Y-59269640D01*
X147290847Y-59268564D01*
X147290826Y-59268564D01*
X147289427Y-59268500D01*
X146371103Y-59268500D01*
X146368595Y-59268702D01*
X146368590Y-59268702D01*
X146195237Y-59282649D01*
X146195232Y-59282650D01*
X146190196Y-59283055D01*
X146185288Y-59284260D01*
X146185285Y-59284261D01*
X145960732Y-59339417D01*
X145954536Y-59340939D01*
X145949884Y-59342914D01*
X145949880Y-59342915D01*
X145844348Y-59387711D01*
X145731161Y-59435756D01*
X145726877Y-59438454D01*
X145530099Y-59562372D01*
X145530096Y-59562374D01*
X145525820Y-59565067D01*
X145522026Y-59568412D01*
X145347591Y-59722196D01*
X145347588Y-59722199D01*
X145343794Y-59725544D01*
X145340584Y-59729452D01*
X145340583Y-59729453D01*
X145289949Y-59791096D01*
X145189767Y-59913060D01*
X145167793Y-59950815D01*
X145167469Y-59951372D01*
X145115915Y-60000185D01*
X145058571Y-60013990D01*
X144603878Y-60013990D01*
X144584930Y-60012557D01*
X144577543Y-60011433D01*
X144570534Y-60010367D01*
X144570532Y-60010367D01*
X144563302Y-60009267D01*
X144556010Y-60009860D01*
X144556007Y-60009860D01*
X144510335Y-60013575D01*
X144500121Y-60013990D01*
X144491985Y-60013990D01*
X144463566Y-60017304D01*
X144459239Y-60017731D01*
X144424497Y-60020557D01*
X144393384Y-60023087D01*
X144393382Y-60023087D01*
X144386084Y-60023681D01*
X144379117Y-60025938D01*
X144373117Y-60027137D01*
X144367177Y-60028541D01*
X144359903Y-60029389D01*
X144353021Y-60031887D01*
X144353017Y-60031888D01*
X144290903Y-60054435D01*
X144286799Y-60055845D01*
X144216935Y-60078477D01*
X144210672Y-60082277D01*
X144205130Y-60084815D01*
X144199654Y-60087557D01*
X144192769Y-60090056D01*
X144186645Y-60094071D01*
X144131378Y-60130305D01*
X144127710Y-60132620D01*
X144064929Y-60170717D01*
X144060722Y-60174433D01*
X144060718Y-60174436D01*
X144056505Y-60178158D01*
X144056479Y-60178128D01*
X144053551Y-60180726D01*
X144050197Y-60183530D01*
X144044075Y-60187544D01*
X144039042Y-60192857D01*
X143990504Y-60244095D01*
X143988126Y-60246537D01*
X132392067Y-71842595D01*
X132329755Y-71876621D01*
X132302972Y-71879500D01*
X122964530Y-71879500D01*
X122896409Y-71859498D01*
X122869364Y-71836080D01*
X122858628Y-71823707D01*
X122784755Y-71738576D01*
X122724023Y-71668588D01*
X122724021Y-71668586D01*
X122720523Y-71664555D01*
X122631358Y-71591444D01*
X122546373Y-71521760D01*
X122546367Y-71521756D01*
X122542245Y-71518376D01*
X122537602Y-71515733D01*
X122510265Y-71500171D01*
X122460959Y-71449088D01*
X122447098Y-71379458D01*
X122473082Y-71313387D01*
X122502232Y-71286149D01*
X122619578Y-71207148D01*
X122627870Y-71200481D01*
X122786900Y-71048772D01*
X122793941Y-71040814D01*
X122925141Y-70864475D01*
X122930745Y-70855438D01*
X123030357Y-70659516D01*
X123034357Y-70649665D01*
X123099534Y-70439760D01*
X123101817Y-70429376D01*
X123103861Y-70413957D01*
X123101665Y-70399793D01*
X123088478Y-70396000D01*
X120203808Y-70396000D01*
X120190277Y-70399973D01*
X120188752Y-70410580D01*
X120213477Y-70528421D01*
X120216537Y-70538617D01*
X120297263Y-70743029D01*
X120301994Y-70752561D01*
X120416016Y-70940462D01*
X120422280Y-70949052D01*
X120566327Y-71115052D01*
X120573958Y-71122472D01*
X120743911Y-71261826D01*
X120752674Y-71267848D01*
X120779711Y-71283238D01*
X120829018Y-71334320D01*
X120842880Y-71403951D01*
X120816897Y-71470022D01*
X120787747Y-71497261D01*
X120771762Y-71508023D01*
X120665681Y-71579441D01*
X120661824Y-71583120D01*
X120661822Y-71583122D01*
X120647876Y-71596426D01*
X120498865Y-71738576D01*
X120361246Y-71923542D01*
X120358830Y-71928293D01*
X120358828Y-71928297D01*
X120324518Y-71995780D01*
X120256760Y-72129051D01*
X120255178Y-72134145D01*
X120255177Y-72134148D01*
X120213054Y-72269807D01*
X120188393Y-72349227D01*
X120187692Y-72354516D01*
X120160237Y-72561669D01*
X120158102Y-72577774D01*
X120158302Y-72583103D01*
X120158302Y-72583105D01*
X120160909Y-72652545D01*
X120166751Y-72808158D01*
X120214093Y-73033791D01*
X120216051Y-73038750D01*
X120216052Y-73038752D01*
X120294646Y-73237762D01*
X120298776Y-73248221D01*
X120301543Y-73252780D01*
X120301544Y-73252783D01*
X120363933Y-73355596D01*
X120418377Y-73445317D01*
X120421874Y-73449347D01*
X120508438Y-73549103D01*
X120569477Y-73619445D01*
X120594325Y-73639819D01*
X120743627Y-73762240D01*
X120743633Y-73762244D01*
X120747755Y-73765624D01*
X120779250Y-73783552D01*
X120828555Y-73834632D01*
X120842417Y-73904262D01*
X120816434Y-73970333D01*
X120787284Y-73997573D01*
X120665681Y-74079441D01*
X120661824Y-74083120D01*
X120661822Y-74083122D01*
X120622417Y-74120713D01*
X120498865Y-74238576D01*
X120361246Y-74423542D01*
X120358830Y-74428293D01*
X120358828Y-74428297D01*
X120327755Y-74489414D01*
X120256760Y-74629051D01*
X120255178Y-74634145D01*
X120255177Y-74634148D01*
X120228853Y-74718925D01*
X120188393Y-74849227D01*
X120187692Y-74854516D01*
X120159331Y-75068504D01*
X120158102Y-75077774D01*
X120158302Y-75083103D01*
X120158302Y-75083105D01*
X120158709Y-75093933D01*
X120166751Y-75308158D01*
X120214093Y-75533791D01*
X120216051Y-75538750D01*
X120216052Y-75538752D01*
X120296303Y-75741958D01*
X120298776Y-75748221D01*
X120301543Y-75752780D01*
X120301544Y-75752783D01*
X120373498Y-75871359D01*
X120418377Y-75945317D01*
X120421874Y-75949347D01*
X120533745Y-76078267D01*
X120569477Y-76119445D01*
X120573608Y-76122832D01*
X120743627Y-76262240D01*
X120743633Y-76262244D01*
X120747755Y-76265624D01*
X120779250Y-76283552D01*
X120828555Y-76334632D01*
X120842417Y-76404262D01*
X120816434Y-76470333D01*
X120787284Y-76497573D01*
X120665681Y-76579441D01*
X120498865Y-76738576D01*
X120361246Y-76923542D01*
X120358830Y-76928293D01*
X120358828Y-76928297D01*
X120324866Y-76995096D01*
X120256760Y-77129051D01*
X120255178Y-77134145D01*
X120255177Y-77134148D01*
X120228212Y-77220990D01*
X120188393Y-77349227D01*
X120187692Y-77354516D01*
X120161499Y-77552145D01*
X120158102Y-77577774D01*
X117852500Y-77577774D01*
X117852500Y-69870043D01*
X120186139Y-69870043D01*
X120188335Y-69884207D01*
X120201522Y-69888000D01*
X121372885Y-69888000D01*
X121388124Y-69883525D01*
X121389329Y-69882135D01*
X121391000Y-69874452D01*
X121391000Y-69869885D01*
X121899000Y-69869885D01*
X121903475Y-69885124D01*
X121904865Y-69886329D01*
X121912548Y-69888000D01*
X123086192Y-69888000D01*
X123099723Y-69884027D01*
X123101248Y-69873420D01*
X123076523Y-69755579D01*
X123073463Y-69745383D01*
X122992737Y-69540971D01*
X122988006Y-69531439D01*
X122873984Y-69343538D01*
X122867720Y-69334948D01*
X122723673Y-69168948D01*
X122716042Y-69161528D01*
X122546089Y-69022174D01*
X122537322Y-69016150D01*
X122346318Y-68907424D01*
X122336654Y-68902959D01*
X122130059Y-68827969D01*
X122119792Y-68825198D01*
X121916826Y-68788496D01*
X121903586Y-68789915D01*
X121899000Y-68804550D01*
X121899000Y-69869885D01*
X121391000Y-69869885D01*
X121391000Y-68808151D01*
X121386690Y-68793473D01*
X121374807Y-68791410D01*
X121295675Y-68798124D01*
X121285203Y-68799914D01*
X121072465Y-68855130D01*
X121062425Y-68858665D01*
X120862030Y-68948937D01*
X120852744Y-68954106D01*
X120670425Y-69076850D01*
X120662130Y-69083519D01*
X120503100Y-69235228D01*
X120496059Y-69243186D01*
X120364859Y-69419525D01*
X120359255Y-69428562D01*
X120259643Y-69624484D01*
X120255643Y-69634335D01*
X120190466Y-69844240D01*
X120188183Y-69854624D01*
X120186139Y-69870043D01*
X117852500Y-69870043D01*
X117852500Y-62601199D01*
X117872502Y-62533078D01*
X117926158Y-62486585D01*
X117996432Y-62476481D01*
X118061012Y-62505975D01*
X118083081Y-62530923D01*
X118160905Y-62646737D01*
X118253834Y-62785029D01*
X118484665Y-63059150D01*
X118743751Y-63306738D01*
X119028061Y-63524897D01*
X119060056Y-63544350D01*
X119331355Y-63709303D01*
X119331360Y-63709306D01*
X119334270Y-63711075D01*
X119338943Y-63713264D01*
X119655710Y-63861649D01*
X119655720Y-63861653D01*
X119658794Y-63863093D01*
X119662012Y-63864195D01*
X119662015Y-63864196D01*
X119994615Y-63978071D01*
X119994623Y-63978073D01*
X119997838Y-63979174D01*
X120347435Y-64057959D01*
X120428404Y-64067184D01*
X120700114Y-64098142D01*
X120700122Y-64098142D01*
X120703497Y-64098527D01*
X120706901Y-64098545D01*
X120706904Y-64098545D01*
X120901227Y-64099562D01*
X121061857Y-64100403D01*
X121065243Y-64100053D01*
X121065245Y-64100053D01*
X121414932Y-64063917D01*
X121414941Y-64063916D01*
X121418324Y-64063566D01*
X121421657Y-64062852D01*
X121421660Y-64062851D01*
X121695815Y-64004077D01*
X121768727Y-63988446D01*
X122108968Y-63875922D01*
X122435066Y-63727311D01*
X122549466Y-63659385D01*
X122740262Y-63546099D01*
X122740267Y-63546096D01*
X122743207Y-63544350D01*
X122766566Y-63526812D01*
X122934449Y-63400761D01*
X123029786Y-63329180D01*
X123291451Y-63084319D01*
X123525140Y-62812630D01*
X123648028Y-62633827D01*
X123726190Y-62520101D01*
X123726195Y-62520094D01*
X123728120Y-62517292D01*
X123729732Y-62514298D01*
X123729737Y-62514290D01*
X123890859Y-62215054D01*
X123898017Y-62201760D01*
X123999254Y-61952443D01*
X124031562Y-61872877D01*
X124031564Y-61872872D01*
X124032842Y-61869724D01*
X124034476Y-61863990D01*
X124073170Y-61728153D01*
X124118451Y-61569193D01*
X131186410Y-61569193D01*
X131193124Y-61648325D01*
X131194914Y-61658797D01*
X131250130Y-61871535D01*
X131253665Y-61881575D01*
X131343937Y-62081970D01*
X131349106Y-62091256D01*
X131471850Y-62273575D01*
X131478519Y-62281870D01*
X131630228Y-62440900D01*
X131638186Y-62447941D01*
X131814525Y-62579141D01*
X131823562Y-62584745D01*
X132019484Y-62684357D01*
X132029335Y-62688357D01*
X132239240Y-62753534D01*
X132249624Y-62755817D01*
X132265043Y-62757861D01*
X132279207Y-62755665D01*
X132283000Y-62742478D01*
X132283000Y-62740192D01*
X132791000Y-62740192D01*
X132794973Y-62753723D01*
X132805580Y-62755248D01*
X132923421Y-62730523D01*
X132933617Y-62727463D01*
X133138029Y-62646737D01*
X133147561Y-62642006D01*
X133335462Y-62527984D01*
X133344052Y-62521720D01*
X133510052Y-62377673D01*
X133517472Y-62370042D01*
X133656826Y-62200089D01*
X133662848Y-62191326D01*
X133678238Y-62164289D01*
X133729320Y-62114982D01*
X133798951Y-62101120D01*
X133865022Y-62127103D01*
X133892261Y-62156253D01*
X133920767Y-62198594D01*
X133974441Y-62278319D01*
X133978120Y-62282176D01*
X133978122Y-62282178D01*
X134039710Y-62346738D01*
X134133576Y-62445135D01*
X134137854Y-62448318D01*
X134163271Y-62467229D01*
X134318542Y-62582754D01*
X134323293Y-62585170D01*
X134323297Y-62585172D01*
X134405855Y-62627146D01*
X134524051Y-62687240D01*
X134529145Y-62688822D01*
X134529148Y-62688823D01*
X134673730Y-62733717D01*
X134744227Y-62755607D01*
X134749516Y-62756308D01*
X134967489Y-62785198D01*
X134967494Y-62785198D01*
X134972774Y-62785898D01*
X134978103Y-62785698D01*
X134978105Y-62785698D01*
X135087966Y-62781574D01*
X135203158Y-62777249D01*
X135225802Y-62772498D01*
X135423572Y-62731002D01*
X135428791Y-62729907D01*
X135433750Y-62727949D01*
X135433752Y-62727948D01*
X135638256Y-62647185D01*
X135638258Y-62647184D01*
X135643221Y-62645224D01*
X135648525Y-62642006D01*
X135826496Y-62534010D01*
X135840317Y-62525623D01*
X135884156Y-62487582D01*
X136010412Y-62378023D01*
X136010414Y-62378021D01*
X136014445Y-62374523D01*
X136043670Y-62338880D01*
X136102329Y-62298886D01*
X136173299Y-62296954D01*
X136234048Y-62333698D01*
X136248248Y-62352468D01*
X136305531Y-62445036D01*
X136338522Y-62498348D01*
X136463697Y-62623305D01*
X136469927Y-62627145D01*
X136469928Y-62627146D01*
X136607090Y-62711694D01*
X136614262Y-62716115D01*
X136649938Y-62727948D01*
X136775611Y-62769632D01*
X136775613Y-62769632D01*
X136782139Y-62771797D01*
X136788975Y-62772497D01*
X136788978Y-62772498D01*
X136824663Y-62776154D01*
X136886600Y-62782500D01*
X138187400Y-62782500D01*
X138190646Y-62782163D01*
X138190650Y-62782163D01*
X138286308Y-62772238D01*
X138286312Y-62772237D01*
X138293166Y-62771526D01*
X138299702Y-62769345D01*
X138299704Y-62769345D01*
X138452140Y-62718488D01*
X138460946Y-62715550D01*
X138611348Y-62622478D01*
X138736305Y-62497303D01*
X138749140Y-62476481D01*
X138825275Y-62352968D01*
X138825276Y-62352966D01*
X138829115Y-62346738D01*
X138870962Y-62220572D01*
X138882632Y-62185389D01*
X138882632Y-62185387D01*
X138884797Y-62178861D01*
X138885676Y-62170288D01*
X138893269Y-62096173D01*
X138895500Y-62074400D01*
X138895500Y-60523600D01*
X138894971Y-60518498D01*
X138885238Y-60424692D01*
X138885237Y-60424688D01*
X138884526Y-60417834D01*
X138877785Y-60397627D01*
X138830868Y-60257002D01*
X138828550Y-60250054D01*
X138735478Y-60099652D01*
X138610303Y-59974695D01*
X138579965Y-59955994D01*
X138465968Y-59885725D01*
X138465966Y-59885724D01*
X138459738Y-59881885D01*
X138346353Y-59844277D01*
X138298389Y-59828368D01*
X138298387Y-59828368D01*
X138291861Y-59826203D01*
X138285025Y-59825503D01*
X138285022Y-59825502D01*
X138241969Y-59821091D01*
X138187400Y-59815500D01*
X136886600Y-59815500D01*
X136883354Y-59815837D01*
X136883350Y-59815837D01*
X136787692Y-59825762D01*
X136787688Y-59825763D01*
X136780834Y-59826474D01*
X136774298Y-59828655D01*
X136774296Y-59828655D01*
X136646220Y-59871385D01*
X136613054Y-59882450D01*
X136462652Y-59975522D01*
X136337695Y-60100697D01*
X136333855Y-60106927D01*
X136333854Y-60106928D01*
X136324077Y-60122789D01*
X136249020Y-60244555D01*
X136247920Y-60246339D01*
X136195148Y-60293832D01*
X136125076Y-60305256D01*
X136059952Y-60276982D01*
X136049490Y-60267195D01*
X135982658Y-60197138D01*
X135940424Y-60152865D01*
X135755458Y-60015246D01*
X135750707Y-60012830D01*
X135750703Y-60012828D01*
X135629827Y-59951372D01*
X135549949Y-59910760D01*
X135544855Y-59909178D01*
X135544852Y-59909177D01*
X135334871Y-59843976D01*
X135329773Y-59842393D01*
X135324484Y-59841692D01*
X135106511Y-59812802D01*
X135106506Y-59812802D01*
X135101226Y-59812102D01*
X135095897Y-59812302D01*
X135095895Y-59812302D01*
X134986034Y-59816426D01*
X134870842Y-59820751D01*
X134865623Y-59821846D01*
X134843566Y-59826474D01*
X134645209Y-59868093D01*
X134640250Y-59870051D01*
X134640248Y-59870052D01*
X134435744Y-59950815D01*
X134435742Y-59950816D01*
X134430779Y-59952776D01*
X134426220Y-59955543D01*
X134426217Y-59955544D01*
X134308236Y-60027137D01*
X134233683Y-60072377D01*
X134229653Y-60075874D01*
X134064188Y-60219457D01*
X134059555Y-60223477D01*
X134042649Y-60244095D01*
X133916760Y-60397627D01*
X133916756Y-60397633D01*
X133913376Y-60401755D01*
X133910733Y-60406398D01*
X133895171Y-60433735D01*
X133844088Y-60483041D01*
X133774458Y-60496902D01*
X133708387Y-60470918D01*
X133681149Y-60441768D01*
X133602148Y-60324422D01*
X133595481Y-60316130D01*
X133443772Y-60157100D01*
X133435814Y-60150059D01*
X133259475Y-60018859D01*
X133250438Y-60013255D01*
X133054516Y-59913643D01*
X133044665Y-59909643D01*
X132834760Y-59844466D01*
X132824376Y-59842183D01*
X132808957Y-59840139D01*
X132794793Y-59842335D01*
X132791000Y-59855522D01*
X132791000Y-62740192D01*
X132283000Y-62740192D01*
X132283000Y-61571115D01*
X132278525Y-61555876D01*
X132277135Y-61554671D01*
X132269452Y-61553000D01*
X131203151Y-61553000D01*
X131188473Y-61557310D01*
X131186410Y-61569193D01*
X124118451Y-61569193D01*
X124131020Y-61525070D01*
X124181572Y-61229332D01*
X124190829Y-61175175D01*
X124190829Y-61175173D01*
X124191401Y-61171828D01*
X124193005Y-61145611D01*
X124200248Y-61027174D01*
X131183496Y-61027174D01*
X131184915Y-61040414D01*
X131199550Y-61045000D01*
X132264885Y-61045000D01*
X132280124Y-61040525D01*
X132281329Y-61039135D01*
X132283000Y-61031452D01*
X132283000Y-59857808D01*
X132279027Y-59844277D01*
X132268420Y-59842752D01*
X132150579Y-59867477D01*
X132140383Y-59870537D01*
X131935971Y-59951263D01*
X131926439Y-59955994D01*
X131738538Y-60070016D01*
X131729948Y-60076280D01*
X131563948Y-60220327D01*
X131556528Y-60227958D01*
X131417174Y-60397911D01*
X131411150Y-60406678D01*
X131302424Y-60597682D01*
X131297959Y-60607346D01*
X131222969Y-60813941D01*
X131220198Y-60824208D01*
X131183496Y-61027174D01*
X124200248Y-61027174D01*
X124213168Y-60815928D01*
X124213278Y-60814131D01*
X124213359Y-60791000D01*
X124193979Y-60433159D01*
X124136066Y-60079505D01*
X124040297Y-59734173D01*
X124038861Y-59730562D01*
X123922616Y-59438454D01*
X123907793Y-59401205D01*
X123809971Y-59216451D01*
X123741702Y-59087513D01*
X123741698Y-59087506D01*
X123740103Y-59084494D01*
X123539190Y-58787746D01*
X123307403Y-58514432D01*
X123047454Y-58267750D01*
X122762384Y-58050585D01*
X122759472Y-58048828D01*
X122759467Y-58048825D01*
X122458443Y-57867236D01*
X122458437Y-57867233D01*
X122455528Y-57865478D01*
X122130475Y-57714593D01*
X121960752Y-57657145D01*
X121794255Y-57600789D01*
X121794250Y-57600788D01*
X121791028Y-57599697D01*
X121592681Y-57555724D01*
X121444493Y-57522871D01*
X121444487Y-57522870D01*
X121441158Y-57522132D01*
X121437769Y-57521758D01*
X121437764Y-57521757D01*
X121120573Y-57486739D01*
X121055059Y-57459383D01*
X121014735Y-57400949D01*
X121012403Y-57329991D01*
X121048805Y-57269036D01*
X121112383Y-57237439D01*
X121134400Y-57235500D01*
X186202113Y-57235500D01*
X186270234Y-57255502D01*
G37*
%TD.AperFunction*%
%TA.AperFunction,Conductor*%
G36*
X161639982Y-85917638D02*
G01*
X161691995Y-85965962D01*
X161709700Y-86030369D01*
X161709700Y-88680456D01*
X161689698Y-88748577D01*
X161672795Y-88769551D01*
X160055020Y-90387326D01*
X159992708Y-90421352D01*
X159921893Y-90416287D01*
X159865057Y-90373740D01*
X159842610Y-90324105D01*
X159804523Y-90142579D01*
X159801463Y-90132383D01*
X159720737Y-89927971D01*
X159716006Y-89918439D01*
X159601984Y-89730538D01*
X159595720Y-89721948D01*
X159451673Y-89555948D01*
X159444042Y-89548528D01*
X159274089Y-89409174D01*
X159265322Y-89403150D01*
X159074318Y-89294424D01*
X159064654Y-89289959D01*
X158858059Y-89214969D01*
X158847792Y-89212198D01*
X158630345Y-89172877D01*
X158622116Y-89171944D01*
X158617624Y-89171732D01*
X158604876Y-89175475D01*
X158603671Y-89176865D01*
X158602000Y-89184548D01*
X158602000Y-90657000D01*
X158581998Y-90725121D01*
X158528342Y-90771614D01*
X158476000Y-90783000D01*
X156881808Y-90783000D01*
X156868277Y-90786973D01*
X156866752Y-90797580D01*
X156891477Y-90915421D01*
X156894537Y-90925617D01*
X156975263Y-91130029D01*
X156979990Y-91139554D01*
X157094016Y-91327462D01*
X157100280Y-91336052D01*
X157244327Y-91502052D01*
X157251956Y-91509470D01*
X157283569Y-91535391D01*
X157323564Y-91594051D01*
X157325496Y-91665021D01*
X157288752Y-91725770D01*
X157269983Y-91739969D01*
X157123652Y-91830522D01*
X156998695Y-91955697D01*
X156905885Y-92106262D01*
X156903581Y-92113209D01*
X156864633Y-92230635D01*
X156850203Y-92274139D01*
X156839500Y-92378600D01*
X156839500Y-93679400D01*
X156850474Y-93785166D01*
X156852655Y-93791702D01*
X156852655Y-93791704D01*
X156888953Y-93900502D01*
X156906450Y-93952946D01*
X156999522Y-94103348D01*
X157004699Y-94108516D01*
X157009234Y-94114238D01*
X157035870Y-94180048D01*
X157022698Y-94249812D01*
X156973899Y-94301380D01*
X156910487Y-94318500D01*
X155812028Y-94318500D01*
X155743907Y-94298498D01*
X155722933Y-94281595D01*
X151739405Y-90298067D01*
X151717003Y-90257043D01*
X156864139Y-90257043D01*
X156866335Y-90271207D01*
X156879522Y-90275000D01*
X158075885Y-90275000D01*
X158091124Y-90270525D01*
X158092329Y-90269135D01*
X158094000Y-90261452D01*
X158094000Y-89193030D01*
X158089690Y-89178352D01*
X158077807Y-89176289D01*
X157973675Y-89185124D01*
X157963203Y-89186914D01*
X157750465Y-89242130D01*
X157740425Y-89245665D01*
X157540030Y-89335937D01*
X157530744Y-89341106D01*
X157348425Y-89463850D01*
X157340130Y-89470519D01*
X157181100Y-89622228D01*
X157174059Y-89630186D01*
X157042859Y-89806525D01*
X157037255Y-89815562D01*
X156937643Y-90011484D01*
X156933643Y-90021335D01*
X156868466Y-90231240D01*
X156866183Y-90241624D01*
X156864139Y-90257043D01*
X151717003Y-90257043D01*
X151705379Y-90235755D01*
X151702500Y-90208972D01*
X151702500Y-86564500D01*
X151722502Y-86496379D01*
X151776158Y-86449886D01*
X151828500Y-86438500D01*
X152037655Y-86438500D01*
X152105776Y-86458502D01*
X152126750Y-86475404D01*
X152798393Y-87147046D01*
X152804246Y-87153312D01*
X152839524Y-87193752D01*
X152888099Y-87227891D01*
X152893393Y-87231823D01*
X152940121Y-87268463D01*
X152947045Y-87271589D01*
X152953176Y-87275302D01*
X152957796Y-87277938D01*
X152964178Y-87281360D01*
X152970397Y-87285731D01*
X152977476Y-87288491D01*
X153025713Y-87307298D01*
X153031792Y-87309854D01*
X153085912Y-87334289D01*
X153093388Y-87335675D01*
X153100266Y-87337830D01*
X153105391Y-87339290D01*
X153112355Y-87341078D01*
X153119434Y-87343838D01*
X153126966Y-87344830D01*
X153126968Y-87344830D01*
X153152196Y-87348151D01*
X153178300Y-87351587D01*
X153184798Y-87352616D01*
X153243197Y-87363440D01*
X153250777Y-87363003D01*
X153250778Y-87363003D01*
X153300968Y-87360109D01*
X153308221Y-87359900D01*
X156387519Y-87359900D01*
X156410479Y-87362010D01*
X156410727Y-87362056D01*
X156410731Y-87362056D01*
X156418197Y-87363440D01*
X156425777Y-87363003D01*
X156425778Y-87363003D01*
X156475967Y-87360109D01*
X156483220Y-87359900D01*
X158784237Y-87359900D01*
X158792808Y-87360192D01*
X158846343Y-87363842D01*
X158853820Y-87362537D01*
X158853821Y-87362537D01*
X158879126Y-87358121D01*
X158904847Y-87353631D01*
X158911365Y-87352670D01*
X158929723Y-87350448D01*
X158962762Y-87346450D01*
X158962764Y-87346450D01*
X158970305Y-87345537D01*
X158977413Y-87342851D01*
X158984379Y-87341140D01*
X158989568Y-87339721D01*
X158996447Y-87337644D01*
X159003924Y-87336339D01*
X159058295Y-87312471D01*
X159064386Y-87309986D01*
X159064736Y-87309854D01*
X159081782Y-87303413D01*
X159112836Y-87291679D01*
X159112838Y-87291678D01*
X159119941Y-87288994D01*
X159126202Y-87284691D01*
X159132526Y-87281385D01*
X159137298Y-87278729D01*
X159143444Y-87275094D01*
X159150396Y-87272042D01*
X159197501Y-87235898D01*
X159202834Y-87232023D01*
X159208846Y-87227891D01*
X159251771Y-87198389D01*
X159290269Y-87155180D01*
X159295249Y-87149905D01*
X159969749Y-86475405D01*
X160032061Y-86441379D01*
X160058844Y-86438500D01*
X160818400Y-86438500D01*
X160821646Y-86438163D01*
X160821650Y-86438163D01*
X160917308Y-86428238D01*
X160917312Y-86428237D01*
X160924166Y-86427526D01*
X160930702Y-86425345D01*
X160930704Y-86425345D01*
X161084998Y-86373868D01*
X161091946Y-86371550D01*
X161242348Y-86278478D01*
X161367305Y-86153303D01*
X161385590Y-86123639D01*
X161456275Y-86008968D01*
X161456276Y-86008966D01*
X161460115Y-86002738D01*
X161464108Y-85990701D01*
X161504536Y-85932343D01*
X161570100Y-85905105D01*
X161639982Y-85917638D01*
G37*
%TD.AperFunction*%
%TA.AperFunction,Conductor*%
G36*
X154820384Y-81639502D02*
G01*
X154866877Y-81693158D01*
X154876981Y-81763432D01*
X154866840Y-81797468D01*
X154863885Y-81802262D01*
X154808203Y-81970139D01*
X154797500Y-82074600D01*
X154797500Y-82825400D01*
X154797837Y-82828646D01*
X154797837Y-82828650D01*
X154806941Y-82916389D01*
X154808474Y-82931166D01*
X154864450Y-83098946D01*
X154957522Y-83249348D01*
X155082697Y-83374305D01*
X155088927Y-83378145D01*
X155088928Y-83378146D01*
X155226090Y-83462694D01*
X155233262Y-83467115D01*
X155313005Y-83493564D01*
X155394611Y-83520632D01*
X155394613Y-83520632D01*
X155401139Y-83522797D01*
X155407975Y-83523497D01*
X155407978Y-83523498D01*
X155451031Y-83527909D01*
X155505600Y-83533500D01*
X156906400Y-83533500D01*
X156909646Y-83533163D01*
X156909650Y-83533163D01*
X157005308Y-83523238D01*
X157005312Y-83523237D01*
X157012166Y-83522526D01*
X157018702Y-83520345D01*
X157018704Y-83520345D01*
X157150806Y-83476272D01*
X157179946Y-83466550D01*
X157330348Y-83373478D01*
X157455305Y-83248303D01*
X157478887Y-83210046D01*
X157544275Y-83103968D01*
X157544276Y-83103966D01*
X157548115Y-83097738D01*
X157603797Y-82929861D01*
X157605178Y-82916389D01*
X157612662Y-82843340D01*
X157614500Y-82825400D01*
X157614500Y-82802095D01*
X158760001Y-82802095D01*
X158760338Y-82808614D01*
X158770257Y-82904206D01*
X158773149Y-82917600D01*
X158824588Y-83071784D01*
X158830761Y-83084962D01*
X158916063Y-83222807D01*
X158925099Y-83234208D01*
X159039829Y-83348739D01*
X159051240Y-83357751D01*
X159189243Y-83442816D01*
X159202424Y-83448963D01*
X159356710Y-83500138D01*
X159370086Y-83503005D01*
X159464438Y-83512672D01*
X159470854Y-83513000D01*
X159870885Y-83513000D01*
X159886124Y-83508525D01*
X159887329Y-83507135D01*
X159889000Y-83499452D01*
X159889000Y-82714615D01*
X159884525Y-82699376D01*
X159883135Y-82698171D01*
X159875452Y-82696500D01*
X158778116Y-82696500D01*
X158762877Y-82700975D01*
X158761672Y-82702365D01*
X158760001Y-82710048D01*
X158760001Y-82802095D01*
X157614500Y-82802095D01*
X157614500Y-82278900D01*
X157634502Y-82210779D01*
X157688158Y-82164286D01*
X157740500Y-82152900D01*
X158679713Y-82152900D01*
X158747834Y-82172902D01*
X158762225Y-82183675D01*
X158765864Y-82186829D01*
X158773548Y-82188500D01*
X160271000Y-82188500D01*
X160339121Y-82208502D01*
X160385614Y-82262158D01*
X160397000Y-82314500D01*
X160397000Y-83494884D01*
X160401475Y-83510123D01*
X160402865Y-83511328D01*
X160410548Y-83512999D01*
X160815095Y-83512999D01*
X160821614Y-83512662D01*
X160917206Y-83502743D01*
X160930600Y-83499851D01*
X161084784Y-83448412D01*
X161097962Y-83442239D01*
X161235807Y-83356937D01*
X161247208Y-83347901D01*
X161361739Y-83233171D01*
X161370753Y-83221757D01*
X161442040Y-83106107D01*
X161494812Y-83058613D01*
X161564883Y-83047189D01*
X161630007Y-83075463D01*
X161638395Y-83083127D01*
X161672795Y-83117527D01*
X161706821Y-83179839D01*
X161709700Y-83206622D01*
X161709700Y-84705044D01*
X161689698Y-84773165D01*
X161636042Y-84819658D01*
X161565768Y-84829762D01*
X161501188Y-84800268D01*
X161464176Y-84744920D01*
X161461868Y-84738002D01*
X161459550Y-84731054D01*
X161366478Y-84580652D01*
X161241303Y-84455695D01*
X161209865Y-84436316D01*
X161096968Y-84366725D01*
X161096966Y-84366724D01*
X161090738Y-84362885D01*
X160983977Y-84327474D01*
X160929389Y-84309368D01*
X160929387Y-84309368D01*
X160922861Y-84307203D01*
X160916025Y-84306503D01*
X160916022Y-84306502D01*
X160872969Y-84302091D01*
X160818400Y-84296500D01*
X159467600Y-84296500D01*
X159464354Y-84296837D01*
X159464350Y-84296837D01*
X159368692Y-84306762D01*
X159368688Y-84306763D01*
X159361834Y-84307474D01*
X159355298Y-84309655D01*
X159355296Y-84309655D01*
X159194054Y-84363450D01*
X159193470Y-84361700D01*
X159132701Y-84371040D01*
X159067837Y-84342174D01*
X159055790Y-84330469D01*
X158976253Y-84242134D01*
X158853311Y-84152811D01*
X158827094Y-84133763D01*
X158827093Y-84133762D01*
X158821752Y-84129882D01*
X158815724Y-84127198D01*
X158815722Y-84127197D01*
X158653319Y-84054891D01*
X158653318Y-84054891D01*
X158647288Y-84052206D01*
X158553887Y-84032353D01*
X158466944Y-84013872D01*
X158466939Y-84013872D01*
X158460487Y-84012500D01*
X158269513Y-84012500D01*
X158263061Y-84013872D01*
X158263056Y-84013872D01*
X158176112Y-84032353D01*
X158082712Y-84052206D01*
X158076682Y-84054891D01*
X158076681Y-84054891D01*
X157914278Y-84127197D01*
X157914276Y-84127198D01*
X157908248Y-84129882D01*
X157902907Y-84133762D01*
X157902906Y-84133763D01*
X157876689Y-84152811D01*
X157753747Y-84242134D01*
X157749329Y-84247041D01*
X157749325Y-84247045D01*
X157637680Y-84371040D01*
X157625960Y-84384056D01*
X157595788Y-84436316D01*
X157565961Y-84487977D01*
X157514578Y-84536970D01*
X157444864Y-84550405D01*
X157378953Y-84524018D01*
X157367824Y-84514149D01*
X157347408Y-84493768D01*
X157329303Y-84475695D01*
X157265419Y-84436316D01*
X157184968Y-84386725D01*
X157184966Y-84386724D01*
X157178738Y-84382885D01*
X157098995Y-84356436D01*
X157017389Y-84329368D01*
X157017387Y-84329368D01*
X157010861Y-84327203D01*
X157004025Y-84326503D01*
X157004022Y-84326502D01*
X156960969Y-84322091D01*
X156906400Y-84316500D01*
X155505600Y-84316500D01*
X155502354Y-84316837D01*
X155502350Y-84316837D01*
X155406692Y-84326762D01*
X155406688Y-84326763D01*
X155399834Y-84327474D01*
X155393298Y-84329655D01*
X155393296Y-84329655D01*
X155292001Y-84363450D01*
X155232054Y-84383450D01*
X155081652Y-84476522D01*
X154956695Y-84601697D01*
X154952855Y-84607927D01*
X154952854Y-84607928D01*
X154868411Y-84744920D01*
X154863885Y-84752262D01*
X154856952Y-84773165D01*
X154815270Y-84898834D01*
X154808203Y-84920139D01*
X154797500Y-85024600D01*
X154797500Y-85775400D01*
X154797837Y-85778646D01*
X154797837Y-85778650D01*
X154807629Y-85873020D01*
X154808474Y-85881166D01*
X154810133Y-85886140D01*
X154805008Y-85956311D01*
X154762375Y-86013082D01*
X154695817Y-86037792D01*
X154687019Y-86038100D01*
X153748928Y-86038100D01*
X153680807Y-86018098D01*
X153634314Y-85964442D01*
X153624210Y-85894168D01*
X153629335Y-85872433D01*
X153639632Y-85841389D01*
X153639632Y-85841387D01*
X153641797Y-85834861D01*
X153642946Y-85823653D01*
X153652172Y-85733598D01*
X153652500Y-85730400D01*
X153652500Y-85004600D01*
X153647684Y-84958185D01*
X153642238Y-84905692D01*
X153642237Y-84905688D01*
X153641526Y-84898834D01*
X153634486Y-84877731D01*
X153587868Y-84738002D01*
X153585550Y-84731054D01*
X153492478Y-84580652D01*
X153367303Y-84455695D01*
X153335865Y-84436316D01*
X153222968Y-84366725D01*
X153222966Y-84366724D01*
X153216738Y-84362885D01*
X153109977Y-84327474D01*
X153055389Y-84309368D01*
X153055387Y-84309368D01*
X153048861Y-84307203D01*
X153042025Y-84306503D01*
X153042022Y-84306502D01*
X152998969Y-84302091D01*
X152944400Y-84296500D01*
X151828500Y-84296500D01*
X151760379Y-84276498D01*
X151713886Y-84222842D01*
X151702500Y-84170500D01*
X151702500Y-84139528D01*
X151722502Y-84071407D01*
X151739405Y-84050433D01*
X152239433Y-83550405D01*
X152301745Y-83516379D01*
X152328528Y-83513500D01*
X152944400Y-83513500D01*
X152947646Y-83513163D01*
X152947650Y-83513163D01*
X153043308Y-83503238D01*
X153043312Y-83503237D01*
X153050166Y-83502526D01*
X153056702Y-83500345D01*
X153056704Y-83500345D01*
X153193389Y-83454743D01*
X153217946Y-83446550D01*
X153368348Y-83353478D01*
X153493305Y-83228303D01*
X153500445Y-83216720D01*
X153582275Y-83083968D01*
X153582276Y-83083966D01*
X153586115Y-83077738D01*
X153617907Y-82981887D01*
X153639632Y-82916389D01*
X153639632Y-82916387D01*
X153641797Y-82909861D01*
X153643285Y-82895345D01*
X153651317Y-82816944D01*
X153652500Y-82805400D01*
X153652500Y-82189528D01*
X153672502Y-82121407D01*
X153689405Y-82100433D01*
X154133433Y-81656405D01*
X154195745Y-81622379D01*
X154222528Y-81619500D01*
X154752263Y-81619500D01*
X154820384Y-81639502D01*
G37*
%TD.AperFunction*%
%TA.AperFunction,Conductor*%
G36*
X153276193Y-80140902D02*
G01*
X153322686Y-80194558D01*
X153332790Y-80264832D01*
X153303296Y-80329412D01*
X153297167Y-80335995D01*
X152358095Y-81275067D01*
X152295783Y-81309093D01*
X152224968Y-81304028D01*
X152179905Y-81275067D01*
X151240833Y-80335995D01*
X151206807Y-80273683D01*
X151211872Y-80202868D01*
X151254419Y-80146032D01*
X151320939Y-80121221D01*
X151329928Y-80120900D01*
X153208072Y-80120900D01*
X153276193Y-80140902D01*
G37*
%TD.AperFunction*%
%TA.AperFunction,Conductor*%
G36*
X158317186Y-74552902D02*
G01*
X158356498Y-74593066D01*
X158405287Y-74672683D01*
X158405291Y-74672688D01*
X158407987Y-74677088D01*
X158554250Y-74845938D01*
X158726126Y-74988632D01*
X158748464Y-75001685D01*
X158799445Y-75031476D01*
X158848169Y-75083114D01*
X158861240Y-75152897D01*
X158834509Y-75218669D01*
X158794055Y-75252027D01*
X158781607Y-75258507D01*
X158777474Y-75261610D01*
X158777471Y-75261612D01*
X158607100Y-75389530D01*
X158602965Y-75392635D01*
X158593934Y-75402085D01*
X158495412Y-75505183D01*
X158448629Y-75554138D01*
X158445715Y-75558410D01*
X158445714Y-75558411D01*
X158390983Y-75638644D01*
X158322743Y-75738680D01*
X158283649Y-75822902D01*
X158230872Y-75936601D01*
X158228688Y-75941305D01*
X158168989Y-76156570D01*
X158145251Y-76378695D01*
X158145548Y-76383848D01*
X158145548Y-76383851D01*
X158154153Y-76533090D01*
X158158110Y-76601715D01*
X158159247Y-76606761D01*
X158159248Y-76606767D01*
X158173824Y-76671444D01*
X158207222Y-76819639D01*
X158261949Y-76954416D01*
X158275985Y-76988982D01*
X158291266Y-77026616D01*
X158318332Y-77070784D01*
X158401561Y-77206601D01*
X158407987Y-77217088D01*
X158554250Y-77385938D01*
X158692941Y-77501081D01*
X158720882Y-77524278D01*
X158726126Y-77528632D01*
X158919000Y-77641338D01*
X158923825Y-77643180D01*
X158923826Y-77643181D01*
X158966629Y-77659526D01*
X159127692Y-77721030D01*
X159132760Y-77722061D01*
X159132763Y-77722062D01*
X159205911Y-77736944D01*
X159346597Y-77765567D01*
X159351772Y-77765757D01*
X159351774Y-77765757D01*
X159564673Y-77773564D01*
X159564677Y-77773564D01*
X159569837Y-77773753D01*
X159574957Y-77773097D01*
X159574959Y-77773097D01*
X159786288Y-77746025D01*
X159786289Y-77746025D01*
X159791416Y-77745368D01*
X159796366Y-77743883D01*
X160000429Y-77682661D01*
X160000434Y-77682659D01*
X160005384Y-77681174D01*
X160205994Y-77582896D01*
X160387860Y-77453173D01*
X160546096Y-77295489D01*
X160569647Y-77262715D01*
X160673435Y-77118277D01*
X160676453Y-77114077D01*
X160678746Y-77109437D01*
X160680446Y-77106608D01*
X160732674Y-77058518D01*
X160788451Y-77045500D01*
X161439938Y-77045500D01*
X161508059Y-77065502D01*
X161531486Y-77084927D01*
X161568716Y-77124296D01*
X161584315Y-77140791D01*
X161588341Y-77143869D01*
X161588342Y-77143870D01*
X161773072Y-77285107D01*
X161773076Y-77285110D01*
X161777092Y-77288180D01*
X161990954Y-77402852D01*
X162220398Y-77481856D01*
X162459522Y-77523160D01*
X162463481Y-77523340D01*
X162463483Y-77523340D01*
X162487173Y-77524416D01*
X162487194Y-77524416D01*
X162488593Y-77524480D01*
X163406917Y-77524480D01*
X163409425Y-77524278D01*
X163409430Y-77524278D01*
X163582783Y-77510331D01*
X163582788Y-77510330D01*
X163587824Y-77509925D01*
X163592732Y-77508720D01*
X163592735Y-77508719D01*
X163818570Y-77453248D01*
X163823484Y-77452041D01*
X163828136Y-77450066D01*
X163828140Y-77450065D01*
X164042201Y-77359201D01*
X164046859Y-77357224D01*
X164151557Y-77291292D01*
X164247921Y-77230608D01*
X164247924Y-77230606D01*
X164252200Y-77227913D01*
X164378176Y-77116850D01*
X164442500Y-77086806D01*
X164512858Y-77096307D01*
X164566910Y-77142339D01*
X164587500Y-77211365D01*
X164587500Y-78837972D01*
X164567498Y-78906093D01*
X164550595Y-78927067D01*
X163420067Y-80057595D01*
X163357755Y-80091621D01*
X163330972Y-80094500D01*
X154016344Y-80094500D01*
X153948223Y-80074498D01*
X153901730Y-80020842D01*
X153891626Y-79950568D01*
X153921120Y-79885988D01*
X153927249Y-79879405D01*
X155356021Y-78450633D01*
X155418333Y-78416607D01*
X155489148Y-78421672D01*
X155525431Y-78442644D01*
X155533240Y-78449104D01*
X155708595Y-78543918D01*
X155899025Y-78602866D01*
X155905150Y-78603510D01*
X155905151Y-78603510D01*
X156091150Y-78623059D01*
X156091152Y-78623059D01*
X156097279Y-78623703D01*
X156220158Y-78612520D01*
X156289664Y-78606195D01*
X156289665Y-78606195D01*
X156295805Y-78605636D01*
X156301719Y-78603895D01*
X156301721Y-78603895D01*
X156481121Y-78551094D01*
X156481120Y-78551094D01*
X156487040Y-78549352D01*
X156663701Y-78456996D01*
X156669873Y-78452034D01*
X156772446Y-78369563D01*
X156819059Y-78332085D01*
X156947196Y-78179377D01*
X157043231Y-78004689D01*
X157045093Y-77998820D01*
X157101644Y-77820552D01*
X157101645Y-77820549D01*
X157103508Y-77814675D01*
X157120910Y-77659526D01*
X157120910Y-76536153D01*
X157117128Y-76497576D01*
X157112530Y-76450688D01*
X157106375Y-76387916D01*
X157104594Y-76382017D01*
X157104593Y-76382012D01*
X157050539Y-76202977D01*
X157048758Y-76197078D01*
X156997212Y-76100133D01*
X156958065Y-76026508D01*
X156958063Y-76026505D01*
X156955171Y-76021066D01*
X156951281Y-76016296D01*
X156951278Y-76016292D01*
X156833073Y-75871359D01*
X156833070Y-75871356D01*
X156829178Y-75866584D01*
X156823351Y-75861763D01*
X156741391Y-75793960D01*
X156675580Y-75739516D01*
X156500225Y-75644702D01*
X156309795Y-75585754D01*
X156303670Y-75585110D01*
X156303669Y-75585110D01*
X156117670Y-75565561D01*
X156117668Y-75565561D01*
X156111541Y-75564917D01*
X155988662Y-75576100D01*
X155919156Y-75582425D01*
X155919155Y-75582425D01*
X155913015Y-75582984D01*
X155885473Y-75591090D01*
X155814481Y-75591136D01*
X155754729Y-75552792D01*
X155725194Y-75488230D01*
X155723900Y-75470217D01*
X155723900Y-75467944D01*
X155743902Y-75399823D01*
X155760805Y-75378849D01*
X156569849Y-74569805D01*
X156632161Y-74535779D01*
X156658944Y-74532900D01*
X158249065Y-74532900D01*
X158317186Y-74552902D01*
G37*
%TD.AperFunction*%
%TA.AperFunction,Conductor*%
G36*
X158317186Y-72012902D02*
G01*
X158356498Y-72053066D01*
X158405287Y-72132683D01*
X158405291Y-72132688D01*
X158407987Y-72137088D01*
X158554250Y-72305938D01*
X158726126Y-72448632D01*
X158748464Y-72461685D01*
X158799445Y-72491476D01*
X158848169Y-72543114D01*
X158861240Y-72612897D01*
X158834509Y-72678669D01*
X158794055Y-72712027D01*
X158781607Y-72718507D01*
X158777474Y-72721610D01*
X158777471Y-72721612D01*
X158636416Y-72827519D01*
X158602965Y-72852635D01*
X158599393Y-72856373D01*
X158495412Y-72965183D01*
X158448629Y-73014138D01*
X158445715Y-73018410D01*
X158445714Y-73018411D01*
X158351786Y-73156104D01*
X158296875Y-73201107D01*
X158247698Y-73211100D01*
X156360252Y-73211100D01*
X156351682Y-73210808D01*
X156305732Y-73207675D01*
X156305728Y-73207675D01*
X156298156Y-73207159D01*
X156290679Y-73208464D01*
X156290677Y-73208464D01*
X156254500Y-73214778D01*
X156239662Y-73217368D01*
X156233144Y-73218329D01*
X156220053Y-73219914D01*
X156181737Y-73224550D01*
X156181734Y-73224551D01*
X156174195Y-73225463D01*
X156167087Y-73228149D01*
X156160121Y-73229860D01*
X156154932Y-73231279D01*
X156148053Y-73233356D01*
X156140576Y-73234661D01*
X156133624Y-73237713D01*
X156133623Y-73237713D01*
X156086220Y-73258522D01*
X156080111Y-73261015D01*
X156031664Y-73279321D01*
X156031662Y-73279322D01*
X156024559Y-73282006D01*
X156018302Y-73286306D01*
X156011925Y-73289640D01*
X156007255Y-73292240D01*
X156001058Y-73295905D01*
X155994103Y-73298958D01*
X155988079Y-73303580D01*
X155988078Y-73303581D01*
X155946995Y-73335106D01*
X155941657Y-73338984D01*
X155898988Y-73368309D01*
X155898986Y-73368311D01*
X155892729Y-73372611D01*
X155887677Y-73378281D01*
X155887676Y-73378282D01*
X155854232Y-73415819D01*
X155849251Y-73421095D01*
X154614961Y-74655386D01*
X154608696Y-74661239D01*
X154568248Y-74696524D01*
X154548213Y-74725031D01*
X154534109Y-74745099D01*
X154530177Y-74750393D01*
X154493537Y-74797121D01*
X154490411Y-74804045D01*
X154486698Y-74810176D01*
X154484062Y-74814796D01*
X154480640Y-74821178D01*
X154476269Y-74827397D01*
X154461191Y-74866071D01*
X154454702Y-74882713D01*
X154452146Y-74888792D01*
X154427711Y-74942912D01*
X154426325Y-74950388D01*
X154424170Y-74957266D01*
X154422710Y-74962391D01*
X154420922Y-74969355D01*
X154418162Y-74976434D01*
X154417170Y-74983966D01*
X154417170Y-74983968D01*
X154410414Y-75035292D01*
X154409384Y-75041798D01*
X154398560Y-75100197D01*
X154398997Y-75107777D01*
X154398997Y-75107778D01*
X154400921Y-75141144D01*
X154401741Y-75155357D01*
X154401891Y-75157967D01*
X154402100Y-75165220D01*
X154402100Y-75700510D01*
X154382098Y-75768631D01*
X154328442Y-75815124D01*
X154258168Y-75825228D01*
X154195786Y-75797596D01*
X154125580Y-75739516D01*
X153950225Y-75644702D01*
X153759795Y-75585754D01*
X153753670Y-75585110D01*
X153753669Y-75585110D01*
X153567670Y-75565561D01*
X153567668Y-75565561D01*
X153561541Y-75564917D01*
X153438662Y-75576100D01*
X153369156Y-75582425D01*
X153369155Y-75582425D01*
X153363015Y-75582984D01*
X153348106Y-75587372D01*
X153345473Y-75588147D01*
X153274477Y-75588191D01*
X153214727Y-75549844D01*
X153185194Y-75485282D01*
X153183900Y-75467273D01*
X153183900Y-74705944D01*
X153203902Y-74637823D01*
X153220805Y-74616849D01*
X155807848Y-72029805D01*
X155870160Y-71995780D01*
X155896943Y-71992900D01*
X158249065Y-71992900D01*
X158317186Y-72012902D01*
G37*
%TD.AperFunction*%
%TD*%
M02*
